<svg xmlns="http://www.w3.org/2000/svg" xmlns:xlink="http://www.w3.org/1999/xlink" width="625" height="405.964" viewBox="0 0 625 405.964">
  <defs>
    <clipPath id="clip-path">
      <path id="Trazado_14834" data-name="Trazado 14834" d="M600.934,772.108c0-45.157-27.281-110.968,11.651-127.887,7.648-3.324,41.32-15.581,49.754-17.1,6.359-1.144,45.839-12.263,52.527-12.263,10.52,0,31.03,7,40.664,9.759,38.555,11.042,103.334,52.631,111.967,92.145,1.659,7.594-57.587,117.528-57.587,125.619,0,5.057-23.787,7.036-27.379,10.4-13.482,12.616-17.46,24.057-71.663,29.261-17.4,1.67-34-4.085-48.668-11.341l-6.909-3.725-9.039-5.361-7.993-6.963s-10.293,30.784-10.634,29.082-5.482-30.819-5.482-30.819l6.2-8.19A109.509,109.509,0,0,1,600.934,772.108Z" fill="none"/>
    </clipPath>
  </defs>
  <g id="Grupo_3424" data-name="Grupo 3424" transform="translate(-411.217 -614.86)">
    <rect id="Rectángulo_2742" data-name="Rectángulo 2742" width="524.466" height="138.858" rx="12" transform="translate(461.46 848.43)" fill="#414651" opacity="0.2"/>
    <g id="Grupo_3423" data-name="Grupo 3423">
      <path id="Trazado_14786" data-name="Trazado 14786" d="M711.961,637.351q-6.59,0-13.147.646t-13.02,1.931q-6.462,1.285-12.768,3.2t-12.393,4.435q-6.087,2.522-11.9,5.627t-11.289,6.767q-5.48,3.661-10.573,7.841t-9.752,8.839q-4.659,4.66-8.84,9.753t-7.84,10.572q-3.661,5.479-6.767,11.29t-5.628,11.9q-2.521,6.087-4.434,12.393t-3.2,12.768q-1.285,6.462-1.931,13.02t-.646,13.146q0,6.59.646,13.147t1.931,13.02q1.285,6.462,3.2,12.768t4.434,12.393q2.522,6.087,5.628,11.9t6.767,11.29q3.66,5.48,7.84,10.572t8.84,9.753q4.659,4.659,9.752,8.84T637.445,883q5.478,3.661,11.289,6.767t11.9,5.628q6.087,2.521,12.393,4.434t12.768,3.2q6.462,1.285,13.02,1.932t13.147.646q6.588,0,13.146-.646t13.02-1.932q6.463-1.284,12.768-3.2t12.393-4.434q6.088-2.522,11.9-5.628T786.477,883q5.478-3.66,10.572-7.84t9.753-8.84q4.659-4.659,8.839-9.753t7.841-10.572q3.66-5.478,6.767-11.29t5.627-11.9q2.522-6.089,4.435-12.393t3.2-12.768q1.286-6.464,1.931-13.02t.646-13.147q0-6.588-.646-13.146t-1.931-13.02q-1.285-6.464-3.2-12.768t-4.435-12.393q-2.521-6.088-5.627-11.9t-6.767-11.29q-3.661-5.478-7.841-10.572t-8.839-9.753q-4.66-4.659-9.753-8.839t-10.572-7.841q-5.48-3.66-11.29-6.767t-11.9-5.627q-6.087-2.521-12.393-4.435t-12.768-3.2q-6.462-1.285-13.02-1.931T711.961,637.351Z" transform="translate(2)" fill="#414651"/>
      <circle id="Elipse_278" data-name="Elipse 278" cx="119.699" cy="119.699" r="119.699" transform="translate(593.17 652.869)" fill="#fff"/>
      <g id="Grupo_3373" data-name="Grupo 3373" transform="translate(1)">
        <g id="Grupo_3352" data-name="Grupo 3352">
          <g id="Grupo_3351" data-name="Grupo 3351">
            <g id="Grupo_3350" data-name="Grupo 3350">
              <circle id="Elipse_279" data-name="Elipse 279" cx="109.934" cy="109.934" r="109.934" transform="translate(555.398 772.108) rotate(-45)" fill="#e6b54a"/>
            </g>
          </g>
        </g>
        <g id="Grupo_3372" data-name="Grupo 3372">
          <g id="Grupo_3371" data-name="Grupo 3371" clip-path="url(#clip-path)">
            <g id="Grupo_3370" data-name="Grupo 3370">
              <path id="Trazado_14787" data-name="Trazado 14787" d="M615.667,671.467a2.892,2.892,0,0,1,2.538,3.078V669.62c0-1.7.721-3.077,2.257-3.077s2.256,1.377,2.256,3.077v-4.308a2.831,2.831,0,1,1,5.64,0v3.693a2.831,2.831,0,1,1,5.64,0v22.957l5.708-5.334a3.271,3.271,0,0,1,4.6-.162l.067.075a3.277,3.277,0,0,1-.483,4.588l-9.378,11.732c-2.308,3.617-5.4,7.387-10.963,7.387a10.431,10.431,0,0,1-10.425-10.465V674.545A2.893,2.893,0,0,1,615.667,671.467Z" fill="#e4a083"/>
              <g id="Grupo_3353" data-name="Grupo 3353">
                <path id="Trazado_14788" data-name="Trazado 14788" d="M631.362,720.273l.651-11.589s-9.874-4.546-19.335-.38l-.412,11.429Z" fill="#c7f8fa"/>
                <path id="Trazado_14789" data-name="Trazado 14789" d="M675.706,729.422s-10.374,4.655-42.463,28.4c0,0,.833-28.958.38-39.78,0,0-7.06-3.544-22.572-.794,0,0-5.1,45.314,1.037,59.774,0,0,6.54,24.882,62.379-7.416C674.467,769.6,675.568,745.628,675.706,729.422Z" fill="#c9d3e3"/>
              </g>
              <ellipse id="Elipse_280" data-name="Elipse 280" cx="79.786" cy="9.588" rx="79.786" ry="9.588" transform="translate(626.573 1082.447)" opacity="0.1"/>
              <g id="Grupo_3354" data-name="Grupo 3354">
                <path id="Trazado_14790" data-name="Trazado 14790" d="M736.647,1088.98H768.8s2.109-8.579-4.6-19.859l-21.662.286S736.083,1078.263,736.647,1088.98Z" fill="#5f4638"/>
                <rect id="Rectángulo_2743" data-name="Rectángulo 2743" width="32.148" height="5.076" transform="translate(736.647 1088.98)" fill="#785747"/>
                <path id="Trazado_14791" data-name="Trazado 14791" d="M765.069,1079.974c0,2.2-5.43,3.984-12.126,3.984s-12.126-1.784-12.126-3.984,5.429-3.982,12.126-3.982S765.069,1077.775,765.069,1079.974Z" fill="#785747"/>
              </g>
              <g id="Grupo_3355" data-name="Grupo 3355">
                <path id="Trazado_14792" data-name="Trazado 14792" d="M704.861,1067.151s2.083,12.8.2,21.829H644.714s-1.846-13.165,24.474-13.134l16.885-11.414Z" fill="#5f4638"/>
                <path id="Trazado_14793" data-name="Trazado 14793" d="M705.063,1094.056H685.614l-.246-3.534a61.1,61.1,0,0,1-20.159,3.386c-5.582,0-20.495.2-20.495.2v-5.13h60.349Z" fill="#785747"/>
                <path id="Trazado_14794" data-name="Trazado 14794" d="M667.488,1075.891s-.89,9.328-21.779,8.885C645.709,1084.776,648.586,1076.285,667.488,1075.891Z" fill="#785747"/>
              </g>
              <path id="Trazado_14795" data-name="Trazado 14795" d="M674.828,858.864,673.7,1069.121s16.45,8.25,31.96,1.8l5.926-175.031,4.58-.22,22.395,175.263s11.844,5.343,29.328-1.1L750.141,858.864Z" fill="#363c41"/>
              <path id="Trazado_14796" data-name="Trazado 14796" d="M674.133,988.332l-.433,80.816s16.45,8.236,31.96,1.786l3.66-108.117C700.639,997.349,681.775,992.124,674.133,988.332Z" fill="#252a2c"/>
              <path id="Trazado_14797" data-name="Trazado 14797" d="M759.952,975.536c-11.617,31.5-26.985,11.288-33.579.021l12.188,95.377s11.844,5.369,29.328-1.077Z" fill="#252a2c"/>
              <path id="Trazado_14798" data-name="Trazado 14798" d="M738.834,724.736c-11.41-2.486-25.571-2.557-40.046-.28.092,9.445.366,50.23,9.659,82.648C708.447,807.1,734.7,746.483,738.834,724.736Z" fill="#c7f8fa"/>
              <path id="Trazado_14799" data-name="Trazado 14799" d="M721.813,775.247l-1.8-25.665,3.135-3.912.954,1.027a44.847,44.847,0,0,0,13.637-16.446c.375-1.486.859-4.261,1.1-5.515-11.162-2.432-24.967-2.484-39.106-.413.4,4.665,1.844,12.932,6.934,19.483l1.218-1.6,4.7,6.581-7.877,42.6c1.048,5.342,2.282,10.631,3.74,15.713C708.447,807.1,714.85,792.563,721.813,775.247Z" fill="#9eccca"/>
              <path id="Trazado_14800" data-name="Trazado 14800" d="M707.359,737.546l5.318,7.882-12.785,57.244,8.577,11.109,8.886-8.065.469-60.006,4.892-5.828-6.41-9.319Z" fill="#436baa"/>
              <path id="Trazado_14801" data-name="Trazado 14801" d="M758.142,954l-8-95.134H674.828l-.476,88.678a195.545,195.545,0,0,0,35.274,6.271l1.96-57.924,4.58-.22,7.548,59.058A300.725,300.725,0,0,0,758.142,954Z" fill="#252a2c"/>
              <path id="Trazado_14802" data-name="Trazado 14802" d="M763.944,729.473a153.936,153.936,0,0,0-27.517-5.02c-4.133,21.747-27.98,82.651-27.98,82.651-9.293-32.418-7.355-74.041-7.447-83.485-7.3,1.148-18.019,2.4-25.294,5.8-6.926,94.506-3.327,107.446-10.374,208.065,0,0,14.48,6.476,36.535,8.449l4.069-32.175,6.927,32.175c13.127-.61,37.48-2.995,52.771-8.449,0,0-4.094-134.589-3.6-163.939C762.029,773.548,761.795,746.722,763.944,729.473Z" fill="#e1eafc"/>
              <path id="Trazado_14803" data-name="Trazado 14803" d="M753.991,842.014a24.592,24.592,0,0,1-7.026-3.788s-2.51,2.088-1.541,4.84a3.837,3.837,0,0,0,.179.429l-12.561,4.949s-2.618,2.03,0,3.864,6.638.846,6.638.846l-4.274,6.263a2.188,2.188,0,0,0,1.031,3.466s3,5.995,9.327,1.623l.9.884s2,2.569,5.405.383,6.954-3.661,11.49-2.888c-.174-6.812-.344-13.713-.506-20.523C760.229,842.59,756.266,842.731,753.991,842.014Z" fill="#c9d3e3"/>
              <path id="Trazado_14804" data-name="Trazado 14804" d="M692.593,754.833l-4.326,3.849s9.711,37.473,19.669,57.2c0,0,26.519-35.551,32.55-53.176l-4.463-5.546,9.387-.658s.987-19.465-.912-31.063c-2.568-.776-5.274-1.5-8.071-2.109-4.133,21.747-27.98,83.779-27.98,83.779-9.293-32.418-7.355-74.041-7.447-83.485-2.172.341-4.5.694-6.885,1.109-.989,3.56-5.007,20.69-6.723,27.466Z" fill="#c9d3e3"/>
              <path id="Trazado_14805" data-name="Trazado 14805" d="M693.883,754.387l-4.035,3.666s10.789,42.439,18.542,57.824c0,0,22.381-37.49,29.428-53.873l-3.368-5.345,7.387-2.271s3.109-16.962,2.279-29.441a80.959,80.959,0,0,0-7.786-2.456C732.2,744.237,708.447,807.1,708.447,807.1c-9.293-32.418-7.147-74.933-7.237-84.377a51.781,51.781,0,0,0-7.1,2l-5.188,24.841Z" fill="#eaf2ff"/>
              <g id="Grupo_3359" data-name="Grupo 3359">
                <g id="Grupo_3356" data-name="Grupo 3356">
                  <path id="Trazado_14806" data-name="Trazado 14806" d="M749.039,793.781a8.043,8.043,0,1,0-8.771,7.239A8.042,8.042,0,0,0,749.039,793.781Z" fill="#b6baba"/>
                  <path id="Trazado_14807" data-name="Trazado 14807" d="M745.389,793.432a4.376,4.376,0,1,0-4.773,3.939A4.374,4.374,0,0,0,745.389,793.432Z" fill="#8f8f8f"/>
                </g>
                <rect id="Rectángulo_2744" data-name="Rectángulo 2744" width="4.512" height="2.256" transform="translate(740.486 789.044) rotate(-82.396)" fill="#8f8f8f"/>
                <g id="Grupo_3357" data-name="Grupo 3357">
                  <path id="Trazado_14808" data-name="Trazado 14808" d="M699.121,790.63c-.3-.061-7.3-1.537-11.043-4.054-.809-.543-2.7-1.815-4.186-18.8-.712-8.161-.986-16.129-.989-16.209l2.256-.076c.5,14.935,2.243,31.881,4.177,33.215,3.385,2.273,10.176,3.7,10.244,3.718Z" fill="#878787"/>
                </g>
                <g id="Grupo_3358" data-name="Grupo 3358">
                  <path id="Trazado_14809" data-name="Trazado 14809" d="M681.334,792l-.882-2.077c.075-.031,7.338-3.118,9.362-4.205,1.32-1.871,5.532-18.565,8.87-33.526l2.2.491c-.019.083-1.875,8.394-3.942,16.728-4.292,17.311-5.228,17.832-5.914,18.213C689.09,788.706,681.65,791.868,681.334,792Z" fill="#878787"/>
                </g>
                <path id="Trazado_14810" data-name="Trazado 14810" d="M736.936,721.722c-4.2-5.249-9.967-8.192-17.145-8.784-9.8-.79-17.744,3.925-22.987,13.637a48.405,48.405,0,0,0-4.71,13.48,8.407,8.407,0,0,0-5.8,2.214c-3.8,3.538-3.7,10.005-3.694,10.279l2.819-.065c-.034-1.511.4-5.921,2.8-8.149a6,6,0,0,1,4.93-1.425,5.519,5.519,0,0,1,4.348,2.239c2.109,3.1.617,8.4.6,8.452l2.708.79c.078-.269,1.88-6.612-.973-10.819a7.793,7.793,0,0,0-4.917-3.218,45.988,45.988,0,0,1,4.407-12.5c4.737-8.732,11.549-12.8,20.244-12.1,6.448.517,11.419,3.052,15.171,7.736,8.26,10.314,10.228,31.32,5.852,62.434l2.792.393C747.932,753.948,745.825,732.821,736.936,721.722Z" fill="#505050"/>
                <path id="Rectángulo_2745" data-name="Rectángulo 2745" d="M1.6,0H2.35a1.6,1.6,0,0,1,1.6,1.6V2.914a1.6,1.6,0,0,1-1.6,1.6H1.6A1.6,1.6,0,0,1,0,2.913V1.6A1.6,1.6,0,0,1,1.6,0Z" transform="translate(697.659 790.908) rotate(-77.094)" fill="#b6baba"/>
                <path id="Rectángulo_2746" data-name="Rectángulo 2746" d="M1.6,0H2.913a1.6,1.6,0,0,1,1.6,1.6v.748a1.6,1.6,0,0,1-1.6,1.6H1.6A1.6,1.6,0,0,1,0,2.35V1.6A1.6,1.6,0,0,1,1.6,0Z" transform="matrix(0.959, -0.283, 0.283, 0.959, 678.164, 789.775)" fill="#b6baba"/>
              </g>
              <g id="Grupo_3360" data-name="Grupo 3360">
                <path id="Trazado_14811" data-name="Trazado 14811" d="M707.88,717.765l-.384,13.953,23.116.636.5-18.153A45.494,45.494,0,0,1,707.88,717.765Z" fill="#e4a083"/>
                <path id="Trazado_14812" data-name="Trazado 14812" d="M731.111,714.2l.384-13.983-23.116-.636-.5,18.183A45.494,45.494,0,0,0,731.111,714.2Z" fill="#d78b73"/>
              </g>
              <path id="Trazado_14813" data-name="Trazado 14813" d="M707.839,719.222s1.068,8.064,8.467,11.341c0,0,13.771-2.355,14.742-11.358l4.975,6.043s-2.283,13.624-12.955,17.6L716.4,732.681l-9.067,8.39s-6.314-10.47-5.6-17.028Z" fill="#b7f6f6"/>
              <path id="Trazado_14814" data-name="Trazado 14814" d="M725.589,878.846s15.652.752,26.062-1.88c0,0,.916,25.11.023,30.6l-12.848,5.494-13.237-5.494S727.469,884.486,725.589,878.846Z" fill="#eaf2ff"/>
              <path id="Trazado_14815" data-name="Trazado 14815" d="M666.327,876.99s13.777,1.426,16.6,1.614c0,0-1.5,24.156-.564,28.292l-11.988,2.289L666.3,905.4S663.843,889.421,666.327,876.99Z" fill="#eaf2ff"/>
              <g id="Grupo_3361" data-name="Grupo 3361">
                <path id="Trazado_14816" data-name="Trazado 14816" d="M768.881,841.894l-5.747-2.258-3.514,1.65c-3.763-.282-5.859-2.205-7.671-2.049a15.731,15.731,0,0,1-4.984-1.011c-1.013,2.826,2.759,4.678,2.759,4.678-.255.011-.509.019-.766.029-.627.024-1.256.045-1.884.072-.8.034-1.6.054-2.4.091-.775.038-1.55.044-2.325.094a13.443,13.443,0,0,0-1.79.178,7.637,7.637,0,0,0-1.733.651c-.707.33-4.28,2.665-4.9,2.973-.29.144-.889.438-.889.44a2.7,2.7,0,0,0,.57,2.228c.964,1.054,2.732.6,3.6.228a16.08,16.08,0,0,0,2.07-1.207,1.891,1.891,0,0,1,1.342-.552,16.064,16.064,0,0,1,1.771-.026q1.922-.035,3.846-.046l.877-.006s-5.622,2.5-7.33,3.46c-1.278.717-4.237,5.371-4.237,5.371-2.147,3.332,2.47,3.3,2.47,3.3a1.886,1.886,0,0,0-.263,1.177,1.167,1.167,0,0,0,.582.645,2.836,2.836,0,0,0,1.33.337,4.456,4.456,0,0,0,2.437-.441,5.626,5.626,0,0,0,.608-.389c.192-.138.378-.287.562-.439.234-.194.458-.4.682-.6a21.932,21.932,0,0,0,2-2.022c.074-.089.225-.369.336-.4l4.5-1.372c-1.336,1.214-2.251,4.388-4.026,6.17a4.279,4.279,0,0,0-.726.911,1.462,1.462,0,0,0-.215,1.182c.149.385.544.411.846.453a4.712,4.712,0,0,0,2.8-.555,5.939,5.939,0,0,0,1.272-.884,6.634,6.634,0,0,0,.8-.858,3.757,3.757,0,0,0,.314-.435c2.025-3.754,4.742-6.049,9.2-4.963,6.418,1.566,8.836-8.024,8.836-8.024Z" fill="#e4a083"/>
                <path id="Trazado_14817" data-name="Trazado 14817" d="M759.124,840.171c3.12-3.908,4.908-5.353,7.887-9.73,5.859,5.38,6.311,5.771,13,12.48a87.729,87.729,0,0,1-8.953,8.993C762.529,848.586,759.124,840.171,759.124,840.171Z" fill="#c7f8fa"/>
                <path id="Trazado_14818" data-name="Trazado 14818" d="M763.944,729.473s31.924,18.563,50.84,68.541c0,0,3.364,16.562-35.831,48.019,0,0-8.433-2.018-15.219-13.016l22.481-37.338L760.2,767.072S753.722,743.574,763.944,729.473Z" fill="#e1eafc"/>
              </g>
              <g id="Grupo_3369" data-name="Grupo 3369">
                <path id="Trazado_14819" data-name="Trazado 14819" d="M689.892,664l-.269-2.042s-5.8-.87-7.967-5.476c0,0,3.348,1.692,4.118-.658s-9.053-48.082,41.722-31.02c0,0,29.269,0,25.328,30.27,0,0-1.538,7.047-5.141,19.566L727.5,686.559Z" fill="#4a332b"/>
                <path id="Trazado_14820" data-name="Trazado 14820" d="M723.675,648.912c11.211,2.365,22.527,1.03,29.495-.321a25.711,25.711,0,0,0-2.485-10.7c-4.795,5-14.562,11.224-30.394,6.932-17.236-4.672-19.715-16.838-19.824-22.927-9.941,2.668-13.437,10.863-14.536,18.545C701.621,651.3,723.675,648.912,723.675,648.912Z" fill="#5e443c"/>
                <path id="Trazado_14821" data-name="Trazado 14821" d="M736.512,651.952,714.34,648.21c-.969,11.471-16.985,9.491-16.985,9.491a12.239,12.239,0,0,1-15.7-1.222c2.162,4.606,7.967,5.476,7.967,5.476l.269,2.042,37.6,22.562,20.187-11.922c1.2-4.182,2.176-7.75,2.938-10.652C743.054,661.134,736.512,651.952,736.512,651.952Z" fill="#3b2923"/>
                <path id="Trazado_14822" data-name="Trazado 14822" d="M744.294,671.984l-4.005,4.588c-.764-1.814-3.38-10.079-3.17-12.044,1.88-17.731-6.1-19.987-6.1-19.987a64.15,64.15,0,0,0-11.837-3.783c-.117.062-5.836,3.177-4.719,8.295,1.46,6.7-3.719,12.089-10.254,11.82a20.332,20.332,0,0,1-5.832-1.01,15.685,15.685,0,0,1-7.759,2.1,11.978,11.978,0,0,1-.727,2.037c-.122,9.8.033,28.312,6.488,37.838,2.875,4.242,6.508,7.8,12.6,8.757,26.556,4.158,33.38-21.822,33.38-21.822s8.324,2.218,10.02-10.051C753.791,668.557,744.294,671.984,744.294,671.984Z" fill="#e4a083"/>
                <path id="Trazado_14823" data-name="Trazado 14823" d="M699.239,663.033s12.773,4.28,17.315-5.026-2.89-10.787,4.5-14.782a45.76,45.76,0,0,1,12.115,2.7,5.93,5.93,0,0,0-2.152-1.383,64.15,64.15,0,0,0-11.837-3.783c-.117.062-5.836,3.177-4.719,8.295,1.46,6.7-3.719,12.089-10.254,11.82a20.332,20.332,0,0,1-5.832-1.01,15.685,15.685,0,0,1-7.759,2.1,11.978,11.978,0,0,1-.727,2.037c0,.083,0,.172,0,.256C692.707,664.368,696.482,664.232,699.239,663.033Z" fill="#d78b73"/>
                <g id="Grupo_3362" data-name="Grupo 3362">
                  <path id="Trazado_14824" data-name="Trazado 14824" d="M712.6,688.154c-5.135,2.076-7.9-.341-8.109-2.77a3.482,3.482,0,0,1,2.282-3.582c3.129-1.222,5.334-6.033,5.356-6.082h0a10.317,10.317,0,0,1-5.07,7.572c-.859.5-1.393,1.027-1.328,1.809.115,1.361,2.083,3.395,6.869,3.053Z" fill="#c47b66"/>
                </g>
                <g id="Grupo_3363" data-name="Grupo 3363">
                  <path id="Trazado_14825" data-name="Trazado 14825" d="M693.938,663.4l-.224-1.546a40.386,40.386,0,0,1,11.853-.945l.055,2.425A51.941,51.941,0,0,0,693.938,663.4Z" fill="#4a332b"/>
                </g>
                <g id="Grupo_3364" data-name="Grupo 3364">
                  <path id="Trazado_14826" data-name="Trazado 14826" d="M730.5,664.774c-4.157-1.611-11.86-1.911-11.933-1.927l.507-2.211c.3.062,7.289.3,11.945,2.793Z" fill="#4a332b"/>
                </g>
                <path id="Trazado_14827" data-name="Trazado 14827" d="M740.346,685.709c-2.256,6.58-10.668,22.8-28.815,21.808-9.819-.535-14.776-7.045-18.049-11.568a26.92,26.92,0,0,0,2.9,5.886c2.875,4.242,6.508,7.8,12.6,8.757,26.556,4.158,33.38-21.822,33.38-21.822s6.372,1.779,9.192-6.338C746.6,690.667,740.346,685.709,740.346,685.709Z" fill="#d78b73"/>
                <g id="Grupo_3365" data-name="Grupo 3365">
                  <path id="Trazado_14828" data-name="Trazado 14828" d="M721.53,691.725s-9.664,1.974-18.649,0c0,0,1.59,8.265,9.324,8.248C719.5,699.957,721.446,693.322,721.53,691.725Z" fill="#a83434"/>
                  <path id="Trazado_14829" data-name="Trazado 14829" d="M712,695.673c-5.944,0-7.689-2.466-8.438-3.809,6.976,1.377,12.6.554,17.5-.051C720.527,693.3,717.6,695.673,712,695.673Z" fill="#fff"/>
                </g>
                <g id="Grupo_3366" data-name="Grupo 3366">
                  <path id="Trazado_14830" data-name="Trazado 14830" d="M702.33,676.487c-3.055-3.169-6.966-.939-7.005-.916l-.966-1.992a7.7,7.7,0,0,1,9.382,1.268Z" fill="#4a332b"/>
                </g>
                <g id="Grupo_3367" data-name="Grupo 3367">
                  <path id="Trazado_14831" data-name="Trazado 14831" d="M720.937,676.487c3.352-3.169,7.646-.939,7.689-.916l1.06-1.992c-1.982-1.055-6.685-2.148-10.3,1.268Z" fill="#4a332b"/>
                </g>
                <g id="Grupo_3368" data-name="Grupo 3368">
                  <path id="Trazado_14832" data-name="Trazado 14832" d="M736.78,666.2a21.657,21.657,0,0,1,10.9,5.23,7.728,7.728,0,0,0-3.389.555,39.944,39.944,0,0,0-7.446-2.674S735.268,667.271,736.78,666.2Z" fill="#322e2c"/>
                  <image id="Rectángulo_2747" data-name="Rectángulo 2747" width="21" height="17" transform="translate(687.927 666.289)" xlink:href="Grupo%203424-image.png"/>
                  <image id="Rectángulo_2748" data-name="Rectángulo 2748" width="21" height="17" transform="translate(714.927 666.289)" xlink:href="Grupo%203424-image2.png"/>
                  <path id="Trazado_14833" data-name="Trazado 14833" d="M736.829,667.261l-.049-1.062-1.105-.061c-1.383-.078-2.783-.117-4.161-.117A58.842,58.842,0,0,0,714.9,668.11l-.519.167a11.961,11.961,0,0,0-5.324-.119l-.149-.048a58.846,58.846,0,0,0-16.612-2.089c-1.377,0-2.777.039-4.16.117l-1.106.061-.048,1.062c-.028.611-.6,14.967,7.223,15.649,2.044.178,4.161.343,5.8.343h0c2.477,0,4.422-.335,5.863-1.97,2.356-2.673,3.315-7.491,3.677-10.134a15.307,15.307,0,0,1,4.724,0c.363,2.642,1.321,7.46,3.677,10.132,1.441,1.635,3.386,1.97,5.862,1.97h0c1.637,0,3.754-.165,5.8-.343C737.425,682.228,736.857,667.872,736.829,667.261ZM704,679.762c-.634.72-1.491,1.136-3.991,1.136-1.244,0-2.859-.1-5.575-.333-4.161-.363-5.018-8.085-5.017-12.13.964-.039,1.931-.059,2.886-.059a61.484,61.484,0,0,1,14.913,1.71C706.923,672.641,706.01,677.477,704,679.762Zm25.389.8c-2.717.237-4.332.333-5.576.333-2.5,0-3.357-.416-3.992-1.136-2.013-2.285-2.927-7.121-3.215-9.676a61.481,61.481,0,0,1,14.912-1.71c.956,0,1.923.02,2.888.059C734.4,672.48,733.545,680.2,729.385,680.565Z" fill="#322e2c"/>
                </g>
              </g>
            </g>
          </g>
        </g>
      </g>
    </g>
    <text id="Apreciado_aprendiz_recordemos:_Quiénes_pertenecen_al_Régimen_Subsidiado_" data-name="Apreciado aprendiz, recordemos:
¿Quiénes pertenecen al Régimen Subsidiado?
" transform="translate(411.217 919.824)" fill="#444242" font-size="16" font-family="OpenSans, Open Sans"><tspan x="188.461" y="17">Apreciado aprendiz, recordemos:</tspan><tspan x="143.34" y="39">¿Quiénes pertenecen al Régimen Subsidiado?</tspan><tspan font-family="Open Sans" font-weight="700"><tspan x="312.266" y="61"></tspan></tspan></text>
  </g>
</svg>
