<svg xmlns="http://www.w3.org/2000/svg" xmlns:xlink="http://www.w3.org/1999/xlink" width="803.116" height="293.773" viewBox="0 0 803.116 293.773">
  <defs>
    <clipPath id="clip-path">
      <rect width="803.116" height="293.773" fill="none"/>
    </clipPath>
    <clipPath id="clip-path-2">
      <rect id="Rectángulo_2159" data-name="Rectángulo 2159" width="57.898" height="132.681" transform="matrix(0.161, -0.987, 0.987, 0.161, 3758.361, 3341.313)" fill="none"/>
    </clipPath>
  </defs>
  <g id="Cuadrícula_de_repetición_1" data-name="Cuadrícula de repetición 1" clip-path="url(#clip-path)">
    <g id="Grupo_3432" data-name="Grupo 3432" transform="translate(-317.222 -3194.041)">
      <rect id="Rectángulo_2144" data-name="Rectángulo 2144" width="803.116" height="293.773" transform="translate(317.222 3194.041)" fill="#ffe2ae"/>
      <g id="Grupo_1806" data-name="Grupo 1806" transform="translate(-3071.29)">
        <path id="Trazado_11048" data-name="Trazado 11048" d="M3808.3,3281.886v9.041l30.907,5.251c-.017-3.391-.007-30.524,4.75-32.2A61.494,61.494,0,0,0,3808.3,3281.886Z" fill="#b1866c"/>
        <path id="Trazado_11049" data-name="Trazado 11049" d="M3815.406,3292.135l.3.019.2-14.542-.613.416,0,14.089Z" fill="#886350"/>
        <path id="Trazado_11050" data-name="Trazado 11050" d="M3828.881,3294.424l.158-24.986-.813.458-.06,24.406Z" fill="#886350"/>
        <path id="Trazado_11051" data-name="Trazado 11051" d="M3899.611,3283.014l6.033-36.329v36.329Z" fill="#b1866c"/>
        <rect id="Rectángulo_2145" data-name="Rectángulo 2145" width="15.83" height="49.97" transform="translate(3905.644 3240.608)" fill="#eee9e9"/>
        <rect id="Rectángulo_2146" data-name="Rectángulo 2146" width="76.656" height="60.902" transform="translate(3921.474 3235.526)" fill="#45423f"/>
        <g id="Grupo_1792" data-name="Grupo 1792">
          <path id="Trazado_11052" data-name="Trazado 11052" d="M3936.1,3279.033a1.651,1.651,0,0,1,1.651,1.652v6.954a1.651,1.651,0,0,1-1.651,1.651h0a1.652,1.652,0,0,1-1.651-1.651v-6.954a1.652,1.652,0,0,1,1.651-1.652Z" fill="#3e3c3b"/>
          <path id="Trazado_11053" data-name="Trazado 11053" d="M3936.1,3284.5a3.039,3.039,0,1,1-3.037,3.04A3.04,3.04,0,0,1,3936.1,3284.5Z" fill="#272624"/>
        </g>
        <g id="Grupo_1793" data-name="Grupo 1793">
          <path id="Trazado_11054" data-name="Trazado 11054" d="M3946.683,3279.033a1.652,1.652,0,0,1,1.652,1.652v6.954a1.652,1.652,0,0,1-1.652,1.651h0a1.651,1.651,0,0,1-1.651-1.651v-6.954a1.652,1.652,0,0,1,1.651-1.652Z" fill="#3e3c3b"/>
          <path id="Trazado_11055" data-name="Trazado 11055" d="M3946.683,3284.5a3.039,3.039,0,1,1-3.037,3.04A3.04,3.04,0,0,1,3946.683,3284.5Z" fill="#272624"/>
        </g>
        <g id="Grupo_1794" data-name="Grupo 1794">
          <path id="Trazado_11056" data-name="Trazado 11056" d="M3957.263,3279.033a1.653,1.653,0,0,1,1.652,1.652v6.954a1.653,1.653,0,0,1-1.652,1.651h0a1.652,1.652,0,0,1-1.652-1.651v-6.954a1.652,1.652,0,0,1,1.652-1.652Z" fill="#3e3c3b"/>
          <path id="Trazado_11057" data-name="Trazado 11057" d="M3957.263,3284.5a3.039,3.039,0,1,1-3.038,3.04A3.039,3.039,0,0,1,3957.263,3284.5Z" fill="#272624"/>
        </g>
        <path id="Trazado_11058" data-name="Trazado 11058" d="M3702.609,3414.456s13.407-.065,21.562-3.871,13.194-13.67,16.9-18.111,5.772-6.522,10.148-6.329,3.184,2.312,2.926,3.178c0,0,5.18-6.233,10.022-6.008,3.951.184,5.6,1.6,4.888,2.884a12.172,12.172,0,0,1,8.322-2.264c4.826.542,7.5,2.131,5.651,4.845s-9.8,15.994-15.954,22.295c-3.4,3.48-14.286,12.144-14.286,12.144l-30.306,3.02-15.208-1.9Z" fill="#b1866c"/>
        <path id="Trazado_11059" data-name="Trazado 11059" d="M3736.752,3363.021s-4.958,7.776-6.472,6.993-8.038-5.479-7.882-6.212,6.366-9.29,7.176-9.76,8.951,5.655,8.118,7.256S3736.752,3363.021,3736.752,3363.021Z" fill="#f4ddbb"/>
        <path id="Trazado_11060" data-name="Trazado 11060" d="M3730.541,3368.934c-1.066.124-6.2-3.523-7.806-5.785-.455.686-.3.5-.337.653-.156.733,6.368,5.428,7.882,6.212s6.472-6.993,6.472-6.993.1-.124.94-1.723a.933.933,0,0,0-.081-.8C3737.536,3360.653,3732.957,3368.657,3730.541,3368.934Z" fill="#b1866c"/>
        <path id="Trazado_11061" data-name="Trazado 11061" d="M3663.189,3435.556v-36.329h6.033l-6.033,36.329" fill="#b1866c"/>
        <path id="Trazado_11062" data-name="Trazado 11062" d="M3647.359,3441.633v-49.97h15.831v49.97" fill="#eee9e9"/>
        <path id="Trazado_11063" data-name="Trazado 11063" d="M3570.7,3446.715v-60.9h76.656v60.9" fill="#2d3160"/>
        <g id="Grupo_1798" data-name="Grupo 1798">
          <g id="Grupo_1795" data-name="Grupo 1795">
            <path id="Trazado_11064" data-name="Trazado 11064" d="M3632.729,3403.206a1.651,1.651,0,0,1-1.652-1.652V3394.6a1.651,1.651,0,0,1,1.652-1.652h0a1.651,1.651,0,0,1,1.65,1.652v6.952a1.651,1.651,0,0,1-1.65,1.652Z" fill="#383f73"/>
            <path id="Trazado_11065" data-name="Trazado 11065" d="M3632.729,3397.74a3.038,3.038,0,1,1,3.037-3.038A3.04,3.04,0,0,1,3632.729,3397.74Z" fill="#222221"/>
          </g>
          <g id="Grupo_1796" data-name="Grupo 1796">
            <path id="Trazado_11066" data-name="Trazado 11066" d="M3622.149,3403.206a1.652,1.652,0,0,1-1.651-1.652V3394.6a1.652,1.652,0,0,1,1.651-1.652h0a1.652,1.652,0,0,1,1.652,1.652v6.952a1.652,1.652,0,0,1-1.652,1.652Z" fill="#383f73"/>
            <path id="Trazado_11067" data-name="Trazado 11067" d="M3622.149,3397.74a3.038,3.038,0,1,1,3.038-3.038A3.039,3.039,0,0,1,3622.149,3397.74Z" fill="#222221"/>
          </g>
          <g id="Grupo_1797" data-name="Grupo 1797">
            <path id="Trazado_11068" data-name="Trazado 11068" d="M3611.57,3403.206a1.652,1.652,0,0,1-1.652-1.652V3394.6a1.652,1.652,0,0,1,1.652-1.652h0a1.652,1.652,0,0,1,1.651,1.652v6.952a1.652,1.652,0,0,1-1.651,1.652Z" fill="#383f73"/>
            <path id="Trazado_11069" data-name="Trazado 11069" d="M3611.57,3397.74a3.038,3.038,0,1,1,3.037-3.038A3.039,3.039,0,0,1,3611.57,3397.74Z" fill="#222221"/>
          </g>
        </g>
        <path id="Trazado_11070" data-name="Trazado 11070" d="M3769.052,3386.2s-10.662,18.441-13.541,21.736a110.009,110.009,0,0,1-13.474,12.482l1.845-.43s8.928-7.162,12.881-12.191C3763.184,3399.62,3769.052,3386.2,3769.052,3386.2Z" fill="#886350"/>
        <path id="Trazado_11071" data-name="Trazado 11071" d="M3754.142,3389.323s-10.262,16.22-13.141,19.515c-5.623,6.438-16.574,12.408-16.574,12.408l1.08.2s12.75-7.149,16.746-12.748A198.131,198.131,0,0,0,3754.142,3389.323Z" fill="#886350"/>
        <path id="Trazado_11072" data-name="Trazado 11072" d="M3731.053,3446.328c1.316-.741,28.675-11.5,29.382-11.75,11.3-3.955,15.33-9.174,15.33-9.174s30.1-29.458,31.736-31.218,3.7-5.1-3.464-7.271c-6.89-2.091-11.811-1.217-16.083,2.678s-21.11,21.361-26.388,24.566-22.845,6.907-32.86,4.648-15.951-9.9-14.519-15.87,13.5-16.949,18.04-22.919a58.061,58.061,0,0,0,8.511-16.859c2.6-8.592-8.3-13.213-11.4-10.493-2.93,2.572-16.143,21.529-21.278,28.1s-15.958,13.941-21.362,15.33c-4.677,1.2-20.284,1.529-23.508,1.648v40.573" fill="#e4b28d"/>
        <path id="Trazado_11073" data-name="Trazado 11073" d="M3736.776,3362.839s-3.491,7.84-6.283,7.167c-1.657-.4-8.047-4.227-8.045-6,0-.747,5.908-9.265,6.5-9.99,1.733-2.116,10.943,2.385,8.719,7.074A12.478,12.478,0,0,1,3736.776,3362.839Z" fill="#e3cdbb"/>
        <path id="Trazado_11074" data-name="Trazado 11074" d="M3722.578,3363.645a1.12,1.12,0,0,0-.13.364c0,1.77,6.388,5.6,8.045,6a1.634,1.634,0,0,0,.879-.048A7.217,7.217,0,0,0,3722.578,3363.645Z" fill="#eaddd5"/>
        <path id="Trazado_11075" data-name="Trazado 11075" d="M3670.879,3439.39l-7.689-41.649v40.572" fill="#b1866c"/>
        <g id="Grupo_1799" data-name="Grupo 1799">
          <path id="Trazado_11076" data-name="Trazado 11076" d="M3712.317,3378.16a13.676,13.676,0,0,0,9.349,6.424s-3.834-1.889-5.023-2.705S3712.317,3378.16,3712.317,3378.16Z" fill="#b1866c"/>
          <path id="Trazado_11077" data-name="Trazado 11077" d="M3715.29,3373.835a13.678,13.678,0,0,1,9.347,6.425s-3.136-2.905-4.325-3.721S3715.29,3373.835,3715.29,3373.835Z" fill="#b1866c"/>
          <path id="Trazado_11078" data-name="Trazado 11078" d="M3713.763,3376.054s2.935,2.349,4.52,3.438,4.829,2.987,4.829,2.987-3.442-2.8-4.472-3.507S3713.763,3376.054,3713.763,3376.054Z" fill="#b1866c"/>
        </g>
        <g id="Grupo_1804" data-name="Grupo 1804">
          <g id="Grupo_1803" data-name="Grupo 1803">
            <g id="Grupo_1802" data-name="Grupo 1802" clip-path="url(#clip-path-2)">
              <rect id="Rectángulo_2147" data-name="Rectángulo 2147" width="57.898" height="132.681" transform="matrix(0.161, -0.987, 0.987, 0.161, 3758.361, 3341.312)" fill="#bbc4ae"/>
              <rect id="Rectángulo_2148" data-name="Rectángulo 2148" width="57.897" height="53.733" transform="translate(3836.274 3354.058) rotate(-80.709)" fill="#9fbd85"/>
              <rect id="Rectángulo_2149" data-name="Rectángulo 2149" width="57.897" height="34.494" transform="matrix(0.161, -0.987, 0.987, 0.161, 3802.232, 3348.49)" fill="#d2cc77"/>
              <g id="Grupo_1801" data-name="Grupo 1801">
                <g id="Grupo_1800" data-name="Grupo 1800" clip-path="url(#clip-path-2)">
                  <path id="Trazado_11079" data-name="Trazado 11079" d="M3803.985,3312.295l0-.006-.005,0c-2.364-15.273-12.319-13.807-12.319-13.807.875-8.179-20.908-10.581-20.908-10.581l-3.019,18.46,0,.013-3.02,18.46s21.412,4.664,23.189-3.368c0,0,8.969,4.562,16.077-9.162h.005v-.007Z" fill="#d2ddb8"/>
                  <rect id="Rectángulo_2150" data-name="Rectángulo 2150" width="57.898" height="7.218" transform="translate(3758.36 3341.313) rotate(-80.707)" fill="#9fbd85"/>
                  <path id="Trazado_11080" data-name="Trazado 11080" d="M3806.85,3321.9s1.737-.066,1.322,1.633a2.025,2.025,0,0,1-2.6,1.135c.012,0-1.722-.2-1.683-1.284.015-.4.276-2.5.276-2.5a2.756,2.756,0,0,1,1.58-2.057c.945-.442,2.334-.519,4.108.945a.567.567,0,0,0,.467.076c.013-.007,3.27-1.163,4.719,1.162a3.339,3.339,0,0,1,.449,2.324l-.5,3.05s-.275,2.852-4.8,2.455l-6.776-1.108a4.354,4.354,0,0,1-3.714-5.514c.983-4.918.1-4.959-.839-5.25,0,0-.341-.343.086-.525a5.541,5.541,0,0,1,1.531.077,2.913,2.913,0,0,1,2.56,3.128l-.623,3.81s-.225,1.543,2.124,2.248c.023.027,5.6.917,5.6.917s1.6.1,1.915-.993l.457-2.792a1.074,1.074,0,0,0-.938-1.146l-.071-.014-.049,0a.839.839,0,0,0-.927.613.847.847,0,0,1-1.112.724,1.912,1.912,0,0,0-1.531-1.813c-1.5-.263-1.04.706-1.04.706Z" fill="#3e4d29"/>
                  <path id="Trazado_11081" data-name="Trazado 11081" d="M3823.863,3321.107c-3.613-.591-6.9,1.14-7.35,3.866s2.121,5.417,5.735,6.008,6.9-1.14,7.35-3.867-2.121-5.416-5.735-6.007Zm-1.23,7.521c-1.892-.309-3.236-1.717-3-3.144s1.955-2.334,3.847-2.025,3.236,1.718,3,3.145-1.955,2.334-3.847,2.024Z" fill="#3e4d29"/>
                  <path id="Trazado_11082" data-name="Trazado 11082" d="M3822.725,3297.873c-2.01,5.487-5.134,2.457-5.139,2.486a1.776,1.776,0,0,0-.182-2.5.623.623,0,0,0-.735-.12,1.777,1.777,0,0,0-.969,2.314c.005-.029-3.923,1.846-4.079-4,0,0-3.12,3.3,1.96,6.646l-.066.409-1.009.464,3.153,2.644,3.831-1.5-.808-.762.067-.408c5.883-1.556,3.976-5.675,3.976-5.675Z" fill="#728242"/>
                  <path id="Trazado_11083" data-name="Trazado 11083" d="M3861.323,3311.243c-12.545-2.052-24.194,5.091-25.966,15.925s6.993,21.317,19.539,23.369,24.192-5.092,25.964-15.925-6.991-21.317-19.537-23.369Z" fill="#b6c798"/>
                  <path id="Trazado_11084" data-name="Trazado 11084" d="M3861.323,3311.243c-12.545-2.052-24.194,5.091-25.966,15.925s6.993,21.317,19.539,23.37,24.192-5.093,25.964-15.926-6.991-21.317-19.537-23.369Zm-6.122,37.429c-11.316-1.851-19.217-11.334-17.612-21.139s12.114-16.275,23.429-14.424,19.214,11.334,17.61,21.138-12.113,16.276-23.427,14.425Z" fill="#32462b"/>
                  <path id="Trazado_11085" data-name="Trazado 11085" d="M3866.817,3333.286a6.082,6.082,0,0,0-2.825-2.18,5.086,5.086,0,0,0,2.529-1.252,3.856,3.856,0,0,0,1.224-2.24,3.7,3.7,0,0,0-.325-2.267,5.242,5.242,0,0,0-1.439-1.818,6.522,6.522,0,0,0-2.177-1.137,22.128,22.128,0,0,0-2.33-.549l.344-2.1-3.938-.644-.341,2.085-6.422-1.051-3.016,18.436,6.422,1.051-.407,2.49,3.937.644.413-2.521q1.842.267,2.531.317a7.236,7.236,0,0,0,3.128-.386,5.363,5.363,0,0,0,2.221-1.586,4.84,4.84,0,0,0,1.1-2.332,4.034,4.034,0,0,0-.628-2.956Zm-5.4-8.256a2.822,2.822,0,0,1,1.571.921,1.858,1.858,0,0,1,.337,1.483,1.81,1.81,0,0,1-.891,1.333,3.282,3.282,0,0,1-1.905.366c-.066,0-.149-.012-.246-.023l.684-4.181c.2.04.347.074.45.1Zm-6.352-1.1,1.971.322-.7,4.263-1.971-.322Zm-1.2,7.332,1.97.322-.807,4.93-1.97-.323Zm8.123,5.519a2.988,2.988,0,0,1-1.737.471,10.561,10.561,0,0,1-1.282-.116l.794-4.853a8.246,8.246,0,0,1,1.6.477,2.787,2.787,0,0,1,1.254,1.07,2.166,2.166,0,0,1,.251,1.487,2.073,2.073,0,0,1-.881,1.464Z" fill="#32462b"/>
                  <path id="Trazado_11086" data-name="Trazado 11086" d="M3797.553,3342.14a1.941,1.941,0,1,1-1.627-1.885,1.775,1.775,0,0,1,1.627,1.885Z" fill="#708259"/>
                  <path id="Trazado_11087" data-name="Trazado 11087" d="M3790.751,3341.027a1.941,1.941,0,1,1-1.627-1.885,1.774,1.774,0,0,1,1.627,1.885Z" fill="#708259"/>
                  <path id="Trazado_11088" data-name="Trazado 11088" d="M3798.364,3337.188a1.941,1.941,0,1,1-1.628-1.885,1.776,1.776,0,0,1,1.628,1.885Z" fill="#708259"/>
                  <path id="Trazado_11089" data-name="Trazado 11089" d="M3791.561,3336.076a1.941,1.941,0,1,1-1.627-1.885,1.777,1.777,0,0,1,1.627,1.885Z" fill="#708259"/>
                  <path id="Trazado_11090" data-name="Trazado 11090" d="M3798.622,3337.8a2.618,2.618,0,0,0-1.52-.607l-.044-.007a2.15,2.15,0,0,1-1.815-1.565,2.236,2.236,0,0,0-1.879-1.585,2.273,2.273,0,0,0-2.214.795,2.607,2.607,0,0,1-2.287.966,6.843,6.843,0,0,1-.744-.086,2.308,2.308,0,0,0-2.787,1.648,2.231,2.231,0,0,0,1.739,2.362.624.624,0,0,0,.377.09,2.962,2.962,0,0,0,.681.03l.037,0a2.225,2.225,0,0,1,1.9,1.475,2.412,2.412,0,0,0,4.1.678,2.143,2.143,0,0,1,2.158-.761l.013,0a3.064,3.064,0,0,0,.352.082,2.317,2.317,0,0,0,2.783-1.62,2.053,2.053,0,0,0-.852-1.9Z" fill="#3e4d29"/>
                  <path id="Trazado_11091" data-name="Trazado 11091" d="M3778.644,3336.9s-4.45.88-6.765-.8a1.269,1.269,0,0,1-.347-1.885,1.124,1.124,0,0,0,.149-.209c-.006.033-2.9-3.394-.451-4.025,0,0-.257-1.691,2.313-1.579-.035-.04,1.086-1.369,3.32-.454-.006.034,1.235-1.275,3.489.022a2.15,2.15,0,0,1,2.726.411s2.207-.429,3.125.992c0,0,2.63-.256,3.181,1.655-.035-.04,1.971.253,1.732,1.966.051-.06,2.249,1.571-2.212,3.726l.249.378a.978.978,0,0,1-.512,1.489c-.944.362-2.837.392-6.609-1.188a2.679,2.679,0,0,1-3.388-.5Z" fill="#576c44"/>
                  <path id="Trazado_11092" data-name="Trazado 11092" d="M3794.311,3338.71l.028-.015c.748-.484,1.085-1.166.751-1.523s-1.21-.254-1.959.23a2.559,2.559,0,0,0-.554.48c-.009,0-.02,0-.028.01a.456.456,0,0,0-.048.038.472.472,0,0,0-.032-.051.266.266,0,0,0-.025-.019,2.555,2.555,0,0,0-.372-.631c-.555-.7-1.354-1.074-1.784-.842s-.328.985.228,1.682a.241.241,0,0,0,.021.024l-.028.016c-.748.484-1.085,1.166-.751,1.523s1.211.253,1.959-.231a2.55,2.55,0,0,0,.554-.479c.009-.005.02-.005.028-.01a.041.041,0,1,1,.081.013c.006.008.016.011.024.018a2.493,2.493,0,0,0,.372.631c.555.7,1.354,1.075,1.783.843s.329-.985-.226-1.683l-.022-.024Z" fill="#9aa593"/>
                  <rect id="Rectángulo_2151" data-name="Rectángulo 2151" width="0.576" height="9.204" transform="translate(3882.367 3319.288) rotate(-80.709)" fill="#25351a"/>
                  <rect id="Rectángulo_2152" data-name="Rectángulo 2152" width="0.61" height="5.514" transform="matrix(0.161, -0.987, 0.987, 0.161, 3885.746, 3321.49)" fill="#25351a"/>
                  <rect id="Rectángulo_2153" data-name="Rectángulo 2153" width="0.644" height="4.258" transform="matrix(0.161, -0.987, 0.987, 0.161, 3886.734, 3323.231)" fill="#25351a"/>
                  <rect id="Rectángulo_2154" data-name="Rectángulo 2154" width="0.508" height="2.96" transform="translate(3887.796 3324.78) rotate(-80.711)" fill="#25351a"/>
                  <rect id="Rectángulo_2155" data-name="Rectángulo 2155" width="0.474" height="2.129" transform="translate(3888.408 3326.185) rotate(-80.705)" fill="#25351a"/>
                  <rect id="Rectángulo_2156" data-name="Rectángulo 2156" width="0.508" height="1.48" transform="matrix(0.161, -0.987, 0.987, 0.161, 3888.862, 3327.427)" fill="#25351a"/>
                  <rect id="Rectángulo_2157" data-name="Rectángulo 2157" width="0.441" height="1.064" transform="matrix(0.162, -0.987, 0.987, 0.162, 3889.092, 3328.599)" fill="#25351a"/>
                  <path id="Trazado_11093" data-name="Trazado 11093" d="M3882.21,3310.253l-2.88,2.2-.163,1,5.317.87.193-1.173-3.043-.5,1.406-1.214a15.729,15.729,0,0,0,1.222-1.012l-1.894-.31c-.052.046-.1.092-.158.141Z" fill="#131b0a"/>
                  <path id="Trazado_11094" data-name="Trazado 11094" d="M3889.431,3312.219a3.043,3.043,0,0,1-.443,1.308.636.636,0,0,1-.694.285l-.036-.006a.654.654,0,0,1-.58-.5,2.979,2.979,0,0,1-.009-1.379l.151-.927-1.756-.287-.132.808a3.3,3.3,0,0,0,.344,2.4,2.531,2.531,0,0,0,1.8,1.094,2.506,2.506,0,0,0,2.041-.465,3.314,3.314,0,0,0,1.088-2.166l.132-.809-1.756-.287Z" fill="#131b0a"/>
                  <path id="Trazado_11095" data-name="Trazado 11095" d="M3885.177,3308.885a2.081,2.081,0,0,0-.425-1.747,2.9,2.9,0,0,0-1.832-.915,2.657,2.657,0,0,0-2.045.4,2.3,2.3,0,0,0-.977,1.621l.009.028,1.712.28a1.734,1.734,0,0,1,.386-.9.756.756,0,0,1,.724-.25.766.766,0,0,1,.594.4,1.278,1.278,0,0,1,.1.813,1.82,1.82,0,0,1-.341.748,5.011,5.011,0,0,1-.71.754l1.894.31c.12-.113.229-.22.319-.318a2.329,2.329,0,0,0,.6-1.219Z" fill="#93481c"/>
                  <path id="Trazado_11096" data-name="Trazado 11096" d="M3891.127,3308.37a2.784,2.784,0,0,0-3.842-.629,3.321,3.321,0,0,0-1.088,2.166l-.133.809,1.757.288.153-.939a3.02,3.02,0,0,1,.44-1.292.651.651,0,0,1,.7-.289l.037.006a.659.659,0,0,1,.573.5,2.933,2.933,0,0,1,.011,1.366l-.153.939,1.756.287.132-.809a3.306,3.306,0,0,0-.344-2.4Z" fill="#93481c"/>
                  <path id="Trazado_11097" data-name="Trazado 11097" d="M3808.512,3298.029a1.1,1.1,0,1,1-.921-1.067,1.005,1.005,0,0,1,.921,1.067Z" fill="#e3e9b5"/>
                  <path id="Trazado_11098" data-name="Trazado 11098" d="M3808,3297.946a.574.574,0,1,1-.481-.557.525.525,0,0,1,.481.557Z" fill="#b9c27e"/>
                  <path id="Trazado_11099" data-name="Trazado 11099" d="M3805.482,3296.46a1.1,1.1,0,1,1-.921-1.067,1.006,1.006,0,0,1,.921,1.067Z" fill="#e3e9b5"/>
                  <path id="Trazado_11100" data-name="Trazado 11100" d="M3804.972,3296.377a.574.574,0,1,1-.481-.558.526.526,0,0,1,.481.558Z" fill="#b9c27e"/>
                  <path id="Trazado_11101" data-name="Trazado 11101" d="M3808.4,3295.529a1.1,1.1,0,1,1-.92-1.067,1,1,0,0,1,.92,1.067Z" fill="#e3e9b5"/>
                  <path id="Trazado_11102" data-name="Trazado 11102" d="M3807.888,3295.446a.574.574,0,1,1-.481-.558.525.525,0,0,1,.481.558Z" fill="#b9c27e"/>
                  <path id="Trazado_11103" data-name="Trazado 11103" d="M3810.453,3293.162a1.1,1.1,0,1,1-.921-1.067,1.005,1.005,0,0,1,.921,1.067Z" fill="#e3e9b5"/>
                  <path id="Trazado_11104" data-name="Trazado 11104" d="M3809.943,3293.079a.574.574,0,1,1-.481-.557.526.526,0,0,1,.481.557Z" fill="#b9c27e"/>
                  <path id="Trazado_11105" data-name="Trazado 11105" d="M3813.535,3294.145a1.1,1.1,0,1,1-.921-1.067,1.007,1.007,0,0,1,.921,1.067Z" fill="#e3e9b5"/>
                  <path id="Trazado_11106" data-name="Trazado 11106" d="M3813.025,3294.061a.574.574,0,1,1-.481-.557.524.524,0,0,1,.481.557Z" fill="#b9c27e"/>
                  <path id="Trazado_11107" data-name="Trazado 11107" d="M3815.236,3297.14a1.1,1.1,0,1,1-.921-1.067,1.006,1.006,0,0,1,.921,1.067Z" fill="#e3e9b5"/>
                  <path id="Trazado_11108" data-name="Trazado 11108" d="M3814.726,3297.056a.574.574,0,1,1-.481-.557.523.523,0,0,1,.481.557Z" fill="#b9c27e"/>
                  <path id="Trazado_11109" data-name="Trazado 11109" d="M3818.479,3295.681a1.1,1.1,0,1,1-.921-1.067,1.006,1.006,0,0,1,.921,1.067Z" fill="#e3e9b5"/>
                  <path id="Trazado_11110" data-name="Trazado 11110" d="M3817.969,3295.6a.574.574,0,1,1-.481-.557.524.524,0,0,1,.481.557Z" fill="#b9c27e"/>
                  <path id="Trazado_11111" data-name="Trazado 11111" d="M3820.8,3297.572a1.1,1.1,0,1,1-.921-1.067,1,1,0,0,1,.921,1.067Z" fill="#e3e9b5"/>
                  <path id="Trazado_11112" data-name="Trazado 11112" d="M3820.291,3297.488a.574.574,0,1,1-.481-.557.524.524,0,0,1,.481.557Z" fill="#b9c27e"/>
                  <path id="Trazado_11113" data-name="Trazado 11113" d="M3825.34,3297.281a1.1,1.1,0,1,1-.922-1.066,1,1,0,0,1,.922,1.066Z" fill="#e3e9b5"/>
                  <path id="Trazado_11114" data-name="Trazado 11114" d="M3824.83,3297.2a.574.574,0,1,1-.481-.557.524.524,0,0,1,.481.557Z" fill="#b9c27e"/>
                  <path id="Trazado_11115" data-name="Trazado 11115" d="M3828.957,3296.668a1.1,1.1,0,1,1-.921-1.067,1.006,1.006,0,0,1,.921,1.067Z" fill="#e3e9b5"/>
                  <path id="Trazado_11116" data-name="Trazado 11116" d="M3828.447,3296.584a.574.574,0,1,1-.481-.557.525.525,0,0,1,.481.557Z" fill="#b9c27e"/>
                  <path id="Trazado_11117" data-name="Trazado 11117" d="M3827.311,3300.031a1.1,1.1,0,1,1-.921-1.067,1.005,1.005,0,0,1,.921,1.067Z" fill="#e3e9b5"/>
                  <path id="Trazado_11118" data-name="Trazado 11118" d="M3826.8,3299.948a.574.574,0,1,1-.481-.557.525.525,0,0,1,.481.557Z" fill="#b9c27e"/>
                  <path id="Trazado_11119" data-name="Trazado 11119" d="M3831.161,3299.253a1.1,1.1,0,1,1-.921-1.067,1.006,1.006,0,0,1,.921,1.067Z" fill="#e3e9b5"/>
                  <path id="Trazado_11120" data-name="Trazado 11120" d="M3830.651,3299.17a.574.574,0,1,1-.481-.558.525.525,0,0,1,.481.558Z" fill="#b9c27e"/>
                  <path id="Trazado_11121" data-name="Trazado 11121" d="M3832.543,3297.5a1.1,1.1,0,1,1-.922-1.067,1.006,1.006,0,0,1,.922,1.067Z" fill="#e3e9b5"/>
                  <path id="Trazado_11122" data-name="Trazado 11122" d="M3832.033,3297.42a.574.574,0,1,1-.481-.558.524.524,0,0,1,.481.558Z" fill="#b9c27e"/>
                  <path id="Trazado_11123" data-name="Trazado 11123" d="M3835.536,3297.514a1.1,1.1,0,1,1-.921-1.067,1,1,0,0,1,.921,1.067Z" fill="#e3e9b5"/>
                  <path id="Trazado_11124" data-name="Trazado 11124" d="M3835.026,3297.431a.574.574,0,1,1-.481-.557.524.524,0,0,1,.481.557Z" fill="#b9c27e"/>
                  <path id="Trazado_11125" data-name="Trazado 11125" d="M3834.586,3299.827a1.1,1.1,0,1,1-.922-1.067,1.005,1.005,0,0,1,.922,1.067Z" fill="#e3e9b5"/>
                  <path id="Trazado_11126" data-name="Trazado 11126" d="M3834.076,3299.743a.574.574,0,1,1-.481-.557.524.524,0,0,1,.481.557Z" fill="#b9c27e"/>
                  <path id="Trazado_11127" data-name="Trazado 11127" d="M3837.951,3299.448a1.1,1.1,0,1,1-.921-1.067,1.005,1.005,0,0,1,.921,1.067Z" fill="#e3e9b5"/>
                  <path id="Trazado_11128" data-name="Trazado 11128" d="M3837.441,3299.364a.574.574,0,1,1-.481-.557.523.523,0,0,1,.481.557Z" fill="#b9c27e"/>
                  <path id="Trazado_11129" data-name="Trazado 11129" d="M3809.22,3300.415a1.1,1.1,0,1,1-.922-1.067,1.007,1.007,0,0,1,.922,1.067Z" fill="#e3e9b5"/>
                  <path id="Trazado_11130" data-name="Trazado 11130" d="M3808.71,3300.331a.574.574,0,1,1-.481-.557.525.525,0,0,1,.481.557Z" fill="#b9c27e"/>
                  <path id="Trazado_11131" data-name="Trazado 11131" d="M3806.016,3299.89a1.1,1.1,0,1,1-.921-1.066,1,1,0,0,1,.921,1.066Z" fill="#e3e9b5"/>
                  <path id="Trazado_11132" data-name="Trazado 11132" d="M3805.506,3299.807a.574.574,0,1,1-.481-.557.523.523,0,0,1,.481.557Z" fill="#b9c27e"/>
                  <path id="Trazado_11133" data-name="Trazado 11133" d="M3802.52,3300.235a1.1,1.1,0,1,1-.921-1.067,1.006,1.006,0,0,1,.921,1.067Z" fill="#e3e9b5"/>
                  <path id="Trazado_11134" data-name="Trazado 11134" d="M3802.011,3300.151a.574.574,0,1,1-.482-.557.525.525,0,0,1,.482.557Z" fill="#b9c27e"/>
                  <path id="Trazado_11135" data-name="Trazado 11135" d="M3804.436,3302.852a1.1,1.1,0,1,1-.921-1.066,1.005,1.005,0,0,1,.921,1.066Z" fill="#e3e9b5"/>
                  <path id="Trazado_11136" data-name="Trazado 11136" d="M3803.926,3302.769a.574.574,0,1,1-.481-.557.524.524,0,0,1,.481.557Z" fill="#b9c27e"/>
                  <path id="Trazado_11137" data-name="Trazado 11137" d="M3808.2,3303.468a1.1,1.1,0,1,1-.922-1.067,1.006,1.006,0,0,1,.922,1.067Z" fill="#e3e9b5"/>
                  <path id="Trazado_11138" data-name="Trazado 11138" d="M3807.685,3303.384a.574.574,0,1,1-.481-.557.526.526,0,0,1,.481.557Z" fill="#b9c27e"/>
                  <path id="Trazado_11139" data-name="Trazado 11139" d="M3801.009,3302.771a1.1,1.1,0,1,1-.921-1.067,1,1,0,0,1,.921,1.067Z" fill="#e3e9b5"/>
                  <path id="Trazado_11140" data-name="Trazado 11140" d="M3800.5,3302.687a.574.574,0,1,1-.481-.557.524.524,0,0,1,.481.557Z" fill="#b9c27e"/>
                  <path id="Trazado_11141" data-name="Trazado 11141" d="M3802.726,3305.675a1.1,1.1,0,1,1-.922-1.067,1.006,1.006,0,0,1,.922,1.067Z" fill="#e3e9b5"/>
                  <path id="Trazado_11142" data-name="Trazado 11142" d="M3802.216,3305.592a.574.574,0,1,1-.481-.558.526.526,0,0,1,.481.558Z" fill="#b9c27e"/>
                  <path id="Trazado_11143" data-name="Trazado 11143" d="M3769.714,3340.968a1.1,1.1,0,1,1-.921-1.068,1.005,1.005,0,0,1,.921,1.068Z" fill="#e3e9b5"/>
                  <path id="Trazado_11144" data-name="Trazado 11144" d="M3769.205,3340.884a.574.574,0,1,1-.481-.557.525.525,0,0,1,.481.557Z" fill="#b9c27e"/>
                  <path id="Trazado_11145" data-name="Trazado 11145" d="M3772.241,3338.915a1.1,1.1,0,1,1-.921-1.067,1,1,0,0,1,.921,1.067Z" fill="#e3e9b5"/>
                  <path id="Trazado_11146" data-name="Trazado 11146" d="M3771.732,3338.832a.574.574,0,1,1-.481-.557.526.526,0,0,1,.481.557Z" fill="#b9c27e"/>
                  <path id="Trazado_11147" data-name="Trazado 11147" d="M3774.059,3341.2a1.1,1.1,0,1,1-.921-1.067,1.006,1.006,0,0,1,.921,1.067Z" fill="#e3e9b5"/>
                  <path id="Trazado_11148" data-name="Trazado 11148" d="M3773.549,3341.116a.574.574,0,1,1-.481-.557.524.524,0,0,1,.481.557Z" fill="#b9c27e"/>
                  <path id="Trazado_11149" data-name="Trazado 11149" d="M3777.54,3339.3a1.1,1.1,0,1,1-.921-1.067,1.005,1.005,0,0,1,.921,1.067Z" fill="#e3e9b5"/>
                  <path id="Trazado_11150" data-name="Trazado 11150" d="M3777.03,3339.22a.574.574,0,1,1-.481-.557.524.524,0,0,1,.481.557Z" fill="#b9c27e"/>
                  <path id="Trazado_11151" data-name="Trazado 11151" d="M3781.859,3340.489a1.1,1.1,0,1,1-.921-1.067,1,1,0,0,1,.921,1.067Z" fill="#e3e9b5"/>
                  <path id="Trazado_11152" data-name="Trazado 11152" d="M3781.35,3340.405a.574.574,0,1,1-.481-.557.524.524,0,0,1,.481.557Z" fill="#b9c27e"/>
                  <path id="Trazado_11153" data-name="Trazado 11153" d="M3780.487,3342.251a1.1,1.1,0,1,1-.922-1.067,1.006,1.006,0,0,1,.922,1.067Z" fill="#e3e9b5"/>
                  <path id="Trazado_11154" data-name="Trazado 11154" d="M3779.977,3342.168a.574.574,0,1,1-.481-.557.526.526,0,0,1,.481.557Z" fill="#b9c27e"/>
                  <path id="Trazado_11155" data-name="Trazado 11155" d="M3783.677,3342.773a1.1,1.1,0,1,1-.921-1.067,1,1,0,0,1,.921,1.067Z" fill="#e3e9b5"/>
                  <path id="Trazado_11156" data-name="Trazado 11156" d="M3783.167,3342.69a.574.574,0,1,1-.481-.558.525.525,0,0,1,.481.558Z" fill="#b9c27e"/>
                  <path id="Trazado_11157" data-name="Trazado 11157" d="M3801.176,3343.17a1.1,1.1,0,1,1-.921-1.067,1,1,0,0,1,.921,1.067Z" fill="#e3e9b5"/>
                  <path id="Trazado_11158" data-name="Trazado 11158" d="M3800.666,3343.087a.574.574,0,1,1-.481-.557.525.525,0,0,1,.481.557Z" fill="#b9c27e"/>
                  <path id="Trazado_11159" data-name="Trazado 11159" d="M3799.228,3344.88a1.1,1.1,0,1,1-.921-1.067,1,1,0,0,1,.921,1.067Z" fill="#e3e9b5"/>
                  <path id="Trazado_11160" data-name="Trazado 11160" d="M3798.718,3344.8a.573.573,0,1,1-.48-.557.523.523,0,0,1,.48.557Z" fill="#b9c27e"/>
                  <path id="Trazado_11161" data-name="Trazado 11161" d="M3803.967,3344.584a1.1,1.1,0,1,1-.921-1.067,1.007,1.007,0,0,1,.921,1.067Z" fill="#e3e9b5"/>
                  <path id="Trazado_11162" data-name="Trazado 11162" d="M3803.457,3344.5a.574.574,0,1,1-.481-.557.524.524,0,0,1,.481.557Z" fill="#b9c27e"/>
                  <path id="Trazado_11163" data-name="Trazado 11163" d="M3807.681,3343.318a1.1,1.1,0,1,1-.92-1.067,1,1,0,0,1,.92,1.067Z" fill="#e3e9b5"/>
                  <path id="Trazado_11164" data-name="Trazado 11164" d="M3807.172,3343.235a.574.574,0,1,1-.481-.557.526.526,0,0,1,.481.557Z" fill="#b9c27e"/>
                  <path id="Trazado_11165" data-name="Trazado 11165" d="M3806.517,3346.072a1.1,1.1,0,1,1-.922-1.067,1.006,1.006,0,0,1,.922,1.067Z" fill="#e3e9b5"/>
                  <path id="Trazado_11166" data-name="Trazado 11166" d="M3806.007,3345.989a.574.574,0,1,1-.481-.558.526.526,0,0,1,.481.558Z" fill="#b9c27e"/>
                  <path id="Trazado_11167" data-name="Trazado 11167" d="M3809.828,3345.064a1.1,1.1,0,1,1-.921-1.067,1.006,1.006,0,0,1,.921,1.067Z" fill="#e3e9b5"/>
                  <path id="Trazado_11168" data-name="Trazado 11168" d="M3809.318,3344.981a.574.574,0,1,1-.481-.558.526.526,0,0,1,.481.558Z" fill="#b9c27e"/>
                  <path id="Trazado_11169" data-name="Trazado 11169" d="M3814.205,3345.78a1.1,1.1,0,1,1-.921-1.067,1.006,1.006,0,0,1,.921,1.067Z" fill="#e3e9b5"/>
                  <path id="Trazado_11170" data-name="Trazado 11170" d="M3813.7,3345.7a.574.574,0,1,1-.481-.558.525.525,0,0,1,.481.558Z" fill="#b9c27e"/>
                  <path id="Trazado_11171" data-name="Trazado 11171" d="M3818.876,3348.094a1.1,1.1,0,1,1-.921-1.067,1.006,1.006,0,0,1,.921,1.067Z" fill="#e3e9b5"/>
                  <path id="Trazado_11172" data-name="Trazado 11172" d="M3818.366,3348.011a.574.574,0,1,1-.481-.558.525.525,0,0,1,.481.558Z" fill="#b9c27e"/>
                  <path id="Trazado_11173" data-name="Trazado 11173" d="M3822.6,3348.07a1.1,1.1,0,1,1-.921-1.067,1.006,1.006,0,0,1,.921,1.067Z" fill="#e3e9b5"/>
                  <path id="Trazado_11174" data-name="Trazado 11174" d="M3822.093,3347.987a.574.574,0,1,1-.481-.558.525.525,0,0,1,.481.558Z" fill="#b9c27e"/>
                  <path id="Trazado_11175" data-name="Trazado 11175" d="M3826.441,3349.614a1.1,1.1,0,1,1-.922-1.067,1.005,1.005,0,0,1,.922,1.067Z" fill="#e3e9b5"/>
                  <path id="Trazado_11176" data-name="Trazado 11176" d="M3825.931,3349.53a.574.574,0,1,1-.481-.557.525.525,0,0,1,.481.557Z" fill="#b9c27e"/>
                  <path id="Trazado_11177" data-name="Trazado 11177" d="M3826.237,3348.451a1.1,1.1,0,1,1-.921-1.067,1.006,1.006,0,0,1,.921,1.067Z" fill="#e3e9b5"/>
                  <path id="Trazado_11178" data-name="Trazado 11178" d="M3825.727,3348.367a.574.574,0,1,1-.481-.557.523.523,0,0,1,.481.557Z" fill="#b9c27e"/>
                  <path id="Trazado_11179" data-name="Trazado 11179" d="M3829.779,3349.4a1.1,1.1,0,1,1-.921-1.067,1,1,0,0,1,.921,1.067Z" fill="#e3e9b5"/>
                  <path id="Trazado_11180" data-name="Trazado 11180" d="M3829.269,3349.316a.574.574,0,1,1-.481-.558.524.524,0,0,1,.481.558Z" fill="#b9c27e"/>
                  <path id="Trazado_11181" data-name="Trazado 11181" d="M3815.939,3348.051a1.1,1.1,0,1,1-.922-1.067,1.006,1.006,0,0,1,.922,1.067Z" fill="#e3e9b5"/>
                  <path id="Trazado_11182" data-name="Trazado 11182" d="M3815.429,3347.967a.574.574,0,1,1-.481-.557.524.524,0,0,1,.481.557Z" fill="#b9c27e"/>
                  <path id="Trazado_11183" data-name="Trazado 11183" d="M3773.64,3300.272l2.049,2.177.739.121.593-3.622-.859-.14-.409,2.5-1.472-1.593a6,6,0,0,0-1.03-.907l-.233.883a6.362,6.362,0,0,1,.622.58Z" fill="#d2ddb8"/>
                  <path id="Trazado_11184" data-name="Trazado 11184" d="M3775.1,3295.249a3.14,3.14,0,0,1,1.247.428.683.683,0,0,1,.3.706.7.7,0,0,1-.551.588,3.319,3.319,0,0,1-1.381-.01l-.938-.154-.234.885.947.155a3.912,3.912,0,0,0,2.112-.12,1.484,1.484,0,0,0,.9-1.2,1.467,1.467,0,0,0-.49-1.436,4.11,4.11,0,0,0-2.024-.778l-.533-.087-.234.885Z" fill="#d2ddb8"/>
                  <path id="Trazado_11185" data-name="Trazado 11185" d="M3772.226,3298.381a1.816,1.816,0,0,0-1.374.24,1.662,1.662,0,0,0-.673,1.161,1.792,1.792,0,0,0,.1,1,1.727,1.727,0,0,0,.628.76,2.455,2.455,0,0,0,1.022.4l.148-.9a1.442,1.442,0,0,1-.836-.383.812.812,0,0,1-.209-.73.705.705,0,0,1,.379-.536,1.212,1.212,0,0,1,.779-.095,1.643,1.643,0,0,1,.671.279c.048.034.1.072.153.115l.233-.883c-.016-.011-.034-.025-.05-.035a2.573,2.573,0,0,0-.975-.393Z" fill="#575f87"/>
                  <path id="Trazado_11186" data-name="Trazado 11186" d="M3771.78,3294.241a1.64,1.64,0,0,0-.415,2.648,4.038,4.038,0,0,0,2.013.776l.168.027.234-.885-.523-.085a2.977,2.977,0,0,1-1.216-.423.691.691,0,0,1-.295-.711.7.7,0,0,1,.531-.588,3.254,3.254,0,0,1,1.364.011l.587.1.234-.885-.582-.095a3.909,3.909,0,0,0-2.1.114Z" fill="#575f87"/>
                </g>
              </g>
            </g>
          </g>
        </g>
        <path id="Trazado_11187" data-name="Trazado 11187" d="M3843.272,3235.2s-3.582-.357-5.492.717-18.38,17.136-23.515,20.361-17.365,12.537-17.365,12.537-3.94,3.1-4.3,5.135c-.335,1.9-.773,12.758-.829,14.173l16.713,2.839c-.1-1.212-.607-7.658.365-8.416,1.075-.836,26.737-19.343,32.468-17.433s12.775,7.956,11.342,13.926-11.05,17.6-16.056,23.186a34.078,34.078,0,0,0-8.345,16.816c-.956,5.843,7.773,12.326,11.236,10.537s16.257-23.258,21.392-29.825,16.252-15.3,21.029-16.012,21.373-.717,24.6-.837v-37.253Z" fill="#e4b28d"/>
        <path id="Trazado_11188" data-name="Trazado 11188" d="M3833.405,3317.712s3.491-7.84,6.282-7.166c1.658.4,8.048,4.227,8.045,6,0,.746-5.907,9.266-6.5,9.99-1.733,2.116-10.944-2.385-8.719-7.074A12.594,12.594,0,0,1,3833.405,3317.712Z" fill="#e3cdbb"/>
        <path id="Trazado_11189" data-name="Trazado 11189" d="M3847.6,3316.907a1.139,1.139,0,0,0,.129-.364c0-1.77-6.387-5.6-8.045-6a1.63,1.63,0,0,0-.878.048A7.216,7.216,0,0,0,3847.6,3316.907Z" fill="#eaddd5"/>
        <g id="Grupo_1805" data-name="Grupo 1805">
          <path id="Trazado_11190" data-name="Trazado 11190" d="M3857.336,3302.161a13.674,13.674,0,0,0-9.349-6.425s3.834,1.89,5.023,2.7S3857.336,3302.161,3857.336,3302.161Z" fill="#b1866c"/>
          <path id="Trazado_11191" data-name="Trazado 11191" d="M3854.363,3306.486a13.684,13.684,0,0,1-9.347-6.425s3.136,2.9,4.325,3.721S3854.363,3306.486,3854.363,3306.486Z" fill="#b1866c"/>
          <path id="Trazado_11192" data-name="Trazado 11192" d="M3855.89,3304.267s-2.935-2.349-4.52-3.438-4.83-2.987-4.83-2.987,3.443,2.8,4.473,3.506S3855.89,3304.267,3855.89,3304.267Z" fill="#b1866c"/>
        </g>
      </g>
    </g>
  </g>
</svg>
