<svg xmlns="http://www.w3.org/2000/svg" xmlns:xlink="http://www.w3.org/1999/xlink" width="803.116" height="314.887" viewBox="0 0 803.116 314.887">
  <defs>
    <linearGradient id="linear-gradient" x1="54825.766" y1="20478.941" x2="54821.918" y2="20519.922" gradientUnits="objectBoundingBox">
      <stop offset="0" stop-color="#e19b66"/>
      <stop offset="0.177" stop-color="#e19f6d"/>
      <stop offset="0.441" stop-color="#e4ac81"/>
      <stop offset="0.757" stop-color="#e9c1a2"/>
      <stop offset="0.988" stop-color="#edd4bf"/>
    </linearGradient>
    <linearGradient id="linear-gradient-2" x1="76341.75" y1="28166.756" x2="76336.391" y2="28223.088" xlink:href="#linear-gradient"/>
    <linearGradient id="linear-gradient-3" x1="41074.91" y1="36647.613" x2="41072.938" y2="36694.145" xlink:href="#linear-gradient"/>
    <linearGradient id="linear-gradient-4" x1="56751.449" y1="50022.402" x2="56748.695" y2="50086.586" xlink:href="#linear-gradient"/>
  </defs>
  <g id="Grupo_3426" data-name="Grupo 3426" transform="translate(-272.39 -14482.689)">
    <rect id="Rectángulo_2593" data-name="Rectángulo 2593" width="803.116" height="314.887" transform="translate(272.39 14482.689)" fill="#aedce3"/>
    <g id="Grupo_2852" data-name="Grupo 2852" transform="translate(-1553.257 5)">
      <rect id="Rectángulo_2594" data-name="Rectángulo 2594" width="65.216" height="117.696" transform="translate(2022.138 14626.486)" fill="#e8ebec" stroke="#f4f4f4" stroke-miterlimit="10" stroke-width="1"/>
      <rect id="Rectángulo_2595" data-name="Rectángulo 2595" width="69.874" height="16.022" transform="translate(2022.138 14740.484)" fill="#5b9993"/>
      <rect id="Rectángulo_2596" data-name="Rectángulo 2596" width="69.874" height="16.022" transform="translate(2022.138 14740.484)" fill="#5b9993"/>
      <rect id="Rectángulo_2597" data-name="Rectángulo 2597" width="69.874" height="73.945" transform="translate(2022.138 14652.366)" fill="#5b9993"/>
      <rect id="Rectángulo_2598" data-name="Rectángulo 2598" width="69.874" height="73.945" transform="translate(2022.138 14652.366)" fill="#5b9993"/>
      <rect id="Rectángulo_2599" data-name="Rectángulo 2599" width="65.216" height="8.137" transform="translate(2022.138 14626.486)" fill="#e8ebec" stroke="#f4f4f4" stroke-miterlimit="10" stroke-width="1"/>
      <rect id="Rectángulo_2600" data-name="Rectángulo 2600" width="83.848" height="11.092" transform="translate(2022.138 14620.939)" fill="#fff"/>
    </g>
    <g id="Grupo_2853" data-name="Grupo 2853" transform="translate(-1553.257 5)">
      <path id="Trazado_13715" data-name="Trazado 13715" d="M2093.158,14608.136a1.258,1.258,0,0,1-1.242,1.19h-60.055a1.133,1.133,0,0,1-1.139-1.19l1.981-45.465a1.258,1.258,0,0,1,1.243-1.189H2094a1.132,1.132,0,0,1,1.139,1.189Z" fill="#cccccb"/>
      <path id="Trazado_13716" data-name="Trazado 13716" d="M2095.938,14608.136a1.259,1.259,0,0,1-1.243,1.19h-60.054a1.133,1.133,0,0,1-1.14-1.19l1.981-45.465a1.259,1.259,0,0,1,1.243-1.189h60.055a1.134,1.134,0,0,1,1.139,1.189Z" fill="#fff"/>
      <path id="Trazado_13717" data-name="Trazado 13717" d="M2094.809,14607.287a1.212,1.212,0,0,1-1.2,1.146H2035.8a1.091,1.091,0,0,1-1.1-1.146l1.907-43.768a1.211,1.211,0,0,1,1.2-1.145h57.811a1.091,1.091,0,0,1,1.1,1.145Z" fill="#e8ebec" stroke="#f4f4f4" stroke-miterlimit="10" stroke-width="1"/>
      <path id="Trazado_13718" data-name="Trazado 13718" d="M2052.374,14609.326l10.119-23.923,8.027,23.923Z" fill="#acb4b5"/>
      <path id="Trazado_13719" data-name="Trazado 13719" d="M2062.492,14585.375l12.727-.467,3.971,31.664s.4,4.368-1.787,4.368H2058.84v-.993s4.17.05,5.063,0,1.227-1.768,1.042-3.176c-.164-1.248-2.5-24.248-3.092-30.049Z" fill="#3a4643"/>
      <path id="Trazado_13720" data-name="Trazado 13720" d="M2062.493,14585.4l13.5-.5,3.971,31.664s.4,4.368-1.787,4.368h-18.562v-.993s4.169.05,5.062,0,1.227-1.768,1.042-3.176C2065.532,14615.342,2062.493,14585.4,2062.493,14585.4Z" fill="#d4d4d4"/>
    </g>
    <g id="Grupo_2859" data-name="Grupo 2859" transform="translate(-1553.257 5)">
      <path id="Trazado_13721" data-name="Trazado 13721" d="M2112.914,14728.809c2.044-3.595-2.5-14.431-3.91-17.764-3.008-7.112-6.958-14.226-5.387-22.229a25.11,25.11,0,0,1,2.2-6.319c2.657-5.284,6.73-9.632,10.127-14.426a45.081,45.081,0,0,0,2.625-4.743c1.033,2.994,1.9,5.864,1.246,9.069-.883,4.353-3.288,8.152-5.035,12.18a28.744,28.744,0,0,0-1.255,3.416,29.8,29.8,0,0,0-.326,15.021c.967,4.316,2.914,8.359,3.268,12.813a39.211,39.211,0,0,1-1.146,12.983Z" fill="#89b54e"/>
      <g id="Grupo_2855" data-name="Grupo 2855">
        <path id="Trazado_13722" data-name="Trazado 13722" d="M2121.456,14716.467s-.99-18.264,6.542-23.6c0,0-2.175-.85-3.532-.14-9.773,5.116-6.845,23.456-6.845,23.456Z" fill="#64984c"/>
        <g id="Grupo_2854" data-name="Grupo 2854">
          <path id="Trazado_13723" data-name="Trazado 13723" d="M2132.616,14695.625c-.47-6.84-4.784-4.732-8.15-2.9C2126.436,14691.88,2130.824,14694.16,2132.616,14695.625Z" fill="#a4c74d"/>
        </g>
      </g>
      <path id="Trazado_13724" data-name="Trazado 13724" d="M2106.253,14717.17s-2.095-11.581-4.27-12.785c0,0,1.934-2.778,5.559,0s4.109,12.785,4.109,12.785Z" fill="#64984c"/>
      <path id="Trazado_13725" data-name="Trazado 13725" d="M2111.977,14718.458c.981-.044,2.039-3.406,2.222-4.044,1.532-5.342-1.713-10.987-1.369-16.46.225-3.58,2.522-9.915,6.056-11.848-1.49.816-1.382,3.188-1.317,4.6a23.77,23.77,0,0,0,.977,5.622,57.7,57.7,0,0,1,2.245,7.865,18.851,18.851,0,0,1-.611,7.759c-.474,1.741-2.619,6.253-4.871,6.354Z" fill="#a8c94b"/>
      <path id="Trazado_13726" data-name="Trazado 13726" d="M2097.618,14712.322c1.586-3.07,4.093-9.779,8.053-8.974-3.491-.71-10.635-3.557-9.662,3.55C2096.269,14708.8,2097.356,14710.489,2097.618,14712.322Z" fill="#a4c74d"/>
      <path id="Trazado_13727" data-name="Trazado 13727" d="M2122.4,14717.17s2.012-11.581,4.1-12.785c0,0-1.858-2.778-5.342,0s-3.948,12.785-3.948,12.785Z" fill="#64984c"/>
      <path id="Trazado_13728" data-name="Trazado 13728" d="M2130.694,14712.322c-1.524-3.07-3.933-9.779-7.738-8.974,3.354-.71,10.219-3.557,9.285,3.55C2131.991,14708.8,2130.946,14710.489,2130.694,14712.322Z" fill="#a4c74d"/>
      <path id="Trazado_13729" data-name="Trazado 13729" d="M2106.035,14711.038a15.988,15.988,0,0,0-1.425-1c.345,1.216.651,2.463.9,3.569a14.227,14.227,0,0,1,.627,2.967c.073.378.113.6.113.6h2.791A8.35,8.35,0,0,0,2106.035,14711.038Z" fill="#a4c74d"/>
      <g id="Grupo_2857" data-name="Grupo 2857">
        <path id="Trazado_13730" data-name="Trazado 13730" d="M2105.139,14726.271s2.371-11.162-1.756-15.181a3.243,3.243,0,0,1,2.19.254c5.531,4.1,1.957,15.118,1.957,15.118Z" fill="#64984c"/>
        <g id="Grupo_2856" data-name="Grupo 2856">
          <path id="Trazado_13731" data-name="Trazado 13731" d="M2100.27,14712.348c.949-4.17,3.405-2.455,5.3-1C2104.44,14710.636,2101.516,14711.618,2100.27,14712.348Z" fill="#a4c74d"/>
        </g>
      </g>
      <g id="Grupo_2858" data-name="Grupo 2858">
        <path id="Trazado_13732" data-name="Trazado 13732" d="M2123.478,14743.357l2.729-27.716h-23.553l2.729,27.716Z" fill="#805a32"/>
        <path id="Trazado_13733" data-name="Trazado 13733" d="M2102.947,14718.1h22.967l.293-2.455h-23.553Z" fill="#805a32"/>
        <rect id="Rectángulo_2601" data-name="Rectángulo 2601" width="27.492" height="3.057" transform="translate(2100.684 14714.112)" fill="#805a32"/>
      </g>
    </g>
    <g id="Grupo_2874" data-name="Grupo 2874" transform="translate(-1553.257 5)">
      <path id="Trazado_13734" data-name="Trazado 13734" d="M2269.454,14636.506s-2.423-17.2-.887-24.032,5.175-29.135,5.175-29.135l18.477,42.172s-19.623,4.141-20.508,6.916A10.207,10.207,0,0,1,2269.454,14636.506Z" fill="#ede26b"/>
      <path id="Trazado_13735" data-name="Trazado 13735" d="M2289.689,14655.14c-.51.467,3.7,25.313,5.487,30.761s13.375,33.753,14.073,39.209,1.9,19.718,1.055,23-5.443,11.258-5.443,11.258l14.02-13.366,3.436,1.722s-2.037-8.941-3.8-10.674c0,0-1.615-10.474-2.56-19.638-.645-6.259-.264-12.586-1.043-18.831-.825-6.609-3.889-10.879-6.447-16.721l.984-22.438s1.037,1.67-.516-1.158S2293.811,14651.393,2289.689,14655.14Z" fill="#edccac"/>
      <g id="Grupo_2861" data-name="Grupo 2861">
        <g id="Grupo_2860" data-name="Grupo 2860">
          <path id="Trazado_13736" data-name="Trazado 13736" d="M2269.057,14648.184c-.673.309-4.363,27.032-4.286,33.172s2.8,38.769,1.765,44.564-4.394,20.751-6.318,23.831-9.179,9.741-9.179,9.741l18.614-9.139,2.957,2.862s.793-9.786-.448-12.12c0,0,1.722-11.215,3.7-20.879,1.324-6.457,4.06-12.518,5.465-18.953,1.658-7.58-.9-12.456-1.685-19.758l8.217-22.6s.523,2.038-.153-1.349S2274.469,14645.683,2269.057,14648.184Z" fill="#edccac"/>
        </g>
        <path id="Trazado_13737" data-name="Trazado 13737" d="M2272.346,14739.913s8.891,2,.183,14.336l-.912,8.5-3.728-.282.862-11.383-7.79,10.856-.87.873-14.386-1.092s-1.457-1.985,1.206-3.524c0,0,8.094-1.946,10.317-5.055,0,0,2.868,4.313,9.345-3.367Z" fill="#212422"/>
      </g>
      <path id="Trazado_13738" data-name="Trazado 13738" d="M2318.351,14735.945s8.482-.711,4.184,12.722l1.573,7.833-3.4.795-2.425-10.385-3.9,11.859-.533,1.02-13.122,3.063s-1.855-1.358.084-3.477c0,0,6.669-4,7.778-7.395,0,0,3.763,3.034,7.38-5.627Z" fill="#212422"/>
      <path id="Trazado_13739" data-name="Trazado 13739" d="M2316.7,14640.538l-20.911-8.077.766-39.283,19.594,21.113Z" fill="#bfb553"/>
      <g id="Grupo_2865" data-name="Grupo 2865">
        <path id="Trazado_13740" data-name="Trazado 13740" d="M2271.815,14546.339s-.876,1.84,4.166-.388Z" fill="#f6f6f6"/>
        <path id="Trazado_13741" data-name="Trazado 13741" d="M2275.792,14546.524s-1.963,2.568-3.177,2.854a.651.651,0,0,0-.011.711s.683,1.319,1.466.025A10.689,10.689,0,0,0,2275.792,14546.524Z" fill="#b85744"/>
        <path id="Trazado_13742" data-name="Trazado 13742" d="M2275.981,14545.951s-4.318-.467-4.826-.817c0,0-.748,1.291.5,1.334A6.292,6.292,0,0,0,2275.981,14545.951Z" fill="#b85744"/>
        <g id="Grupo_2864" data-name="Grupo 2864">
          <path id="Trazado_13743" data-name="Trazado 13743" d="M2275.63,14524.975s-4.013,2.678-3.273,10.187c0,0,.79,3.551-.181,4.4l-2.831,1.357s-.5,2.618,1.889,2.652a1.478,1.478,0,0,1-.179,1.694,32.744,32.744,0,0,0,4.926.688s-1.245,4.067-2.551,4.745c0,0-.363,4.071,1.869,4.415a19.121,19.121,0,0,0,7.892-2.046l1.449,6.585,5.534,10.78,8.384-9.384-7.142-15.622s4.37.021,3.661-5.073c-1.018-7.3-4.013.023-4.068.7,0,0-1.122.076-.89-.833C2291.466,14534.939,2282.662,14521.452,2275.63,14524.975Z" fill="#edccac"/>
          <g id="Grupo_2862" data-name="Grupo 2862">
            <path id="Trazado_13744" data-name="Trazado 13744" d="M2274.083,14535.822a1.944,1.944,0,0,1-.263-1.911s1.717-2.674,7.171,4.017c0,0-2.71,4.028-5.587,2.888,0,0-.914-.716-.341-.758Z" fill="#b38057"/>
            <path id="Trazado_13745" data-name="Trazado 13745" d="M2274.083,14535.822a7.772,7.772,0,0,0,.98,4.235s4.976-.217,5.522-2.03C2280.585,14538.027,2274.907,14534.794,2274.083,14535.822Z" fill="none"/>
            <path id="Trazado_13746" data-name="Trazado 13746" d="M2274.083,14535.822a7.772,7.772,0,0,0,.98,4.235s4.976-.217,5.522-2.03C2280.585,14538.027,2274.907,14534.794,2274.083,14535.822Z" fill="#fff"/>
            <path id="Trazado_13747" data-name="Trazado 13747" d="M2276.858,14536.208c-1.258-.506-2.434-.812-2.775-.386a8.466,8.466,0,0,0,.7,3.775C2276.551,14539.659,2276.885,14537.769,2276.858,14536.208Z" fill="#83a8c5"/>
            <path id="Trazado_13748" data-name="Trazado 13748" d="M2275.549,14535.76c-.7-.182-1.249-.207-1.466.063a9.228,9.228,0,0,0,.415,3.111C2275.268,14538.842,2275.5,14537.214,2275.549,14535.76Z" fill="#242c33"/>
            <path id="Trazado_13749" data-name="Trazado 13749" d="M2274.083,14535.822s-1.763-1.584,1.41-1.25c0,0,3.792,1.462,5.5,3.355,0,0,1.158.039,1.223-.542a1.106,1.106,0,0,1-1.629.642S2274.9,14535.143,2274.083,14535.822Z" fill="#373d46"/>
          </g>
          <g id="Grupo_2863" data-name="Grupo 2863">
            <path id="Trazado_13750" data-name="Trazado 13750" d="M2273.633,14532.405s2.424-1.181,8.611,2.9C2282.244,14535.3,2276.584,14529.673,2273.633,14532.405Z" fill="#b38057"/>
            <path id="Trazado_13751" data-name="Trazado 13751" d="M2273.633,14532.405s2.352-1.492,8.611,2.9C2282.244,14535.3,2276.584,14529.673,2273.633,14532.405Z" fill="#495562"/>
          </g>
          <path id="Trazado_13752" data-name="Trazado 13752" d="M2274.7,14535.731s-1.846.281-1.9-.778c0,0,.351.437.64.443,0,0-.3-.418-.119-.717a.927.927,0,0,0,.414.731,1.541,1.541,0,0,1-.135-.729A2.793,2.793,0,0,0,2274.7,14535.731Z" fill="#22282e"/>
          <path id="Trazado_13753" data-name="Trazado 13753" d="M2291.136,14541.229c.272-.915.795-2.759,1.962-2.957,1.055-.184,1.793,1.116,1.875,1.944a6.177,6.177,0,0,1-.43,2.874,3.9,3.9,0,0,1-2.443,2.171c-.031.009-.681.182-.684.164.063.813.114,1.812.157,2.969a49.1,49.1,0,0,0,5.924-.486q.961-.138,1.917-.319c.295-.058.588-.115.883-.178l.274-.062c.078-.015.194-.044.235-.055a33.136,33.136,0,0,0,3.559-1.067c.6-.219,1.189-.453,1.771-.713.266-.119.529-.243.791-.368.131-.062.26-.126.389-.192l.238-.123a20.758,20.758,0,0,0,2.462-1.583c.109-1.122.167-1.744.167-1.744,3.417-9.024-2.707-16.771-2.707-16.771-8.224-11.753-27.439-8.036-27.439-8.036-6.8-.21-6.02,10.061-6.02,10.061,9.4-2.7,14.054,6.815,14.054,6.815C2287.948,14542.164,2291.136,14541.229,2291.136,14541.229Z"/>
        </g>
      </g>
      <path id="Trazado_13754" data-name="Trazado 13754" d="M2308.924,14619.687a21.948,21.948,0,0,0-3.486-5.486c-2.023-2.295-9.407-37.287-8.181-39.309s-2.173-20.24-2.173-20.24-8.511.248-11.212,4.187c-4.076,5.95-22.127,11.276-16.35,21.583,3.694,6.589,4.254,10.106,4.255,10.112.038.234-9.7,7.03-10.278,7.554-19.115,17.3-5.789,42.1-.8,62.472.156.637,1.291,7.741,1.663,7.838,10.322,2.629,27.286,3.5,50.015-2.372-.438-6.513,1.292-19.713.576-26.2-.659-5.941-1.074-12.071-3.076-17.757C2309.592,14621.259,2309.275,14620.462,2308.924,14619.687Z" fill="#735895"/>
      <path id="Trazado_13755" data-name="Trazado 13755" d="M2312.375,14634.449a55.907,55.907,0,0,0-2.5-12.384c-.283-.807-.6-1.6-.951-2.379a21.948,21.948,0,0,0-3.486-5.486c-2.023-2.295-3.759-12.735-8.51-18.365-1.97-4.331-3.8-9.192-3.724-12.169.166-6.347,1.91-23.834-2.441-28.458a190.416,190.416,0,0,0-11.547,15.513c-9.827,14.689-.23,23,10.217,33.049a135.528,135.528,0,0,1,20.194,23.954C2310.565,14629.179,2310.74,14633.517,2312.375,14634.449Z" fill="#59665e"/>
      <path id="Trazado_13756" data-name="Trazado 13756" d="M2297.881,14553.655c-1.794-1.892-8.557,1.806-10.143,3.024-8.364,6.424-9.692,16.5-6.686,25.943,3.334,10.466,10.247,16.209,19.413,21.66a27.627,27.627,0,0,1,9.735,9.349,29.688,29.688,0,0,1,3.9,10.233c.82,4.7-.067,9.47-1.072,14.066a39.58,39.58,0,0,1-1.81,6.526c3.79.977,8.908-2.61,13.172-5.318,0,0-1.589-22.414-17.168-41.277,0,0-1.148-14.818-.982-21.167S2302.234,14558.282,2297.881,14553.655Z" fill="#ede26b"/>
      <path id="Trazado_13757" data-name="Trazado 13757" d="M2300.414,14581.114a2.258,2.258,0,0,0-.117-.415S2300.339,14580.856,2300.414,14581.114Z" opacity="0.25" fill="url(#linear-gradient)"/>
      <path id="Trazado_13758" data-name="Trazado 13758" d="M2300.408,14581.021a2.084,2.084,0,0,0-.084-.3S2300.354,14580.833,2300.408,14581.021Z" opacity="0.25" fill="url(#linear-gradient-2)"/>
      <g id="Grupo_2866" data-name="Grupo 2866">
        <path id="Trazado_13759" data-name="Trazado 13759" d="M2295.786,14503.762c-8.919,0-16.152,6.431-16.152,14.366,0,.156,0,.313.009.468h12.321v5.432h8.645v1.691h8.89a13.148,13.148,0,0,0,2.439-7.591C2311.938,14510.192,2304.706,14503.762,2295.786,14503.762Z" fill="#735895"/>
        <path id="Trazado_13760" data-name="Trazado 13760" d="M2274.017,14524.783c.117-2.167.665-5.553,2.848-7.169,1.825-.183,3-.284,3-.284l25.74,5.165a17.262,17.262,0,0,1,1.871,2.236,19.931,19.931,0,0,1,3.643,9.3c-8.1-3.066-16.987-6.648-21.432-7.435C2286.019,14525.947,2279.966,14525.382,2274.017,14524.783Z" fill="#59665e"/>
        <path id="Trazado_13761" data-name="Trazado 13761" d="M2256.4,14520.055c-1.27-2.232,23.469-4.358,23.469-4.358l31.474,6.317s18.922,11.962,16.541,14.687-29.256-10.163-38.193-11.741S2257.669,14522.287,2256.4,14520.055Z" fill="#735895"/>
        <path id="Trazado_13762" data-name="Trazado 13762" d="M2309.835,14516.783c-.98-.4-2.334.426-3.1.968a1.982,1.982,0,0,0-.521.517,2.069,2.069,0,0,0-2.1-1.606,1.537,1.537,0,0,0-.366.022,1.28,1.28,0,0,0-.559.275,3.277,3.277,0,0,0-2.142-2.445c-3.094-.971-3.7,6.223-.383,6.7a2.407,2.407,0,0,0,1.419-.154c-1.2,1.253-2.862,3.1-2.936,3.73,0,0,3.154,1.925,3.8,1.75.344-.092.97-1.57,1.5-3.032-.053,1.573.013,3.2.306,3.032.525-.292,3.339,0,3.339,0a14.764,14.764,0,0,0-.79-3.844c.57.512,1.4,1.074,1.792.084a8.7,8.7,0,0,0,.326-1.909C2309.556,14520.027,2311.067,14517.288,2309.835,14516.783Z" fill="#59665e"/>
        <path id="Trazado_13763" data-name="Trazado 13763" d="M2299.148,14524.259s3.154,1.928,3.8,1.754,2.278-5.2,2.453-5.9-2.1-.821-2.1-.821S2299.264,14523.267,2299.148,14524.259Z" fill="#ede26b"/>
        <path id="Trazado_13764" data-name="Trazado 13764" d="M2279.865,14515.7l31.454,6.384a12.873,12.873,0,0,0,.587-3.066l-31.082-6.31A13.125,13.125,0,0,0,2279.865,14515.7Z" fill="#fff"/>
        <path id="Trazado_13765" data-name="Trazado 13765" d="M2308.094,14526.013s-2.814-.294-3.339,0-.321-5.207,0-5.781.84-.352,1.588,0S2308.223,14525.312,2308.094,14526.013Z" fill="#ede26b"/>
        <path id="Trazado_13766" data-name="Trazado 13766" d="M2302.537,14520.136a1.852,1.852,0,0,1-1.872.55c-3.312-.475-2.711-7.668.383-6.7a3.416,3.416,0,0,1,2.245,2.94c-.164.845-.371,1.694-.5,2.546A1.53,1.53,0,0,1,2302.537,14520.136Z" fill="#ede26b"/>
        <path id="Trazado_13767" data-name="Trazado 13767" d="M2306.179,14517.8a1.9,1.9,0,0,1,.559-.576c.763-.542,2.117-1.368,3.1-.968,1.232.5-.279,3.245-.413,4.084a8.684,8.684,0,0,1-.326,1.91c-.461,1.165-1.533.179-2.066-.345a3.438,3.438,0,0,1-1.153-2.783A2.826,2.826,0,0,1,2306.179,14517.8Z" fill="#ede26b"/>
        <path id="Trazado_13768" data-name="Trazado 13768" d="M2302.537,14520.136a1.53,1.53,0,0,0,.251-.66c.134-.852.341-1.7.5-2.546a4.639,4.639,0,0,0-.174-.743,2.213,2.213,0,0,0-1.238,1.623c-.24.8-.691,1.843-.193,2.627a1.2,1.2,0,0,0,.149.192A1.294,1.294,0,0,0,2302.537,14520.136Z" fill="#59665e"/>
        <path id="Trazado_13769" data-name="Trazado 13769" d="M2306.179,14517.8a2.826,2.826,0,0,0-.3,1.322,3.237,3.237,0,0,0,.4,1.812,2.241,2.241,0,0,0,.47-1.386,4.577,4.577,0,0,0-.21-2.165A1.75,1.75,0,0,0,2306.179,14517.8Z" fill="#59665e"/>
        <path id="Trazado_13770" data-name="Trazado 13770" d="M2306.309,14520.214c-.73-.34-1.24-.551-1.554.018a7.2,7.2,0,0,0-.262,1.851,3.088,3.088,0,0,0,.534-.044c.991-.191,1.193-.878,1.279-1.787C2306.308,14520.238,2306.308,14520.226,2306.309,14520.214Z" fill="#59665e"/>
        <path id="Trazado_13771" data-name="Trazado 13771" d="M2303.293,14519.294s-.565.56-1.281,1.31a1.411,1.411,0,0,0,.2.533,2.968,2.968,0,0,0,2.561.935c.317-.922.562-1.709.624-1.956C2305.572,14519.412,2303.293,14519.294,2303.293,14519.294Z" fill="#59665e"/>
        <path id="Trazado_13772" data-name="Trazado 13772" d="M2303.749,14516.159a1.44,1.44,0,0,1,.366-.023c2.049.128,2.352,1.733,2.191,3.414-.086.911-.288,1.6-1.279,1.786a3.053,3.053,0,0,1-2.815-.9c-.5-.784-.045-1.831.2-2.627C2302.628,14517.083,2303.007,14516.311,2303.749,14516.159Z" fill="#ede26b"/>
      </g>
      <g id="Grupo_2873" data-name="Grupo 2873">
        <g id="Grupo_2872" data-name="Grupo 2872">
          <path id="Trazado_13773" data-name="Trazado 13773" d="M2322.656,14599.9c-1.247-2.165-2.476-4.346-3.732-6.51a102.859,102.859,0,0,0-10.021-14.924c-1.67-2.565-12.561-2.746-12.561-2.746l3.182,6.644-3.127,1.783c6.955,7.76,15.812,17.708,15.951,18.232-.013-.047-3.318,3.777-3.53,4.046-1.618,2.011-3.576,3.631-5.254,5.57a30.6,30.6,0,0,1-6.146,5.615l-.366.142-2.794,1.556-2.091,1.052s-2.019,1.265-2.331,1.374a12.027,12.027,0,0,0-1.913,1.347,18.477,18.477,0,0,1-2.381,1.113c-.14.124-.056,1.016,1.611.775l-1.643,1.312-1.657,2.337s-1.757,2.67-1.811,2.969.145.488.491.247l-.49.79s.2.536.934.322a6.9,6.9,0,0,0,2.959-2.761,9.172,9.172,0,0,0,1.525-1.173,10.006,10.006,0,0,1,.99-.835c.208-.1,1.72-.971,1.72-.971l-1.14.878a13.036,13.036,0,0,0-1.232.979c-.154.2-1.009,1.092-1.084,1.188l-1.67,2.151s-1.224,1.605-.843,1.9a1.479,1.479,0,0,0,1.282-.228,12.41,12.41,0,0,0,2.072-2.143,16.523,16.523,0,0,1,2.358-2.012c.243-.116,1.934-1.545,2.107-1.607,0,0-.766,1.038-.89,1.271s-1.551,2.448-1.551,2.448l-.608,1.132s-.913,1.377-.492,1.647a1.709,1.709,0,0,0,1.543-.777s1.069-1.4,1.177-1.63l1.314-1.827s1.446-1.523,1.7-1.781a17.964,17.964,0,0,1,2.441-1.393,9.679,9.679,0,0,0,3.206-3.437c.2-.393.363-.7.489-.937,1.44-.787,3.011-1.661,3.888-2.155l.017.034c8.475-4,17.379-9.24,21.039-14.654C2325.927,14605.316,2323.151,14600.759,2322.656,14599.9Z" fill="#edccac"/>
          <g id="Grupo_2867" data-name="Grupo 2867">
            <path id="Trazado_13774" data-name="Trazado 13774" d="M2289.832,14622.774a3.026,3.026,0,0,0-.576.352c-.122.123-.79.682-1.327,1.132-.378.316-.7.589-.8.677a.04.04,0,0,0,0,.058.023.023,0,0,0,.012.01.039.039,0,0,0,.043-.006c.1-.087.423-.359.8-.676.566-.474,1.208-1.011,1.333-1.136a3.09,3.09,0,0,1,.558-.34A.51.51,0,0,1,2289.832,14622.774Z" fill="#edcea6"/>
          </g>
          <g id="Grupo_2868" data-name="Grupo 2868">
            <path id="Trazado_13775" data-name="Trazado 13775" d="M2289.963,14624.521a.042.042,0,0,1-.018-.055,3.527,3.527,0,0,1,.858-.791.039.039,0,0,1,.055.013.041.041,0,0,1-.011.056,3.5,3.5,0,0,0-.831.759A.039.039,0,0,1,2289.963,14624.521Z" fill="#edcea6"/>
          </g>
          <g id="Grupo_2869" data-name="Grupo 2869">
            <path id="Trazado_13776" data-name="Trazado 13776" d="M2282.533,14631.83c-.017-.014.545-.762.558-.78s1.149-1.555,1.232-1.687,1.991-2.015,2.111-2.107c.136-.106,2.693-2.143,2.719-2.164a.041.041,0,0,1,.056.008.043.043,0,0,1-.007.058c-.026.02-2.583,2.057-2.72,2.164-.119.093-2,1.944-2.092,2.087s-1.189,1.629-1.236,1.69C2283.142,14631.115,2282.535,14631.831,2282.533,14631.83Z" fill="#edcea6"/>
          </g>
          <g id="Grupo_2870" data-name="Grupo 2870">
            <path id="Trazado_13777" data-name="Trazado 13777" d="M2291.187,14626a.041.041,0,0,1-.021-.047,1.682,1.682,0,0,1,.7-.9.039.039,0,0,1,.054.016.04.04,0,0,1-.014.055,1.627,1.627,0,0,0-.663.848.039.039,0,0,1-.049.028Z" fill="#edcea6"/>
          </g>
          <g id="Grupo_2871" data-name="Grupo 2871">
            <path id="Trazado_13778" data-name="Trazado 13778" d="M2292.65,14627.592a.038.038,0,0,1-.02-.025c-.026-.123.33-.576.485-.767a.04.04,0,0,1,.055,0,.042.042,0,0,1,.005.058,2.812,2.812,0,0,0-.467.7.042.042,0,0,1-.033.046A.037.037,0,0,1,2292.65,14627.592Z" fill="#edcea6"/>
          </g>
        </g>
        <path id="Trazado_13779" data-name="Trazado 13779" d="M2303.549,14592.989s-11.608-13.813-13.437-15.915c-1.8-2.069-4.259-10.237,1.822-13.37,10.195-5.254,21.815,18.018,23.236,20.751C2312.635,14587.115,2303.549,14592.989,2303.549,14592.989Z" fill="#735895"/>
      </g>
    </g>
    <g id="Grupo_2909" data-name="Grupo 2909" transform="translate(-1553.257 5)">
      <g id="Grupo_2876" data-name="Grupo 2876">
        <g id="Grupo_2875" data-name="Grupo 2875">
          <path id="Trazado_13780" data-name="Trazado 13780" d="M2310.16,14598.166a.861.861,0,1,1,.909.81A.86.86,0,0,1,2310.16,14598.166Z" fill="#bfc2c5"/>
        </g>
      </g>
      <g id="Grupo_2908" data-name="Grupo 2908">
        <g id="Grupo_2881" data-name="Grupo 2881">
          <g id="Grupo_2877" data-name="Grupo 2877">
            <rect id="Rectángulo_2602" data-name="Rectángulo 2602" width="7.827" height="2.43" transform="translate(2365.651 14685.537)" fill="#603b2f"/>
          </g>
          <g id="Grupo_2880" data-name="Grupo 2880">
            <g id="Grupo_2879" data-name="Grupo 2879">
              <g id="Grupo_2878" data-name="Grupo 2878">
                <rect id="Rectángulo_2603" data-name="Rectángulo 2603" width="6.992" height="2.129" transform="translate(2371.161 14638.115)" fill="#603b2f"/>
              </g>
            </g>
          </g>
        </g>
        <g id="Grupo_2907" data-name="Grupo 2907">
          <g id="Grupo_2882" data-name="Grupo 2882">
            <path id="Trazado_13781" data-name="Trazado 13781" d="M2365.511,14732.2a9.9,9.9,0,0,0,.039-1.217l-4.848.233.358,7.4-5.561.27.751,8.456-.349,8.036.26,5.8s9.1.8,9.065-.343-1.687-7.579-1.107-12.257S2365.318,14733.32,2365.511,14732.2Z" fill="#e1b97f"/>
            <path id="Trazado_13782" data-name="Trazado 13782" d="M2364.739,14754.845c.2,1.555.456,3,.656,4.112a18.08,18.08,0,0,1,.288,1.868.6.6,0,0,1-.271.5c-1.149.867-7.413.392-9.305.228l-.466-.041.09-6.131A62.285,62.285,0,0,1,2364.739,14754.845Z" fill="#fff"/>
          </g>
          <g id="Grupo_2889" data-name="Grupo 2889">
            <path id="Trazado_13783" data-name="Trazado 13783" d="M2368.972,14766c.937-2.214-.284-6.7-1.621-8.551a1.788,1.788,0,0,0-2.417-.682,5.652,5.652,0,0,1-4.6,2.922,1.861,1.861,0,0,1-2.073.547,10.379,10.379,0,0,1-2.649-1.313,3.7,3.7,0,0,1-1-1.306c-1.294-.729-2.607-1.208-3.815-.543l-.486.1-8.7,6.521c-1.858.2-3.709.461-5.54.82a8.036,8.036,0,0,0-4.093,1.736c-1.015,1.011-1.427,6.007-.2,5.974s18.431,0,18.431,0l6.449-2.9a14.718,14.718,0,0,0,1.578-.191h0l.418,1.8,10.491-1.82Z"/>
            <g id="Grupo_2888" data-name="Grupo 2888">
              <g id="Grupo_2883" data-name="Grupo 2883">
                <path id="Trazado_13784" data-name="Trazado 13784" d="M2350.8,14757.076l-.486.1-8.6,6.445,2.516,1.446c.4-.316.806-.633,1.213-.943,1.931-1.478,3.947-2.864,5.958-4.255.954-.659,1.9-1.3,2.783-2.034l.325-.272C2353.249,14756.865,2351.974,14756.43,2350.8,14757.076Z" fill="#303825"/>
              </g>
              <path id="Trazado_13785" data-name="Trazado 13785" d="M2358.833,14761.406a11.6,11.6,0,0,0,5.418-2.251,9.451,9.451,0,0,0,2.553-2.271l0,0c-2.175-1.626-5,3.406-8.071,2.905-1.547-.254-3.4-1.981-5.228-2.7C2354.514,14759.182,2356.366,14761.576,2358.833,14761.406Z" fill="#525453"/>
              <g id="Grupo_2884" data-name="Grupo 2884">
                <path id="Trazado_13786" data-name="Trazado 13786" d="M2345.259,14763.213a.371.371,0,0,1-.466,0l-1.185-1.022a.261.261,0,0,1,0-.4l.467-.406a.373.373,0,0,1,.466,0l1.186,1.021a.264.264,0,0,1,0,.405Z" fill="#dce4bc"/>
              </g>
              <g id="Grupo_2885" data-name="Grupo 2885">
                <path id="Trazado_13787" data-name="Trazado 13787" d="M2346.867,14761.784a.365.365,0,0,1-.467,0l-1.186-1.023a.261.261,0,0,1,0-.405l.467-.4a.368.368,0,0,1,.465,0l1.186,1.024a.261.261,0,0,1,0,.4Z" fill="#dce4bc"/>
              </g>
              <g id="Grupo_2886" data-name="Grupo 2886">
                <path id="Trazado_13788" data-name="Trazado 13788" d="M2348.473,14760.358a.367.367,0,0,1-.466,0l-1.186-1.021a.261.261,0,0,1,0-.405l.466-.4a.369.369,0,0,1,.466,0l1.186,1.023a.261.261,0,0,1,0,.4Z" fill="#dce4bc"/>
              </g>
              <g id="Grupo_2887" data-name="Grupo 2887">
                <path id="Trazado_13789" data-name="Trazado 13789" d="M2350.08,14758.931a.375.375,0,0,1-.469,0l-1.184-1.022a.264.264,0,0,1,0-.406l.466-.4a.363.363,0,0,1,.465,0l1.188,1.022a.262.262,0,0,1,0,.4Z" fill="#dce4bc"/>
              </g>
            </g>
          </g>
          <path id="Trazado_13790" data-name="Trazado 13790" d="M2350.243,14619.68l8.159-4.6.36,15.315,2.378.244,3.158,61.563-2.729,1.581c.648,3.182,6.06,57.286,4.884,59.974-3.791-.251-7.746.268-12.939.435-2.676-19.5-4.368-39.477-8.3-58.746-2.972-14.569.088-29.287.6-43.935.343-9.76,2.246-19.288,3.918-28.882Q2349.99,14621.153,2350.243,14619.68Z" fill="#0b0c0c"/>
          <g id="Grupo_2898" data-name="Grupo 2898">
            <g id="Grupo_2890" data-name="Grupo 2890">
              <path id="Trazado_13791" data-name="Trazado 13791" d="M2384.326,14737.849c.459,4.8,2.185,15.651,3.225,18,1.132,2.564-7.069,3.81-7.069,3.81s-5.481-13.3-9.221-22.1Z" fill="#e1b97f"/>
              <path id="Trazado_13792" data-name="Trazado 13792" d="M2378.786,14754.778a78.3,78.3,0,0,0,8.91-2.519,27.292,27.292,0,0,0,1.152,4.468,1.572,1.572,0,0,1-.114,1.539c-1.24,1.959-6.754,2.847-7.378,2.941l-.573.087-.2-.484c-.025-.061-1.021-2.477-2.442-5.9Q2378.465,14754.847,2378.786,14754.778Z" fill="#fff"/>
            </g>
            <g id="Grupo_2897" data-name="Grupo 2897">
              <path id="Trazado_13793" data-name="Trazado 13793" d="M2394.909,14765.54c.78-2.51-1.032-7.263-2.69-9.135a1.957,1.957,0,0,0-2.706-.481,6.167,6.167,0,0,1-4.691,3.678,2.038,2.038,0,0,1-2.2.822,11.468,11.468,0,0,1-3.027-1.145,4.044,4.044,0,0,1-1.226-1.312c-1.488-.657-2.969-1.035-4.212-.18l-.52.159-8.763,8.038c-2,.422-3.99.9-5.942,1.492a8.8,8.8,0,0,0-4.27,2.335c-1,1.21.693,3.724,2.491,3.81s19.652-.62,19.652-.62,6.016-2.7,6.757-2.9h0l1.316,2.228,9.486-.317Z" fill="#191919"/>
              <g id="Grupo_2896" data-name="Grupo 2896">
                <g id="Grupo_2891" data-name="Grupo 2891">
                  <path id="Trazado_13794" data-name="Trazado 13794" d="M2374.158,14757.787l-.52.159-8.664,7.946,2.894,1.3q.6-.583,1.219-1.157c1.943-1.815,3.989-3.544,6.029-5.278.967-.818,1.932-1.621,2.809-2.516.108-.11.214-.218.325-.329C2376.8,14757.291,2375.366,14756.955,2374.158,14757.787Z" fill="#303825"/>
                </g>
                <path id="Trazado_13795" data-name="Trazado 13795" d="M2383.373,14761.633a12.664,12.664,0,0,0,5.655-3.038,10.279,10.279,0,0,0,2.534-2.749l0,0c-2.544-1.534-5.078,4.248-8.472,4.036-1.712-.108-3.921-1.79-5.987-2.38C2378.428,14759.679,2380.7,14762.084,2383.373,14761.633Z" fill="#525453"/>
                <g id="Grupo_2892" data-name="Grupo 2892">
                  <path id="Trazado_13796" data-name="Trazado 13796" d="M2368.789,14765.067a.405.405,0,0,1-.509.052l-1.4-.986a.283.283,0,0,1-.044-.438l.464-.492a.4.4,0,0,1,.507-.052l1.4.982a.291.291,0,0,1,.048.443Z" fill="#dce4bc"/>
                </g>
                <g id="Grupo_2893" data-name="Grupo 2893">
                  <path id="Trazado_13797" data-name="Trazado 13797" d="M2370.384,14763.338a.4.4,0,0,1-.509.054l-1.4-.984a.287.287,0,0,1-.045-.442l.465-.49a.4.4,0,0,1,.506-.055l1.4.988a.281.281,0,0,1,.046.438Z" fill="#dce4bc"/>
                </g>
                <g id="Grupo_2894" data-name="Grupo 2894">
                  <path id="Trazado_13798" data-name="Trazado 13798" d="M2371.979,14761.612a.4.4,0,0,1-.508.052l-1.4-.984a.288.288,0,0,1-.042-.442l.463-.489a.406.406,0,0,1,.508-.055l1.4.985a.287.287,0,0,1,.046.44Z" fill="#dce4bc"/>
                </g>
                <g id="Grupo_2895" data-name="Grupo 2895">
                  <path id="Trazado_13799" data-name="Trazado 13799" d="M2373.574,14759.884a.406.406,0,0,1-.509.053l-1.4-.985a.285.285,0,0,1-.045-.44l.465-.491a.4.4,0,0,1,.505-.053l1.4.986a.283.283,0,0,1,.045.438Z" fill="#dce4bc"/>
                </g>
              </g>
            </g>
          </g>
          <path id="Trazado_13800" data-name="Trazado 13800" d="M2354.54,14627.752l-1.429,45.964s.846,8.966,2.865,12.628,18.214,66.393,18.214,66.393l14.4-2.032s-1.693-11.5-3.448-17.382c-1.557-5.223-7.14-60.123-7.14-60.123s11.084-36.405,10.272-43.481c-2.192-19.09-18.342-14.346-18.342-14.346l3.108-10.282-16.267,14.224Z" fill="#1a1c1c"/>
          <g id="Grupo_2902" data-name="Grupo 2902">
            <path id="Trazado_13801" data-name="Trazado 13801" d="M2344.294,14535.4c.672-.782,3.3-4.448,3.3-4.448a45.174,45.174,0,0,0-.731-5.025c-.318-.887-.314-7.021.053-7.852.789-1.778,5.121-3.393,6.993-3.668a33.8,33.8,0,0,0,3.693-.892l-.082-.3,1.255-2.52,5.978-1.059,7.234,2.913,1.316,20.163,5.575,13.425-12.66,6.573-2.665-5.95-2.354-3.485c-3.1,1.925-6.645,4.112-7.029,4.291-.7.321-1.522-.236-1.959-.975a19.517,19.517,0,0,1-1.06-2.9,6.184,6.184,0,0,1-1.6-1.232.89.89,0,0,1-.068-.845c.106-.36.254-.666-.113-.762a1.936,1.936,0,0,1-1.22-1.413,15.554,15.554,0,0,0-.182-1.609C2347.388,14538.013,2343.623,14536.184,2344.294,14535.4Z" fill="#e1b97f"/>
            <g id="Grupo_2901" data-name="Grupo 2901">
              <g id="Grupo_2899" data-name="Grupo 2899">
                <path id="Trazado_13802" data-name="Trazado 13802" d="M2350.872,14527.311a1.439,1.439,0,0,1-.349-1.386s1.041-2.106,5.607,2.366c0,0-1.662,3.187-3.873,2.584,0,0-.734-.449-.315-.527Z" fill="#c67f56"/>
                <path id="Trazado_13803" data-name="Trazado 13803" d="M2350.872,14527.311a5.768,5.768,0,0,0,1.07,3.037s3.646-.571,3.9-1.95C2355.839,14528.4,2351.394,14526.485,2350.872,14527.311Z" fill="none"/>
                <path id="Trazado_13804" data-name="Trazado 13804" d="M2350.872,14527.311a5.768,5.768,0,0,0,1.07,3.037s3.646-.571,3.9-1.95C2355.839,14528.4,2351.394,14526.485,2350.872,14527.311Z" fill="#fff"/>
                <path id="Trazado_13805" data-name="Trazado 13805" d="M2352.948,14527.365c-.969-.268-1.859-.4-2.076-.055a6.278,6.278,0,0,0,.825,2.72C2353,14529.931,2353.095,14528.512,2352.948,14527.365Z" fill="#81a4c2"/>
                <path id="Trazado_13806" data-name="Trazado 13806" d="M2351.946,14527.143c-.528-.075-.936-.049-1.074.168a6.9,6.9,0,0,0,.563,2.257C2351.992,14529.434,2352.027,14528.218,2351.946,14527.143Z" fill="#242c33"/>
              </g>
              <g id="Grupo_2900" data-name="Grupo 2900">
                <path id="Trazado_13807" data-name="Trazado 13807" d="M2350.365,14527.05s-.252-.284-.146-.517a.678.678,0,0,0,.363.5.527.527,0,0,1-.136-.323.48.48,0,0,1-.024-.2l.062.079c-.077-.094.629-.271.657-.274a4.153,4.153,0,0,1,2.035.4,12.876,12.876,0,0,1,1.97.89,5.879,5.879,0,0,1,.984.688,1.383,1.383,0,0,0,.781-.3.762.762,0,0,1-1.072.405,20.707,20.707,0,0,0-4.523-1.205,2.871,2.871,0,0,1-.372.066.285.285,0,0,0-.072.052s-.02-.015-.051-.041c-.394.027-.892-.032-.964-.494C2349.857,14526.775,2350.152,14527.068,2350.365,14527.05Z" fill="#22282e"/>
              </g>
            </g>
            <path id="Trazado_13808" data-name="Trazado 13808" d="M2347.982,14524.081s.513-1.4,3.441-1.374,7.338,1.078,8.188,2.035a33.2,33.2,0,0,0-4.728-1.063c-1.525-.112-4.4,1.189-5.031.917A12.125,12.125,0,0,0,2347.982,14524.081Z" fill="#22282e"/>
            <path id="Trazado_13809" data-name="Trazado 13809" d="M2351.91,14540.979c.207-.027.413-.055.623-.088.1-.017.208-.029.313-.047l.158-.024.152-.025c.1-.017.2-.032.3-.05.049-.007.1-.017.146-.025s.1-.018.146-.024c.193-.036.381-.069.554-.1s.339-.065.489-.1l.217-.044.193-.042c.121-.026.225-.049.311-.071s.154-.034.2-.047a.6.6,0,0,1,.07-.017l-.019-.018-.072.014-.2.037-.32.053-.2.031c-.069.012-.141.021-.219.032-.151.026-.315.048-.491.073l-.546.071c-.049,0-.095.012-.144.016s-.1.011-.147.018c-.1.013-.2.022-.3.035-.049,0-.1.01-.151.017l-.146.015c-.1.01-.2.019-.3.03-.2.02-.4.035-.6.052s-.4.032-.584.046l-.277.02-.267.018-.486.031c-.15.007-.289.015-.409.021l-.314.018-.1,0c.126.074.136.2.1.351l.221-.022.429-.049.507-.058c.089-.012.181-.021.275-.034l.288-.036C2351.5,14541.033,2351.705,14541.008,2351.91,14540.979Z" fill="#c67f56"/>
            <path id="Trazado_13810" data-name="Trazado 13810" d="M2376.838,14510.815c-3.854-4.761-9.883-6.936-15.864-7.029a24.78,24.78,0,0,0-8.079,1.323,23.53,23.53,0,0,0-4.078,1.742c-.832.462-2.526,2.215-3.394,2.3-1.676.159-3.307.121-3.317,1.1-.118,11.479,11.818,7.794,19.24,9.083,4.893.851,7.922,5.834,9.39,10.388l0,.013c2.228,6.729,6.817,3.031,9.014-1.148C2382.8,14522.8,2380.969,14515.918,2376.838,14510.815Z" fill="#212422"/>
            <path id="Trazado_13811" data-name="Trazado 13811" d="M2367.383,14523.785s-.093-2.883,1.853-2.416c1.737.415,4.526,2.475,3.651,4.293a13.181,13.181,0,0,1-2.988,3.624c-.719.672-1.228.254-2.057-.14-1.518-.723-.921-1.648-.726-2.892C2367.245,14525.434,2367.329,14524.606,2367.383,14523.785Z" fill="#e1b97f"/>
          </g>
          <path id="Trazado_13812" data-name="Trazado 13812" d="M2362.594,14553.193s-3.661-5.835-3.216-6.606,13.76-9.028,17.924-9.259l.016,1.2Z" fill="#f5f6f6"/>
          <rect id="Rectángulo_2604" data-name="Rectángulo 2604" width="3.42" height="3.933" transform="translate(2360.301 14552.146) rotate(-3.205)" fill="#f5f6f6"/>
          <g id="Grupo_2903" data-name="Grupo 2903">
            <path id="Trazado_13813" data-name="Trazado 13813" d="M2380.452,14542.061l-1.833-2.76.012-.012-18.677,13.482s-8.654,16.694-8.806,17.493c-.064.337-.126.847-.183,1.459l-2.032,5.519s-.936,6.563-.553,9.052.72,12.917.72,12.917l-2.043,5.679s1.43,26.885,2.042,29.112l4.206,14.884s37.16-8.168,39-10.17-7.478-21.909-7.689-25.65c-.208-3.683.965-7.79,1.429-11.454.832-6.577,1.668-13.154,2.6-19.726.8-5.674,1.6-11.03.989-16.719a49.5,49.5,0,0,0-4.125-15.6A26.21,26.21,0,0,0,2380.452,14542.061Zm-17.686,9.989.252.431c-.44.721-1.1,1.818-1.911,3.2l-.135-2.445A8.313,8.313,0,0,0,2362.766,14552.05Z" fill="#2c4970"/>
          </g>
          <path id="Trazado_13814" data-name="Trazado 13814" d="M2360.693,14547.344l.691,1.369,2.274,2.2-2.686,2.325.22,3.964-10.71,23.008s.288-7.953.666-9.942,7.031-15.453,8.228-17.352c.664-1.055.527-2.721.691-3.938A3.828,3.828,0,0,1,2360.693,14547.344Z" fill="#a32330"/>
          <path id="Trazado_13815" data-name="Trazado 13815" d="M2363.147,14549.04a27.589,27.589,0,0,0-3.488.194s-1.235,2.646-.671,4.04l.52.582s3.279-1.065,4.15-2.946S2363.147,14549.04,2363.147,14549.04Z" fill="#a32330"/>
          <path id="Trazado_13816" data-name="Trazado 13816" d="M2377.715,14538.181l-14,13.738s-14.3,22.131-15.179,34.188c0,0,13.22-23.43,18.763-28.282l-2.474-3.525s2.923-.062,4.966.063c0,0,7.972-8.824,10.891-11.961Z" fill="#363535"/>
          <path id="Trazado_13817" data-name="Trazado 13817" d="M2377.612,14537.785l-14,13.739s-14.356,22.712-15.23,34.77l.762-.923s13.346-25.372,18.052-27.942l-2.475-3.524s2.925-.062,4.967.062c0,0,8.79-10.22,10.993-11.564Z" fill="#686868"/>
          <path id="Trazado_13818" data-name="Trazado 13818" d="M2363.909,14553.95s-3.661-5.836-3.216-6.606,13.716-9.38,16.609-10.016l1.329,1.961Z" fill="#fff"/>
          <g id="Grupo_2906" data-name="Grupo 2906">
            <g id="Grupo_2905" data-name="Grupo 2905">
              <g id="Grupo_2904" data-name="Grupo 2904">
                <path id="Trazado_13819" data-name="Trazado 13819" d="M2341.787,14595.731s-18.762,3.564-20.5,1.035c-2.739-3.99-6-8.125-7.7-7.525s-6.843,5.926-4.469,6.959c.061.7.631,1.678,1.083,1.683.03.092.052.176.066.235a.652.652,0,0,0-.059.169.9.9,0,0,0-.046.105,2.282,2.282,0,0,0,.983,2.194c.15.7.158,1.358.842,1.711a1.253,1.253,0,0,0,.175.08c1.3.5,3.029.605,4.415,1.5.987.642,1.127-.282.858-1.146,1.17,1.732,27.715,4.785,32.418,2.388a7.346,7.346,0,0,0,2.334-2.285,25.891,25.891,0,0,0,1.891-3.185Z" fill="#e1b97f"/>
                <path id="Trazado_13820" data-name="Trazado 13820" d="M2315.12,14597.515c-.377.216-.735.448-1.1.693a19.605,19.605,0,0,0-2.872,2.379c.047.219.08.433.122.635C2311.5,14600.186,2314.65,14597.885,2315.12,14597.515Z" fill="#deb67d"/>
                <path id="Trazado_13821" data-name="Trazado 13821" d="M2314.274,14600.762a.07.07,0,0,0-.02-.009c-.366.133-.9.587-.663.73a5.673,5.673,0,0,0,.928.356,10.956,10.956,0,0,1,1.8.83,4.67,4.67,0,0,1,1.213,1.048,2.066,2.066,0,0,0-.093-.981A21.545,21.545,0,0,0,2314.274,14600.762Z" fill="#deb67d"/>
                <path id="Trazado_13822" data-name="Trazado 13822" d="M2310.268,14598.118a.38.38,0,0,0-.023.051c.193-.105,1.322-1.133,1.737-1.511.851-.775,1.8-1.515,2.6-2.323l.13-.124-.053.033c-1.545,1.177-2.411,1.935-3.448,2.733-.557.43-1.161.9-1.014.905C2310.232,14597.975,2310.254,14598.059,2310.268,14598.118Z" fill="#deb67d"/>
                <path id="Trazado_13823" data-name="Trazado 13823" d="M2309.119,14596.2c.416-.354,1.1-.975,1.418-1.261.852-.774,1.8-1.515,2.6-2.323.045-.041.087-.083.13-.123l-.053.033c-1.545,1.176-2.409,1.936-3.447,2.733-.371.287-.766.592-.942.766A.9.9,0,0,0,2309.119,14596.2Z" fill="#deb67d"/>
              </g>
            </g>
            <path id="Trazado_13824" data-name="Trazado 13824" d="M2328.589,14596.681l-3.4-.352-.251-.07c-3.009,3.216-2.093,11.576-2.093,11.576,1.78,1.4,4.032.08,4.032.08Z" fill="#fff"/>
            <path id="Trazado_13825" data-name="Trazado 13825" d="M2372.841,14603.7c2.366-4.448,14.127-34.909,14.127-34.909,1.977-11.4-11.225-9.378-11.225-9.378-6.764.856-11.58,14.44-11.58,14.44l-6.507,20.8c-2.092-.138-1.524.635-1.715.727a4.371,4.371,0,0,1-1.141-.021,1.774,1.774,0,0,0-2.015.513c-.741-.448-1.392-1.014-2.122-.584a8.109,8.109,0,0,1-1.691.448c.08,1.983.128,3.469.128,3.469l-2.043,5.679s.165,3.1.406,7.285c4.058-.021,9.3-.119,17.817-.232C2369.944,14612.18,2372.841,14603.7,2372.841,14603.7Z" fill="#363535"/>
            <path id="Trazado_13826" data-name="Trazado 13826" d="M2324.628,14609.237s-2-7.787,1.841-13.333c0,0,12.272-.07,15.514-.489s9.652-1.374,10.381-1.8,1.381.137,2.123.585a1.771,1.771,0,0,1,2.014-.514,4.469,4.469,0,0,0,1.142.021c.191-.092.072-2.26,2.164-2.121l6.058-19.409s4.815-13.582,11.58-14.437c0,0,10.995-2.024,9.017,9.377,0,0-11.761,30.463-14.126,34.908,0,0-3.162,8.406-5.355,8.239C2366.981,14610.259,2332.168,14610.728,2324.628,14609.237Z" fill="#2c4970"/>
          </g>
        </g>
      </g>
    </g>
    <g id="Grupo_2986" data-name="Grupo 2986" transform="translate(-1553.257 5)">
      <g id="Grupo_2913" data-name="Grupo 2913">
        <path id="Trazado_13827" data-name="Trazado 13827" d="M2220.7,14573.567l.291-1.483c-.528.278-.545,1.327-.561,1.286A.686.686,0,0,0,2220.7,14573.567Z" fill="#dfb988"/>
        <path id="Trazado_13828" data-name="Trazado 13828" d="M2221.093,14574.761a6.088,6.088,0,0,0-1.383,1.295c-.229.3-1.215,1.6-.454,1.833.357.111,1.606-.675,1.606-.675l1.69-1.4.829-1.414-.591-.8Z" fill="#e1b97f"/>
        <path id="Trazado_13829" data-name="Trazado 13829" d="M2220.15,14577.615a2.128,2.128,0,0,1,.815-1.567c.52-.432,1.632-1.2,2.378-1.7l.038.054-.829,1.414-1.69,1.4S2220.524,14577.426,2220.15,14577.615Z" fill="#e1b97f"/>
        <path id="Trazado_13830" data-name="Trazado 13830" d="M2224.174,14573.865s-2.3,1.518-3.118,2.2a1.857,1.857,0,0,0-.75,1.915c.156.312.628.122,1.265-.1a21.331,21.331,0,0,0,3.011-2.439S2224.786,14573.767,2224.174,14573.865Z" fill="#e1b97f"/>
        <path id="Trazado_13831" data-name="Trazado 13831" d="M2224.174,14573.865c.612-.1.408,1.58.408,1.58a26.929,26.929,0,0,1-2.831,2.354,1.511,1.511,0,0,1-.017-1.132c.185-.308,1.868-2.2,1.868-2.2l-.1-.154C2223.9,14574.048,2224.174,14573.865,2224.174,14573.865Z" fill="#e1b97f"/>
        <path id="Trazado_13832" data-name="Trazado 13832" d="M2223.708,14574.493l-2.914-4.447,1.167-1.331,3.8,4.243a1.472,1.472,0,0,1,.261,2.207s-3.213,2.963-4,2.809c-.3-.059-.369-.979-.184-1.287S2223.708,14574.493,2223.708,14574.493Z" fill="#e1b97f"/>
        <path id="Trazado_13833" data-name="Trazado 13833" d="M2223.708,14574.493l-2.914-4.447.353-.4,4.547,5.817c-.307.274-.8.7-1.331,1.129l0,0-1.174-1.5C2223.48,14574.747,2223.708,14574.493,2223.708,14574.493Z" fill="#e1b97f"/>
        <g id="Grupo_2910" data-name="Grupo 2910">
          <path id="Trazado_13834" data-name="Trazado 13834" d="M2211.569,14559.363a.74.74,0,0,0,.4-.155.74.74,0,0,0,.128-1.04l-1.791-2.294a.742.742,0,0,0-.638-.282.731.731,0,0,0-.4.155.742.742,0,0,0-.127,1.041l1.792,2.292a.739.739,0,0,0,.637.283Z" fill="#f5f5f5"/>
          <path id="Trazado_13835" data-name="Trazado 13835" d="M2211.247,14556.863l.957,1.224a.872.872,0,0,1-1.375,1.073l-.984-1.26Z" fill="#61695a"/>
          <rect id="Rectángulo_2605" data-name="Rectángulo 2605" width="1.743" height="23.096" transform="translate(2210.155 14558.296) rotate(-38.005)" fill="#628bab"/>
          <rect id="Rectángulo_2606" data-name="Rectángulo 2606" width="1.744" height="0.387" transform="matrix(0.79, -0.613, 0.613, 0.79, 2210.153, 14558.295)" fill="#628dad"/>
          <path id="Trazado_13836" data-name="Trazado 13836" d="M2211.969,14557.787l.2.258-1.374,1.073-.2-.258Z" fill="#628dad"/>
          <path id="Trazado_13837" data-name="Trazado 13837" d="M2227.77,14579.419l-2.019-4-1.374,1.075Z" fill="#f5f5f5"/>
          <path id="Trazado_13838" data-name="Trazado 13838" d="M2227.133,14578.157l.637,1.262-1.071-.922Z" fill="#212422"/>
        </g>
        <path id="Trazado_13839" data-name="Trazado 13839" d="M2195.273,14582.6c.673-.562,4.586-2.646,7.871-4.354,3.48-1.812,7.763-3.979,8.069-4.056a1.369,1.369,0,0,1,.534.037c.161.032.36.078.624.146a9.559,9.559,0,0,0,1.533.438,5.97,5.97,0,0,0,1.863.105,10.552,10.552,0,0,1,3.28.011c.183.036.329.074.446.1.076.019.138.035.191.045a.458.458,0,0,0,.095.011.564.564,0,0,1,.122.01.62.62,0,0,1,.364.238c.394-.365.751-.66.755-.664l.853-.587,0-3.3.5-.876.095.042a2.3,2.3,0,0,0,.462.13,9.657,9.657,0,0,0,1.223.136l.076,0,.027.071a8.024,8.024,0,0,1,.163,2.59,2.82,2.82,0,0,0,1.37,2.595.106.106,0,0,0,.041.018.132.132,0,0,0,.1-.028c.088-.063.249-.274.34-.983a23.8,23.8,0,0,0,.1-2.812c0-.774,0-1.506.047-2.037.081-.894-.368-1-.729-1.085a1.284,1.284,0,0,1-.2-.058c-.059-.024-.265-.119-.561-.254a42.4,42.4,0,0,0-4.2-1.772l-.027,0a11.087,11.087,0,0,0-1.9.671c-1.09.435-2.446.973-3.744,1.37-.078.019-7.172,1.751-8.172,2.133-.334.128-1.965.49-4.029.948-3.071.681-8.209,1.822-8.489,2.15l-.11.13-.083-.146-4.949-9.474.422,13.723Z" fill="#eabc8d"/>
        <path id="Trazado_13840" data-name="Trazado 13840" d="M2209.012,14573.7a7.4,7.4,0,0,0-1.736-3.081c-.058-.063-.119-.121-.179-.182,1.624-.513,7.922-2.048,7.922-2.048,2.519-.77,5.314-2.1,5.694-2.045.7.106,4.527,1.918,4.816,2.037s1.113.063,1,1.26.038,3.45-.144,4.852-.651,1.083-.651,1.083a2.92,2.92,0,0,1-1.432-2.7,7.91,7.91,0,0,0-.157-2.546,6.8,6.8,0,0,1-1.726-.275l-.43.76,0,3.33-.894.616s-.415.343-.85.751a.535.535,0,0,0-.46-.309,9.466,9.466,0,0,0-4-.172,8.178,8.178,0,0,1-3.438-.547,3.439,3.439,0,0,0-1.1-.185c-.111.028-.873.4-2.007.961A7.561,7.561,0,0,0,2209.012,14573.7Z" fill="#e1b97f"/>
        <path id="Trazado_13841" data-name="Trazado 13841" d="M2194.271,14573.662c.267-.356,5.068-1.419,8.671-2.219a6.043,6.043,0,0,1,2,1.353c1.114,1.2,1.05,2.572,1.153,4.052-4.583,2.347-10.595,5.52-10.819,5.905l-5.75-4.733-.439-14.274Z" fill="#2a2a2a"/>
        <path id="Trazado_13842" data-name="Trazado 13842" d="M2208.249,14574.676c-.389-1.554-.837-3.092-1.275-4.633-.51.143-.9.261-1.1.338-.351.133-2.413.591-4.6,1.075a90.206,90.206,0,0,0-9.661,2.392l-5.818-11.139-.779.2.517,16.746,6.761,5.777c.743-.708,11.529-6.247,16.406-8.684Q2208.507,14575.708,2208.249,14574.676Z" fill="#f6f7f8"/>
        <path id="Trazado_13843" data-name="Trazado 13843" d="M2217.2,14567.632l4.787,6.123,0-1.055,0-1.772-3.1-3.96C2218.389,14567.169,2217.81,14567.4,2217.2,14567.632Z" fill="#e1b97f"/>
        <path id="Trazado_13844" data-name="Trazado 13844" d="M2220.243,14575.512a.678.678,0,0,0-.049-.079,6.577,6.577,0,0,1,.917-.762l.877-.6v.077l-.894.616S2220.678,14575.1,2220.243,14575.512Z" fill="#e1b97f"/>
        <g id="Grupo_2911" data-name="Grupo 2911">
          <path id="Trazado_13845" data-name="Trazado 13845" d="M2211.569,14559.363a.74.74,0,0,0,.4-.155.74.74,0,0,0,.128-1.04l-1.791-2.294a.742.742,0,0,0-.638-.282.731.731,0,0,0-.4.155.742.742,0,0,0-.127,1.041l1.792,2.292a.739.739,0,0,0,.637.283Z" fill="#f5f5f5"/>
          <path id="Trazado_13846" data-name="Trazado 13846" d="M2211.247,14556.863l.957,1.224a.872.872,0,0,1-1.375,1.073l-.984-1.26Z" fill="#61695a"/>
          <path id="Trazado_13847" data-name="Trazado 13847" d="M2222.4,14573.969l-12.25-15.672,1.374-1.073,11.32,14.482Z" fill="#628bab"/>
          <rect id="Rectángulo_2607" data-name="Rectángulo 2607" width="1.744" height="0.387" transform="matrix(0.79, -0.613, 0.613, 0.79, 2210.153, 14558.295)" fill="#628dad"/>
          <path id="Trazado_13848" data-name="Trazado 13848" d="M2211.969,14557.787l.2.258-1.374,1.073-.2-.258Z" fill="#628dad"/>
        </g>
        <path id="Trazado_13849" data-name="Trazado 13849" d="M2217.575,14569.447l1.142.224s3.174,1.5,3.391,1.665a26.817,26.817,0,0,1,2.383,2.187c.32.437.112,1.178-.863,1.527s-3.93-1.781-5.043-2.312a8.232,8.232,0,0,0-2.828-.556Z" fill="#e1b97f"/>
        <g id="Grupo_2912" data-name="Grupo 2912">
          <path id="Trazado_13850" data-name="Trazado 13850" d="M2225.846,14575.608Z" fill="#e1b97f"/>
          <path id="Trazado_13851" data-name="Trazado 13851" d="M2222.05,14570.711l.372-.656a3.725,3.725,0,0,0,.924.206l.946,1.059c.025.382.036.891.013,1.557a2.92,2.92,0,0,0,1.432,2.7l0,0c-.485-.152-1.9-.779-1.856-2.068a7.916,7.916,0,0,0-.157-2.545A7.227,7.227,0,0,1,2222.05,14570.711Z" fill="#e1b97f"/>
        </g>
        <path id="Trazado_13852" data-name="Trazado 13852" d="M2217.6,14569.3l1.143.225s3.173,1.5,3.391,1.664,1.526,1.564,2.382,2.186c.439.319.113,1.178-.862,1.529s-3.93-1.781-5.044-2.312a8.218,8.218,0,0,0-2.828-.555Z" fill="#e1b97f"/>
      </g>
      <path id="Trazado_13853" data-name="Trazado 13853" d="M2201.968,14771.253c.1-.033.2-.06.307-.091l-.3.087Z" fill="#5b5d5b"/>
      <path id="Trazado_13854" data-name="Trazado 13854" d="M2188.313,14607.168a56.731,56.731,0,0,0-7.936-1.1,41.216,41.216,0,0,0-9.007.624,24,24,0,0,0-4.474,1.537c-.72.422-1.405.9-2.088,1.374-1.273,2.165-2.305,4.363-1.765,6.626,2.4,9.765,11.38,4.042,17.568,1.846,2.247-.794,6.1-1.377,7.906-2.981,2.631-2.331.83-4.311-.005-7.208C2188.446,14607.647,2188.378,14607.409,2188.313,14607.168Z" fill="#676455"/>
      <g id="Grupo_2916" data-name="Grupo 2916">
        <g id="Grupo_2914" data-name="Grupo 2914">
          <path id="Trazado_13855" data-name="Trazado 13855" d="M2165.672,14681.353c-6.091,4.514-7.621,22.49-7.621,22.49l-3.127,37.524c-1.659.582-3.664,1.816-4,3.742-.3,1.72,2.061,2.978,3.1,3.826,1.289,1.055,2.345,2.43,3.545,3.592,2.318,2.242,4.47,4.664,6.711,6.98.243.253,1.037,1.413,1.4,1.468l9.85,1.536c1.725-1.7-1.436-2.458-1.436-2.458-7.291.144-12.531-15.014-12.531-15.014-.365-8.173,8.954-45.274,8.954-45.274,1.947-6.514,7.3-25.229,7.3-25.229C2175.205,14671.246,2165.672,14681.353,2165.672,14681.353Z" fill="#e1b97f"/>
        </g>
        <g id="Grupo_2915" data-name="Grupo 2915">
          <path id="Trazado_13856" data-name="Trazado 13856" d="M2156.8,14751.208c1.5-1.444,5.512-5.688,5.512-5.688l.964,1.569-5.281,5.121a41.643,41.643,0,0,1,6.948,7.991l.33.347c1.176-2.636,3.482-6.9,3.833-5.84.415,1.245,4.091,3.857,4.091,3.857l-.235,3.421,5.02.693-.273,3.985-14.565-1-6-9.277a2.647,2.647,0,0,0-4.455.408l-1.478,8.047-2.416-.165.5-17.763A23.027,23.027,0,0,1,2156.8,14751.208Z" fill="#2e312f"/>
        </g>
      </g>
      <g id="Grupo_2919" data-name="Grupo 2919">
        <g id="Grupo_2917" data-name="Grupo 2917">
          <path id="Trazado_13857" data-name="Trazado 13857" d="M2208.562,14671.483s-4.467,20.445-6.073,27.567c0,0-5.965,40.436-4.972,49.166,0,0,6.726,15.852,14.525,15.16,0,0,3.442.577,1.721,2.53l-10.668-.919c-4.218-3.893-8.44-7.8-12.772-11.563-1.323-1.15-4.13-2.117-4.191-4.2a3.87,3.87,0,0,1,.9-2.21c.331-.435,3.106-2.146,3.1-2.248l-.386-40.32S2198.927,14660.913,2208.562,14671.483Z" fill="#e1b97f"/>
        </g>
        <g id="Grupo_2918" data-name="Grupo 2918">
          <path id="Trazado_13858" data-name="Trazado 13858" d="M2192.865,14755.173c1.505-1.656,5.488-6.5,5.488-6.5l1.148,1.607-5.282,5.876a44.7,44.7,0,0,1,8.033,8.051l.377.349c1.066-2.912,3.224-7.645,3.678-6.541.536,1.3,4.664,3.829,4.664,3.829v3.686l5.43.374v4.289h-15.676l-7.113-9.5a2.841,2.841,0,0,0-4.741.769l-.994,8.73h-2.6l-.764-19.069A24.838,24.838,0,0,1,2192.865,14755.173Z" fill="#2e312f"/>
        </g>
      </g>
      <g id="Grupo_2924" data-name="Grupo 2924">
        <g id="Grupo_2920" data-name="Grupo 2920">
          <path id="Trazado_13859" data-name="Trazado 13859" d="M2159.921,14739.988a26.174,26.174,0,0,0-4.9-.817c.342-8.027,1.514-35.317,1.515-35.328.577-13.5,9.228-24.442,11.307-37.455,1.152-7.2-.234-14.452-2.376-21.328q-.434-1.39-.9-2.766c-.951-2.841-3.007-5.466-4.213-8.229a19.453,19.453,0,0,1-.676-13.795,34.9,34.9,0,0,1,1.769-4.74,5.82,5.82,0,0,1,.929-1.739c10.612-9.939,26.878-1.976,27.35-1.385a114.244,114.244,0,0,1,6.085,14.928c.041.136.083.272.127.406,1.158,3.687,2.2,7.589,3.341,11.345,2.117,7,4.434,13.945,6.631,20.916,1,3.167,2.322,6.228,3.166,9.441a22.135,22.135,0,0,1,.8,6.252,16.16,16.16,0,0,1-.17,1.864,13.947,13.947,0,0,1-.981,4c-.16.344-2.049,4.482-2.2,4.913-1.052,4.885-2.116,9.769-2.749,12.579,0,0-4.861,27.073-6.086,41.7h-7.669c-.325-12.753-1.5-25.8-.835-38.541a103.44,103.44,0,0,1,2.711-16.473c1.11-5.121,2.8-10.872.294-15.846a57.335,57.335,0,0,0-4.819-7.091c-1.837-2.589-3.491-5.3-5.174-7.992-.521,10.852-5.675,24.935-5.675,24.935-.621,1.392-1.533,5.376-2.155,6.768-1.446,5.018-2.991,10.353-3.86,13.259,0,0-7.038,28.021-8.641,40.724Q2160.9,14740.223,2159.921,14739.988Z" fill="#617a7f"/>
        </g>
        <g id="Grupo_2921" data-name="Grupo 2921">
          <path id="Trazado_13860" data-name="Trazado 13860" d="M2159.921,14739.988a26.174,26.174,0,0,0-4.9-.817c.342-8.027,1.514-35.317,1.515-35.328.577-13.5,9.228-24.442,11.307-37.455,1.152-7.2-.234-14.452-2.376-21.328q-.434-1.39-.9-2.766c-.951-2.841-3.007-5.466-4.213-8.229a19.453,19.453,0,0,1-.676-13.795,34.9,34.9,0,0,1,1.769-4.74,5.82,5.82,0,0,1,.929-1.739c10.612-9.939,26.878-1.976,27.35-1.385a114.244,114.244,0,0,1,6.085,14.928c.041.136.083.272.127.406,1.158,3.687,2.2,7.589,3.341,11.345,2.117,7,4.434,13.945,6.631,20.916,1,3.167,2.322,6.228,3.166,9.441a22.135,22.135,0,0,1,.8,6.252,16.16,16.16,0,0,1-.17,1.864,13.947,13.947,0,0,1-.981,4c-.16.344-2.049,4.482-2.2,4.913-1.052,4.885-2.116,9.769-2.749,12.579,0,0-4.861,27.073-6.086,41.7h-7.669c-.325-12.753-1.5-25.8-.835-38.541a103.44,103.44,0,0,1,2.711-16.473c1.11-5.121,2.8-10.872.294-15.846a57.335,57.335,0,0,0-4.819-7.091c-1.837-2.589-3.491-5.3-5.174-7.992-.521,10.852-5.675,24.935-5.675,24.935-.621,1.392-1.533,5.376-2.155,6.768-1.446,5.018-2.991,10.353-3.86,13.259,0,0-7.038,28.021-8.641,40.724Q2160.9,14740.223,2159.921,14739.988Z" fill="#5b9993"/>
        </g>
        <g id="Grupo_2922" data-name="Grupo 2922">
          <path id="Trazado_13861" data-name="Trazado 13861" d="M2174.376,14686.507c-1.446,5.018-2.991,10.353-3.86,13.259,0,0-6.134,24.42-8.253,38-.174.919-.34,1.818-.494,2.692-.615-.164-1.23-.324-1.848-.472a26.174,26.174,0,0,0-4.9-.817c.342-8.027,1.514-35.317,1.515-35.328.577-13.5,9.228-24.442,11.307-37.455,1.152-7.2-.234-14.452-2.376-21.328q-.434-1.39-.9-2.766c-.777-2.319-2.29-4.5-3.475-6.722,4.426,5.429,10.125,9.935,15.7,14.112a39.981,39.981,0,0,1,3.523,2.966,9.309,9.309,0,0,1,2.014,2.358c-.043-.067-.085-.136-.129-.2-.521,10.852-5.675,24.935-5.675,24.935C2175.91,14681.131,2175,14685.115,2174.376,14686.507Z" fill="#4f524e"/>
        </g>
        <g id="Grupo_2923" data-name="Grupo 2923">
          <path id="Trazado_13862" data-name="Trazado 13862" d="M2165.464,14645.06c.411,1.316.792,2.646,1.132,3.988q.513.841.983,1.706c4.487,8.231,7.427,17.255,9.87,26.295,1.506-4.609,4.376-14.294,4.757-22.244l.129.2a9.309,9.309,0,0,0-2.014-2.358,39.981,39.981,0,0,0-3.523-2.966c-5.579-4.178-11.278-8.684-15.7-14.112,1.185,2.225,2.7,4.4,3.475,6.722Q2165.029,14643.667,2165.464,14645.06Z" fill="#4f524e"/>
        </g>
      </g>
      <path id="Trazado_13863" data-name="Trazado 13863" d="M2196.344,14514.1s3.762,3.215,2.1,10.784c0,0-1.234,3.521-.345,4.5l2.717,1.727s.194,2.729-2.243,2.476a1.522,1.522,0,0,0-.022,1.75,33.616,33.616,0,0,1-5.1.1s.778,4.3,2.025,5.146c0,0-.121,4.2-2.435,4.278a19.59,19.59,0,0,1-7.789-3.039l-2.269,6.538-6.936,10.325-7.4-10.583,9.155-15.065s-4.261-.494-2.925-5.6c1.916-7.318,4.644,2.167,3.716,1.356-.469-.411,1.285.046,1.159-.907C2179.016,14522.341,2189.609,14509.653,2196.344,14514.1Z" fill="#e1b97f"/>
      <g id="Grupo_2925" data-name="Grupo 2925">
        <path id="Trazado_13864" data-name="Trazado 13864" d="M2196.61,14525.344a1.993,1.993,0,0,0,.5-1.917s-1.423-2.933-7.785,3.229c0,0,2.272,4.435,5.341,3.62,0,0,1.017-.619.438-.729Z" fill="#b48157"/>
        <path id="Trazado_13865" data-name="Trazado 13865" d="M2196.61,14525.344a8.005,8.005,0,0,1-1.509,4.2s-5.041-.823-5.379-2.739C2189.722,14526.807,2195.9,14524.2,2196.61,14525.344Z" fill="none"/>
        <path id="Trazado_13866" data-name="Trazado 13866" d="M2196.61,14525.344a8.005,8.005,0,0,1-1.509,4.2s-5.041-.823-5.379-2.739C2189.722,14526.807,2195.9,14524.2,2196.61,14525.344Z" fill="#fff"/>
        <path id="Trazado_13867" data-name="Trazado 13867" d="M2193.736,14525.4c1.344-.362,2.578-.53,2.874-.057a8.7,8.7,0,0,1-1.167,3.765C2193.634,14528.956,2193.522,14526.992,2193.736,14525.4Z" fill="#84a9c6"/>
        <path id="Trazado_13868" data-name="Trazado 13868" d="M2195.126,14525.1c.731-.1,1.3-.06,1.484.241a9.513,9.513,0,0,1-.8,3.123C2195.039,14528.279,2195,14526.592,2195.126,14525.1Z" fill="#242c33"/>
        <path id="Trazado_13869" data-name="Trazado 13869" d="M2196.61,14525.344s1.986-1.4-1.284-1.446c0,0-4.037,1.033-6,2.758,0,0-1.183-.1-1.18-.7a1.135,1.135,0,0,0,1.58.851S2195.858,14524.548,2196.61,14525.344Z" fill="#373d46"/>
      </g>
      <g id="Grupo_2926" data-name="Grupo 2926">
        <path id="Trazado_13870" data-name="Trazado 13870" d="M2197.481,14521.913s-2.326-1.5-9.119,1.916C2188.362,14523.829,2194.806,14518.77,2197.481,14521.913Z" fill="#b48157"/>
        <path id="Trazado_13871" data-name="Trazado 13871" d="M2197.481,14521.913s-2.215-1.8-9.119,1.916C2188.362,14523.829,2194.806,14518.77,2197.481,14521.913Z" fill="#495562"/>
      </g>
      <path id="Trazado_13872" data-name="Trazado 13872" d="M2196,14525.176s1.844.511,2.023-.562c0,0-.412.4-.708.375,0,0,.353-.392.208-.719a.95.95,0,0,1-.509.7,1.6,1.6,0,0,0,.227-.727A2.872,2.872,0,0,1,2196,14525.176Z" fill="#22282e"/>
      <path id="Trazado_13873" data-name="Trazado 13873" d="M2197.651,14536.342s.669,1.98-4.2-.9Z" fill="#f8f7f7"/>
      <path id="Trazado_13874" data-name="Trazado 13874" d="M2193.578,14536.05s1.688,2.856,2.891,3.293a.676.676,0,0,1-.075.729s-.856,1.259-1.494-.154A10.977,10.977,0,0,1,2193.578,14536.05Z" fill="#b95744"/>
      <path id="Trazado_13875" data-name="Trazado 13875" d="M2193.454,14535.441s4.454.049,5.014-.247c0,0,.6,1.406-.676,1.3A6.431,6.431,0,0,1,2193.454,14535.441Z" fill="#b95744"/>
      <path id="Trazado_13876" data-name="Trazado 13876" d="M2189.728,14612.405c-.472-.591-16.738-8.555-27.35,1.385a5.82,5.82,0,0,0-.929,1.739,34.9,34.9,0,0,0-1.769,4.74c-.218.741-.4,1.476-.54,2.208,6.44,1.391,31.108,3.715,36.46,4.171A115.76,115.76,0,0,0,2189.728,14612.405Z" fill="#5b9993"/>
      <path id="Trazado_13877" data-name="Trazado 13877" d="M2190.793,14599.419c-1.379-3.2.755-14.95.755-14.95a14.183,14.183,0,0,0,6.089-11.278c-.9-1.76-5.312-5.137-5.312-5.137-2.717-3.93-3.5-19.16-3.5-19.16-5.677-5.326-20.177-5.058-20.177-5.058s-9.183,18.627-8.773,27.89c.4,8.943,2.461,18.111,4.417,26.708,1.108,4.861-4.789,17.513-6.687,21.756-1.571,3.517,39.008,4.843,39.008,4.843C2196.089,14622.883,2190.793,14599.419,2190.793,14599.419Z" fill="#5b9993"/>
      <path id="Trazado_13878" data-name="Trazado 13878" d="M2192.856,14505.123s-19.117-6.116-28.907,4.874c-5.111,5.74-5.293,12.609-3.985,19.471a29.4,29.4,0,0,0,7.312,6.158,18.108,18.108,0,0,0,13.063,2.029,33.449,33.449,0,0,0,1.526-8.487c.349-8.283,5.515-17.431,15.905-13.059C2197.77,14516.109,2199.807,14505.729,2192.856,14505.123Z"/>
      <g id="Grupo_2981" data-name="Grupo 2981">
        <path id="Trazado_13879" data-name="Trazado 13879" d="M2168.206,14542.911s18.6,5.846,23.355,10.617a38.256,38.256,0,0,0,.652,6.839c.4,3.261.853,6.517,1.257,9.78.419,3.392-.144,6.595-.589,9.937a87.552,87.552,0,0,0-.777,11.058c-.161,29.763.1,88.015-8.725,92.539-2.452,1.261-17.223-3.847-20.9-5.55-7.773-3.595-17.028-6.434-17.921-15.541-.584-5.936,1.459-12.254,3.172-17.893,1.439-4.733,3.268-9.344,4.782-14.051,4.424-13.76,4.651-13.687,6.947-62.083C2159.788,14561.53,2163.084,14548.037,2168.206,14542.911Z" fill="#f6f7f8"/>
        <g id="Grupo_2978" data-name="Grupo 2978">
          <g id="Grupo_2927" data-name="Grupo 2927">
            <path id="Trazado_13880" data-name="Trazado 13880" d="M2179.116,14544.94c-.234-.363-.471-.722-.719-1.07l-.027-.035c-.082-.115-.163-.227-.248-.337l-.01-.013h0q-.224-.3-.466-.574a59.271,59.271,0,0,1,8.331,2.143,5.046,5.046,0,0,1-1.344.445A13.67,13.67,0,0,1,2179.116,14544.94Z" fill="#f0e235"/>
            <path id="Trazado_13881" data-name="Trazado 13881" d="M2183.314,14545.724a17.665,17.665,0,0,1-3.947-.611l-.32-.075-.024-.037c-.221-.34-.46-.705-.717-1.065l-.02-.028c-.083-.115-.161-.223-.242-.327l-.021-.026c-.152-.2-.308-.392-.462-.569l-.2-.232.305.05a58.933,58.933,0,0,1,8.347,2.146l.256.085-.24.12a5.227,5.227,0,0,1-1.375.456A7.463,7.463,0,0,1,2183.314,14545.724Zm-4.13-.881.232.054a17.507,17.507,0,0,0,3.9.605,7.252,7.252,0,0,0,1.3-.112,4.887,4.887,0,0,0,1.061-.32,58.979,58.979,0,0,0-7.747-2c.08.1.16.2.24.3h0l.035.048c.091.118.172.23.256.347l.026.035C2178.736,14544.156,2178.97,14544.509,2179.184,14544.843Z" fill="#517349"/>
          </g>
          <g id="Grupo_2929" data-name="Grupo 2929">
            <path id="Trazado_13882" data-name="Trazado 13882" d="M2189.355,14549.095a9.807,9.807,0,0,1-2.352.769,6.086,6.086,0,0,1-4.3-.7c-.119-.076-.233-.157-.346-.24-.028-.019-.056-.04-.083-.061-.1-.073-.192-.149-.283-.226a.467.467,0,0,1-.041-.034c-.107-.091-.209-.185-.309-.281-.02-.018-.038-.036-.056-.052-.085-.086-.169-.17-.251-.257-.017-.018-.035-.035-.051-.055-.094-.1-.188-.208-.279-.314a.163.163,0,0,1-.021-.026c-.085-.1-.165-.2-.244-.3-.018-.023-.035-.045-.052-.068-.17-.22-.335-.444-.493-.674-.021-.029-.039-.058-.06-.088-.063-.09-.125-.184-.188-.279-.017-.021-.034-.048-.05-.072-.071-.105-.14-.212-.209-.319-.047-.071-.093-.145-.141-.216a.39.39,0,0,0-.031-.047c-.131-.207-.264-.412-.4-.618a13.67,13.67,0,0,0,5.516.559,5.046,5.046,0,0,0,1.344-.445c1.165.386,1.884.657,1.884.657C2188.319,14546.862,2188.822,14547.99,2189.355,14549.095Z" fill="#f0e235"/>
            <g id="Grupo_2928" data-name="Grupo 2928">
              <path id="Trazado_13883" data-name="Trazado 13883" d="M2185.65,14550.077a5.449,5.449,0,0,1-3.01-.817c-.121-.078-.237-.159-.353-.243l-.084-.062c-.1-.075-.195-.151-.289-.23l-.042-.033c-.107-.095-.21-.188-.313-.285l-.044-.043c-.1-.1-.183-.186-.266-.272l-.052-.053c-.094-.1-.19-.209-.281-.318a.261.261,0,0,1-.027-.034c-.079-.093-.162-.192-.242-.295l-.052-.067c-.161-.207-.324-.431-.5-.68l-.059-.086-.174-.256-.067-.1c-.069-.105-.138-.211-.207-.32l-.716-1.108.541.124a17.507,17.507,0,0,0,3.9.605,7.252,7.252,0,0,0,1.3-.112,5.019,5.019,0,0,0,1.314-.437l.039-.02.044.014c1.156.382,1.881.658,1.889.661l.046.016.017.045c.435,1.087.938,2.223,1.492,3.377l.051.1-.106.045a9.744,9.744,0,0,1-2.378.774A9.218,9.218,0,0,1,2185.65,14550.077Zm-6.293-4.967.419.649c.068.107.139.214.208.319l.065.1c.057.086.115.17.172.255l.059.084c.171.248.332.468.49.671l.051.065c.08.1.159.2.241.3.01.011.016.02.022.026.091.106.184.211.276.313l.035.034c.1.1.178.188.263.269l.055.054c.1.1.2.186.3.274l.04.035c.091.078.184.149.279.224l.083.062c.11.077.222.159.339.233a5.239,5.239,0,0,0,2.892.784,9.418,9.418,0,0,0,1.338-.1,9.275,9.275,0,0,0,2.217-.717c-.531-1.105-1.011-2.193-1.43-3.239-.173-.062-.828-.306-1.791-.624a5.151,5.151,0,0,1-1.333.436,7.463,7.463,0,0,1-1.337.115,17.674,17.674,0,0,1-3.948-.611Z" fill="#517349"/>
            </g>
          </g>
          <g id="Grupo_2931" data-name="Grupo 2931">
            <path id="Trazado_13884" data-name="Trazado 13884" d="M2178.37,14543.835c-.082-.115-.163-.227-.248-.337C2178.207,14543.608,2178.288,14543.72,2178.37,14543.835Z" fill="#f0e235"/>
            <g id="Grupo_2930" data-name="Grupo 2930">
              <path id="Trazado_13885" data-name="Trazado 13885" d="M2178.28,14543.9c-.081-.114-.162-.227-.246-.334l.176-.137c.086.111.167.224.251.34Z" fill="#517349"/>
            </g>
          </g>
          <g id="Grupo_2933" data-name="Grupo 2933">
            <path id="Trazado_13886" data-name="Trazado 13886" d="M2178.4,14543.87c.248.349.485.707.719,1.07h0C2178.881,14544.577,2178.645,14544.219,2178.4,14543.87Z" fill="#f0e235"/>
            <g id="Grupo_2932" data-name="Grupo 2932">
              <path id="Trazado_13887" data-name="Trazado 13887" d="M2179.32,14545.05h-.265l-.033-.05c-.223-.345-.464-.713-.716-1.065l.181-.13c.258.364.5.732.722,1.073Z" fill="#517349"/>
            </g>
          </g>
          <g id="Grupo_2935" data-name="Grupo 2935">
            <path id="Trazado_13888" data-name="Trazado 13888" d="M2182.353,14548.926c-.028-.019-.056-.04-.083-.061C2182.3,14548.886,2182.325,14548.907,2182.353,14548.926Z" fill="#f0e235"/>
            <g id="Grupo_2934" data-name="Grupo 2934">
              <path id="Trazado_13889" data-name="Trazado 13889" d="M2182.287,14549.017l-.084-.062.134-.177.083.062Z" fill="#517349"/>
            </g>
          </g>
          <g id="Grupo_2937" data-name="Grupo 2937">
            <path id="Trazado_13890" data-name="Trazado 13890" d="M2181.987,14548.64a.467.467,0,0,1-.041-.034A.467.467,0,0,0,2181.987,14548.64Z" fill="#f0e235"/>
            <g id="Grupo_2936" data-name="Grupo 2936">
              <path id="Trazado_13891" data-name="Trazado 13891" d="M2181.915,14548.724l.071-.084-.071.084.071-.084-.086.073-.029-.023.146-.169.04.033Z" fill="#517349"/>
            </g>
          </g>
          <g id="Grupo_2939" data-name="Grupo 2939">
            <path id="Trazado_13892" data-name="Trazado 13892" d="M2180.19,14546.58c-.021-.029-.039-.058-.06-.088C2180.151,14546.522,2180.169,14546.551,2180.19,14546.58Z" fill="#f0e235"/>
            <g id="Grupo_2938" data-name="Grupo 2938">
              <path id="Trazado_13893" data-name="Trazado 13893" d="M2180.1,14546.645l-.059-.087.181-.127.06.084Z" fill="#517349"/>
            </g>
          </g>
          <g id="Grupo_2941" data-name="Grupo 2941">
            <path id="Trazado_13894" data-name="Trazado 13894" d="M2179.942,14546.213c-.017-.021-.034-.048-.05-.072C2179.908,14546.165,2179.925,14546.191,2179.942,14546.213Z" fill="#f0e235"/>
            <g id="Grupo_2940" data-name="Grupo 2940">
              <path id="Trazado_13895" data-name="Trazado 13895" d="M2179.85,14546.278l-.052-.077.187-.12.048.071Z" fill="#517349"/>
            </g>
          </g>
          <g id="Grupo_2943" data-name="Grupo 2943">
            <path id="Trazado_13896" data-name="Trazado 13896" d="M2181,14547.646a.163.163,0,0,1-.021-.026A.163.163,0,0,0,2181,14547.646Z" fill="#f0e235"/>
            <g id="Grupo_2942" data-name="Grupo 2942">
              <path id="Trazado_13897" data-name="Trazado 13897" d="M2180.918,14547.721a.261.261,0,0,1-.029-.036l.178-.13.017.021Z" fill="#517349"/>
            </g>
          </g>
          <g id="Grupo_2945" data-name="Grupo 2945">
            <path id="Trazado_13898" data-name="Trazado 13898" d="M2181.33,14548.016c-.017-.018-.035-.035-.051-.055C2181.295,14547.98,2181.313,14548,2181.33,14548.016Z" fill="#f0e235"/>
            <g id="Grupo_2944" data-name="Grupo 2944">
              <path id="Trazado_13899" data-name="Trazado 13899" d="M2181.249,14548.09l.081-.074-.081.074.081-.074-.1.062-.037-.04.165-.149.034.034-.066.094Z" fill="#517349"/>
            </g>
          </g>
          <g id="Grupo_2947" data-name="Grupo 2947">
            <path id="Trazado_13900" data-name="Trazado 13900" d="M2180.735,14547.322c-.018-.023-.035-.045-.052-.068C2180.7,14547.277,2180.717,14547.3,2180.735,14547.322Z" fill="#f0e235"/>
            <g id="Grupo_2946" data-name="Grupo 2946">
              <rect id="Rectángulo_2608" data-name="Rectángulo 2608" width="0.222" height="0.085" transform="matrix(0.792, -0.611, 0.611, 0.792, 2180.595, 14547.321)" fill="#517349"/>
            </g>
          </g>
          <g id="Grupo_2949" data-name="Grupo 2949">
            <path id="Trazado_13901" data-name="Trazado 13901" d="M2179.683,14545.821c-.047-.071-.093-.145-.141-.216C2179.59,14545.677,2179.636,14545.75,2179.683,14545.821Z" fill="#f0e235"/>
            <g id="Grupo_2948" data-name="Grupo 2948">
              <path id="Trazado_13902" data-name="Trazado 13902" d="M2179.592,14545.883l-.142-.217.187-.123.139.217Z" fill="#517349"/>
            </g>
          </g>
          <g id="Grupo_2951" data-name="Grupo 2951">
            <path id="Trazado_13903" data-name="Trazado 13903" d="M2181.581,14548.272c.018.016.036.034.056.052C2181.617,14548.307,2181.6,14548.288,2181.581,14548.272Z" fill="#f0e235"/>
            <g id="Grupo_2950" data-name="Grupo 2950">
              <path id="Trazado_13904" data-name="Trazado 13904" d="M2181.559,14548.4l-.044-.042.143-.17.054.052Z" fill="#517349"/>
            </g>
          </g>
          <g id="Grupo_2953" data-name="Grupo 2953">
            <path id="Trazado_13905" data-name="Trazado 13905" d="M2179.116,14544.94c.131.206.264.411.4.618-.131-.207-.264-.412-.4-.618Z" fill="#f0e235"/>
            <g id="Grupo_2952" data-name="Grupo 2952">
              <path id="Trazado_13906" data-name="Trazado 13906" d="M2179.419,14545.617l-.508-.788h.264l.43.668Z" fill="#517349"/>
            </g>
          </g>
          <g id="Grupo_2955" data-name="Grupo 2955">
            <path id="Trazado_13907" data-name="Trazado 13907" d="M2178.112,14543.485l.01.013-.011-.013Z" fill="#f0e235"/>
            <g id="Grupo_2954" data-name="Grupo 2954">
              <path id="Trazado_13908" data-name="Trazado 13908" d="M2178.112,14543.6v-.092l-.077.059.077-.059-.008,0,.008-.006-.082.057.012-.01-.014.01-.154-.184h.3l.035.049h0l.006.009-.1.071Z" fill="#517349"/>
            </g>
          </g>
          <g id="Grupo_2957" data-name="Grupo 2957">
            <path id="Trazado_13909" data-name="Trazado 13909" d="M2178.4,14543.87l-.027-.035Z" fill="#f0e235"/>
            <g id="Grupo_2956" data-name="Grupo 2956">
              <path id="Trazado_13910" data-name="Trazado 13910" d="M2178.306,14543.936l-.02-.029.175-.137.026.036Z" fill="#517349"/>
            </g>
          </g>
          <g id="Grupo_2959" data-name="Grupo 2959">
            <path id="Trazado_13911" data-name="Trazado 13911" d="M2180.979,14547.62c-.085-.1-.165-.2-.244-.3C2180.814,14547.422,2180.894,14547.523,2180.979,14547.62Z" fill="#f0e235"/>
            <g id="Grupo_2958" data-name="Grupo 2958">
              <path id="Trazado_13912" data-name="Trazado 13912" d="M2180.894,14547.691c-.084-.1-.167-.2-.247-.3l.175-.139c.079.1.158.2.24.3Z" fill="#517349"/>
            </g>
          </g>
          <g id="Grupo_2961" data-name="Grupo 2961">
            <path id="Trazado_13913" data-name="Trazado 13913" d="M2182.27,14548.865c-.1-.073-.192-.149-.283-.226C2182.078,14548.716,2182.173,14548.792,2182.27,14548.865Z" fill="#f0e235"/>
            <g id="Grupo_2960" data-name="Grupo 2960">
              <path id="Trazado_13914" data-name="Trazado 13914" d="M2182.2,14548.954c-.1-.075-.194-.151-.288-.23h0l.144-.17c.09.076.183.149.278.224Z" fill="#517349"/>
            </g>
          </g>
          <g id="Grupo_2963" data-name="Grupo 2963">
            <path id="Trazado_13915" data-name="Trazado 13915" d="M2179.892,14546.141c-.071-.105-.14-.212-.209-.319C2179.752,14545.929,2179.821,14546.035,2179.892,14546.141Z" fill="#f0e235"/>
            <g id="Grupo_2962" data-name="Grupo 2962">
              <path id="Trazado_13916" data-name="Trazado 13916" d="M2179.8,14546.2c-.07-.105-.141-.213-.209-.32l.186-.119c.068.105.139.212.208.317Z" fill="#517349"/>
            </g>
          </g>
          <g id="Grupo_2965" data-name="Grupo 2965">
            <path id="Trazado_13917" data-name="Trazado 13917" d="M2181.581,14548.272c-.085-.086-.169-.17-.251-.257C2181.412,14548.1,2181.5,14548.187,2181.581,14548.272Z" fill="#f0e235"/>
            <g id="Grupo_2964" data-name="Grupo 2964">
              <path id="Trazado_13918" data-name="Trazado 13918" d="M2181.5,14548.349c-.087-.084-.171-.172-.254-.259l.161-.15c.081.086.163.17.248.251Z" fill="#517349"/>
            </g>
          </g>
          <g id="Grupo_2967" data-name="Grupo 2967">
            <path id="Trazado_13919" data-name="Trazado 13919" d="M2181.279,14547.961c-.094-.1-.188-.208-.279-.314C2181.091,14547.753,2181.185,14547.86,2181.279,14547.961Z" fill="#f0e235"/>
            <g id="Grupo_2966" data-name="Grupo 2966">
              <path id="Trazado_13920" data-name="Trazado 13920" d="M2181.2,14548.038c-.095-.105-.191-.21-.282-.319l.169-.143c.09.105.183.21.275.312Z" fill="#517349"/>
            </g>
          </g>
          <g id="Grupo_2969" data-name="Grupo 2969">
            <path id="Trazado_13921" data-name="Trazado 13921" d="M2180.13,14546.492c-.063-.09-.125-.184-.188-.279C2180,14546.309,2180.067,14546.4,2180.13,14546.492Z" fill="#f0e235"/>
            <g id="Grupo_2968" data-name="Grupo 2968">
              <path id="Trazado_13922" data-name="Trazado 13922" d="M2180.039,14546.557l-.19-.279.185-.125h0v0l.015.021c.057.086.115.17.172.255Z" fill="#517349"/>
            </g>
          </g>
          <g id="Grupo_2971" data-name="Grupo 2971">
            <path id="Trazado_13923" data-name="Trazado 13923" d="M2181.637,14548.324c.1.1.2.19.309.281C2181.839,14548.515,2181.737,14548.421,2181.637,14548.324Z" fill="#f0e235"/>
            <g id="Grupo_2970" data-name="Grupo 2970">
              <path id="Trazado_13924" data-name="Trazado 13924" d="M2181.872,14548.69c-.107-.095-.21-.188-.313-.285l.154-.161c.1.1.2.186.3.274Z" fill="#517349"/>
            </g>
          </g>
          <g id="Grupo_2973" data-name="Grupo 2973">
            <path id="Trazado_13925" data-name="Trazado 13925" d="M2180.683,14547.254c-.17-.22-.335-.444-.493-.674C2180.348,14546.81,2180.513,14547.034,2180.683,14547.254Z" fill="#f0e235"/>
            <g id="Grupo_2972" data-name="Grupo 2972">
              <path id="Trazado_13926" data-name="Trazado 13926" d="M2180.595,14547.322c-.161-.207-.324-.429-.5-.68l.182-.126c.171.246.332.466.49.669Z" fill="#517349"/>
            </g>
          </g>
          <g id="Grupo_2975" data-name="Grupo 2975">
            <path id="Trazado_13927" data-name="Trazado 13927" d="M2182.7,14549.166c-.119-.076-.233-.157-.346-.24C2182.466,14549.009,2182.58,14549.09,2182.7,14549.166Z" fill="#f0e235"/>
            <g id="Grupo_2974" data-name="Grupo 2974">
              <path id="Trazado_13928" data-name="Trazado 13928" d="M2182.64,14549.26c-.121-.078-.237-.159-.353-.243l.131-.18c.111.079.223.161.34.235Z" fill="#517349"/>
            </g>
          </g>
          <g id="Grupo_2977" data-name="Grupo 2977">
            <path id="Trazado_13929" data-name="Trazado 13929" d="M2179.542,14545.605a.39.39,0,0,0-.031-.047A.39.39,0,0,1,2179.542,14545.605Z" fill="#f0e235"/>
            <g id="Grupo_2976" data-name="Grupo 2976">
              <path id="Trazado_13930" data-name="Trazado 13930" d="M2179.449,14545.663l-.018-.026.08-.078.094-.062.032.049Z" fill="#517349"/>
            </g>
          </g>
        </g>
        <g id="Grupo_2979" data-name="Grupo 2979">
          <path id="Trazado_13931" data-name="Trazado 13931" d="M2191.561,14553.528l-3.568-8.709s-12.04-4.051-16.985-3.442-2.16,3.393-2.16,3.393Z" fill="#d0cfd0"/>
        </g>
        <g id="Grupo_2980" data-name="Grupo 2980">
          <path id="Trazado_13932" data-name="Trazado 13932" d="M2187.993,14544.819a30.063,30.063,0,0,0-1.987,9.348c-.4-1.938-13.527-7.691-17-8.086-.428-.049-1.7-.888-1.654-1.46a5.618,5.618,0,0,1,1.514-2.906c1.2-1.567,3.308-.811,4.964-.45,3.163.688,5.629,1.293,8.405,2.084A58.042,58.042,0,0,1,2187.993,14544.819Z" fill="#4f534e"/>
        </g>
        <path id="Trazado_13933" data-name="Trazado 13933" d="M2187.993,14544.819a20.222,20.222,0,0,0-2.438,8.709c-.4-1.938-13.529-7.689-17-8.086-.427-.051-.852-.077-1.061-.479-.552-1.057.263-3.027.92-3.886,1.2-1.569,3.309-.811,4.964-.45,3.164.687,5.632,1.292,8.406,2.085C2183.9,14543.313,2185.958,14544.029,2187.993,14544.819Z" fill="#eae8e8"/>
      </g>
      <path id="Trazado_13934" data-name="Trazado 13934" d="M2174.233,14573.024a2.374,2.374,0,0,1,.228-.365S2174.377,14572.8,2174.233,14573.024Z" opacity="0.25" fill="url(#linear-gradient-3)"/>
      <path id="Trazado_13935" data-name="Trazado 13935" d="M2174.264,14572.937a2.288,2.288,0,0,1,.165-.268S2174.37,14572.769,2174.264,14572.937Z" opacity="0.25" fill="url(#linear-gradient-4)"/>
      <path id="Trazado_13936" data-name="Trazado 13936" d="M2190.709,14522.73s5.5.119,6.939,0c1.589-.135.575,4.9.3,5.521-.715,1.612-3.037,2.384-4.652,2.293C2190.573,14530.395,2188.921,14522.73,2190.709,14522.73Z" fill="#d6d2d2"/>
      <g id="Grupo_2982" data-name="Grupo 2982">
        <path id="Trazado_13937" data-name="Trazado 13937" d="M2190.8,14523.4c.011,0,.02-.012.018-.014a.02.02,0,0,1-.007.014.046.046,0,0,0-.015.024.474.474,0,0,0-.044.108l-.026.078c-.007.032-.013.064-.022.1a4.55,4.55,0,0,0-.045,1.175,11.279,11.279,0,0,0,.244,1.656,10.311,10.311,0,0,0,.615,1.905,5.548,5.548,0,0,0,.529.934,2.473,2.473,0,0,0,.762.736,1.112,1.112,0,0,0,.218.1.318.318,0,0,0,.056.025l.077.014.152.032h.009c.021,0-.018,0-.011,0l.02,0h.034l.075.006.149.014.3.007a5.529,5.529,0,0,0,1.223-.159,4.558,4.558,0,0,0,2.2-1.181l.2-.242.172-.253.15-.288c.03-.075.06-.191.087-.289a11.271,11.271,0,0,0,.235-1.259,10.235,10.235,0,0,0,.062-2.464,3.148,3.148,0,0,0-.109-.551,1.192,1.192,0,0,0-.2-.419l-.056-.052c-.02-.006-.033-.023-.049-.026s-.035-.018-.031-.007.021,0-.049,0l-.532.053q-.572.054-1.11.108c-.358.029-.7.042-1.025.062-.656.035-1.259.065-1.79.072s-1,.015-1.38.019-.681-.007-.884-.01l-.3,0S2190.734,14523.451,2190.8,14523.4Zm-.085-1.385h.007s.435.015,1.2.033c.38.014.841.026,1.37.056s1.123.047,1.773.091c.325.018.666.045,1.013.056l1.069.044.6.026a.914.914,0,0,1,.236.046,1.065,1.065,0,0,1,.233.11,1.518,1.518,0,0,1,.178.154c.046.06.091.117.129.175a1.841,1.841,0,0,1,.226.689,4.57,4.57,0,0,1,.045.655,8.947,8.947,0,0,1-.1,1.277c-.057.426-.135.85-.219,1.274s-.183.849-.306,1.274a2.656,2.656,0,0,1-.118.329l-.153.288-.2.286-.222.256a5.442,5.442,0,0,1-2.281,1.332,6.677,6.677,0,0,1-1.281.279l-.327.032-.164,0h-.083l-.04,0h-.02l-.041,0-.155-.013-.078-.006-.092-.021a1.847,1.847,0,0,1-.354-.113,3.206,3.206,0,0,1-1.078-.783,6.225,6.225,0,0,1-.75-.979,10.562,10.562,0,0,1-.548-1.011c-.15-.341-.289-.671-.4-1a9.3,9.3,0,0,1-.448-1.84,5.247,5.247,0,0,1-.006-1.567c.012-.06.022-.117.032-.174s.035-.119.05-.175a1.892,1.892,0,0,1,.134-.333.879.879,0,0,1,.094-.158c.036-.053.072-.1.107-.147a1.971,1.971,0,0,1,.27-.243,1.824,1.824,0,0,1,.287-.139,1.15,1.15,0,0,1,.218-.049c.119-.016.181-.021.181-.021Z" fill="#e7e7e7"/>
      </g>
      <path id="Trazado_13938" data-name="Trazado 13938" d="M2176.557,14526.383a.563.563,0,0,1-.026-.179,1.039,1.039,0,0,1,.107-.45c.09-.172.215-.374.364-.6a5.982,5.982,0,0,1,.557-.709,5.294,5.294,0,0,1,.761-.7,2.858,2.858,0,0,1,.905-.463,1.428,1.428,0,0,1,.442-.045c.22.019.445.04.67.06s.429.062.646.09.433.064.659.1c.9.152,1.794.331,2.643.48l1.223.223c.39.069.756.143,1.1.2.684.111,1.255.2,1.658.26s.634.086.634.086a.573.573,0,0,0,.179-1.131l-.016,0-.615-.111c-.392-.065-.953-.168-1.627-.295s-1.468-.274-2.314-.428-1.758-.314-2.678-.453c-.225-.036-.462-.068-.7-.1s-.478-.062-.709-.086-.449-.028-.67-.044a2.325,2.325,0,0,0-.852.118,3.172,3.172,0,0,0-1.219.793,6.4,6.4,0,0,0-.762.929c-.207.3-.381.577-.529.828s-.272.466-.375.648a1.567,1.567,0,0,1-.326.378,1.161,1.161,0,0,1-.119.09.284.284,0,0,1-.049.029.527.527,0,0,0,.5.927.515.515,0,0,0,.089-.063Z" fill="#5a9690"/>
      <g id="Grupo_2983" data-name="Grupo 2983">
        <path id="Trazado_13939" data-name="Trazado 13939" d="M2189.933,14525.333l.213-2.284c-.692-.062-1.422-.169-2.3-.33l-.41,2.254C2188.379,14525.146,2189.174,14525.262,2189.933,14525.333Z" fill="#e7e7e7"/>
      </g>
      <path id="Trazado_13940" data-name="Trazado 13940" d="M2182.177,14524.976s-.3-2.906-2.188-2.176c-1.686.655-4.207,3.1-3.082,4.811a13.419,13.419,0,0,0,3.49,3.236c.813.579,1.267.089,2.046-.42,1.425-.932.7-1.78.335-3C2182.538,14526.616,2182.342,14525.8,2182.177,14524.976Z" fill="#e1b97f"/>
      <path id="Trazado_13941" data-name="Trazado 13941" d="M2210.972,14592.646l30.809-15.765,4.809.618-38.331,19.867Z" fill="#fbfbfb"/>
      <rect id="Rectángulo_2609" data-name="Rectángulo 2609" width="43.174" height="2.602" transform="translate(2208.257 14597.364) rotate(-27.391)" fill="#ba5831"/>
      <g id="Grupo_2984" data-name="Grupo 2984">
        <path id="Trazado_13942" data-name="Trazado 13942" d="M2206.79,14604.869l0-.04.114,0c1.121-.036,10.943-4.671,11.882-5.36.343-.251,6.3-3.379,6.73-3.607l3.385-3.525a27.306,27.306,0,0,0,2.027-2.064c.067-.111.022-.311-.125-.562l-.045-.076,1.7-1.685a1.013,1.013,0,0,0-.052-.658.345.345,0,0,0-.238-.156.69.69,0,0,0-.124-.011c-.539,0-3.058,2.073-4.619,3.464l-.01.009-1.262.69c-.67.367-1.362.746-2.051,1.1-.078.04-.172.094-.279.152a4.155,4.155,0,0,1-2.21.758c-.283-.056-.615-.271-.6-.987a4.451,4.451,0,0,1,.331-1.359,5.8,5.8,0,0,0,.286-.976,5.542,5.542,0,0,0-.112-2.365l-.015-.056c-.265-.978-.491-1.217-.635-1.245a.193.193,0,0,0-.151.047,3.2,3.2,0,0,0-.677.823l-.017.027a3.96,3.96,0,0,0-.408,1.29,4.311,4.311,0,0,1-.406,1.31,11.976,11.976,0,0,1-1.365,1.741,9.03,9.03,0,0,0-2.183,3.526,15.007,15.007,0,0,1-.7,1.577c-.2.367-5.085,1.827-6.912,2.073l-1.341,6.152Z" fill="#e1b97f"/>
        <path id="Trazado_13943" data-name="Trazado 13943" d="M2232.493,14587.22a.617.617,0,0,0-.108-.009c-.779,0-4.7,3.491-4.7,3.491s-5.1,2.78-5.386,2.892l-.034.007-.587,2.694,3.084-1.141,4.385-3.225,1.907-1.893a1.281,1.281,0,0,0-.159-.389l1.659-1.646A1.159,1.159,0,0,0,2232.493,14587.22Z" fill="#eabc8d"/>
        <path id="Trazado_13944" data-name="Trazado 13944" d="M2232.04,14587c-.778,0-4.694,3.494-4.694,3.494s-3.809,2.074-5.027,2.708l-.853,3.915c.747-.391,1.386-.686,1.386-.686l2.792-2.1,3.163-2.614,3.752-3.722S2232.82,14587,2232.04,14587Z" fill="#e1b97f"/>
      </g>
      <g id="Grupo_2985" data-name="Grupo 2985">
        <path id="Trazado_13945" data-name="Trazado 13945" d="M2208.581,14597.4a34.813,34.813,0,0,1-5.57.555c-1.141.031-2.283.145-3.388.257a37.67,37.67,0,0,1-4.024.256c-.038,0-3.229.055-4.707.134-.091-.773-.258-2.755-.553-7.646,0,0-.362-31.149-9.258-31.444-2.923-.1-7.124,3.054-8.011,6-1.954,6.48,4.7,28.271,4.7,28.271.417,1.721.866,3.41,1.318,5.059.338,1.233.685,2.464,1.031,3.694q.429,1.519.852,3.038c.02.071.046.169.077.288,1.148,4.272,1.958,5.9,2.993,5.99,3.915.36,9.494-.775,16.58-3.375,2.582-.947,5.369-2.092,8.281-3.4l.5-.225c.392-.147.826-.312,1.279-.484C2209.943,14602.058,2209.291,14599.72,2208.581,14597.4Z" fill="#f0f2f1"/>
      </g>
    </g>
  </g>
</svg>
