<svg xmlns="http://www.w3.org/2000/svg" width="803.116" height="293.773" viewBox="0 0 803.116 293.773">
  <g id="Grupo_3429" data-name="Grupo 3429" transform="translate(-317.222 -992.792)">
    <rect id="Rectángulo_1797" data-name="Rectángulo 1797" width="803.116" height="293.773" transform="translate(317.222 992.792)" fill="#faf0f0"/>
    <g id="Grupo_1575" data-name="Grupo 1575" transform="translate(-3071.29)">
      <rect id="Rectángulo_1798" data-name="Rectángulo 1798" width="434.551" height="6.084" transform="translate(3480.492 1114.409)" fill="#e6b54a"/>
    </g>
    <g id="Grupo_1577" data-name="Grupo 1577" transform="translate(-3071.29)">
      <rect id="Rectángulo_1799" data-name="Rectángulo 1799" width="108.225" height="66.64" transform="translate(3976.113 1063.635)" fill="#c2d8ff"/>
      <g id="Grupo_1576" data-name="Grupo 1576">
        <path id="Trazado_7166" data-name="Trazado 7166" d="M3981.694,1073.062v1.181h-2.671v-1.181h.669v-2.913h-.617v-1.174h2.567v1.174h-.617v2.913Z" fill="#fff"/>
        <path id="Trazado_7167" data-name="Trazado 7167" d="M3987.227,1068.96h.482v5.283h-1.377V1071.9l-1.122,1.174h-.15l-1.114-1.174v2.348h-1.377v-5.283h.5l2.062,2.288Z" fill="#fff"/>
        <path id="Trazado_7168" data-name="Trazado 7168" d="M3989.052,1074.243v-5.268h2.319c2.521.008,2.521,3.921,0,3.921h-.972v1.347Zm2.311-4.064c-.316-.007-.655,0-.964,0v1.506h.964C3992.1,1071.685,3992.146,1070.187,3991.363,1070.179Z" fill="#fff"/>
        <path id="Trazado_7169" data-name="Trazado 7169" d="M3993.954,1071.617a2.7,2.7,0,1,1,5.4,0A2.7,2.7,0,1,1,3993.954,1071.617Zm4.026,0a1.324,1.324,0,1,0-2.641,0A1.324,1.324,0,1,0,3997.98,1071.617Z" fill="#fff"/>
        <path id="Trazado_7170" data-name="Trazado 7170" d="M4004.825,1074.048v.2h-1.5l-.9-1.55h-.7v1.55h-1.347v-5.268h2.311a1.874,1.874,0,0,1,1.114,3.4Zm-2.144-3.869c-.317-.007-.648,0-.964,0v1.3h.964C4003.41,1071.482,4003.448,1070.187,4002.681,1070.179Z" fill="#fff"/>
        <path id="Trazado_7171" data-name="Trazado 7171" d="M4005.122,1070.179v-1.2h3.913v1.2h-1.287v4.064h-1.332v-4.064Z" fill="#fff"/>
        <path id="Trazado_7172" data-name="Trazado 7172" d="M4012.62,1073.581h-2.078l-.309.662h-1.317v-.2l2.371-5.141h.58l2.378,5.141v.2h-1.317Zm-1.046-2.544-.587,1.385h1.188Z" fill="#fff"/>
        <path id="Trazado_7173" data-name="Trazado 7173" d="M4016.333,1071.654v2.589h-1.393v-5.29h.489l2.665,2.6v-2.582h1.377v5.276h-.482Z" fill="#fff"/>
        <path id="Trazado_7174" data-name="Trazado 7174" d="M4020.295,1070.179v-1.2h3.913v1.2h-1.287v4.064h-1.332v-4.064Z" fill="#fff"/>
        <path id="Trazado_7175" data-name="Trazado 7175" d="M4029.352,1073.062v1.181h-2.672v-1.181h.67v-2.913h-.617v-1.174h2.567v1.174h-.618v2.913Z" fill="#fff"/>
        <path id="Trazado_7176" data-name="Trazado 7176" d="M4031.626,1071.654v2.589h-1.392v-5.29h.489l2.665,2.6v-2.582h1.377v5.276h-.482Z" fill="#fff"/>
        <path id="Trazado_7177" data-name="Trazado 7177" d="M4037.477,1072.535v1.708h-1.369v-5.268h3.281v1.2h-1.912v1.152h1.694v1.2Z" fill="#fff"/>
        <path id="Trazado_7178" data-name="Trazado 7178" d="M4040.106,1071.617a2.7,2.7,0,1,1,5.4,0A2.7,2.7,0,1,1,4040.106,1071.617Zm4.026,0a1.324,1.324,0,1,0-2.641,0A1.324,1.324,0,1,0,4044.132,1071.617Z" fill="#fff"/>
        <path id="Trazado_7179" data-name="Trazado 7179" d="M4050.977,1074.048v.2h-1.505l-.9-1.55h-.7v1.55h-1.347v-5.268h2.31a1.874,1.874,0,0,1,1.114,3.4Zm-2.145-3.869c-.316-.007-.647,0-.963,0v1.3h.963C4049.562,1071.482,4049.6,1070.187,4048.832,1070.179Z" fill="#fff"/>
        <path id="Trazado_7180" data-name="Trazado 7180" d="M4056.444,1068.96h.481v5.283h-1.377V1071.9l-1.122,1.174h-.15l-1.114-1.174v2.348h-1.377v-5.283h.5l2.062,2.288Z" fill="#fff"/>
        <path id="Trazado_7181" data-name="Trazado 7181" d="M4061.309,1073.581h-2.077l-.309.662h-1.317v-.2l2.371-5.141h.58l2.378,5.141v.2h-1.317Zm-1.046-2.544-.587,1.385h1.189Z" fill="#fff"/>
        <path id="Trazado_7182" data-name="Trazado 7182" d="M4062.818,1070.179v-1.2h3.913v1.2h-1.287v4.064h-1.332v-4.064Z" fill="#fff"/>
        <path id="Trazado_7183" data-name="Trazado 7183" d="M4069.917,1073.062v1.181h-2.672v-1.181h.67v-2.913h-.617v-1.174h2.566v1.174h-.617v2.913Z" fill="#fff"/>
        <path id="Trazado_7184" data-name="Trazado 7184" d="M4070.475,1071.617a2.7,2.7,0,1,1,5.4,0A2.7,2.7,0,1,1,4070.475,1071.617Zm4.026,0a1.324,1.324,0,1,0-2.641,0A1.324,1.324,0,1,0,4074.5,1071.617Z" fill="#fff"/>
        <path id="Trazado_7185" data-name="Trazado 7185" d="M4078.29,1071.654v2.589H4076.9v-5.29h.489l2.664,2.6v-2.582h1.377v5.276h-.481Z" fill="#fff"/>
      </g>
      <rect id="Rectángulo_1800" data-name="Rectángulo 1800" width="95.571" height="2.21" transform="translate(3982.69 1080.8)" fill="#fff"/>
      <rect id="Rectángulo_1801" data-name="Rectángulo 1801" width="95.571" height="2.21" transform="translate(3982.69 1110.377)" fill="#fff"/>
      <rect id="Rectángulo_1802" data-name="Rectángulo 1802" width="95.571" height="2.21" transform="translate(3982.69 1115.48)" fill="#fff"/>
      <rect id="Rectángulo_1803" data-name="Rectángulo 1803" width="95.571" height="2.21" transform="translate(3982.69 1120.244)" fill="#fff"/>
      <rect id="Rectángulo_1804" data-name="Rectángulo 1804" width="39.451" height="2.21" transform="translate(3982.69 1086.324)" fill="#fff"/>
      <rect id="Rectángulo_1805" data-name="Rectángulo 1805" width="39.451" height="2.21" transform="translate(3982.69 1089.639)" fill="#fff"/>
      <rect id="Rectángulo_1806" data-name="Rectángulo 1806" width="39.451" height="2.21" transform="translate(3982.69 1093.174)" fill="#fff"/>
      <rect id="Rectángulo_1807" data-name="Rectángulo 1807" width="39.451" height="2.21" transform="translate(3982.69 1096.489)" fill="#fff"/>
      <rect id="Rectángulo_1808" data-name="Rectángulo 1808" width="39.451" height="2.21" transform="translate(3982.69 1100.466)" fill="#fff"/>
      <rect id="Rectángulo_1809" data-name="Rectángulo 1809" width="39.451" height="2.21" transform="translate(3982.69 1103.781)" fill="#fff"/>
      <rect id="Rectángulo_1810" data-name="Rectángulo 1810" width="35.024" height="19.114" transform="translate(4039.26 1087.429)" fill="#fff" stroke="#777" stroke-miterlimit="10" stroke-width="0.2"/>
      <path id="Trazado_7186" data-name="Trazado 7186" d="M4056.771,1096.955l-17.512-9.526h35.024Z" fill="#fff" stroke="#777" stroke-miterlimit="10" stroke-width="0.2"/>
    </g>
    <rect id="Rectángulo_1811" data-name="Rectángulo 1811" width="22.708" height="96.773" transform="translate(945.261 1172.667)" fill="#fff" stroke="#767676" stroke-miterlimit="10" stroke-width="0.2"/>
    <rect id="Rectángulo_1812" data-name="Rectángulo 1812" width="4.668" height="18.948" transform="translate(602.332 1168.716)" fill="#595959"/>
    <rect id="Rectángulo_1813" data-name="Rectángulo 1813" width="13.921" height="7.03" transform="translate(597.706 1166.631)" fill="#595959"/>
    <rect id="Rectángulo_1814" data-name="Rectángulo 1814" width="75.573" height="3.58" transform="translate(591.629 1195.708)" fill="#454545"/>
    <g id="Grupo_1580" data-name="Grupo 1580" transform="translate(-3071.29)">
      <path id="Trazado_7187" data-name="Trazado 7187" d="M3825.8,1099.363a10.68,10.68,0,0,1,14.215,5.9c5.919,14.724-8.385,38.482-4.89,51.55-10.832,11.543-23.291,3.126-26.745-4.8,3.422-2.649,4.36-37.07,9.159-46.734C3819.132,1102.072,3821.4,1099.027,3825.8,1099.363Z" fill="#514542"/>
      <g id="Grupo_1578" data-name="Grupo 1578">
        <path id="Trazado_7188" data-name="Trazado 7188" d="M3822.01,1263.038c1.452,6.513,6.384,2.514,11.94,4.677.283-4.5-8.508-3.646-8.008-9.083,0,0,1.826-19.634,1.307-22.818l-2.363,1.5C3824.1,1249.787,3823.595,1258.751,3822.01,1263.038Z" fill="#f0d8b3"/>
        <path id="Trazado_7189" data-name="Trazado 7189" d="M3822.01,1263.038c1.452,6.513,6.384,2.514,11.94,4.677.283-4.5-8.508-3.646-8.008-9.083,0,0,1.826-19.634,1.307-22.818l-2.363,1.5C3824.1,1249.787,3823.595,1258.751,3822.01,1263.038Z" fill="none" stroke="#777" stroke-miterlimit="10" stroke-width="0.2"/>
      </g>
      <g id="Grupo_1579" data-name="Grupo 1579">
        <path id="Trazado_7190" data-name="Trazado 7190" d="M3813.021,1230.267s-.121,9.868-.788,27.111l-1.442,7.321c2.171,3.292,4.188,1.627,5.2-.16l-1.489-7.215c-.643-23.643-1.216-22.043-1.216-22.043Z" fill="#f0d8b3"/>
        <path id="Trazado_7191" data-name="Trazado 7191" d="M3813.021,1230.267s-.121,9.868-.788,27.111l-1.442,7.321c2.171,3.292,4.188,1.627,5.2-.16l-1.489-7.215c-.643-23.643-1.216-22.043-1.216-22.043Z" fill="none" stroke="#777" stroke-miterlimit="10" stroke-width="0.2"/>
      </g>
      <path id="Trazado_7192" data-name="Trazado 7192" d="M3820.608,1268.611c6.348.351,16.232-.044,18.35-.1,0-3.12-2.852-3.8-5.238-3.786-2.343.272-11.146,2.814-11.71-1.689a3.03,3.03,0,0,0-.727.569C3820.139,1264.765,3819.491,1267.279,3820.608,1268.611Z" fill="#3f3f3f"/>
      <path id="Trazado_7193" data-name="Trazado 7193" d="M3831.765,1171.447l-19.821-2.166c-9.046,10.177-4.451,18.926-4.325,18.978.457,12.9,2.572,55.059,4.491,69.1a2.045,2.045,0,0,0,2.495-.1c1.582-21.007,5.494-65.958,6.109-72.479h.787c-.217,14.356,1.464,60.519,1.257,72.479,0,0,1.963,1.787,3.584,0C3826.342,1257.258,3835.57,1177.991,3831.765,1171.447Z" fill="#3f3f3f"/>
      <path id="Trazado_7194" data-name="Trazado 7194" d="M3816.589,1268.755h-6.4v-2.932a1.851,1.851,0,0,1,1.591-1.822,10.683,10.683,0,0,1,3.213,0,1.852,1.852,0,0,1,1.592,1.822Z" fill="#3f3f3f"/>
      <path id="Trazado_7195" data-name="Trazado 7195" d="M3853.743,1163.77c6.1-1.18-1.245-1.518-2.752-1.4l-20.014-6.444,2.15-20.861a2.6,2.6,0,0,0-2.316-2.847l-.416-.043a2.6,2.6,0,0,0-2.847,2.315l-2.383,23.121a2.585,2.585,0,0,0,.045.753c.009.073.028.143.043.215.006.022.009.045.016.067a2.583,2.583,0,0,0,1.822,1.916l22.986,5.447C3859.972,1172.382,3862.524,1168.208,3853.743,1163.77Z" fill="#f0d8b3" stroke="#777" stroke-linecap="round" stroke-linejoin="round" stroke-width="0.2"/>
      <path id="Trazado_7196" data-name="Trazado 7196" d="M3815.226,1131.135c5.675,10.854,14.353,14.9,14.847,1-.73-.35-1.095-.5-2.606-1.106-1.224-2.043-1.993-6.284-1.906-8.753l-4.855-.262c.037,2,.574,5.078-2.037,8.425C3817.076,1130.774,3816.768,1130.849,3815.226,1131.135Z" fill="#f0d8b3" stroke="#777" stroke-linecap="round" stroke-linejoin="round" stroke-width="0.2"/>
      <path id="Trazado_7197" data-name="Trazado 7197" d="M3834.713,1145.765a7.967,7.967,0,0,1-6.774.53l-.834-10.84a3.153,3.153,0,0,1,2.9-3.385h0a3.152,3.152,0,0,1,3.384,2.9Z" fill="#fff" stroke="#767676" stroke-miterlimit="10" stroke-width="0.209"/>
      <path id="Trazado_7198" data-name="Trazado 7198" d="M3833.945,1147.534c-.1,1.788-1.106,3.828-2.662,4.459-2.682,4.082-2.285,10.921-.62,14.462.329.605,2.022,7.438,1.92,9.7-7.246,3.254-16.576,2.178-24.3-1.564.174-2.72,4.71-9.26,5.63-10.183,7.722-6.422-.311-22.956-.953-24.156a10.257,10.257,0,0,1,0-7.613,2.179,2.179,0,0,1,1.344-1.313l3.538-.825c4.537,4.089,8.082,5.038,10.835,1.016,1.035.433,1.386.3,2.085.769,1.384,1.633,1.636,4.765,1.272,8.054a13.761,13.761,0,0,0,.1,1.77A11.768,11.768,0,0,1,3833.945,1147.534Z" fill="#fff" stroke="#777" stroke-miterlimit="10" stroke-width="0.2"/>
      <path id="Trazado_7199" data-name="Trazado 7199" d="M3830.355,1168.109c6.2.385-.825-1.78-2.314-2.043l-17.764-11.249,7.3-19.659a2.6,2.6,0,0,0-1.529-3.336l-.392-.146a2.6,2.6,0,0,0-3.336,1.529l-8.095,21.788a2.538,2.538,0,0,0-.145.74c-.01.073-.009.146-.012.219,0,.023,0,.046,0,.069a2.582,2.582,0,0,0,1.284,2.311l20.891,11.029C3834.23,1178.007,3837.746,1174.6,3830.355,1168.109Z" fill="#f0d8b3" stroke="#777" stroke-linecap="round" stroke-linejoin="round" stroke-width="0.2"/>
      <rect id="Rectángulo_1815" data-name="Rectángulo 1815" width="5.594" height="2.079" transform="translate(3819.513 1142.57)" fill="#fff" stroke="#777" stroke-miterlimit="10" stroke-width="0.2"/>
      <path id="Trazado_7200" data-name="Trazado 7200" d="M3814.357,1145.748a7.968,7.968,0,0,1-6.351-2.418l3.882-10.156a3.152,3.152,0,0,1,4.07-1.818h0a3.152,3.152,0,0,1,1.819,4.069Z" fill="#fff" stroke="#767676" stroke-miterlimit="10" stroke-width="0.209"/>
      <path id="Trazado_7201" data-name="Trazado 7201" d="M3819.639,1128.43l-2.306,2.186c.741,3.607,3.2,5.473,7.02,7.495l.367-3.925C3823.225,1134.079,3819.36,1131.422,3819.639,1128.43Z" fill="#fff" stroke="#767676" stroke-miterlimit="10" stroke-width="0.2"/>
      <path id="Trazado_7202" data-name="Trazado 7202" d="M3825.631,1134.18l.581,4.059c2.552-2.123,3.479-3.125,3.915-6.271l-2.942-2.087C3827.385,1132.254,3827.272,1132.261,3825.631,1134.18Z" fill="#fff" stroke="#767676" stroke-miterlimit="10" stroke-width="0.2"/>
      <path id="Trazado_7203" data-name="Trazado 7203" d="M3827.468,1106.805c-.778,3.7-6.449,4.263-5.708,8.321-2.675-3.636-3.261,4.783-1.567,4.664.216,5.595,3.235,8.617,7.266,10.665a2.92,2.92,0,0,0,2.619.016c6.488-3.223,7.016-8.781,8.05-14.177C3835.617,1114.317,3831.977,1114.107,3827.468,1106.805Z" fill="#f0d8b3" stroke="#777" stroke-linecap="round" stroke-linejoin="round" stroke-width="0.2"/>
      <path id="Trazado_7204" data-name="Trazado 7204" d="M3825.622,1116.179a1,1,0,1,0,1.1-.886A1,1,0,0,0,3825.622,1116.179Z" fill="#3e3e3e"/>
      <path id="Trazado_7205" data-name="Trazado 7205" d="M3833.425,1117.376a1,1,0,1,0,1.1-.885A1,1,0,0,0,3833.425,1117.376Z" fill="#3e3e3e"/>
      <path id="Trazado_7206" data-name="Trazado 7206" d="M3830.382,1120.493c-.2.748,1.7,2.548-.255,2.379" fill="none" stroke="#777" stroke-linecap="round" stroke-linejoin="round" stroke-width="0.5"/>
      <path id="Trazado_7207" data-name="Trazado 7207" d="M3831.4,1125.6s-1.8,1.619-4.071-.427" fill="none" stroke="#777" stroke-linecap="round" stroke-linejoin="round" stroke-width="0.5"/>
    </g>
    <g id="Grupo_1592" data-name="Grupo 1592" transform="translate(-3071.29)">
      <path id="Trazado_7208" data-name="Trazado 7208" d="M3578.312,1097.394c4.053-2.212,6.17-2.42,8.322-1.87a11.441,11.441,0,0,1,4.488,2.112,15.643,15.643,0,0,1,6.262,10.921c.8,8.548-.371,31.085-3.714,33.191-5.853,3.263-14.247,7.58-19.322,5.289C3570.21,1130.695,3566.065,1098.622,3578.312,1097.394Z" fill="#be8157"/>
      <g id="Grupo_1581" data-name="Grupo 1581">
        <path id="Trazado_7209" data-name="Trazado 7209" d="M3567.412,1154.533l4.113-20.137a2.239,2.239,0,1,1,4.387.9l-3.867,18.935,14.143,12.812c.96.78,9.95,6.067,7.135,6.415-2.781.344-7.2-4.089-8.157-4.869l-16.829-11.6a2.887,2.887,0,0,1-.925-2.451Z" fill="#f0d8b3" stroke="#777" stroke-miterlimit="10" stroke-width="0.2"/>
        <path id="Trazado_7210" data-name="Trazado 7210" d="M3567.412,1154.533l4.113-20.137a2.239,2.239,0,1,1,4.387.9l-3.867,18.935,14.143,12.812c.96.78,9.95,6.067,7.135,6.415-2.781.344-7.2-4.089-8.157-4.869l-16.829-11.6a2.887,2.887,0,0,1-.925-2.451Z" fill="none" stroke="#767676" stroke-miterlimit="10" stroke-width="0.2"/>
      </g>
      <g id="Grupo_1582" data-name="Grupo 1582">
        <path id="Trazado_7211" data-name="Trazado 7211" d="M3574.166,1179.3c-.953-2.574-.505-8.092,1.426-10.609.875-1.264,4.684-5.734,4.672-7.286,0,0,10.955,10.944,11.288,12.925.354,1.175,5.445,1.929,5.456,4.97l-7.743,85.621c-.03.023,5.515,5.942-3.091.006l.069-.564.184-83.64h-.849l-1.108,83.929c-.037.032,1.1,1.541,1.1,1.541-.439,5.567-1.82,4.037-4.086-.869a7.8,7.8,0,0,0,.336-.961Z" fill="#f0d8b3" stroke="#777" stroke-miterlimit="10" stroke-width="0.2"/>
        <path id="Trazado_7212" data-name="Trazado 7212" d="M3574.166,1179.3c-.953-2.574-.505-8.092,1.426-10.609.875-1.264,4.684-5.734,4.672-7.286,0,0,10.955,10.944,11.288,12.925.354,1.175,5.445,1.929,5.456,4.97l-7.743,85.621c-.03.023,5.515,5.942-3.091.006l.069-.564.184-83.64h-.849l-1.108,83.929c-.037.032,1.1,1.541,1.1,1.541-.439,5.567-1.82,4.037-4.086-.869a7.8,7.8,0,0,0,.336-.961Z" fill="none" stroke="#767676" stroke-miterlimit="10" stroke-width="0.2"/>
      </g>
      <g id="Grupo_1583" data-name="Grupo 1583">
        <path id="Trazado_7213" data-name="Trazado 7213" d="M3620.62,1170.841l-.839-.22h0l-21.326-14.543-4.915-21.636a2.24,2.24,0,0,0-4.306,1.233l5.254,22.816a2.88,2.88,0,0,0,1.953,1.746l22.329,12.706c1.211.248,7.807.693,8.055-.518S3621.831,1171.089,3620.62,1170.841Z" fill="#f0d8b3" stroke="#777" stroke-miterlimit="10" stroke-width="0.2"/>
      </g>
      <g id="Grupo_1584" data-name="Grupo 1584">
        <path id="Trazado_7214" data-name="Trazado 7214" d="M3591.7,1132.85a20.091,20.091,0,0,1-3.155-1.754c-1.685-2.5-2.945-7.8-3-10.927h-6.15c.182,2.524,1.07,6.375-2,10.781a21.82,21.82,0,0,1-2.751,1.161v9.591l1.332-1.986c5.469,10.7,11.988,15.706,14.618,3.476.235.225.465-1.8.748-1.579.277,1.029.5,2.023.7,2.993C3592.039,1144.606,3591.789,1132.868,3591.7,1132.85Z" fill="#f0d8b3" stroke="#777" stroke-miterlimit="10" stroke-width="0.2"/>
        <path id="Trazado_7215" data-name="Trazado 7215" d="M3591.7,1132.85a20.091,20.091,0,0,1-3.155-1.754c-1.685-2.5-2.945-7.8-3-10.927h-6.15c.182,2.524,1.07,6.375-2,10.781a21.82,21.82,0,0,1-2.751,1.161v9.591l1.332-1.986c5.469,10.7,11.988,15.706,14.618,3.476.235.225.465-1.8.748-1.579.277,1.029.5,2.023.7,2.993C3592.039,1144.606,3591.789,1132.868,3591.7,1132.85Z" fill="none" stroke="#767676" stroke-miterlimit="10" stroke-width="0.2"/>
      </g>
      <path id="Trazado_7216" data-name="Trazado 7216" d="M3593.867,1175.824c-6.564,3.049-13.276,2.286-20.067-.507,1-2.19,3.289-8.46,3.392-10.283l14.391.321C3591.435,1167.732,3592.716,1173.862,3593.867,1175.824Z" fill="#d3ad8e" stroke="#484848" stroke-miterlimit="10" stroke-width="0.2"/>
      <path id="Trazado_7217" data-name="Trazado 7217" d="M3598.52,1145.243a7.972,7.972,0,0,1-6.423,2.219l-3.535-10.282a3.153,3.153,0,0,1,1.956-4.006h0a3.152,3.152,0,0,1,4,1.956Z" fill="#fff" stroke="#767676" stroke-miterlimit="10" stroke-width="0.209"/>
      <path id="Trazado_7218" data-name="Trazado 7218" d="M3593.67,1141.748c-1.433-3.237-.721-5.1-.771-8.472a24.038,24.038,0,0,0-4.2-2.062c-.8,2.411-2.891,4.7-4.343,4.74-1.28.03-5.428-2.075-6.97-5a34.781,34.781,0,0,0-4.643,1.743,26.194,26.194,0,0,1,1.324,11.631s6.636,16.419.568,28.976c6.454,2.548,14.2,3.908,19.443.916-2.364-7.229-3.166-16.278-.915-20.03a6.317,6.317,0,0,0,3.306-5.523C3596.471,1147.191,3595.348,1144.311,3593.67,1141.748Z" fill="#fff" stroke="#767676" stroke-miterlimit="10" stroke-width="0.2"/>
      <path id="Trazado_7219" data-name="Trazado 7219" d="M3577.233,1165.075l14.848.663s12.691,13.949,5.447,42.181c-6.287,3.782-18.578,4.674-25.679,0C3567.622,1198.83,3566.977,1171.674,3577.233,1165.075Z" fill="#343b41"/>
      <g id="Grupo_1585" data-name="Grupo 1585">
        <path id="Trazado_7220" data-name="Trazado 7220" d="M3592.039,1165.7c-4.921,2.173-8.588,2.6-15.052-.482l.246-2.77c6.9,2.611,10.939,2.835,14.67.645Z" fill="#343b41"/>
        <path id="Trazado_7221" data-name="Trazado 7221" d="M3592.039,1165.7c-4.921,2.173-8.588,2.6-15.052-.482l.246-2.77c6.9,2.611,10.939,2.835,14.67.645Z" fill="#343b41"/>
      </g>
      <g id="Grupo_1586" data-name="Grupo 1586">
        <path id="Trazado_7222" data-name="Trazado 7222" d="M3581.613,1103.789c-.412,3.882-6.172,5.047-4.988,9.133-3.125-3.451-2.846,5.248-1.121,4.949.806,5.718,4.219,8.5,8.568,10.183a3.013,3.013,0,0,0,2.69-.257c6.319-3.984,6.281-9.742,6.779-15.386A20.985,20.985,0,0,1,3581.613,1103.789Z" fill="#f0d8b3" stroke="#777" stroke-miterlimit="10" stroke-width="0.2"/>
        <path id="Trazado_7223" data-name="Trazado 7223" d="M3581.613,1103.789c-.412,3.882-6.172,5.047-4.988,9.133-3.125-3.451-2.846,5.248-1.121,4.949.806,5.718,4.219,8.5,8.568,10.183a3.013,3.013,0,0,0,2.69-.257c6.319-3.984,6.281-9.742,6.779-15.386A20.985,20.985,0,0,1,3581.613,1103.789Z" fill="none" stroke="#767676" stroke-miterlimit="10" stroke-width="0.2"/>
      </g>
      <path id="Trazado_7224" data-name="Trazado 7224" d="M3581.28,1114.322a1.029,1.029,0,1,0,1.035-1.023A1.03,1.03,0,0,0,3581.28,1114.322Z" fill="#3e3e3e"/>
      <path id="Trazado_7225" data-name="Trazado 7225" d="M3588.581,1114.322a1.029,1.029,0,1,0,1.034-1.023A1.029,1.029,0,0,0,3588.581,1114.322Z" fill="#3e3e3e"/>
      <path id="Trazado_7226" data-name="Trazado 7226" d="M3586.031,1117.528c-.121.788,2.01,2.437-.013,2.468" fill="none" stroke="#777" stroke-linecap="round" stroke-linejoin="round" stroke-width="0.534"/>
      <path id="Trazado_7227" data-name="Trazado 7227" d="M3587.6,1122.659s-1.681,1.85-4.221-.014" fill="none" stroke="#777" stroke-linecap="round" stroke-linejoin="round" stroke-width="0.534"/>
      <g id="Grupo_1588" data-name="Grupo 1588">
        <path id="Trazado_7228" data-name="Trazado 7228" d="M3598.018,1268.122c-1.929-1.319-7.049-.943-8.753-3.2,1.491,1.228.206,1.842-2.908-.4a.161.161,0,0,0-.036-.056h0c-.1-.1-.263-.022-.336.123-1.029,2.048-1.665,3.244-1.2,4.567a1.471,1.471,0,0,0,.219.412h0a.894.894,0,0,0,.146.149l.012.01a.7.7,0,0,0,.168.1l.036.013a.723.723,0,0,0,.2.04,5.467,5.467,0,0,0,1.47.006,1.006,1.006,0,0,0,.145-.007,35.274,35.274,0,0,1,4.257.178,14.39,14.39,0,0,0,6-.738.53.53,0,0,0,.133-.047l.024-.012a.749.749,0,0,0,.126-.085l.011-.009C3598.087,1268.865,3598.317,1268.259,3598.018,1268.122Z" fill="#383f46"/>
        <g id="Grupo_1587" data-name="Grupo 1587">
          <path id="Trazado_7229" data-name="Trazado 7229" d="M3597.756,1268.977a17.588,17.588,0,0,1-6.734.617,9.744,9.744,0,0,0-3.618-.171,8.759,8.759,0,0,1-2.1.093.753.753,0,0,1-.421-.146.817.817,0,0,0,.688.5,5.467,5.467,0,0,0,1.47.006,33.919,33.919,0,0,1,4.4.171,14.39,14.39,0,0,0,6-.738.909.909,0,0,0,.528-.422A.6.6,0,0,1,3597.756,1268.977Z" fill="#787878" stroke="#787878" stroke-linecap="round" stroke-linejoin="round" stroke-width="0.2"/>
          <path id="Trazado_7230" data-name="Trazado 7230" d="M3597.756,1268.977a17.588,17.588,0,0,1-6.734.617,9.744,9.744,0,0,0-3.618-.171,8.759,8.759,0,0,1-2.1.093.753.753,0,0,1-.421-.146.817.817,0,0,0,.688.5,5.467,5.467,0,0,0,1.47.006,33.919,33.919,0,0,1,4.4.171,14.39,14.39,0,0,0,6-.738.909.909,0,0,0,.528-.422A.6.6,0,0,1,3597.756,1268.977Z" fill="#787878" stroke="#787878" stroke-linecap="round" stroke-linejoin="round" stroke-width="0.2"/>
        </g>
      </g>
      <g id="Grupo_1590" data-name="Grupo 1590">
        <path id="Trazado_7231" data-name="Trazado 7231" d="M3593.36,1268.253c-1.929-1.319-7.05-.943-8.753-3.2,1.491,1.228.205,1.842-2.909-.405a.174.174,0,0,0-.035-.056l0,0c-.095-.1-.263-.02-.335.124-1.03,2.048-1.665,3.244-1.2,4.567a1.451,1.451,0,0,0,.219.412h0a.944.944,0,0,0,.146.149l.012.01a.731.731,0,0,0,.168.1l.037.013a.681.681,0,0,0,.2.04,5.435,5.435,0,0,0,1.471.006.864.864,0,0,0,.144-.007,35.231,35.231,0,0,1,4.257.178,14.389,14.389,0,0,0,6-.738.535.535,0,0,0,.134-.047l.023-.012a.814.814,0,0,0,.126-.084l.012-.01C3593.429,1269,3593.658,1268.39,3593.36,1268.253Z" fill="#3d464e"/>
        <g id="Grupo_1589" data-name="Grupo 1589">
          <path id="Trazado_7232" data-name="Trazado 7232" d="M3593.1,1269.108a17.573,17.573,0,0,1-6.735.617,9.749,9.749,0,0,0-3.618-.171,8.751,8.751,0,0,1-2.1.093.74.74,0,0,1-.421-.146.816.816,0,0,0,.687.5,5.435,5.435,0,0,0,1.471.006,33.876,33.876,0,0,1,4.4.171,14.389,14.389,0,0,0,6-.738.907.907,0,0,0,.528-.421A.613.613,0,0,1,3593.1,1269.108Z" fill="#787878" stroke="#787878" stroke-linecap="round" stroke-linejoin="round" stroke-width="0.2"/>
          <path id="Trazado_7233" data-name="Trazado 7233" d="M3593.1,1269.108a17.573,17.573,0,0,1-6.735.617,9.749,9.749,0,0,0-3.618-.171,8.751,8.751,0,0,1-2.1.093.74.74,0,0,1-.421-.146.816.816,0,0,0,.687.5,5.435,5.435,0,0,0,1.471.006,33.876,33.876,0,0,1,4.4.171,14.389,14.389,0,0,0,6-.738.907.907,0,0,0,.528-.421A.613.613,0,0,1,3593.1,1269.108Z" fill="#787878" stroke="#787878" stroke-linecap="round" stroke-linejoin="round" stroke-width="0.2"/>
        </g>
      </g>
      <g id="Grupo_1591" data-name="Grupo 1591">
        <path id="Trazado_7234" data-name="Trazado 7234" d="M3567.412,1154.533l4.113-20.137a2.239,2.239,0,1,1,4.387.9l-3.867,18.935,14.143,12.812c.96.78,9.95,6.067,7.135,6.415-2.781.344-7.2-4.089-8.157-4.869l-16.829-11.6a2.887,2.887,0,0,1-.925-2.451Z" fill="#f0d8b3" stroke="#777" stroke-miterlimit="10" stroke-width="0.2"/>
        <path id="Trazado_7235" data-name="Trazado 7235" d="M3567.412,1154.533l4.113-20.137a2.239,2.239,0,1,1,4.387.9l-3.867,18.935,14.143,12.812c.96.78,9.95,6.067,7.135,6.415-2.781.344-7.2-4.089-8.157-4.869l-16.829-11.6a2.887,2.887,0,0,1-.925-2.451Z" fill="none" stroke="#767676" stroke-miterlimit="10" stroke-width="0.2"/>
      </g>
      <rect id="Rectángulo_1816" data-name="Rectángulo 1816" width="5.581" height="1.564" transform="translate(3583.407 1144.656) rotate(180)" fill="#fff" stroke="#767676" stroke-miterlimit="10" stroke-width="0.2"/>
      <path id="Trazado_7236" data-name="Trazado 7236" d="M3574.348,1147.037a7.975,7.975,0,0,1-6.5-1.976l3.176-10.4a3.152,3.152,0,0,1,3.935-2.094h0a3.152,3.152,0,0,1,2.094,3.935Z" fill="#fff" stroke="#767676" stroke-miterlimit="10" stroke-width="0.209"/>
      <path id="Trazado_7237" data-name="Trazado 7237" d="M3578.624,1128.776l-2.125,2.441c1.012,3.372,3.46,6.157,6.839,8.562l.367-3.925S3579.248,1131.484,3578.624,1128.776Z" fill="#fff" stroke="#767676" stroke-miterlimit="10" stroke-width="0.2"/>
      <path id="Trazado_7238" data-name="Trazado 7238" d="M3585.208,1135.719l.582,4.06a12.163,12.163,0,0,0,4.473-7.907l-2.658-2.532A8.563,8.563,0,0,1,3585.208,1135.719Z" fill="#fff" stroke="#767676" stroke-miterlimit="10" stroke-width="0.2"/>
    </g>
    <g id="Grupo_1593" data-name="Grupo 1593" transform="translate(-3071.29)">
      <rect id="Rectángulo_1817" data-name="Rectángulo 1817" width="43.868" height="23.152" transform="translate(3729.13 1183.411) rotate(180)" fill="#bc9265" stroke="#767676" stroke-miterlimit="10" stroke-width="0.2"/>
      <rect id="Rectángulo_1818" data-name="Rectángulo 1818" width="13.485" height="7.176" transform="translate(3702.593 1170.345) rotate(180)" fill="#fff"/>
    </g>
    <g id="Grupo_1594" data-name="Grupo 1594" transform="translate(-3071.29)">
      <path id="Rectángulo_1819" data-name="Rectángulo 1819" d="M0,0H18.167a0,0,0,0,1,0,0V0a.523.523,0,0,1-.523.523H.523A.523.523,0,0,1,0,0V0A0,0,0,0,1,0,0Z" transform="translate(3883.579 1175.815) rotate(-180)" fill="#fff" stroke="#767676" stroke-linecap="round" stroke-linejoin="round" stroke-width="0.142"/>
      <rect id="Rectángulo_1820" data-name="Rectángulo 1820" width="53.409" height="36.361" rx="4.496" transform="translate(3901.2 1170.881) rotate(-180)" fill="#aaa" stroke="#767676" stroke-linecap="round" stroke-linejoin="round" stroke-width="0.142"/>
      <path id="Trazado_7239" data-name="Trazado 7239" d="M3868.607,1175.788h11.778l-2.7-21.416h-6.379Z" fill="#fff" stroke="#767676" stroke-linecap="round" stroke-linejoin="round" stroke-width="0.142"/>
      <rect id="Rectángulo_1821" data-name="Rectángulo 1821" width="13.122" height="1.087" transform="translate(3863.688 1168.375) rotate(180)" fill="#464646"/>
    </g>
    <g id="Grupo_1595" data-name="Grupo 1595" transform="translate(-3071.29)">
      <path id="Rectángulo_1822" data-name="Rectángulo 1822" d="M0,0H18.167a0,0,0,0,1,0,0V0a.523.523,0,0,1-.523.523H.523A.523.523,0,0,1,0,0V0A0,0,0,0,1,0,0Z" transform="translate(3520.95 1176.109) rotate(-180)" fill="#fff" stroke="#767676" stroke-linecap="round" stroke-linejoin="round" stroke-width="0.142"/>
      <rect id="Rectángulo_1823" data-name="Rectángulo 1823" width="53.409" height="36.361" rx="4.496" transform="translate(3538.572 1171.175) rotate(180)" fill="#aaa" stroke="#767676" stroke-linecap="round" stroke-linejoin="round" stroke-width="0.142"/>
      <path id="Trazado_7240" data-name="Trazado 7240" d="M3505.978,1176.082h11.778l-2.7-21.416h-6.379Z" fill="#fff" stroke="#767676" stroke-linecap="round" stroke-linejoin="round" stroke-width="0.142"/>
      <rect id="Rectángulo_1824" data-name="Rectángulo 1824" width="13.122" height="1.087" transform="translate(3501.059 1168.669) rotate(180)" fill="#464646"/>
    </g>
    <g id="Grupo_1605" data-name="Grupo 1605" transform="translate(-3071.29)">
      <rect id="Rectángulo_1825" data-name="Rectángulo 1825" width="32.577" height="1.383" transform="translate(3803.539 1174.407)" fill="#4e4e4e"/>
      <rect id="Rectángulo_1826" data-name="Rectángulo 1826" width="14.214" height="7.744" transform="translate(3805.004 1156.776)" fill="#dbe6f3" stroke="#777" stroke-miterlimit="10" stroke-width="0.064"/>
      <rect id="Rectángulo_1827" data-name="Rectángulo 1827" width="14.108" height="1.598" transform="translate(3805.057 1158.827)" fill="#969696"/>
      <rect id="Rectángulo_1828" data-name="Rectángulo 1828" width="2.242" height="14.965" transform="translate(3826.272 1145.398)" fill="#dbe6f3" stroke="#777" stroke-miterlimit="10" stroke-width="0.064"/>
      <rect id="Rectángulo_1829" data-name="Rectángulo 1829" width="5.897" height="8.899" transform="translate(3824.444 1147.876)" fill="#4e4e4e"/>
      <g id="Grupo_1596" data-name="Grupo 1596">
        <rect id="Rectángulo_1830" data-name="Rectángulo 1830" width="5.043" height="2.888" transform="translate(3824.871 1148.357)" fill="#dbe6f3"/>
        <rect id="Rectángulo_1831" data-name="Rectángulo 1831" width="5.043" height="2.888" transform="translate(3824.871 1148.357)" fill="none" stroke="#777" stroke-miterlimit="10" stroke-width="0.064"/>
      </g>
      <rect id="Rectángulo_1832" data-name="Rectángulo 1832" width="2.166" height="1.301" transform="translate(3826.31 1158.827)" fill="#969696"/>
      <g id="Grupo_1597" data-name="Grupo 1597">
        <path id="Trazado_7241" data-name="Trazado 7241" d="M3834.91,1160.425h-1.341a2.776,2.776,0,0,0-1.915-.77h-8.548a2.777,2.777,0,0,0-1.916.77h-16.408a1.716,1.716,0,0,0-1.716,1.717v12.746h33.56v-12.746A1.716,1.716,0,0,0,3834.91,1160.425Z" fill="#dbe6f3"/>
        <path id="Trazado_7242" data-name="Trazado 7242" d="M3834.91,1160.425h-1.341a2.776,2.776,0,0,0-1.915-.77h-8.548a2.777,2.777,0,0,0-1.916.77h-16.408a1.716,1.716,0,0,0-1.716,1.717v12.746h33.56v-12.746A1.716,1.716,0,0,0,3834.91,1160.425Z" fill="none" stroke="#777" stroke-miterlimit="10" stroke-width="0.064"/>
      </g>
      <g id="Grupo_1598" data-name="Grupo 1598">
        <rect id="Rectángulo_1833" data-name="Rectángulo 1833" width="0.238" height="4.912" transform="translate(3823.124 1167.525)" fill="#4e4e4e"/>
        <rect id="Rectángulo_1834" data-name="Rectángulo 1834" width="0.238" height="4.912" transform="translate(3824.31 1167.525)" fill="#4e4e4e"/>
        <rect id="Rectángulo_1835" data-name="Rectángulo 1835" width="0.238" height="4.912" transform="translate(3825.495 1167.525)" fill="#4e4e4e"/>
        <rect id="Rectángulo_1836" data-name="Rectángulo 1836" width="0.238" height="4.912" transform="translate(3826.681 1167.525)" fill="#4e4e4e"/>
        <rect id="Rectángulo_1837" data-name="Rectángulo 1837" width="0.238" height="4.912" transform="translate(3827.866 1167.525)" fill="#4e4e4e"/>
        <rect id="Rectángulo_1838" data-name="Rectángulo 1838" width="0.238" height="4.912" transform="translate(3829.052 1167.525)" fill="#4e4e4e"/>
        <rect id="Rectángulo_1839" data-name="Rectángulo 1839" width="0.238" height="4.912" transform="translate(3830.238 1167.525)" fill="#4e4e4e"/>
        <rect id="Rectángulo_1840" data-name="Rectángulo 1840" width="0.239" height="4.912" transform="translate(3831.423 1167.525)" fill="#4e4e4e"/>
      </g>
      <g id="Grupo_1599" data-name="Grupo 1599">
        <rect id="Rectángulo_1841" data-name="Rectángulo 1841" width="1.19" height="0.691" transform="translate(3824.876 1151.773)" fill="#777"/>
        <rect id="Rectángulo_1842" data-name="Rectángulo 1842" width="1.19" height="0.691" transform="translate(3826.798 1151.773)" fill="#777"/>
        <rect id="Rectángulo_1843" data-name="Rectángulo 1843" width="1.19" height="0.691" transform="translate(3828.72 1151.773)" fill="#777"/>
      </g>
      <g id="Grupo_1600" data-name="Grupo 1600">
        <rect id="Rectángulo_1844" data-name="Rectángulo 1844" width="1.19" height="0.691" transform="translate(3824.876 1152.953)" fill="#777"/>
        <rect id="Rectángulo_1845" data-name="Rectángulo 1845" width="1.19" height="0.691" transform="translate(3826.798 1152.953)" fill="#777"/>
        <rect id="Rectángulo_1846" data-name="Rectángulo 1846" width="1.19" height="0.691" transform="translate(3828.72 1152.953)" fill="#777"/>
      </g>
      <g id="Grupo_1601" data-name="Grupo 1601">
        <rect id="Rectángulo_1847" data-name="Rectángulo 1847" width="1.19" height="0.691" transform="translate(3824.876 1154.132)" fill="#777"/>
        <rect id="Rectángulo_1848" data-name="Rectángulo 1848" width="1.19" height="0.691" transform="translate(3826.798 1154.132)" fill="#777"/>
        <rect id="Rectángulo_1849" data-name="Rectángulo 1849" width="1.19" height="0.691" transform="translate(3828.72 1154.132)" fill="#777"/>
      </g>
      <g id="Grupo_1602" data-name="Grupo 1602">
        <rect id="Rectángulo_1850" data-name="Rectángulo 1850" width="1.19" height="0.691" transform="translate(3824.876 1155.312)" fill="#739f4b"/>
        <rect id="Rectángulo_1851" data-name="Rectángulo 1851" width="1.19" height="0.691" transform="translate(3826.798 1155.312)" fill="#777"/>
        <rect id="Rectángulo_1852" data-name="Rectángulo 1852" width="1.19" height="0.691" transform="translate(3828.72 1155.312)" fill="#8c4444"/>
      </g>
      <g id="Grupo_1604" data-name="Grupo 1604">
        <rect id="Rectángulo_1853" data-name="Rectángulo 1853" width="7.499" height="3" transform="translate(3823.644 1143.171)" fill="#dbe6f3" stroke="#777" stroke-miterlimit="10" stroke-width="0.064"/>
        <rect id="Rectángulo_1854" data-name="Rectángulo 1854" width="6.47" height="2.207" transform="translate(3824.089 1143.568)" fill="#4e4e4e"/>
        <g id="Grupo_1603" data-name="Grupo 1603">
          <path id="Trazado_7243" data-name="Trazado 7243" d="M3826.955,1145.418h-.173v-1.1a.9.9,0,0,1-.164.119,1.117,1.117,0,0,1-.182.089v-.167a1.034,1.034,0,0,0,.254-.165.668.668,0,0,0,.153-.188h.112Z" fill="#aade41"/>
          <path id="Trazado_7244" data-name="Trazado 7244" d="M3827.5,1145.418v-.2h.2v.2Z" fill="#aade41"/>
          <path id="Trazado_7245" data-name="Trazado 7245" d="M3827.946,1145.046l.172-.023a.384.384,0,0,0,.1.212.252.252,0,0,0,.174.065.28.28,0,0,0,.206-.085.284.284,0,0,0,.084-.209.266.266,0,0,0-.078-.2.271.271,0,0,0-.2-.077.5.5,0,0,0-.123.019l.02-.152.027,0a.361.361,0,0,0,.2-.057.2.2,0,0,0,.088-.178.21.21,0,0,0-.065-.158.23.23,0,0,0-.166-.062.237.237,0,0,0-.168.063.313.313,0,0,0-.086.19l-.173-.03a.446.446,0,0,1,.144-.27.419.419,0,0,1,.279-.095.465.465,0,0,1,.213.049.361.361,0,0,1,.148.135.352.352,0,0,1,.052.182.3.3,0,0,1-.049.166.339.339,0,0,1-.145.119.327.327,0,0,1,.194.12.363.363,0,0,1,.069.227.412.412,0,0,1-.135.312.471.471,0,0,1-.34.129.443.443,0,0,1-.308-.111A.425.425,0,0,1,3827.946,1145.046Z" fill="#aade41"/>
          <path id="Trazado_7246" data-name="Trazado 7246" d="M3829.039,1144.723a1.3,1.3,0,0,1,.051-.4.5.5,0,0,1,.153-.235.389.389,0,0,1,.255-.082.422.422,0,0,1,.2.045.387.387,0,0,1,.141.132.7.7,0,0,1,.087.209,1.405,1.405,0,0,1,.032.333,1.291,1.291,0,0,1-.051.4.506.506,0,0,1-.152.236.393.393,0,0,1-.256.083.387.387,0,0,1-.32-.146A.929.929,0,0,1,3829.039,1144.723Zm.177,0a.874.874,0,0,0,.082.462.231.231,0,0,0,.4,0,1.354,1.354,0,0,0,0-.923.24.24,0,0,0-.2-.114.22.22,0,0,0-.19.1A.886.886,0,0,0,3829.216,1144.723Z" fill="#aade41"/>
        </g>
      </g>
      <circle id="Elipse_161" data-name="Elipse 161" cx="0.59" cy="0.59" r="0.59" transform="translate(3806.285 1162.104)" fill="#739f4b"/>
      <circle id="Elipse_162" data-name="Elipse 162" cx="0.59" cy="0.59" r="0.59" transform="translate(3808.969 1162.104)" fill="#739f4b"/>
      <circle id="Elipse_163" data-name="Elipse 163" cx="0.59" cy="0.59" r="0.59" transform="translate(3811.917 1162.104)" fill="#739f4b"/>
    </g>
    <g id="Grupo_1615" data-name="Grupo 1615" transform="translate(-3071.29)">
      <rect id="Rectángulo_1855" data-name="Rectángulo 1855" width="32.577" height="1.383" transform="translate(3541.989 1174.895)" fill="#4e4e4e"/>
      <rect id="Rectángulo_1856" data-name="Rectángulo 1856" width="14.214" height="7.744" transform="translate(3543.453 1157.264)" fill="#dbe6f3" stroke="#777" stroke-miterlimit="10" stroke-width="0.064"/>
      <rect id="Rectángulo_1857" data-name="Rectángulo 1857" width="14.108" height="1.598" transform="translate(3543.507 1159.315)" fill="#969696"/>
      <rect id="Rectángulo_1858" data-name="Rectángulo 1858" width="2.242" height="14.965" transform="translate(3564.721 1145.886)" fill="#dbe6f3" stroke="#777" stroke-miterlimit="10" stroke-width="0.064"/>
      <rect id="Rectángulo_1859" data-name="Rectángulo 1859" width="5.897" height="8.899" transform="translate(3562.894 1148.365)" fill="#4e4e4e"/>
      <g id="Grupo_1606" data-name="Grupo 1606">
        <rect id="Rectángulo_1860" data-name="Rectángulo 1860" width="5.043" height="2.888" transform="translate(3563.321 1148.845)" fill="#dbe6f3"/>
        <rect id="Rectángulo_1861" data-name="Rectángulo 1861" width="5.043" height="2.888" transform="translate(3563.321 1148.845)" fill="none" stroke="#777" stroke-miterlimit="10" stroke-width="0.064"/>
      </g>
      <rect id="Rectángulo_1862" data-name="Rectángulo 1862" width="2.166" height="1.301" transform="translate(3564.76 1159.315)" fill="#969696"/>
      <g id="Grupo_1607" data-name="Grupo 1607">
        <path id="Trazado_7247" data-name="Trazado 7247" d="M3573.36,1160.913h-1.341a2.777,2.777,0,0,0-1.916-.77h-8.547a2.777,2.777,0,0,0-1.916.77h-16.408a1.717,1.717,0,0,0-1.717,1.717v12.746h33.561V1162.63A1.716,1.716,0,0,0,3573.36,1160.913Z" fill="#dbe6f3"/>
        <path id="Trazado_7248" data-name="Trazado 7248" d="M3573.36,1160.913h-1.341a2.777,2.777,0,0,0-1.916-.77h-8.547a2.777,2.777,0,0,0-1.916.77h-16.408a1.717,1.717,0,0,0-1.717,1.717v12.746h33.561V1162.63A1.716,1.716,0,0,0,3573.36,1160.913Z" fill="none" stroke="#777" stroke-miterlimit="10" stroke-width="0.064"/>
      </g>
      <g id="Grupo_1608" data-name="Grupo 1608">
        <rect id="Rectángulo_1863" data-name="Rectángulo 1863" width="0.238" height="4.912" transform="translate(3561.574 1168.013)" fill="#4e4e4e"/>
        <rect id="Rectángulo_1864" data-name="Rectángulo 1864" width="0.239" height="4.912" transform="translate(3562.76 1168.013)" fill="#4e4e4e"/>
        <rect id="Rectángulo_1865" data-name="Rectángulo 1865" width="0.238" height="4.912" transform="translate(3563.945 1168.013)" fill="#4e4e4e"/>
        <rect id="Rectángulo_1866" data-name="Rectángulo 1866" width="0.238" height="4.912" transform="translate(3565.13 1168.013)" fill="#4e4e4e"/>
        <rect id="Rectángulo_1867" data-name="Rectángulo 1867" width="0.238" height="4.912" transform="translate(3566.316 1168.013)" fill="#4e4e4e"/>
        <rect id="Rectángulo_1868" data-name="Rectángulo 1868" width="0.238" height="4.912" transform="translate(3567.501 1168.013)" fill="#4e4e4e"/>
        <rect id="Rectángulo_1869" data-name="Rectángulo 1869" width="0.238" height="4.912" transform="translate(3568.687 1168.013)" fill="#4e4e4e"/>
        <rect id="Rectángulo_1870" data-name="Rectángulo 1870" width="0.238" height="4.912" transform="translate(3569.873 1168.013)" fill="#4e4e4e"/>
      </g>
      <g id="Grupo_1609" data-name="Grupo 1609">
        <rect id="Rectángulo_1871" data-name="Rectángulo 1871" width="1.19" height="0.691" transform="translate(3563.326 1152.261)" fill="#777"/>
        <rect id="Rectángulo_1872" data-name="Rectángulo 1872" width="1.19" height="0.691" transform="translate(3565.248 1152.261)" fill="#777"/>
        <rect id="Rectángulo_1873" data-name="Rectángulo 1873" width="1.19" height="0.691" transform="translate(3567.169 1152.261)" fill="#777"/>
      </g>
      <g id="Grupo_1610" data-name="Grupo 1610">
        <rect id="Rectángulo_1874" data-name="Rectángulo 1874" width="1.19" height="0.691" transform="translate(3563.326 1153.441)" fill="#777"/>
        <rect id="Rectángulo_1875" data-name="Rectángulo 1875" width="1.19" height="0.691" transform="translate(3565.248 1153.441)" fill="#777"/>
        <rect id="Rectángulo_1876" data-name="Rectángulo 1876" width="1.19" height="0.691" transform="translate(3567.169 1153.441)" fill="#777"/>
      </g>
      <g id="Grupo_1611" data-name="Grupo 1611">
        <rect id="Rectángulo_1877" data-name="Rectángulo 1877" width="1.19" height="0.691" transform="translate(3563.326 1154.62)" fill="#777"/>
        <rect id="Rectángulo_1878" data-name="Rectángulo 1878" width="1.19" height="0.691" transform="translate(3565.248 1154.62)" fill="#777"/>
        <rect id="Rectángulo_1879" data-name="Rectángulo 1879" width="1.19" height="0.691" transform="translate(3567.169 1154.62)" fill="#777"/>
      </g>
      <g id="Grupo_1612" data-name="Grupo 1612">
        <rect id="Rectángulo_1880" data-name="Rectángulo 1880" width="1.19" height="0.691" transform="translate(3563.326 1155.8)" fill="#739f4b"/>
        <rect id="Rectángulo_1881" data-name="Rectángulo 1881" width="1.19" height="0.691" transform="translate(3565.248 1155.8)" fill="#777"/>
        <rect id="Rectángulo_1882" data-name="Rectángulo 1882" width="1.19" height="0.691" transform="translate(3567.169 1155.8)" fill="#8c4444"/>
      </g>
      <g id="Grupo_1614" data-name="Grupo 1614">
        <rect id="Rectángulo_1883" data-name="Rectángulo 1883" width="7.499" height="3" transform="translate(3562.093 1143.659)" fill="#dbe6f3" stroke="#777" stroke-miterlimit="10" stroke-width="0.064"/>
        <rect id="Rectángulo_1884" data-name="Rectángulo 1884" width="6.47" height="2.207" transform="translate(3562.538 1144.056)" fill="#4e4e4e"/>
        <g id="Grupo_1613" data-name="Grupo 1613">
          <path id="Trazado_7249" data-name="Trazado 7249" d="M3565.405,1145.906h-.173v-1.1a.925.925,0,0,1-.164.119,1.158,1.158,0,0,1-.182.089v-.167a1.006,1.006,0,0,0,.253-.165.655.655,0,0,0,.154-.188h.112Z" fill="#aade41"/>
          <path id="Trazado_7250" data-name="Trazado 7250" d="M3565.944,1145.906v-.2h.2v.2Z" fill="#aade41"/>
          <path id="Trazado_7251" data-name="Trazado 7251" d="M3566.4,1145.534l.173-.023a.389.389,0,0,0,.1.212.253.253,0,0,0,.175.065.282.282,0,0,0,.206-.085.285.285,0,0,0,.084-.209.266.266,0,0,0-.078-.2.271.271,0,0,0-.2-.077.481.481,0,0,0-.122.019l.019-.152.028,0a.359.359,0,0,0,.2-.057.2.2,0,0,0,.088-.178.21.21,0,0,0-.064-.158.231.231,0,0,0-.166-.062.236.236,0,0,0-.168.063.32.32,0,0,0-.087.19l-.173-.03a.446.446,0,0,1,.145-.27.418.418,0,0,1,.279-.1.458.458,0,0,1,.212.049.362.362,0,0,1,.149.135.351.351,0,0,1,.051.182.3.3,0,0,1-.049.166.333.333,0,0,1-.145.119.326.326,0,0,1,.194.12.364.364,0,0,1,.069.227.412.412,0,0,1-.134.312.473.473,0,0,1-.34.129.441.441,0,0,1-.308-.111A.426.426,0,0,1,3566.4,1145.534Z" fill="#aade41"/>
          <path id="Trazado_7252" data-name="Trazado 7252" d="M3567.488,1145.211a1.265,1.265,0,0,1,.052-.4.5.5,0,0,1,.153-.235.388.388,0,0,1,.255-.082.418.418,0,0,1,.2.045.4.4,0,0,1,.142.132.707.707,0,0,1,.087.209,1.405,1.405,0,0,1,.032.333,1.29,1.29,0,0,1-.051.4.508.508,0,0,1-.152.236.394.394,0,0,1-.256.083.387.387,0,0,1-.32-.146A.929.929,0,0,1,3567.488,1145.211Zm.178,0a.888.888,0,0,0,.081.462.232.232,0,0,0,.4,0,1.354,1.354,0,0,0,0-.923.242.242,0,0,0-.2-.114.223.223,0,0,0-.19.1A.9.9,0,0,0,3567.666,1145.211Z" fill="#aade41"/>
        </g>
      </g>
      <circle id="Elipse_164" data-name="Elipse 164" cx="0.59" cy="0.59" r="0.59" transform="translate(3544.734 1162.592)" fill="#739f4b"/>
      <path id="Trazado_7253" data-name="Trazado 7253" d="M3548.6,1163.182a.589.589,0,1,1-.59-.59A.59.59,0,0,1,3548.6,1163.182Z" fill="#739f4b"/>
      <circle id="Elipse_165" data-name="Elipse 165" cx="0.59" cy="0.59" r="0.59" transform="translate(3550.367 1162.592)" fill="#739f4b"/>
    </g>
    <rect id="Rectángulo_1885" data-name="Rectángulo 1885" width="73.142" height="3.58" transform="translate(592.844 1183.411)" fill="#cfcfcf"/>
    <path id="Trazado_7254" data-name="Trazado 7254" d="M3738.247,1197.5h-75.085a.844.844,0,0,1-.828-1l1.8-9.507h73.142l1.8,9.507A.842.842,0,0,1,3738.247,1197.5Z" transform="translate(-3071.29)" fill="#595959"/>
    <g id="Grupo_1616" data-name="Grupo 1616" transform="translate(-3071.29)">
      <path id="Trazado_7255" data-name="Trazado 7255" d="M3765.652,1175.815v23.373H3633.825v-23.373H3480.492v93.625h438.493v-93.625Z" fill="#fff" stroke="#767676" stroke-miterlimit="10" stroke-width="0.2"/>
      <rect id="Rectángulo_1886" data-name="Rectángulo 1886" width="439.103" height="10.899" transform="translate(3481.281 1253.583)" fill="#414651"/>
      <rect id="Rectángulo_1887" data-name="Rectángulo 1887" width="439.103" height="10.899" transform="translate(3481.281 1235.814)" fill="#414651"/>
      <rect id="Rectángulo_1888" data-name="Rectángulo 1888" width="153.333" height="10.899" transform="translate(3480.492 1175.847)" fill="#414651"/>
      <rect id="Rectángulo_1889" data-name="Rectángulo 1889" width="153.333" height="10.899" transform="translate(3765.464 1175.847)" fill="#414651"/>
    </g>
    <g id="Grupo_1624" data-name="Grupo 1624" transform="translate(-3071.29)">
      <g id="Grupo_1617" data-name="Grupo 1617">
        <path id="Trazado_7256" data-name="Trazado 7256" d="M3890.133,1144.327c-1.659-3.641-3.342-4.918-2.208-.6.133.5-7.782-7.6-8.83-2.694s4.341,4.677,8.456,5.911l23.871,16.164c2.335,1.4,4.462,1.188,5.865-1.147h0c1.4-2.335.436-4.783-1.9-6.187Z" fill="#f0d8b3"/>
        <path id="Trazado_7257" data-name="Trazado 7257" d="M3890.133,1144.327c-1.659-3.641-3.342-4.918-2.208-.6.133.5-7.782-7.6-8.83-2.694s4.341,4.677,8.456,5.911l23.871,16.164c2.335,1.4,4.462,1.188,5.865-1.147h0c1.4-2.335.436-4.783-1.9-6.187Z" fill="none" stroke="#777" stroke-miterlimit="10" stroke-width="0.167"/>
      </g>
      <g id="Grupo_1618" data-name="Grupo 1618">
        <rect id="Rectángulo_1890" data-name="Rectángulo 1890" width="43.868" height="23.152" transform="translate(3876.191 1171.811) rotate(-80.385)" fill="#bc9265" stroke="#767676" stroke-miterlimit="10" stroke-width="0.2"/>
        <rect id="Rectángulo_1891" data-name="Rectángulo 1891" width="13.485" height="7.176" transform="translate(3893.506 1147.829) rotate(-80.385)" fill="#fff"/>
      </g>
      <path id="Trazado_7258" data-name="Trazado 7258" d="M3901.738,1269.44l20.73-.027a12.236,12.236,0,0,0-.008-5.577l-8.986.012s-12.667-2.489-11.737,4.826Z" fill="#2e2e2e"/>
      <path id="Trazado_7259" data-name="Trazado 7259" d="M3901.738,1269.44l20.756-.01.268-1.634-20.686.01a.359.359,0,0,0-.34.375Z" fill="#1f1f1f"/>
      <path id="Trazado_7260" data-name="Trazado 7260" d="M3926.55,1180.945l.722,10.441c-2.741,13.364.518,21.952-4.8,72.551,0,0-3.806,1.573-6.5-.347.548-13.094-7.84-82.784-9.036-82.6Z" fill="#3f3f3f"/>
      <path id="Trazado_7261" data-name="Trazado 7261" d="M3898.287,1269.423h20.73a12.249,12.249,0,0,0,0-5.577h-8.987s-12.663-2.506-11.743,4.811Z" fill="#383838"/>
      <path id="Trazado_7262" data-name="Trazado 7262" d="M3898.287,1269.423l20.756.017.271-1.634-20.686-.017a.359.359,0,0,0-.341.375Z" fill="#2b2b2b"/>
      <path id="Trazado_7263" data-name="Trazado 7263" d="M3925.842,1178.311l1.277,10.388c.806,8.012-1.911,20.972-8.108,75.783,0,0-3.62,1.633-6.414-.142-.6-5.386-7.917-78.51-7.917-78.51Z" fill="#595959"/>
      <g id="Grupo_1619" data-name="Grupo 1619">
        <path id="Trazado_7264" data-name="Trazado 7264" d="M3923.484,1128.832c3.405,1.6,9.99,15.346,2.807,49.479.8,6.8,1.277,10.388,1.277,10.388a51.735,51.735,0,0,1-23.028,0s-2.657-47.264,4.957-53.564S3923.484,1128.832,3923.484,1128.832Z" fill="#92b4ba"/>
        <path id="Trazado_7265" data-name="Trazado 7265" d="M3923.484,1128.832c3.405,1.6,9.99,15.346,2.807,49.479.8,6.8,1.277,10.388,1.277,10.388a51.735,51.735,0,0,1-23.028,0s-2.657-47.264,4.957-53.564S3923.484,1128.832,3923.484,1128.832Z" fill="none" stroke="#767676" stroke-miterlimit="10" stroke-width="0.2"/>
      </g>
      <path id="Trazado_7266" data-name="Trazado 7266" d="M3915.111,1121.2c-7.287-.59-12.392-9.845-12.574-17.213-1.747-2.485-2.87-6.385,3.85-10.4.841-.5,13.3.734,15.739,4.854,10.515,8.133-.88,18.591-1.129,21.909C3920.836,1122.5,3917.379,1121.093,3915.111,1121.2Z" fill="#94836f"/>
      <g id="Grupo_1620" data-name="Grupo 1620">
        <path id="Trazado_7267" data-name="Trazado 7267" d="M3909.5,1135.135c.778-3.981,2.564-10.674,2.353-14.95l8.156-5.054c.146,8.313.471,9.854,3.478,13.7C3923.84,1129.288,3909.36,1135.837,3909.5,1135.135Z" fill="#f0d8b3"/>
        <path id="Trazado_7268" data-name="Trazado 7268" d="M3909.5,1135.135c.778-3.981,2.564-10.674,2.353-14.95l8.156-5.054c.146,8.313.471,9.854,3.478,13.7C3923.84,1129.288,3909.36,1135.837,3909.5,1135.135Z" fill="none" stroke="#777" stroke-miterlimit="10" stroke-width="0.167"/>
      </g>
      <g id="Grupo_1621" data-name="Grupo 1621">
        <path id="Trazado_7269" data-name="Trazado 7269" d="M3902.537,1103.986c-.673,2.539-1.208,4.35-.7,6.671.567,2.648.2,3.972-2.2,7.14a.661.661,0,0,0-.024.771,2.015,2.015,0,0,0,1.513,1.056l1.278,6.412c.147,1.724,1.627,2.343,3.357,2.3a28.459,28.459,0,0,0,10.006-3.484c2.327-1.3,3.051-2.281,2.413-6.817,4.375-1.323,2.857-10.008-.844-4.726a4.754,4.754,0,0,1-.835,1.108,19.51,19.51,0,0,1-6.221-6.858,12.64,12.64,0,0,1-.788-2.747C3909.939,1103.9,3905.418,1104.473,3902.537,1103.986Z" fill="#f0d8b3"/>
        <path id="Trazado_7270" data-name="Trazado 7270" d="M3902.537,1103.986c-.673,2.539-1.208,4.35-.7,6.671.567,2.648.2,3.972-2.2,7.14a.661.661,0,0,0-.024.771,2.015,2.015,0,0,0,1.513,1.056l1.278,6.412c.147,1.724,1.627,2.343,3.357,2.3a28.459,28.459,0,0,0,10.006-3.484c2.327-1.3,3.051-2.281,2.413-6.817,4.375-1.323,2.857-10.008-.844-4.726a4.754,4.754,0,0,1-.835,1.108,19.51,19.51,0,0,1-6.221-6.858,12.64,12.64,0,0,1-.788-2.747C3909.939,1103.9,3905.418,1104.473,3902.537,1103.986Z" fill="none" stroke="#777" stroke-miterlimit="10" stroke-width="0.167"/>
      </g>
      <path id="Trazado_7271" data-name="Trazado 7271" d="M3904.669,1121.784a2.564,2.564,0,0,1-2.93.931" fill="none" stroke="#3f3f3f" stroke-linecap="round" stroke-linejoin="round" stroke-width="0.249"/>
      <path id="Trazado_7272" data-name="Trazado 7272" d="M3904.732,1110.254a5.039,5.039,0,0,1,2.663.634.753.753,0,0,0,.206-.868,4.837,4.837,0,0,0-2.662-.634A.889.889,0,0,0,3904.732,1110.254Z" fill="#443734"/>
      <path id="Trazado_7273" data-name="Trazado 7273" d="M3905.263,1113.1a.722.722,0,1,1-.741-.7A.721.721,0,0,1,3905.263,1113.1Z" fill="#3e3e3e" stroke="#3e3e3e" stroke-linecap="round" stroke-miterlimit="10" stroke-width="0.167"/>
      <path id="Trazado_7274" data-name="Trazado 7274" d="M3905.775,1093.965s1.331-1.262,5.241-1.362c-1.142.19-3.81,1.7-3.69,1.929S3905.775,1093.965,3905.775,1093.965Z" fill="#94836f"/>
      <path id="Trazado_7275" data-name="Trazado 7275" d="M3906.345,1094.489s1.331-1.262,5.24-1.362c-1.141.19-3.809,1.705-3.689,1.929S3906.345,1094.489,3906.345,1094.489Z" fill="#94836f"/>
      <path id="Trazado_7276" data-name="Trazado 7276" d="M3907.792,1094.263s1.529-1.013,5.4-.435c-1.157-.01-4.047,1.02-3.967,1.262S3907.792,1094.263,3907.792,1094.263Z" fill="#94836f"/>
      <g id="Grupo_1622" data-name="Grupo 1622">
        <path id="Trazado_7277" data-name="Trazado 7277" d="M3908.131,1161.445l9.127,3.744,9.659-23.55a4.933,4.933,0,0,0-2.693-6.435h0a4.932,4.932,0,0,0-6.435,2.692Z" fill="#92b4ba"/>
        <path id="Trazado_7278" data-name="Trazado 7278" d="M3908.131,1161.445l9.127,3.744,9.659-23.55a4.933,4.933,0,0,0-2.693-6.435h0a4.932,4.932,0,0,0-6.435,2.692Z" fill="none" stroke="#767676" stroke-miterlimit="10" stroke-width="0.2"/>
      </g>
      <g id="Grupo_1623" data-name="Grupo 1623">
        <path id="Trazado_7279" data-name="Trazado 7279" d="M3890.133,1147.642c-1.659-3.642-3.342-4.919-2.208-.6.133.5-7.782-7.595-8.83-2.694s4.341,4.677,8.456,5.912l23.871,16.164c2.335,1.4,4.462,1.187,5.865-1.147h0c1.4-2.335.436-4.783-1.9-6.187Z" fill="#f0d8b3"/>
        <path id="Trazado_7280" data-name="Trazado 7280" d="M3890.133,1147.642c-1.659-3.642-3.342-4.919-2.208-.6.133.5-7.782-7.595-8.83-2.694s4.341,4.677,8.456,5.912l23.871,16.164c2.335,1.4,4.462,1.187,5.865-1.147h0c1.4-2.335.436-4.783-1.9-6.187Z" fill="none" stroke="#777" stroke-miterlimit="10" stroke-width="0.167"/>
      </g>
    </g>
    <g id="Grupo_1626" data-name="Grupo 1626" transform="translate(-3071.29)">
      <g id="Grupo_1625" data-name="Grupo 1625">
        <path id="Trazado_7281" data-name="Trazado 7281" d="M3571.512,1005.232c-.426.877-3,1.551-6.107,1.551s-5.682-.674-6.108-1.551Z" fill="#3d3d3d"/>
        <rect id="Rectángulo_1892" data-name="Rectángulo 1892" width="12.862" height="1.377" transform="translate(3571.835 1005.664) rotate(180)" fill="#3d3d3d"/>
        <rect id="Rectángulo_1893" data-name="Rectángulo 1893" width="15.255" height="1.377" transform="translate(3573.032 1004.975) rotate(180)" fill="#3d3d3d"/>
        <rect id="Rectángulo_1894" data-name="Rectángulo 1894" width="0.872" height="38.365" transform="translate(3565.763 1041.909) rotate(180)" fill="#3d3d3d"/>
        <rect id="Rectángulo_1895" data-name="Rectángulo 1895" width="1.324" height="0.356" transform="translate(3566.066 1042.265) rotate(180)" fill="#3d3d3d"/>
        <rect id="Rectángulo_1896" data-name="Rectángulo 1896" width="2.015" height="0.356" transform="translate(3566.412 1042.548) rotate(180)" fill="#3d3d3d"/>
        <path id="Trazado_7282" data-name="Trazado 7282" d="M3563.645,1042.548h3.519c3.058,2.956,9.279,5.327,17.432,7.344h-38.383C3554.739,1047.838,3560.847,1045.433,3563.645,1042.548Z" fill="#150000"/>
        <path id="Trazado_7283" data-name="Trazado 7283" d="M3565.405,1057.18c-10.6,0-19.192-3.263-19.192-7.288H3584.6C3584.6,1053.917,3576,1057.18,3565.405,1057.18Z" fill="#fff" stroke="#777" stroke-miterlimit="10" stroke-width="0.201"/>
      </g>
    </g>
    <g id="Grupo_1628" data-name="Grupo 1628" transform="translate(-3071.29)">
      <g id="Grupo_1627" data-name="Grupo 1627">
        <path id="Trazado_7284" data-name="Trazado 7284" d="M3853.9,1005.232c-.426.877-3,1.551-6.108,1.551s-5.682-.674-6.107-1.551Z" fill="#3d3d3d"/>
        <rect id="Rectángulo_1897" data-name="Rectángulo 1897" width="12.862" height="1.377" transform="translate(3854.222 1005.664) rotate(180)" fill="#3d3d3d"/>
        <rect id="Rectángulo_1898" data-name="Rectángulo 1898" width="15.255" height="1.377" transform="translate(3855.419 1004.975) rotate(180)" fill="#3d3d3d"/>
        <rect id="Rectángulo_1899" data-name="Rectángulo 1899" width="0.872" height="38.365" transform="translate(3848.149 1041.909) rotate(180)" fill="#3d3d3d"/>
        <rect id="Rectángulo_1900" data-name="Rectángulo 1900" width="1.324" height="0.356" transform="translate(3848.453 1042.265) rotate(180)" fill="#3d3d3d"/>
        <rect id="Rectángulo_1901" data-name="Rectángulo 1901" width="2.015" height="0.356" transform="translate(3848.799 1042.548) rotate(180)" fill="#3d3d3d"/>
        <path id="Trazado_7285" data-name="Trazado 7285" d="M3846.031,1042.548h3.52c3.057,2.956,9.279,5.327,17.432,7.344H3828.6C3837.126,1047.838,3843.234,1045.433,3846.031,1042.548Z" fill="#150000"/>
        <path id="Trazado_7286" data-name="Trazado 7286" d="M3847.791,1057.18c-10.6,0-19.192-3.263-19.192-7.288h38.384C3866.983,1053.917,3858.391,1057.18,3847.791,1057.18Z" fill="#fff" stroke="#777" stroke-miterlimit="10" stroke-width="0.201"/>
      </g>
    </g>
    <g id="Grupo_1633" data-name="Grupo 1633" transform="translate(-3071.29)">
      <path id="Trazado_7287" data-name="Trazado 7287" d="M4085.7,1098.345c3.08-1.082,9.565,6.158,7.938,14.509-1.57,8.058-1.008,10.364,2.493,17.154,3.888,7.539-3.348,16.286-3.348,16.286l-25.383-.178s-6.72-3.928-2.472-27.342c.669-3.689-1.861-13.345,2.635-18.131S4085.7,1098.345,4085.7,1098.345Z" fill="#514542"/>
      <path id="Trazado_7288" data-name="Trazado 7288" d="M4067.651,1151.625l4.412-17.958a3.17,3.17,0,0,1,4.337-1.138l2.224,1.3-6.8,19.253-.373,1.18a2.364,2.364,0,0,1-3.1,1.495L4051.5,1149.3c-1.452-1.413-4.056-.626-6.952-2.8,3.416-1.489,5.171-.724,6.855.453Z" fill="#f0d8b3" stroke="#777" stroke-miterlimit="10" stroke-width="0.181"/>
      <path id="Trazado_7289" data-name="Trazado 7289" d="M4091.389,1106.89c1.267,7.642-3.56,14.806-10.78,16s-14.1-4.029-15.367-11.67,3.561-14.807,10.781-16c3.591-.595,7.292-.077,9.676,3.125C4089.149,1099.007,4090.753,1103.048,4091.389,1106.89Z" fill="#514542"/>
      <path id="Trazado_7290" data-name="Trazado 7290" d="M4078.992,1257.5c.367.013.4.869-.3,2.636l-.959,9.285-.27-.021s-.179-9.779-.414-10.425Z" fill="#af6f80"/>
      <path id="Trazado_7291" data-name="Trazado 7291" d="M4073.571,1255.228l-3.284-68.083c-.5-4.467,11.266-6.334,11.266-6.334l-4.33,73.506.325,2.167c-1.328,6.005-2.723,9.469-7.841,11.471-.268-4.15,4.389-7.067,3.92-12.078Z" fill="#f0d8b3" stroke="#777" stroke-miterlimit="10" stroke-width="0.181"/>
      <path id="Trazado_7292" data-name="Trazado 7292" d="M4078.967,1258.513c-2.883,3.5-5.235,7.512-5.943,10.616a70.105,70.105,0,0,1-7.257.216c.908-2.842,1.737-4.056,3.937-4.061,2.161.232,7.108-7.546,7.591-11.7a2.824,2.824,0,0,1,.675.518C4079.034,1255.159,4079.986,1257.276,4078.967,1258.513Z" fill="#af6f80"/>
      <path id="Trazado_7293" data-name="Trazado 7293" d="M4096.233,1257.48c-.367.017-.4.873.324,2.634l1.042,9.275.271-.023s.091-9.781.32-10.428Z" fill="#af6f80"/>
      <path id="Trazado_7294" data-name="Trazado 7294" d="M4101.446,1252.432l-7.84-67.361c-.271-4.486-13.545-3.869-13.545-3.869l17.63,70.954.048,2.19c2.329,5.692,3.7,11.939,9.082,13.043-.441-4.135-4.932-9.289-5.321-14.307Z" fill="#f0d8b3" stroke="#777" stroke-miterlimit="10" stroke-width="0.181"/>
      <path id="Trazado_7295" data-name="Trazado 7295" d="M4096.267,1258.491c2.914,3.475,5.3,7.465,6.038,10.562a69.544,69.544,0,0,0,7.258.152c-.933-2.834-1.772-4.04-3.972-4.026-2.16.251-7.176-7.482-7.7-11.633a2.818,2.818,0,0,0-.67.524C4096.17,1255.138,4095.237,1257.263,4096.267,1258.491Z" fill="#af6f80"/>
      <g id="Grupo_1629" data-name="Grupo 1629">
        <path id="Trazado_7296" data-name="Trazado 7296" d="M4090,1132.129c-6.317,10.673-15.309,14.3-15.068.22.757-.315,1.134-.452,2.695-.98,1.346-2,2.35-6.248,2.394-8.75l4.923-.006c-.144,2.02-.851,5.1,1.611,8.628C4088.15,1131.665,4088.457,1131.757,4090,1132.129Z" fill="#f0d8b3" stroke="#777" stroke-miterlimit="10" stroke-width="0.181"/>
        <path id="Trazado_7297" data-name="Trazado 7297" d="M4090,1132.129c-6.317,10.673-15.309,14.3-15.068.22.757-.315,1.134-.452,2.695-.98,1.346-2,2.35-6.248,2.394-8.75l4.923-.006c-.144,2.02-.851,5.1,1.611,8.628C4088.15,1131.665,4088.457,1131.757,4090,1132.129Z" fill="#f0d8b3" stroke="#777" stroke-miterlimit="10" stroke-width="0.181"/>
      </g>
      <g id="Grupo_1630" data-name="Grupo 1630">
        <path id="Trazado_7298" data-name="Trazado 7298" d="M4081.763,1104.845c.713,3.767,6.444,4.445,5.614,8.539,2.781-3.628,3.205,4.908,1.492,4.753-.329,5.661-3.447,8.661-7.569,10.653a2.957,2.957,0,0,1-2.653-.036c-6.5-3.392-6.927-9.031-7.867-14.514C4073.363,1112.288,4077.052,1112.148,4081.763,1104.845Z" fill="#f0d8b3" stroke="#777" stroke-miterlimit="10" stroke-width="0.181"/>
        <path id="Trazado_7299" data-name="Trazado 7299" d="M4081.763,1104.845c.713,3.767,6.444,4.445,5.614,8.539,2.781-3.628,3.205,4.908,1.492,4.753-.329,5.661-3.447,8.661-7.569,10.653a2.957,2.957,0,0,1-2.653-.036c-6.5-3.392-6.927-9.031-7.867-14.514C4073.363,1112.288,4077.052,1112.148,4081.763,1104.845Z" fill="#f0d8b3" stroke="#777" stroke-miterlimit="10" stroke-width="0.181"/>
      </g>
      <path id="Trazado_7300" data-name="Trazado 7300" d="M4083.445,1114.373a1.01,1.01,0,1,1-1.094-.919A1.009,1.009,0,0,1,4083.445,1114.373Z" fill="#3e3e3e"/>
      <path id="Trazado_7301" data-name="Trazado 7301" d="M4075.52,1115.429a1.01,1.01,0,1,1-1.094-.918A1.011,1.011,0,0,1,4075.52,1115.429Z" fill="#3e3e3e"/>
      <path id="Trazado_7302" data-name="Trazado 7302" d="M4078.54,1118.645c.182.762-1.772,2.547.21,2.415" fill="none" stroke="#777" stroke-linecap="round" stroke-linejoin="round" stroke-width="0.454"/>
      <g id="Grupo_1631" data-name="Grupo 1631">
        <path id="Trazado_7303" data-name="Trazado 7303" d="M4095.285,1197.178c-9.358,6.426-16.7,5.253-25.267,1.657-1.844-12.5-1.456-25.369,2.855-32.4,1.873-3.492,2.275-9.792-.22-14.063-1.54-.721-2.453-2.838-2.455-4.651a11.911,11.911,0,0,1,2.128-5.392,14.025,14.025,0,0,0,.191-1.785c-.193-3.346.229-6.5,1.715-8.077.733-.44,1.08-.284,2.15-.666-.48,7.67,8.295,8.052,11.568-.183l2.978.755a2.207,2.207,0,0,1,1.288,1.4,10.386,10.386,0,0,1-.41,7.7c-.713,1.179-9.139,18.066-1.671,24.972C4095.668,1171.341,4097.579,1179.539,4095.285,1197.178Z" fill="#af6f80"/>
      </g>
      <g id="Grupo_1632" data-name="Grupo 1632">
        <rect id="Rectángulo_1902" data-name="Rectángulo 1902" width="41.332" height="21.814" transform="translate(4071.014 1168.596) rotate(-179.983)" fill="#bc9265" stroke="#767676" stroke-miterlimit="10" stroke-width="0.2"/>
        <rect id="Rectángulo_1903" data-name="Rectángulo 1903" width="12.705" height="6.761" transform="translate(4046.015 1156.278) rotate(-179.983)" fill="#fff"/>
      </g>
      <path id="Trazado_7304" data-name="Trazado 7304" d="M4090.062,1133l-.4.129a2.628,2.628,0,0,0-1.7,3.3l5.578,17.374-16.811-6.372c-.206.047-2.482-3.129-4.056-3.667-.467-.16.524,2.778.012,2.619-3.212-1-7.388-2.132-7.315.394.1,3.57,9.723,2.5,10.26,3.3l21.748,10.391a2.69,2.69,0,0,0,3.187-3.368l-7.2-22.412A2.626,2.626,0,0,0,4090.062,1133Z" fill="#f0d8b3" stroke="#777" stroke-miterlimit="10" stroke-width="0.181"/>
      <path id="Trazado_7305" data-name="Trazado 7305" d="M4090.135,1166.438a8.476,8.476,0,0,1-.826-.9c-6.616,2.743-12.252,3.376-16.022,0-.13.31-.265.611-.414.889-4.311,7.036-4.7,19.9-2.855,32.4,8.562,3.6,15.909,4.769,25.267-1.657C4097.579,1179.539,4095.668,1171.341,4090.135,1166.438Z" fill="#343b41"/>
      <path id="Trazado_7306" data-name="Trazado 7306" d="M4077.854,1124.277a2.139,2.139,0,0,0,2.981-.364" fill="none" stroke="#777" stroke-linecap="round" stroke-linejoin="round" stroke-width="0.454"/>
    </g>
    <rect id="Rectángulo_1904" data-name="Rectángulo 1904" width="123.925" height="6.52" transform="translate(896.973 1168.375)" fill="#414651"/>
    <g id="Grupo_1634" data-name="Grupo 1634" transform="translate(-3071.29)">
      <circle id="Elipse_166" data-name="Elipse 166" cx="17.274" cy="17.274" r="17.274" transform="translate(3681.523 1067.221) rotate(-81.588)" fill="#303030"/>
      <circle id="Elipse_167" data-name="Elipse 167" cx="15.69" cy="15.69" r="15.69" transform="translate(3683.121 1065.612) rotate(-80.714)" fill="#fff"/>
      <path id="Trazado_7307" data-name="Trazado 7307" d="M3702.246,1052.66a1.109,1.109,0,1,1-1.108-1.109A1.108,1.108,0,0,1,3702.246,1052.66Z" fill="#303030"/>
      <path id="Trazado_7308" data-name="Trazado 7308" d="M3701.053,1039.244h0a.444.444,0,0,0-.444.444v12.528a.444.444,0,0,0,.444.444h0a.444.444,0,0,0,.444-.444v-12.528A.444.444,0,0,0,3701.053,1039.244Z" fill="#303030"/>
      <path id="Trazado_7309" data-name="Trazado 7309" d="M3700.923,1052.5h0a.443.443,0,0,0,0,.628l5.184,5.184a.445.445,0,0,0,.628,0h0a.445.445,0,0,0,0-.628l-5.184-5.184A.443.443,0,0,0,3700.923,1052.5Z" fill="#303030"/>
    </g>
    <g id="Grupo_1644" data-name="Grupo 1644" transform="translate(-3071.29)">
      <g id="Grupo_1635" data-name="Grupo 1635">
        <path id="Trazado_7310" data-name="Trazado 7310" d="M3625.822,1153.955c.046-.236,4-15.814,5.437-19.222,1.5-3.18,2.546-4.551,3.351-4.305,2.718,1.644,4.639,5.208.672,8.686a131.8,131.8,0,0,1-5.258,16.282c.676,3.628-.1,7.018-.086,15.957l.039-.018c2.6,6.42,3.279,11.544,1.117,8.136-.546,11.079-4.3,6.143-3.43-6.545-1.461-7.963-1.087-5.878-2.282-14.807A5.733,5.733,0,0,1,3625.822,1153.955Z" fill="#f0d8b3"/>
        <path id="Trazado_7311" data-name="Trazado 7311" d="M3625.822,1153.955c.046-.236,4-15.814,5.437-19.222,1.5-3.18,2.546-4.551,3.351-4.305,2.718,1.644,4.639,5.208.672,8.686a131.8,131.8,0,0,1-5.258,16.282c.676,3.628-.1,7.018-.086,15.957l.039-.018c2.6,6.42,3.279,11.544,1.117,8.136-.546,11.079-4.3,6.143-3.43-6.545-1.461-7.963-1.087-5.878-2.282-14.807A5.733,5.733,0,0,1,3625.822,1153.955Z" fill="none" stroke="#777" stroke-miterlimit="10" stroke-width="0.223"/>
      </g>
      <g id="Grupo_1636" data-name="Grupo 1636">
        <path id="Trazado_7312" data-name="Trazado 7312" d="M3642.842,1255.432l.042-2.115a5.244,5.244,0,0,1-.655-1.747l-2.264.272-.185,1.656a14.765,14.765,0,0,1,0,1.861c1.14,6.323,2.342,9.97,6.772,12.083C3646.792,1263.074,3642.426,1260.707,3642.842,1255.432Z" fill="#f0d8b3" stroke="#777" stroke-miterlimit="10" stroke-width="0.183"/>
        <path id="Trazado_7313" data-name="Trazado 7313" d="M3642.842,1255.432l.042-2.115a5.244,5.244,0,0,1-.655-1.747l-2.264.272-.185,1.656a14.765,14.765,0,0,1,0,1.861c1.14,6.323,2.342,9.97,6.772,12.083C3646.792,1263.074,3642.426,1260.707,3642.842,1255.432Z" fill="none" stroke="#777" stroke-miterlimit="10" stroke-width="0.223"/>
      </g>
      <path id="Trazado_7314" data-name="Trazado 7314" d="M3638.319,1258.727c-.331,0-.383.774.21,2.382l.648,8.39.244-.013s.389-8.809.615-9.384Z" fill="#35363b"/>
      <path id="Trazado_7315" data-name="Trazado 7315" d="M3638.387,1259.676c2.655,3.109,4.84,6.687,5.528,9.473a63.145,63.145,0,0,0,6.544.078c-.864-2.547-1.63-3.628-3.613-3.6-1.945.243-6.529-6.687-7.031-10.424a2.489,2.489,0,0,0-.6.478C3638.273,1256.654,3637.449,1258.578,3638.387,1259.676Z" fill="#35363b"/>
      <path id="Trazado_7316" data-name="Trazado 7316" d="M3642.73,1258.355c-.332.005-.381.776.217,2.382l.674,8.388.245-.014s.361-8.81.585-9.386Z" fill="#484a53"/>
      <g id="Grupo_1637" data-name="Grupo 1637">
        <path id="Trazado_7317" data-name="Trazado 7317" d="M3647.5,1253.257l5.762-70.824c.422-4.7-.95-12.1-2.769-17.995l-4.277-3.416c-4.752,1.563-2.405,1.631-7.214-.369a29.926,29.926,0,0,0-3.04,4.235h7.724v8.831l.816,1.081c.36,4.479-.084,49.272-.054,78.371h0l-.221,1.812c1.16,6.319,2.373,9.963,6.81,12.062.226-4.37-4.012-7.432-3.613-12.707Z" fill="#f0d8b3" stroke="#777" stroke-miterlimit="10" stroke-width="0.183"/>
        <path id="Trazado_7318" data-name="Trazado 7318" d="M3647.5,1253.257l5.762-70.824c.422-4.7-.95-12.1-2.769-17.995l-4.277-3.416c-4.752,1.563-2.405,1.631-7.214-.369a29.926,29.926,0,0,0-3.04,4.235h7.724v8.831l.816,1.081c.36,4.479-.084,49.272-.054,78.371h0l-.221,1.812c1.16,6.319,2.373,9.963,6.81,12.062.226-4.37-4.012-7.432-3.613-12.707Z" fill="none" stroke="#777" stroke-miterlimit="10" stroke-width="0.223"/>
      </g>
      <path id="Trazado_7319" data-name="Trazado 7319" d="M3642.8,1259.692c2.665,3.1,4.86,6.672,5.558,9.456a63.279,63.279,0,0,0,6.544.057c-.872-2.544-1.642-3.623-3.625-3.586-1.944.25-6.549-6.666-7.064-10.4a2.566,2.566,0,0,0-.6.48C3642.677,1256.671,3641.859,1258.6,3642.8,1259.692Z" fill="#484a53"/>
      <g id="Grupo_1638" data-name="Grupo 1638">
        <path id="Trazado_7320" data-name="Trazado 7320" d="M3631.368,1176.476c.212-7.051,2.8-9.515,2.8-9.515l.021.037a3.291,3.291,0,0,1,1.5-1.483l15.477-2.707c-.022.685.9,1.975,1.92,3.344a6.751,6.751,0,0,1,.884.809h.06v.068l.011.013.045-.081s2.587,2.464,2.8,9.515c-.208,2.87-1.524,13.951-3.109,26.836-2.538,23.437-6.321,50.521-6.321,50.521-1.123.82-1.854.451-3-.166l-.324-72.567h-.8l-.42,72.453a2.382,2.382,0,0,1-3.23-.142l-2.557-27.94C3634.643,1205.357,3631.691,1180.948,3631.368,1176.476Z" fill="#7b6b63"/>
        <path id="Trazado_7321" data-name="Trazado 7321" d="M3631.368,1176.476c.212-7.051,2.8-9.515,2.8-9.515l.021.037a3.291,3.291,0,0,1,1.5-1.483l15.477-2.707c-.022.685.9,1.975,1.92,3.344a6.751,6.751,0,0,1,.884.809h.06v.068l.011.013.045-.081s2.587,2.464,2.8,9.515c-.208,2.87-1.524,13.951-3.109,26.836-2.538,23.437-6.321,50.521-6.321,50.521-1.123.82-1.854.451-3-.166l-.324-72.567h-.8l-.42,72.453a2.382,2.382,0,0,1-3.23-.142l-2.557-27.94C3634.643,1205.357,3631.691,1180.948,3631.368,1176.476Z" fill="#7b6b63"/>
      </g>
      <g id="Grupo_1639" data-name="Grupo 1639">
        <path id="Trazado_7322" data-name="Trazado 7322" d="M3638.4,1137.858c-6.775-6.181-.351-5.65,7.222,1.662,6.168,3.557,12.595,7.117,19.16,11.343,4.818,2.528,1.5,7.208-3.007,3.2-6.313-3.224-11.04-7.3-17.641-12.27l-.027.042C3637.807,1139.921,3634.411,1137.283,3638.4,1137.858Z" fill="#f0d8b3"/>
        <path id="Trazado_7323" data-name="Trazado 7323" d="M3638.4,1137.858c-6.775-6.181-.351-5.65,7.222,1.662,6.168,3.557,12.595,7.117,19.16,11.343,4.818,2.528,1.5,7.208-3.007,3.2-6.313-3.224-11.04-7.3-17.641-12.27l-.027.042C3637.807,1139.921,3634.411,1137.283,3638.4,1137.858Z" fill="none" stroke="#777" stroke-miterlimit="10" stroke-width="0.223"/>
      </g>
      <g id="Grupo_1640" data-name="Grupo 1640">
        <path id="Trazado_7324" data-name="Trazado 7324" d="M3655.322,1130.912c2.316,1.881,5.181,6.9,10.865,19.016,2.276,4.5.113,7.8-2.413,3.458-3.046-4.058-8.195-11.145-10.492-15.8C3653.282,1137.588,3652.19,1129.341,3655.322,1130.912Z" fill="#f0d8b3"/>
        <path id="Trazado_7325" data-name="Trazado 7325" d="M3655.322,1130.912c2.316,1.881,5.181,6.9,10.865,19.016,2.276,4.5.113,7.8-2.413,3.458-3.046-4.058-8.195-11.145-10.492-15.8C3653.282,1137.588,3652.19,1129.341,3655.322,1130.912Z" fill="none" stroke="#777" stroke-miterlimit="10" stroke-width="0.223"/>
      </g>
      <g id="Grupo_1641" data-name="Grupo 1641">
        <path id="Trazado_7326" data-name="Trazado 7326" d="M3637,1129.078c6,10.462,14.388,14.5,14.338.8-.733-.317-2.439-.488-3.6-1.43-1.284-1.963-1.207-5.666-1.217-8.1l-4.787-.07c.113,1.966.76,4.975-1.68,8.37C3638.5,1129.039,3638.512,1128.737,3637,1129.078Z" fill="#f0d8b3"/>
        <path id="Trazado_7327" data-name="Trazado 7327" d="M3637,1129.078c6,10.462,14.388,14.5,14.338.8-.733-.317-2.439-.488-3.6-1.43-1.284-1.963-1.207-5.666-1.217-8.1l-4.787-.07c.113,1.966.76,4.975-1.68,8.37C3638.5,1129.039,3638.512,1128.737,3637,1129.078Z" fill="none" stroke="#777" stroke-miterlimit="10" stroke-width="0.223"/>
      </g>
      <g id="Grupo_1642" data-name="Grupo 1642">
        <path id="Trazado_7328" data-name="Trazado 7328" d="M3636.161,1111.319c-2.657-3.383-2.638,3.458.077,3.993,2.455,6.722,6.115,10.154,9.017,10.2,3.739.054,8.187-5.4,9.139-13.013a12.56,12.56,0,0,0,.062-4.222c-1.59-2.676-9.407-1.292-13.024-5.929C3637.727,1103.876,3638.325,1109.929,3636.161,1111.319Z" fill="#f0d8b3"/>
        <path id="Trazado_7329" data-name="Trazado 7329" d="M3636.161,1111.319c-2.657-3.383-2.638,3.458.077,3.993,2.455,6.722,6.115,10.154,9.017,10.2,3.739.054,8.187-5.4,9.139-13.013a12.56,12.56,0,0,0,.062-4.222c-1.59-2.676-9.407-1.292-13.024-5.929C3637.727,1103.876,3638.325,1109.929,3636.161,1111.319Z" fill="none" stroke="#777" stroke-miterlimit="10" stroke-width="0.223"/>
      </g>
      <path id="Trazado_7330" data-name="Trazado 7330" d="M3655.322,1113.69c-.716,8.87-6.759,14.626-10.9,14.617-4.85-.01-10.237-6.428-10.9-14.875-.678-8.631,1.285-16.477,10.9-16.477C3654.994,1096.955,3656.018,1105.061,3655.322,1113.69Z" fill="#604337"/>
      <path id="Trazado_7331" data-name="Trazado 7331" d="M3647.918,1108.99c0,1.359-1.492,2.461-3.332,2.461s-3.331-1.1-3.331-2.461,1.491-2.46,3.331-2.46S3647.918,1107.632,3647.918,1108.99Z" fill="#5893b6" stroke="#777" stroke-miterlimit="10" stroke-width="0.219"/>
      <g id="Grupo_1643" data-name="Grupo 1643">
        <path id="Trazado_7332" data-name="Trazado 7332" d="M3653.263,1143.487c2.064-4.826,1.652-10.453,1.178-13l-3.748-.823c-1.508,2.066-3.744,2.121-6.519,2.034-2.775.087-5.443-.184-6.951-2.25l-3.316,1.039c-.474,2.542-.885,8.169,1.178,13,1.629,7.815,3.135,16.866-.823,23.474a12.983,12.983,0,0,0,19.824,0C3650.128,1160.353,3651.635,1151.3,3653.263,1143.487Z" fill="#f3d48f"/>
        <path id="Trazado_7333" data-name="Trazado 7333" d="M3653.263,1143.487c2.064-4.826,1.652-10.453,1.178-13l-3.748-.823c-1.508,2.066-3.744,2.121-6.519,2.034-2.775.087-5.443-.184-6.951-2.25l-3.316,1.039c-.474,2.542-.885,8.169,1.178,13,1.629,7.815,3.135,16.866-.823,23.474a12.983,12.983,0,0,0,19.824,0C3650.128,1160.353,3651.635,1151.3,3653.263,1143.487Z" fill="none" stroke="#767676" stroke-miterlimit="10" stroke-width="0.2"/>
      </g>
      <path id="Trazado_7334" data-name="Trazado 7334" d="M3641.952,1108.849s2.813-3.123,5.028.141,3.424,6.233,1.734,10.077,1.248,11.911,2.343,14.757c2.743,7.126-4.053,13.28-5.54,17.465.653-4.388-6.073-13.1-8.512-16.8C3631.859,1127.5,3639.6,1111.905,3641.952,1108.849Z" fill="#785343"/>
    </g>
    <g id="Grupo_1657" data-name="Grupo 1657" transform="translate(-3071.29)">
      <path id="Trazado_7335" data-name="Trazado 7335" d="M3722.512,1157.947s1.845-4.4-1.322-5.418-4.647,2.3-4.647,2.3l1.152.613s5.181-5.107,3.751,1.992A6.694,6.694,0,0,0,3722.512,1157.947Z" fill="#333"/>
      <path id="Trazado_7336" data-name="Trazado 7336" d="M3714.355,1150.644s8.67,5.463,10.155,11.169.982,18.713-.9,19.7-11.688,1.443-11.688,1.443-2.151-25.347-2.111-25.573S3714.355,1150.644,3714.355,1150.644Z" fill="#333"/>
      <path id="Trazado_7337" data-name="Trazado 7337" d="M3716.067,1103.861c-14.478-6.454-18.516,8.548-18.527,11.441-.009,2.337-1.8,31.234-.742,33.054,5.095,8.8,21.99,6.48,27.22-.15.915-1.672.69-29.611-.737-35.678C3722.22,1108.021,3719.976,1104.752,3716.067,1103.861Z" fill="#d3aa61"/>
      <g id="Grupo_1645" data-name="Grupo 1645">
        <path id="Trazado_7338" data-name="Trazado 7338" d="M3697.994,1166.741h0a2.812,2.812,0,0,1-2.2-3.314l4.359-21.525a2.81,2.81,0,0,1,3.313-2.2h0a2.811,2.811,0,0,1,2.2,3.313l-4.359,21.525A2.812,2.812,0,0,1,3697.994,1166.741Z" fill="#f0d8b3"/>
        <path id="Trazado_7339" data-name="Trazado 7339" d="M3697.994,1166.741h0a2.812,2.812,0,0,1-2.2-3.314l4.359-21.525a2.81,2.81,0,0,1,3.313-2.2h0a2.811,2.811,0,0,1,2.2,3.313l-4.359,21.525A2.812,2.812,0,0,1,3697.994,1166.741Z" fill="none" stroke="#777" stroke-miterlimit="10" stroke-width="0.079"/>
      </g>
      <g id="Grupo_1646" data-name="Grupo 1646">
        <path id="Trazado_7340" data-name="Trazado 7340" d="M3718.77,1139.071c-6.469,10.9-15.665,14.66-15.4.268.775-.322,1.16-.46,2.756-1,1.379-2.042,2.41-6.383,2.457-8.94h5.032c-.149,2.065-.875,5.216,1.636,8.821C3716.878,1138.656,3717.192,1138.689,3718.77,1139.071Z" fill="#f0d8b3"/>
        <path id="Trazado_7341" data-name="Trazado 7341" d="M3718.77,1139.071c-6.469,10.9-15.665,14.66-15.4.268.775-.322,1.16-.46,2.756-1,1.379-2.042,2.41-6.383,2.457-8.94h5.032c-.149,2.065-.875,5.216,1.636,8.821C3716.878,1138.656,3717.192,1138.689,3718.77,1139.071Z" fill="none" stroke="#777" stroke-miterlimit="10" stroke-width="0.079"/>
      </g>
      <g id="Grupo_1647" data-name="Grupo 1647">
        <path id="Trazado_7342" data-name="Trazado 7342" d="M3713.783,1112.865c.129,3.917,4.963,4.028,3.481,8.032,3.379-3.227,2.466,5.46.76,5.035-1.222,5.665-4.842,8.2-9.318,9.569a3.023,3.023,0,0,1-2.674-.453c-6.035-4.449-5.577-10.21-5.664-15.9C3705.773,1118.034,3708.88,1117.538,3713.783,1112.865Z" fill="#f0d8b3"/>
        <path id="Trazado_7343" data-name="Trazado 7343" d="M3713.783,1112.865c.129,3.917,4.963,4.028,3.481,8.032,3.379-3.227,2.466,5.46.76,5.035-1.222,5.665-4.842,8.2-9.318,9.569a3.023,3.023,0,0,1-2.674-.453c-6.035-4.449-5.577-10.21-5.664-15.9C3705.773,1118.034,3708.88,1117.538,3713.783,1112.865Z" fill="none" stroke="#777" stroke-miterlimit="10" stroke-width="0.079"/>
      </g>
      <path id="Trazado_7344" data-name="Trazado 7344" d="M3713.122,1121.56a1.033,1.033,0,1,1-.961-1.1A1.033,1.033,0,0,1,3713.122,1121.56Z" fill="#3e3e3e"/>
      <path id="Trazado_7345" data-name="Trazado 7345" d="M3704.968,1121.1a1.033,1.033,0,1,1-.961-1.1A1.033,1.033,0,0,1,3704.968,1121.1Z" fill="#3e3e3e"/>
      <path id="Trazado_7346" data-name="Trazado 7346" d="M3707.512,1124.822c.064.8-2.19,2.293-.166,2.471" fill="none" stroke="#777" stroke-linecap="round" stroke-linejoin="round" stroke-width="0.197"/>
      <path id="Trazado_7347" data-name="Trazado 7347" d="M3705.563,1129.843s1.547,1.974,4.226.294" fill="none" stroke="#777" stroke-linecap="round" stroke-linejoin="round" stroke-width="0.197"/>
      <g id="Grupo_1648" data-name="Grupo 1648">
        <path id="Trazado_7348" data-name="Trazado 7348" d="M3709.908,1265.1c-1.252,5.615-5.5,2.168-10.294,4.033-.244-3.883,7.335-3.144,6.9-7.831,0,0-1.574-16.927-1.126-19.672l2.037,1.295C3708.107,1253.675,3708.541,1261.4,3709.908,1265.1Z" fill="#f0d8b3"/>
        <path id="Trazado_7349" data-name="Trazado 7349" d="M3709.908,1265.1c-1.252,5.615-5.5,2.168-10.294,4.033-.244-3.883,7.335-3.144,6.9-7.831,0,0-1.574-16.927-1.126-19.672l2.037,1.295C3708.107,1253.675,3708.541,1261.4,3709.908,1265.1Z" fill="none" stroke="#777" stroke-miterlimit="10" stroke-width="0.079"/>
      </g>
      <g id="Grupo_1649" data-name="Grupo 1649">
        <path id="Trazado_7350" data-name="Trazado 7350" d="M3717.657,1236.846s.1,8.508.68,23.374l1.243,6.312c-1.871,2.838-3.61,1.4-4.484-.138l1.284-6.221c.555-20.383,1.049-19,1.049-19Z" fill="#f0d8b3"/>
        <path id="Trazado_7351" data-name="Trazado 7351" d="M3717.657,1236.846s.1,8.508.68,23.374l1.243,6.312c-1.871,2.838-3.61,1.4-4.484-.138l1.284-6.221c.555-20.383,1.049-19,1.049-19Z" fill="none" stroke="#777" stroke-miterlimit="10" stroke-width="0.079"/>
      </g>
      <g id="Grupo_1650" data-name="Grupo 1650">
        <path id="Trazado_7352" data-name="Trazado 7352" d="M3711.117,1269.9c-5.473.3-13.994-.038-15.82-.084,0-2.69,2.458-3.278,4.516-3.264,2.02.234,9.609,2.426,10.1-1.457a2.65,2.65,0,0,1,.626.491C3711.521,1266.588,3712.08,1268.756,3711.117,1269.9Z" fill="#67b3b6"/>
        <path id="Trazado_7353" data-name="Trazado 7353" d="M3711.117,1269.9c-5.473.3-13.994-.038-15.82-.084,0-2.69,2.458-3.278,4.516-3.264,2.02.234,9.609,2.426,10.1-1.457a2.65,2.65,0,0,1,.626.491C3711.521,1266.588,3712.08,1268.756,3711.117,1269.9Z" fill="none" stroke="#777" stroke-miterlimit="10" stroke-width="0.2"/>
      </g>
      <path id="Trazado_7354" data-name="Trazado 7354" d="M3701.5,1172.459l17.088-1.867c4.608,5.273,3.616,10.617,3.711,13.816-.394,11.119-2.2,65.744-3.854,77.852a1.764,1.764,0,0,1-2.151-.09c-1.363-18.111-4.634-68.078-5.164-73.7h-.679c.188,12.377-1.364,63.389-1.186,73.7,0,0-1.692,1.541-3.089,0C3706.174,1262.17,3698.218,1178.1,3701.5,1172.459Z" fill="#4e4aae"/>
      <g id="Grupo_1651" data-name="Grupo 1651">
        <path id="Trazado_7355" data-name="Trazado 7355" d="M3702,1139.742c-1.94-.094-4.754,6.157-5.032,13.223,1.347,1.445,4.339.753,4.339.753C3701.919,1150.457,3702.5,1142.011,3702,1139.742Z" fill="#67b3b6"/>
        <path id="Trazado_7356" data-name="Trazado 7356" d="M3702,1139.742c-1.94-.094-4.754,6.157-5.032,13.223,1.347,1.445,4.339.753,4.339.753C3701.919,1150.457,3702.5,1142.011,3702,1139.742Z" fill="none" stroke="#777" stroke-miterlimit="10" stroke-width="0.2"/>
      </g>
      <g id="Grupo_1652" data-name="Grupo 1652">
        <path id="Trazado_7357" data-name="Trazado 7357" d="M3719.731,1146.617c.65-2.511,1.8-5.7,1.2-6.194.008-.027.023-.438.031-.465a20.847,20.847,0,0,0-5.323-1.629c-2.073,6.585-9.946,8.1-10.249.239a22.637,22.637,0,0,0-3.388,1.174c.208,5.028-1.76,12.27-1.615,14.306.15,2.095.854,4.165,1.524,4.6,2.673,3.468-.193,12.58-1.531,20.7,6.018,4.941,13.7,3.547,20.717-1.7-5.5-10.09-2.433-21.777-.913-28.264C3720.208,1148.521,3719.718,1147.439,3719.731,1146.617Z" fill="#67b3b6"/>
        <path id="Trazado_7358" data-name="Trazado 7358" d="M3719.731,1146.617c.65-2.511,1.8-5.7,1.2-6.194.008-.027.023-.438.031-.465a20.847,20.847,0,0,0-5.323-1.629c-2.073,6.585-9.946,8.1-10.249.239a22.637,22.637,0,0,0-3.388,1.174c.208,5.028-1.76,12.27-1.615,14.306.15,2.095.854,4.165,1.524,4.6,2.673,3.468-.193,12.58-1.531,20.7,6.018,4.941,13.7,3.547,20.717-1.7-5.5-10.09-2.433-21.777-.913-28.264C3720.208,1148.521,3719.718,1147.439,3719.731,1146.617Z" fill="none" stroke="#777" stroke-miterlimit="10" stroke-width="0.2"/>
      </g>
      <g id="Grupo_1653" data-name="Grupo 1653">
        <path id="Trazado_7359" data-name="Trazado 7359" d="M3720.03,1139.958h0a2.813,2.813,0,0,1,3.36,2.126s4.951,21.473,4.96,21.909c0,0-.7,21.852-.725,22.3.427,12.2-4.063,15.139-2.516,4.44-2.1,2.75-2.12.584.454-4.6l-2.471-21.758c-.03-.09-5.188-21.055-5.188-21.055A2.812,2.812,0,0,1,3720.03,1139.958Z" fill="#f0d8b3"/>
        <path id="Trazado_7360" data-name="Trazado 7360" d="M3720.03,1139.958h0a2.813,2.813,0,0,1,3.36,2.126s4.951,21.473,4.96,21.909c0,0-.7,21.852-.725,22.3.427,12.2-4.063,15.139-2.516,4.44-2.1,2.75-2.12.584.454-4.6l-2.471-21.758c-.03-.09-5.188-21.055-5.188-21.055A2.812,2.812,0,0,1,3720.03,1139.958Z" fill="none" stroke="#777" stroke-miterlimit="10" stroke-width="0.079"/>
      </g>
      <g id="Grupo_1654" data-name="Grupo 1654">
        <path id="Trazado_7361" data-name="Trazado 7361" d="M3721.1,1139.889c2.335-.241,5.15,6.01,5.428,13.076-1.347,1.445-6.186,1.352-6.186,1.352-.35-1.881-2.784-7.922-2.507-11.2C3718.038,1140.712,3719.694,1139.648,3721.1,1139.889Z" fill="#67b3b6"/>
        <path id="Trazado_7362" data-name="Trazado 7362" d="M3721.1,1139.889c2.335-.241,5.15,6.01,5.428,13.076-1.347,1.445-6.186,1.352-6.186,1.352-.35-1.881-2.784-7.922-2.507-11.2C3718.038,1140.712,3719.694,1139.648,3721.1,1139.889Z" fill="none" stroke="#777" stroke-miterlimit="10" stroke-width="0.2"/>
      </g>
      <g id="Grupo_1655" data-name="Grupo 1655">
        <path id="Trazado_7363" data-name="Trazado 7363" d="M3714.581,1270.028h5.514V1267.5a1.6,1.6,0,0,0-1.372-1.57,9.186,9.186,0,0,0-2.77,0,1.6,1.6,0,0,0-1.372,1.57Z" fill="#67b3b6"/>
        <path id="Trazado_7364" data-name="Trazado 7364" d="M3714.581,1270.028h5.514V1267.5a1.6,1.6,0,0,0-1.372-1.57,9.186,9.186,0,0,0-2.77,0,1.6,1.6,0,0,0-1.372,1.57Z" fill="none" stroke="#777" stroke-miterlimit="10" stroke-width="0.2"/>
      </g>
      <path id="Trazado_7365" data-name="Trazado 7365" d="M3720.881,1139.869s-2.516-1.413-3.849-1.254c-4.413,2.67-.837,36.372,5.524,40.335C3720.281,1173.843,3716.668,1148.323,3720.881,1139.869Z" fill="#4a4a4a"/>
      <g id="Grupo_1656" data-name="Grupo 1656">
        <path id="Trazado_7366" data-name="Trazado 7366" d="M3696.2,1166.811s-9.6-11.613-10.013-12.055c-10.2-4.212-7.7-12.98-1.28-4.609-1.24-6.969,3.737,3.985,3.737,3.985.342.283,11.049,7.984,11.049,7.984,1.64,1.435,2.187,3.649,1.223,4.945S3697.844,1168.245,3696.2,1166.811Z" fill="#f0d8b3"/>
        <path id="Trazado_7367" data-name="Trazado 7367" d="M3696.2,1166.811s-9.6-11.613-10.013-12.055c-10.2-4.212-7.7-12.98-1.28-4.609-1.24-6.969,3.737,3.985,3.737,3.985.342.283,11.049,7.984,11.049,7.984,1.64,1.435,2.187,3.649,1.223,4.945S3697.844,1168.245,3696.2,1166.811Z" fill="none" stroke="#777" stroke-miterlimit="10" stroke-width="0.079"/>
      </g>
    </g>
    <g id="Grupo_1660" data-name="Grupo 1660" transform="translate(-3071.29)">
      <path id="Trazado_7368" data-name="Trazado 7368" d="M3986.141,1098.566a10.883,10.883,0,0,1,15.168,3.6c.629,1,2.84,6.905,3.228,7.993,1.494,4.195-5.351,9.453.263,21.95-8.956,13.3-22.776,6.9-27.514-.456,2.991-3.2-1.672-15.382,1.558-25.821C3979.919,1102.354,3981.691,1098.943,3986.141,1098.566Z" fill="#474747"/>
      <g id="Grupo_1658" data-name="Grupo 1658">
        <path id="Trazado_7369" data-name="Trazado 7369" d="M3988.761,1264.193c1.471,6.6,6.466,2.546,12.093,4.737.286-4.56-8.617-3.692-8.111-9.2,0,0,1.85-19.884,1.324-23.108l-2.393,1.521C3990.877,1250.773,3990.367,1259.851,3988.761,1264.193Z" fill="#f0d8b3"/>
        <path id="Trazado_7370" data-name="Trazado 7370" d="M3988.761,1264.193c1.471,6.6,6.466,2.546,12.093,4.737.286-4.56-8.617-3.692-8.111-9.2,0,0,1.85-19.884,1.324-23.108l-2.393,1.521C3990.877,1250.773,3990.367,1259.851,3988.761,1264.193Z" fill="none" stroke="#777" stroke-miterlimit="10" stroke-width="0.202"/>
      </g>
      <g id="Grupo_1659" data-name="Grupo 1659">
        <path id="Trazado_7371" data-name="Trazado 7371" d="M3979.658,1231s-.123,9.995-.8,27.457l-1.46,7.415c2.2,3.333,4.241,1.648,5.267-.162l-1.508-7.307c-.652-23.945-1.232-22.324-1.232-22.324Z" fill="#f0d8b3"/>
        <path id="Trazado_7372" data-name="Trazado 7372" d="M3979.658,1231s-.123,9.995-.8,27.457l-1.46,7.415c2.2,3.333,4.241,1.648,5.267-.162l-1.508-7.307c-.652-23.945-1.232-22.324-1.232-22.324Z" fill="none" stroke="#777" stroke-miterlimit="10" stroke-width="0.202"/>
      </g>
      <path id="Trazado_7373" data-name="Trazado 7373" d="M3987.341,1269.837c6.43.356,16.44-.044,18.584-.1,0-3.161-2.888-3.851-5.3-3.835-2.372.275-11.287,2.85-11.859-1.711a3.107,3.107,0,0,0-.736.576C3986.866,1265.942,3986.21,1268.488,3987.341,1269.837Z" fill="#3f3f3f"/>
      <path id="Trazado_7374" data-name="Trazado 7374" d="M3998.641,1171.435l-20.074-2.193c-9.161,10.306-4.507,19.167-4.38,19.22.462,13.061,2.6,55.76,4.548,69.983a2.072,2.072,0,0,0,2.527-.1c1.6-21.275,5.564-66.8,6.187-73.4h.8c-.22,14.539,1.483,61.29,1.274,73.4,0,0,1.987,1.81,3.629,0C3993.149,1258.34,4002.494,1178.062,3998.641,1171.435Z" fill="#3f3f3f"/>
      <path id="Trazado_7375" data-name="Trazado 7375" d="M3983.272,1269.983h-6.477v-2.969a1.874,1.874,0,0,1,1.611-1.845,10.825,10.825,0,0,1,3.254,0,1.874,1.874,0,0,1,1.612,1.845Z" fill="#3f3f3f"/>
      <path id="Trazado_7376" data-name="Trazado 7376" d="M4020.9,1163.66c6.176-1.2-1.261-1.536-2.787-1.416l-20.269-6.526,2.177-21.127a2.628,2.628,0,0,0-2.345-2.884l-.421-.043a2.628,2.628,0,0,0-2.884,2.345l-2.413,23.415a2.609,2.609,0,0,0,.045.762c.009.075.029.146.044.218.006.023.009.046.016.068a2.615,2.615,0,0,0,1.845,1.941l23.279,5.516C4027.207,1172.382,4029.792,1168.155,4020.9,1163.66Z" fill="#f0d8b3" stroke="#777" stroke-linecap="round" stroke-linejoin="round" stroke-width="0.092"/>
      <path id="Trazado_7377" data-name="Trazado 7377" d="M3981.891,1130.61c5.747,10.992,14.536,15.088,15.036,1.013-.739-.355-1.109-.511-2.639-1.121-1.24-2.068-2.019-6.363-1.93-8.864l-4.917-.265c.037,2.025.581,5.142-2.063,8.532C3983.765,1130.244,3983.453,1130.32,3981.891,1130.61Z" fill="#f0d8b3" stroke="#777" stroke-linecap="round" stroke-linejoin="round" stroke-width="0.092"/>
      <path id="Trazado_7378" data-name="Trazado 7378" d="M3989.107,1105.973c-.176,3.83-5.755,5.308-4.357,9.245-3.264-3.2-2.483,5.31-.809,4.916,1.123,5.558,4.632,8.09,8.993,9.482a2.957,2.957,0,0,0,2.622-.408c5.962-4.275,5.588-9.917,5.747-15.478C3998.471,1112.161,3994.8,1112.542,3989.107,1105.973Z" fill="#f0d8b3" stroke="#777" stroke-linecap="round" stroke-linejoin="round" stroke-width="0.092"/>
      <path id="Trazado_7379" data-name="Trazado 7379" d="M3988.782,1115.644a1.011,1.011,0,1,0,.954-1.064A1.01,1.01,0,0,0,3988.782,1115.644Z" fill="#3e3e3e"/>
      <path id="Trazado_7380" data-name="Trazado 7380" d="M3996.777,1115.574a1.01,1.01,0,1,0,.955-1.063A1.01,1.01,0,0,0,3996.777,1115.574Z" fill="#3e3e3e"/>
      <path id="Trazado_7381" data-name="Trazado 7381" d="M3994.24,1119.183c-.073.781,2.113,2.273.131,2.421" fill="none" stroke="#777" stroke-linecap="round" stroke-linejoin="round" stroke-width="0.25"/>
      <path id="Trazado_7382" data-name="Trazado 7382" d="M3996.082,1124.122s-1.539,1.911-4.138.233" fill="none" stroke="#777" stroke-linecap="round" stroke-linejoin="round" stroke-width="0.25"/>
      <path id="Trazado_7383" data-name="Trazado 7383" d="M4001.856,1145.354a7.97,7.97,0,0,1-6.775.53l-.833-10.84a3.152,3.152,0,0,1,2.9-3.385h0a3.152,3.152,0,0,1,3.384,2.9Z" fill="#fff" stroke="#767676" stroke-miterlimit="10" stroke-width="0.209"/>
      <path id="Trazado_7384" data-name="Trazado 7384" d="M4000.849,1147.218c-.1,1.811-1.121,3.877-2.7,4.516-2.716,4.134-2.314,11.06-.627,14.646.333.613,2.047,7.532,1.944,9.82-7.339,3.3-16.787,2.206-24.608-1.583.176-2.756,4.771-9.379,5.7-10.314,7.821-6.5-.315-23.248-.965-24.463a10.385,10.385,0,0,1,0-7.71,2.205,2.205,0,0,1,1.36-1.33l3.014-.6c4.595,4.141,8.754,4.864,11.542.791,1.049.439,1.4.3,2.112.779,1.4,1.653,1.656,4.825,1.288,8.156a14.121,14.121,0,0,0,.1,1.793A11.922,11.922,0,0,1,4000.849,1147.218Z" fill="#fff" stroke="#777" stroke-miterlimit="10" stroke-width="0.2"/>
      <path id="Trazado_7385" data-name="Trazado 7385" d="M3944.274,1132.351c-2.725-5.67,1.951.111,2.761,1.409l17.125,12.466,15.25-14.17a2.559,2.559,0,0,1,3.647.191l.284.313a2.641,2.641,0,0,1-.127,3.7l-16.9,15.7a2.514,2.514,0,0,1-.624.412c-.063.036-.13.062-.2.092-.021.008-.041.02-.062.028a2.556,2.556,0,0,1-2.614-.344l-18.118-15.479C3933.706,1132.4,3935.484,1127.841,3944.274,1132.351Z" fill="#f0d8b3" stroke="#777" stroke-linecap="round" stroke-linejoin="round" stroke-width="0.091"/>
      <path id="Trazado_7386" data-name="Trazado 7386" d="M3985.939,1108.477c4.291,5.926,18.53-2.424,14.97,19.969,6.634-14.22,2.658-25.048-1.14-27.792C3997.116,1099.636,3985.939,1108.477,3985.939,1108.477Z" fill="#474747"/>
      <rect id="Rectángulo_1907" data-name="Rectángulo 1907" width="5.498" height="1.077" transform="translate(3998.831 1143.754) rotate(180)" fill="#fff" stroke="#777" stroke-miterlimit="10" stroke-width="0.2"/>
      <path id="Trazado_7387" data-name="Trazado 7387" d="M3975.254,1144a8.78,8.78,0,0,1-4.737-5.354l8.357-6.956a3.152,3.152,0,0,1,4.439.406h0a3.151,3.151,0,0,1-.406,4.439Z" fill="#fff" stroke="#767676" stroke-miterlimit="10" stroke-width="0.209"/>
      <path id="Trazado_7388" data-name="Trazado 7388" d="M3986.435,1128.262l-2.467,1.941a12.064,12.064,0,0,0,5.441,6.472l.382-3.091A8.683,8.683,0,0,1,3986.435,1128.262Z" fill="#fff" stroke="#767676" stroke-miterlimit="10" stroke-width="0.209"/>
      <path id="Trazado_7389" data-name="Trazado 7389" d="M3992.248,1133.533l.739,3.142c2.426-1.547,3.988-3.253,3.789-5.284l-2.763-1.634A4.784,4.784,0,0,1,3992.248,1133.533Z" fill="#fff" stroke="#767676" stroke-miterlimit="10" stroke-width="0.209"/>
    </g>
  </g>
</svg>
