<svg xmlns="http://www.w3.org/2000/svg" xmlns:xlink="http://www.w3.org/1999/xlink" width="551.156" height="376.188" viewBox="0 0 551.156 376.188">
  <defs>
    <clipPath id="clip-path">
      <path id="Trazado_14882" data-name="Trazado 14882" d="M599.461,3963.145c0-45.157-27.281-110.968,11.651-127.887,7.648-3.324,41.32-15.581,49.754-17.1,6.359-1.144,59.337-6.126,66.025-6.126,10.52,0,13.1,22.964,22.734,25.723,38.556,11.042,107.766,30.53,116.4,70.044,1.659,7.594-57.587,117.528-57.587,125.619,0,5.057-23.787,7.036-27.379,10.4-13.482,12.616-17.46,24.057-71.662,29.261-17.4,1.67-34-4.085-48.669-11.341l-6.909-3.725-9.039-5.361-7.993-6.963s-10.293,30.784-10.634,29.082-5.482-30.819-5.482-30.819l6.2-8.19A109.508,109.508,0,0,1,599.461,3963.145Z" fill="none"/>
    </clipPath>
  </defs>
  <g id="Grupo_3429" data-name="Grupo 3429" transform="translate(-369.115 -3778.201)">
    <rect id="Rectángulo_2749" data-name="Rectángulo 2749" width="551.156" height="138.858" rx="12" transform="translate(369.115 4009.995)" fill="#414651" opacity="0.2"/>
    <path id="Trazado_14835" data-name="Trazado 14835" d="M710.961,3827.416q-6.59,0-13.147.645t-13.02,1.932q-6.462,1.286-12.768,3.2t-12.393,4.434q-6.087,2.521-11.9,5.628t-11.289,6.767q-5.48,3.66-10.573,7.841t-9.752,8.839q-4.659,4.659-8.84,9.753t-7.84,10.572q-3.661,5.478-6.767,11.29t-5.628,11.9q-2.521,6.089-4.434,12.393t-3.2,12.768q-1.285,6.464-1.931,13.02t-.646,13.147q0,6.59.646,13.146t1.931,13.02q1.285,6.464,3.2,12.768t4.434,12.394q2.522,6.087,5.628,11.9t6.767,11.29q3.66,5.478,7.84,10.572t8.84,9.753q4.659,4.659,9.752,8.839t10.573,7.841q5.478,3.66,11.289,6.767t11.9,5.628q6.087,2.521,12.393,4.434t12.768,3.2q6.462,1.285,13.02,1.931t13.147.646q6.588,0,13.146-.646t13.02-1.931q6.463-1.286,12.768-3.2t12.393-4.434q6.088-2.523,11.9-5.628t11.29-6.767q5.478-3.66,10.572-7.841t9.753-8.839q4.659-4.659,8.839-9.753t7.841-10.572q3.66-5.478,6.767-11.29t5.627-11.9q2.522-6.088,4.435-12.394t3.2-12.768q1.286-6.462,1.931-13.02t.646-13.146q0-6.59-.646-13.147t-1.931-13.02q-1.285-6.462-3.2-12.768t-4.435-12.393q-2.521-6.087-5.627-11.9t-6.767-11.29q-3.661-5.478-7.841-10.572T805.8,3866.7q-4.66-4.659-9.753-8.839t-10.572-7.841q-5.48-3.661-11.29-6.767t-11.9-5.628q-6.087-2.521-12.393-4.434t-12.768-3.2q-6.462-1.285-13.02-1.932T710.961,3827.416Z" transform="translate(-78 -28.5)" fill="#414651"/>
    <circle id="Elipse_281" data-name="Elipse 281" cx="119.699" cy="119.699" r="119.699" transform="translate(512.17 3814.434)" fill="#fff"/>
    <g id="Grupo_3406" data-name="Grupo 3406" transform="translate(-78 -28.5)">
      <g id="Grupo_3376" data-name="Grupo 3376">
        <g id="Grupo_3375" data-name="Grupo 3375">
          <g id="Grupo_3374" data-name="Grupo 3374">
            <circle id="Elipse_282" data-name="Elipse 282" cx="109.934" cy="109.934" r="109.934" transform="translate(554.398 3962.172) rotate(-45)" fill="#e6b54a"/>
          </g>
        </g>
      </g>
      <g id="Grupo_3405" data-name="Grupo 3405">
        <g id="Grupo_3404" data-name="Grupo 3404" clip-path="url(#clip-path)">
          <g id="Grupo_3403" data-name="Grupo 3403">
            <g id="Grupo_3377" data-name="Grupo 3377">
              <path id="Trazado_14836" data-name="Trazado 14836" d="M606.244,3849.039a2.552,2.552,0,0,1,2.215,2.77v-4.431c0-1.53.834-2.769,2.216-2.769s2.215,1.239,2.215,2.769V3843.5a2.506,2.506,0,1,1,4.985,0v3.323a2.506,2.506,0,1,1,4.984,0v20.655l5.053-4.8a2.894,2.894,0,0,1,4.1-.146l.041.068a2.95,2.95,0,0,1-.445,4.128l-8.443,10.555c-2.077,3.254-4.8,6.646-9.811,6.646a9.34,9.34,0,0,1-9.326-9.415v-22.707A2.553,2.553,0,0,1,606.244,3849.039Z" fill="#e4a083"/>
              <path id="Trazado_14837" data-name="Trazado 14837" d="M602.737,3890.106l1.292-10.116c10.8-3.869,17.438,1.313,17.438,1.313.181,3.148.34,6.252.377,9.08C617.825,3889.214,611.414,3888.86,602.737,3890.106Z" fill="#e7e9ed"/>
              <path id="Trazado_14838" data-name="Trazado 14838" d="M660.019,3937.417a283.588,283.588,0,0,1-33.721-6.662s-3.061-32.491-3.623-42.68a27.928,27.928,0,0,0-20.075-1.168s-11.055,50.815,8.329,67.069c0,0,9.094,8.746,57.466,27.973C668.4,3981.949,668.4,3957.027,660.019,3937.417Z" fill="#2c2d2f"/>
            </g>
            <ellipse id="Elipse_283" data-name="Elipse 283" cx="86.843" cy="9.415" rx="86.843" ry="9.415" transform="translate(624.927 4293.861)" opacity="0.1"/>
            <g id="Grupo_3378" data-name="Grupo 3378">
              <path id="Trazado_14839" data-name="Trazado 14839" d="M738.354,4298.186h31.568s1.855-8.4-4.733-19.474l-21.27.267S737.8,4287.663,738.354,4298.186Z" fill="#2c2d2f"/>
              <rect id="Rectángulo_2750" data-name="Rectángulo 2750" width="31.568" height="4.984" transform="translate(738.61 4298.186)" fill="#1b1c1c"/>
              <path id="Trazado_14840" data-name="Trazado 14840" d="M766.045,4289.4c0,2.159-5.331,3.911-11.907,3.911s-11.907-1.752-11.907-3.911,5.331-3.911,11.907-3.911S766.045,4287.237,766.045,4289.4Z" fill="#4a4b4d"/>
            </g>
            <g id="Grupo_3379" data-name="Grupo 3379">
              <path id="Trazado_14841" data-name="Trazado 14841" d="M706.924,4276.778s2.446,12.547.6,21.408H648.079s-2.03-12.9,23.815-12.871l16.58-11.207Z" fill="#2c2d2f"/>
              <path id="Trazado_14842" data-name="Trazado 14842" d="M707.595,4303.171H687.471l-.243-3.444a54.834,54.834,0,0,1-19.281,3.339c-5.481,0-19.612.211-19.612.211v-5.091h59.26Z" fill="#1b1c1c"/>
              <path id="Trazado_14843" data-name="Trazado 14843" d="M670.225,4285.387s-.873,9.159-21.386,8.724C648.839,4294.111,651.665,4285.774,670.225,4285.387Z" fill="#4a4b4d"/>
            </g>
            <g id="Grupo_3381" data-name="Grupo 3381">
              <g id="Grupo_3380" data-name="Grupo 3380">
                <path id="Trazado_14844" data-name="Trazado 14844" d="M677.432,4062.808l-1.107,215.9s16.153,8.115,31.383,1.781l5.82-171.867,4.5-.211,21.99,172.1s11.631,5.221,28.8-1.109l-17.428-216.6Z" fill="#2c2d2f"/>
                <path id="Trazado_14845" data-name="Trazado 14845" d="M676.75,4199.407l-.425,79.358s16.153,8.089,31.383,1.755l3.595-106.167C702.778,4208.263,684.255,4203.132,676.75,4199.407Z" fill="#1b1c1c"/>
                <path id="Trazado_14846" data-name="Trazado 14846" d="M761.021,4186.842c-11.408,30.936-26.5,11.086-32.973.021l11.967,93.657s11.631,5.272,28.8-1.058Z" fill="#1b1c1c"/>
              </g>
              <path id="Trazado_14847" data-name="Trazado 14847" d="M751.386,4062.808H677.432l-.212,41.31a105.626,105.626,0,0,0,36.274,5.5l.034-.991,4.5-.211.132,1.037a128.57,128.57,0,0,0,36.382-7.462Z" fill="#1b1c1c"/>
            </g>
            <g id="Grupo_3383" data-name="Grupo 3383">
              <path id="Trazado_14848" data-name="Trazado 14848" d="M703.554,3923.1s11.211-6.023,27.369.069l3.974,9.484H700.283Z" fill="#b7babe"/>
              <path id="Trazado_14849" data-name="Trazado 14849" d="M700.7,3930.258s13.855-3.109,33.092,0l-19.523,51.691Z" fill="#e4a083"/>
              <g id="Grupo_3382" data-name="Grupo 3382">
                <path id="Trazado_14850" data-name="Trazado 14850" d="M706.011,3922.647l-.376,13.7,22.7.624.49-17.825A44.671,44.671,0,0,1,706.011,3922.647Z" fill="#e4a083"/>
                <path id="Trazado_14851" data-name="Trazado 14851" d="M728.823,3919.148l.378-13.731-22.7-.625-.49,17.855A44.671,44.671,0,0,0,728.823,3919.148Z" fill="#d78b73"/>
              </g>
              <path id="Trazado_14852" data-name="Trazado 14852" d="M723.81,3936.535a3.887,3.887,0,0,0-2.136,2.838c-.148,1.2.957,6.923-.843,10.523s-7.118,22.084-7.118,22.084-2.215-19.522-3.046-22.153-.554-7.754.692-9.554-.692-3.738-.692-3.738l-9.462-7.938-8.745,4.684s-2.951,41.918,19.143,98.276c0,0,26.525-57.131,33.171-97.376l-12.6-5.584Z" fill="#e7e9ed"/>
              <path id="Trazado_14853" data-name="Trazado 14853" d="M773.8,3940.261s-18.518-4.91-34.265-8.341c-3.683,34.522-27.018,92.4-27.018,92.4s-17.988-73.106-18.282-92.4c-7.167,1.128-24.925,2.4-34.215,5.5,0,0,1.681,17.579,13.791,67.869,0,0,2.963,60.437,1.739,88.352,3.134,3.369,14.073,6.277,24.457,4.887,9.548-1.278,12.276-27.225,12.276-27.225s3.481,25.4,14.051,26.466c11.056,1.114,17.149-.343,29.521-5.051.428-13.245-4.036-65.48,1.1-86.238C756.955,4006.477,769.788,3957.074,773.8,3940.261Z" fill="#2c2d2f"/>
              <path id="Trazado_14854" data-name="Trazado 14854" d="M737.809,3931.093l-5.632-2.5-8.367,7.938a4.078,4.078,0,0,0-.464.279l8.505,11.628S736.514,3942.714,737.809,3931.093Z" fill="#cacccf"/>
              <path id="Trazado_14855" data-name="Trazado 14855" d="M710.925,3936.834c-.149-.188-.258-.3-.258-.3l-9.462-7.938-4.346,2.328c.077,2.843.591,11,6.47,17.887Z" fill="#cacccf"/>
              <path id="Trazado_14856" data-name="Trazado 14856" d="M703.554,3922.966l-5.763,5.815s-.519,7.615,5.763,15.646l7.113-7.892A22.972,22.972,0,0,1,703.554,3922.966Z" fill="#eceff2"/>
              <path id="Trazado_14857" data-name="Trazado 14857" d="M730.923,3922.966l5.764,5.815s.518,7.615-5.764,15.646l-7.113-7.892A22.966,22.966,0,0,0,730.923,3922.966Z" fill="#eceff2"/>
              <path id="Trazado_14858" data-name="Trazado 14858" d="M697.237,3929.7l-5.93,2.748s-2.624,10.175-5.409,32.6l7.732,3.6-5.531,5.41s12.995,35.02,23.943,53.019c0,0,21.471-31.568,29.224-51.783l-5.051-7.477,9.3-2.769s-1.054-25.232-2.719-32.415l-4.984-2.938s-3.022,30.355-25.377,89.9C712.432,4019.609,695.852,3953.611,697.237,3929.7Z" fill="#1b1c1c"/>
              <rect id="Rectángulo_2751" data-name="Rectángulo 2751" width="19.937" height="2.215" transform="matrix(0.998, -0.07, 0.07, 0.998, 727.921, 4068.496)" fill="#1b1c1c"/>
              <rect id="Rectángulo_2752" data-name="Rectángulo 2752" width="2.215" height="19.938" transform="matrix(0.015, -1, 1, 0.015, 735.713, 3972.385)" fill="#1b1c1c"/>
              <rect id="Rectángulo_2753" data-name="Rectángulo 2753" width="2.215" height="19.938" transform="translate(679.185 4069.327) rotate(-86.098)" fill="#1b1c1c"/>
            </g>
            <g id="Grupo_3384" data-name="Grupo 3384">
              <path id="Trazado_14859" data-name="Trazado 14859" d="M765.279,4044.419l-4.775-3.736-3.77.569c-3.462-1.321-4.9-3.718-6.645-4.078a15.453,15.453,0,0,1-4.407-2.349c-1.745,2.375,1.285,5.176,1.285,5.176-.243-.061-.484-.125-.728-.187-.6-.153-1.2-.31-1.794-.461-.763-.192-1.523-.4-2.287-.588-.739-.181-1.472-.392-2.214-.563a13.189,13.189,0,0,0-1.734-.333,7.5,7.5,0,0,0-1.814.126c-.758.112-4.775,1.309-5.445,1.426-.313.053-.96.162-.96.164a2.652,2.652,0,0,0-.087,2.257c.611,1.261,2.4,1.332,3.32,1.222a15.784,15.784,0,0,0,2.285-.556,1.864,1.864,0,0,1,1.42-.143,15.694,15.694,0,0,1,1.672.471q1.82.507,3.633,1.034l.827.241s-5.992.777-7.867,1.2c-1.4.317-5.494,3.867-5.494,3.867-2.954,2.534,1.4,3.8,1.4,3.8a1.846,1.846,0,0,0-.577,1.035,1.141,1.141,0,0,0,.366.769,2.777,2.777,0,0,0,1.158.69,4.391,4.391,0,0,0,2.416.269,5.788,5.788,0,0,0,.682-.2c.219-.077.437-.165.652-.256.274-.118.542-.246.811-.378a21.223,21.223,0,0,0,2.447-1.343c.094-.063.315-.284.43-.284l4.619-.03c-1.6.768-3.348,3.5-5.519,4.679a4.152,4.152,0,0,0-.938.654,1.43,1.43,0,0,0-.533,1.052c.031.4.4.539.668.663a4.618,4.618,0,0,0,2.787.26,5.854,5.854,0,0,0,1.444-.474,6.654,6.654,0,0,0,1-.583,3.711,3.711,0,0,0,.416-.321c2.959-2.966,6.158-4.364,10.046-2.093,5.6,3.272,10.564-5.076,10.564-5.076Z" fill="#e4a083"/>
              <path id="Trazado_14860" data-name="Trazado 14860" d="M776.261,4046.18,767.8,4052.3c-10.466-1.836-12.22-12.008-12.22-12.008,1.991-2.446,4.955-5.111,6.835-7.223C763.514,4036.714,766.745,4042.659,776.261,4046.18Z" fill="#e7e9ed"/>
              <path id="Trazado_14861" data-name="Trazado 14861" d="M773.8,3940.261s9.731,1.245,35.415,56.824c0,0,13.157,20.051-33.822,50.568,0,0-14.337-4.234-13.756-15.346l22.649-25.89-23.471-26.262S763.053,3953.565,773.8,3940.261Z" fill="#2c2d2f"/>
            </g>
            <g id="Grupo_3402" data-name="Grupo 3402">
              <g id="Grupo_3393" data-name="Grupo 3393">
                <path id="Trazado_14862" data-name="Trazado 14862" d="M688.255,3867.793s-11.121-15.107-11.121-17.766,13.489-25.411,18.514-21.1,7.243,10.13,26.626,5.007c0,0,5.536-2.077,10.8,3.184s11.631,8.411,9.969,12.928c0,0,6.842,4.334,5.775,9.964s-4.667,21.718-4.667,21.718l-20.5,10.22Z" fill="#b55f30"/>
                <path id="Trazado_14863" data-name="Trazado 14863" d="M735.748,3862.045c-2.215-6,7.292-11.995,7.292-11.995-17.63,9.513-35.63,1.2-48.809-5.6s-17.1,5.579-17.1,5.579c0,2.659,11.121,17.766,11.121,17.766l35.389,24.159,20.5-10.22s1.934-8.645,3.388-15.479C742.9,3866.538,737.093,3865.688,735.748,3862.045Z" fill="#984a29"/>
                <path id="Trazado_14864" data-name="Trazado 14864" d="M703.18,3854.153a53.906,53.906,0,0,1-9.246-3.831c-4.892-2.585-6.866-4.44-9.969-3.231-5.861,2.285,7.015,16.984,7.015,16.984Z" fill="#853f24"/>
                <g id="Grupo_3392" data-name="Grupo 3392">
                  <g id="Grupo_3385" data-name="Grupo 3385">
                    <path id="Trazado_14865" data-name="Trazado 14865" d="M744.537,3856.189c-4.749,0-6.025-3.208-6.039-3.246a.415.415,0,0,1,.776-.3h0c.062.16,1.6,3.887,8.167,2.342a.416.416,0,0,1,.19.809A13.559,13.559,0,0,1,744.537,3856.189Z" fill="#984a29"/>
                  </g>
                  <g id="Grupo_3386" data-name="Grupo 3386">
                    <path id="Trazado_14866" data-name="Trazado 14866" d="M745.706,3862.687c-8.64,0-10.8-7.1-10.819-7.177a.416.416,0,0,1,.8-.231c.092.316,2.372,7.741,12.249,6.423a.416.416,0,0,1,.11.824A17.734,17.734,0,0,1,745.706,3862.687Z" fill="#984a29"/>
                  </g>
                  <g id="Grupo_3387" data-name="Grupo 3387">
                    <path id="Trazado_14867" data-name="Trazado 14867" d="M732.1,3854.711c-17.122,0-31.13-7.914-36.022-13.009-6.866-7.152-12.227-2.209-12.452-1.994a.415.415,0,1,1-.572-.6c.06-.058,6.191-5.721,13.624,2.021,4.888,5.092,19.1,13.058,36.4,12.744a.415.415,0,1,1,.015.831C732.764,3854.708,732.432,3854.711,732.1,3854.711Z" fill="#984a29"/>
                  </g>
                  <g id="Grupo_3388" data-name="Grupo 3388">
                    <path id="Trazado_14868" data-name="Trazado 14868" d="M738.022,3853.062h-.037c-29.5-2.587-38.4-13.187-42.2-17.714a5.857,5.857,0,0,0-4.146-2.4,5.785,5.785,0,0,0-3.9,1.531.415.415,0,0,1-.585-.59,6.539,6.539,0,0,1,4.52-1.771,6.639,6.639,0,0,1,4.744,2.7c3.733,4.448,12.475,14.864,41.636,17.42a.415.415,0,0,1-.035.829Z" fill="#984a29"/>
                  </g>
                  <g id="Grupo_3389" data-name="Grupo 3389">
                    <path id="Trazado_14869" data-name="Trazado 14869" d="M740.561,3851.687l-.054,0c-29.465-3.83-37.863-15.761-38.206-16.267a.416.416,0,0,1,.688-.467c.082.121,8.58,12.135,37.625,15.91a.415.415,0,0,1-.053.827Z" fill="#984a29"/>
                  </g>
                  <g id="Grupo_3390" data-name="Grupo 3390">
                    <path id="Trazado_14870" data-name="Trazado 14870" d="M741.638,3850.991a.413.413,0,0,1-.114-.016c-24.579-7.032-23.88-15.186-23.839-15.529a.416.416,0,0,1,.826.1c-.009.1-.467,7.852,23.241,14.634a.415.415,0,0,1-.114.815Z" fill="#984a29"/>
                  </g>
                  <g id="Grupo_3391" data-name="Grupo 3391">
                    <path id="Trazado_14871" data-name="Trazado 14871" d="M742.434,3850.328a.4.4,0,0,1-.141-.025c-13.928-5.042-12.223-14.516-12.2-14.611a.415.415,0,0,1,.815.16c-.07.361-1.556,8.881,11.672,13.67a.415.415,0,0,1-.142.806Z" fill="#984a29"/>
                  </g>
                </g>
              </g>
              <g id="Grupo_3401" data-name="Grupo 3401">
                <g id="Grupo_3394" data-name="Grupo 3394">
                  <path id="Trazado_14872" data-name="Trazado 14872" d="M741.684,3879.49l-3.567,3.009c-.749-1.782-1.558-9.772-2.553-11.438-4.893-8.186-1.847-14.991-1.847-14.991-20.952,2.744-27.059-2.667-33.414-1.964-8.728.967-10.589,6.16-10.589,6.16-2.2,8.215-1.551,12.394-1.551,12.394-.016,9.735-.219,26.267,6.472,36.142,2.823,4.166,6.39,7.662,12.377,8.6,26.076,4.084,32.778-21.428,32.778-21.428s8.172,2.178,9.838-9.869C751.01,3876.125,741.684,3879.49,741.684,3879.49Z" fill="#e4a083"/>
                  <path id="Trazado_14873" data-name="Trazado 14873" d="M707.226,3858.833c10.984,3.766,20.861.033,23.907-1.008a13.247,13.247,0,0,0,3.5,11.5c-3.536-7.388-.916-13.253-.916-13.253-20.952,2.744-27.059-2.667-33.414-1.964-8.728.967-10.589,6.16-10.589,6.16-.1.378-.191.739-.281,1.1C692.869,3859.255,699.62,3856.226,707.226,3858.833Z" fill="#d78b73"/>
                  <path id="Trazado_14874" data-name="Trazado 14874" d="M737.808,3892.967c-2.216,6.461-10.477,22.384-28.295,21.415-9.643-.525-14.536-6.886-17.75-11.328a26.213,26.213,0,0,0,2.872,5.748c2.823,4.166,6.39,7.662,12.377,8.6,26.076,4.084,32.778-21.428,32.778-21.428s6.256,1.747,9.025-6.223C743.949,3897.836,737.808,3892.967,737.808,3892.967Z" fill="#d78b73"/>
                </g>
                <g id="Grupo_3395" data-name="Grupo 3395">
                  <path id="Trazado_14875" data-name="Trazado 14875" d="M710.565,3895.368c-5.042,2.039-7.76-.335-7.962-2.72a3.418,3.418,0,0,1,2.24-3.517c3.072-1.2,5.238-5.924,5.259-5.973h0a10.134,10.134,0,0,1-4.979,7.437c-.842.49-1.367,1.007-1.3,1.775.114,1.337,2.046,3.334,6.746,3Z" fill="#c47b66"/>
                </g>
                <g id="Grupo_3396" data-name="Grupo 3396">
                  <path id="Trazado_14876" data-name="Trazado 14876" d="M692.61,3874.463l-.6-2.359a25.6,25.6,0,0,1,11.265-3.284l.648,3.745C698.8,3872.181,692.688,3874.44,692.61,3874.463Z" fill="#984a29"/>
                </g>
                <g id="Grupo_3397" data-name="Grupo 3397">
                  <path id="Trazado_14877" data-name="Trazado 14877" d="M729.153,3874.462c-4.018-2.237-11.616-2.189-11.687-2.21l.625-3.485c.3.077,7.188-.011,11.652,3.56Z" fill="#984a29"/>
                </g>
                <g id="Grupo_3398" data-name="Grupo 3398">
                  <path id="Trazado_14878" data-name="Trazado 14878" d="M719.331,3898.874s-9.49,1.939-18.313,0c0,0,1.562,8.117,9.156,8.1C717.334,3906.959,719.248,3900.443,719.331,3898.874Z" fill="#982c2c"/>
                  <path id="Trazado_14879" data-name="Trazado 14879" d="M709.973,3902.751c-5.837,0-7.551-2.421-8.286-3.739,6.849,1.351,12.37.543,17.179-.051C718.346,3900.426,715.475,3902.751,709.973,3902.751Z" fill="#fff"/>
                </g>
                <g id="Grupo_3399" data-name="Grupo 3399">
                  <path id="Trazado_14880" data-name="Trazado 14880" d="M702.7,3883.355a5.663,5.663,0,0,0-3.88-2.439,5.4,5.4,0,0,0-3.679,1.267l-1.116-1.231a7.083,7.083,0,0,1,4.932-1.692,7.237,7.237,0,0,1,5.046,3.065Z" fill="#4a332b"/>
                </g>
                <g id="Grupo_3400" data-name="Grupo 3400">
                  <path id="Trazado_14881" data-name="Trazado 14881" d="M718.493,3882.8l-1.3-1.03a7.237,7.237,0,0,1,5.046-3.065,7.078,7.078,0,0,1,4.932,1.692l-1.116,1.231.558-.616-.556.618a5.466,5.466,0,0,0-3.7-1.268A5.672,5.672,0,0,0,718.493,3882.8Z" fill="#4a332b"/>
                </g>
              </g>
            </g>
          </g>
        </g>
      </g>
    </g>
    <text id="Apreciado_aprendiz_en_el_siguiente_enlace_se_visualiza_la_infografía_de_la_ubicación_de_los_CAPS_en_la_ciudad_de_Bogotá._" data-name="Apreciado aprendiz en el siguiente enlace se visualiza la infografía de la ubicación de los CAPS en la ciudad de Bogotá. 
" transform="translate(396.505 4081.389)" fill="#444242" font-size="16" font-family="OpenSans, Open Sans"><tspan x="2.931" y="17">Apreciado aprendiz en el siguiente enlace se visualiza la infografía </tspan><tspan x="57.395" y="39">de la ubicación de los CAPS en la ciudad de Bogotá. </tspan><tspan x="247.977" y="61"></tspan></text>
  </g>
</svg>
