<svg xmlns="http://www.w3.org/2000/svg" xmlns:xlink="http://www.w3.org/1999/xlink" width="803.116" height="449.187" viewBox="0 0 803.116 449.187">
  <defs>
    <clipPath id="clip-path">
      <path id="Trazado_14223" data-name="Trazado 14223" d="M599.918,6042.675c0-45.156-23.063-70.816,15.869-87.735,7.648-3.323,37.1-55.732,45.536-57.249,6.359-1.144,59.337-6.126,66.025-6.126,10.52,0,13.1,22.964,22.734,25.723,38.556,11.042,107.766,30.53,116.4,70.044,1.659,7.594-36.964,44.892-36.964,52.984,0,5.057-10.072,12.393-10.733,17.269a109.981,109.981,0,0,1-157.6,83.684l-6.909-3.725-9.039-5.361-7.993-6.963S626.95,6156,626.609,6154.3s-5.482-30.819-5.482-30.819l6.2-8.191A109.5,109.5,0,0,1,599.918,6042.675Z" fill="none"/>
    </clipPath>
  </defs>
  <g id="Grupo_3430" data-name="Grupo 3430" transform="translate(-318.445 -611.155)">
    <rect id="Rectángulo_2618" data-name="Rectángulo 2618" width="803.116" height="203.195" rx="12" transform="translate(318.445 842.948)" fill="#414651" opacity="0.2"/>
    <path id="Trazado_14159" data-name="Trazado 14159" d="M710.961,5907.679q-6.59,0-13.147.646t-13.02,1.931q-6.462,1.285-12.768,3.2t-12.393,4.435q-6.087,2.521-11.9,5.627t-11.289,6.767q-5.48,3.661-10.573,7.841t-9.752,8.839q-4.659,4.66-8.84,9.753t-7.84,10.572q-3.661,5.479-6.767,11.29t-5.628,11.9q-2.521,6.087-4.434,12.393t-3.2,12.768q-1.285,6.461-1.931,13.02t-.646,13.146q0,6.589.646,13.147t1.931,13.02q1.285,6.461,3.2,12.768t4.434,12.393q2.522,6.087,5.628,11.9t6.767,11.29q3.66,5.48,7.84,10.572t8.84,9.753q4.659,4.659,9.752,8.84t10.573,7.84q5.478,3.661,11.289,6.767t11.9,5.628q6.087,2.521,12.393,4.434t12.768,3.2q6.462,1.285,13.02,1.932t13.147.646q6.588,0,13.146-.646t13.02-1.932q6.463-1.285,12.768-3.2t12.393-4.434q6.088-2.522,11.9-5.628t11.29-6.767q5.478-3.661,10.572-7.84t9.753-8.84q4.659-4.659,8.839-9.753t7.841-10.572q3.66-5.478,6.767-11.29t5.627-11.9q2.522-6.088,4.435-12.393t3.2-12.768q1.286-6.464,1.931-13.02t.646-13.147q0-6.588-.646-13.146t-1.931-13.02q-1.285-6.464-3.2-12.768t-4.435-12.393q-2.521-6.089-5.627-11.9t-6.767-11.29q-3.661-5.478-7.841-10.572t-8.839-9.753q-4.66-4.659-9.753-8.839t-10.572-7.841q-5.48-3.661-11.29-6.767t-11.9-5.627q-6.087-2.523-12.393-4.435t-12.768-3.2q-6.462-1.285-13.02-1.931T710.961,5907.679Z" transform="translate(0 -5275.81)" fill="#414651"/>
    <circle id="Elipse_250" data-name="Elipse 250" cx="119.699" cy="119.699" r="119.699" transform="translate(590.17 647.387)" fill="#fff"/>
    <g id="Grupo_3070" data-name="Grupo 3070" transform="translate(0 -5275.81)">
      <g id="Grupo_3036" data-name="Grupo 3036">
        <g id="Grupo_3035" data-name="Grupo 3035">
          <g id="Grupo_3034" data-name="Grupo 3034">
            <circle id="Elipse_251" data-name="Elipse 251" cx="109.934" cy="109.934" r="109.934" transform="translate(554.398 6042.436) rotate(-45)" fill="#e6b54a"/>
          </g>
        </g>
      </g>
      <g id="Grupo_3069" data-name="Grupo 3069">
        <g id="Grupo_3068" data-name="Grupo 3068" clip-path="url(#clip-path)">
          <g id="Grupo_3067" data-name="Grupo 3067">
            <ellipse id="Elipse_252" data-name="Elipse 252" cx="126.963" cy="8.894" rx="126.963" ry="8.894" transform="translate(616.719 6263.201)" opacity="0.1"/>
            <g id="Grupo_3037" data-name="Grupo 3037">
              <path id="Trazado_14160" data-name="Trazado 14160" d="M851.9,5992.269a2.412,2.412,0,0,0-3.1-1.257l4.01-1.2c1.385-.413,2.281-1.5,1.908-2.753s-1.721-1.671-3.106-1.257l3.509-1.048a2.367,2.367,0,1,0-1.347-4.512l-3.008.9a2.367,2.367,0,1,0-1.347-4.511l-18.694,5.583,2.99-5.828a2.708,2.708,0,0,0-.97-3.731l-.069-.007a2.787,2.787,0,0,0-3.614,1.523l-7.272,10.5c-2.384,2.759-4.729,6.1-3.376,10.635a8.788,8.788,0,0,0,11.031,5.856l4.512-1.348,3.258-.972,12.783-3.819A2.409,2.409,0,0,0,851.9,5992.269Z" fill="#e4a083"/>
              <path id="Trazado_14161" data-name="Trazado 14161" d="M825.83,6012.444l3.932-9.041c-3.813-9.285-13.554-8.844-13.554-8.844-1.854,2.332-3.713,5.606-5.281,7.769C814.516,6002.6,820.655,6004.375,825.83,6012.444Z" fill="#e7e9ed"/>
              <path id="Trazado_14162" data-name="Trazado 14162" d="M758.2,5994.824s5.61,1.83,33.184,34.282c0,0,13.343-17.88,20.144-29.215,0,0,13.4,2.986,16.1,10.72,0,0-6.388,25.885-20.861,43.48,0,0-14.994,21.552-53.851-11.991C752.921,6042.1,748.748,6010.379,758.2,5994.824Z" fill="#252526"/>
            </g>
            <g id="Grupo_3039" data-name="Grupo 3039">
              <path id="Trazado_14163" data-name="Trazado 14163" d="M808.1,6112.862s7.169-19.876-12.964-18.6-83.27,7.052-83.27,7.052v11.5Z" fill="#314d7c"/>
              <path id="Trazado_14164" data-name="Trazado 14164" d="M783.914,6190.813s9.85-27.307-17.81-25.551-114.4,9.688-114.4,9.688v15.8Z" fill="#314d7c"/>
              <path id="Trazado_14165" data-name="Trazado 14165" d="M651.376,6175.029l-45.222-188.454H704.5s19.318,23.609,5.269,49.075c0,0,25.168,40.453,5.12,68.552,0,0,20.626,33.9,7.753,64.352Z" fill="#4169a3"/>
              <path id="Trazado_14166" data-name="Trazado 14166" d="M657.1,6174.734s5.687-47.642-12.753-65.2c0,0,6.147-55.321-14.049-73.762,0,0,3.512-42.588-24.148-48.954l45.222,188.444Z" fill="#314d7c"/>
              <path id="Trazado_14167" data-name="Trazado 14167" d="M706.916,6035.769s-6.207-.692-16.1-1.231c.939-3.678,3-14.7-2.559-25.112,0,0,3.256,17.523-.077,24.977-7.452-.358-16.647-.6-26.691-.431.621-4.218,1.348-14.8-4.776-24.225,0,0,4.493,16.308,2.24,24.278-8.6.206-17.755.726-26.918,1.744,0,0,11.931.966,26.731,1.539,1.931,3.452,7.3,13.784,7.471,22.081,0,0,2.763-8.33-4.258-21.965,8.573.288,17.854.419,26.209.149,1.783,4.027,5.854,14.207,5.337,22.125,0,0,3.461-8.062-2.372-22.241A102.9,102.9,0,0,0,706.916,6035.769Z" fill="#314d7c"/>
              <path id="Trazado_14168" data-name="Trazado 14168" d="M713.063,6104.043s-7.372-.422-17.762-.384c1.353-3.472,4.91-14.7-.754-25.3,0,0,1.648,18.086-2.13,25.323-6.822.081-14.673.373-22.486,1.093.1-.308,4.619-14.122-3.156-26.095,0,0,4.144,19.685.088,26.371l.017.028a122.911,122.911,0,0,0-20.773,3.794s9.871-.047,22.557-.558c2.359,4.542,6.214,13,6.354,20.007,0,0,2.513-7.59-3.359-20.134,6.74-.3,14.082-.735,21.063-1.356,1.847,4.227,5.7,14.084,5.2,21.8,0,0,3.429-8-2.3-22.069A158.1,158.1,0,0,0,713.063,6104.043Z" fill="#314d7c"/>
              <g id="Grupo_3038" data-name="Grupo 3038">
                <path id="Trazado_14169" data-name="Trazado 14169" d="M709.773,6190.607v64.872H698.355l-3.952-64.872Z" fill="#ccd6d5"/>
                <path id="Trazado_14170" data-name="Trazado 14170" d="M759.146,6253.75l-103.259-5.738v10.083h103.1Z" fill="#99a1a0"/>
                <path id="Trazado_14171" data-name="Trazado 14171" d="M742.919,6264.843a7.245,7.245,0,1,1,7.245,7.244A7.244,7.244,0,0,1,742.919,6264.843Z" fill="#323b39"/>
                <path id="Trazado_14172" data-name="Trazado 14172" d="M657.743,6264.843a7.245,7.245,0,1,1,7.244,7.244A7.243,7.243,0,0,1,657.743,6264.843Z" fill="#323b39"/>
                <path id="Trazado_14173" data-name="Trazado 14173" d="M687.159,6264.843a7.245,7.245,0,1,1,7.244,7.244A7.243,7.243,0,0,1,687.159,6264.843Z" fill="#323b39"/>
                <path id="Trazado_14174" data-name="Trazado 14174" d="M709.773,6190.607v14.38l-13.867,10.332-1.5-24.712Z" fill="#99a1a0"/>
              </g>
            </g>
            <g id="Grupo_3042" data-name="Grupo 3042">
              <path id="Trazado_14175" data-name="Trazado 14175" d="M767.559,6157.126s-5.994,17.439-51.509,10.812V6143h50.3Z" fill="#202122"/>
              <g id="Grupo_3040" data-name="Grupo 3040">
                <path id="Trazado_14176" data-name="Trazado 14176" d="M839.207,6185.062S844.2,6196.01,850.3,6202l46.547-31.095s-5.36-11.105-25.644,2.48l-18.905-.1Z" fill="#2c2d2f"/>
                <path id="Trazado_14177" data-name="Trazado 14177" d="M852.914,6205.917l15-10.021-1.629-2.852a56.685,56.685,0,0,0,17.292-7.776c4.3-2.876,15.911-10.405,15.911-10.405l-2.642-3.956L850.3,6202Z" fill="#1b1c1c"/>
                <path id="Trazado_14178" data-name="Trazado 14178" d="M872.535,6172.546s5.494,6.736,21.377-4.369C893.912,6168.177,887.318,6163.111,872.535,6172.546Z" fill="#4a4b4d"/>
              </g>
              <path id="Trazado_14179" data-name="Trazado 14179" d="M858.078,6168.113s-1.482,20.054-25.547,23.978c0,0-45.589-40.258-61.4-54.5,0,0-37.611,31.854-56.314,32.055-28.964.311-31.668-33.666-31.663-45.471l23.537,1.441c25.46-13.678,68.814-33.546,85.64-18.715C812.912,6125.039,858.078,6168.113,858.078,6168.113Z" fill="#242526"/>
              <g id="Grupo_3041" data-name="Grupo 3041">
                <path id="Trazado_14180" data-name="Trazado 14180" d="M767.061,6246.829s-1.931,11.789-.187,20.16h55.978s1.713-12.124-22.7-12.095l-15.662-10.587Z" fill="#2c2d2f"/>
                <path id="Trazado_14181" data-name="Trazado 14181" d="M767.32,6271.7h17.594l.229-3.19a58.206,58.206,0,0,0,18.922,3.184c5.177,0,19.233.232,19.233.232v-4.934H767.32Z" fill="#1b1c1c"/>
                <path id="Trazado_14182" data-name="Trazado 14182" d="M801.728,6255.023s.825,8.653,20.2,8.242C821.93,6263.265,819.261,6255.389,801.728,6255.023Z" fill="#4a4b4d"/>
              </g>
              <path id="Trazado_14183" data-name="Trazado 14183" d="M760.9,6247.6s17.368,5.183,32.54-1.406c0,0-2.286-58.94-1.782-72.187.711-18.708-2.938-39.2-19.431-36.806C749.087,6140.56,754.093,6173.881,760.9,6247.6Z" fill="#202122"/>
            </g>
            <g id="Grupo_3044" data-name="Grupo 3044">
              <path id="Trazado_14184" data-name="Trazado 14184" d="M715.714,5982.031s-11.069-4.688-25.736,2.45l-2.912,9.268,32.559-3.017Z" fill="#b7babe"/>
              <path id="Trazado_14185" data-name="Trazado 14185" d="M719.025,5988.511s-13.3-1.717-31.126,2.884l22.868,46.919Z" fill="#e4a083"/>
              <g id="Grupo_3043" data-name="Grupo 3043">
                <path id="Trazado_14186" data-name="Trazado 14186" d="M713.364,5981.814l1.548,12.856-21.295,2.565-2.015-16.723A42.187,42.187,0,0,0,713.364,5981.814Z" fill="#e4a083"/>
                <path id="Trazado_14187" data-name="Trazado 14187" d="M691.6,5980.512l-1.552-12.883,21.3-2.565,2.018,16.75A42.187,42.187,0,0,1,691.6,5980.512Z" fill="#d78b73"/>
              </g>
              <path id="Trazado_14188" data-name="Trazado 14188" d="M697.833,5996.429a3.672,3.672,0,0,1,2.256,2.484c.243,1.112-.3,6.595,1.711,9.824s8.619,20.152,8.619,20.152.383-18.556.934-21.1-.155-7.341-1.483-8.926.325-3.576.325-3.576l8.208-8.292,8.634,3.644s6.429,39.171-9.441,94.106c0,0-29.928-51.425-39.687-88.7l11.361-6.351Z" fill="#e7e9ed"/>
              <path id="Trazado_14189" data-name="Trazado 14189" d="M651.139,6004.291s16.989-6.233,31.5-10.832c6.474,32.15,33.467,84.552,33.467,84.552s10.547-70.33,9.143-88.5c6.84.436,23.941,3.2,32.951,5.313,0,0-.339,13.556-7.347,61.914a479.36,479.36,0,0,0,4.1,48.2c-7.838,2.882-9.635,3.53-20.358,8.9a109.249,109.249,0,0,1-15.4,6.619s.173,25.926-9.677,27.849c-10.3,2.011-16.16,1.171-28.207-2.179-1.558-12.421-1.911-61.941-8.552-81.018C672.753,6065.1,656.376,6019.756,651.139,6004.291Z" fill="#2c2d2f"/>
              <path id="Trazado_14190" data-name="Trazado 14190" d="M684.191,5992.531l5.079-2.84,8.563,6.738a3.9,3.9,0,0,1,.461.222l-6.987,11.679S686.422,6003.349,684.191,5992.531Z" fill="#cacccf"/>
              <path id="Trazado_14191" data-name="Trazado 14191" d="M709.979,5995.587a3.581,3.581,0,0,1,.216-.3l8.208-8.292,4.29,1.811c.176,2.681.4,10.4-4.526,17.388Z" fill="#cacccf"/>
              <path id="Trazado_14192" data-name="Trazado 14192" d="M715.7,5981.9l5.928,4.967s1.152,7.118-4.057,15.219l-7.378-6.8A21.692,21.692,0,0,0,715.7,5981.9Z" fill="#eceff2"/>
              <path id="Trazado_14193" data-name="Trazado 14193" d="M689.96,5984.286l-4.914,5.973s.175,7.207,6.784,14.213l6-8.043A21.689,21.689,0,0,1,689.96,5984.286Z" fill="#eceff2"/>
              <path id="Trazado_14194" data-name="Trazado 14194" d="M722.232,5987.688l5.817,2.068s3.354,9.342,7.929,30.2l-6.959,4.061,5.675,4.6s-9.171,34.073-17.9,51.957c0,0-22.947-27.821-32-46.16l4.1-7.472-8.986-1.795s-1.208-23.824-.268-30.726l4.432-3.2s5.488,28.289,31.705,82.353C715.775,6073.577,725.618,6010.054,722.232,5987.688Z" fill="#1b1c1c"/>
              <rect id="Rectángulo_2619" data-name="Rectángulo 2619" width="18.833" height="2.093" transform="matrix(1, -0.022, 0.022, 1, 686.638, 6121.324)" fill="#1b1c1c"/>
              <rect id="Rectángulo_2620" data-name="Rectángulo 2620" width="18.834" height="2.093" transform="translate(670.812 6031.123) rotate(-6.145)" fill="#1b1c1c"/>
            </g>
            <path id="Trazado_14195" data-name="Trazado 14195" d="M733.81,6112.656s7.169-19.773-12.964-18.495-87.106,7.332-87.106,7.332l2.692,11.163Z" fill="#314d7c"/>
            <g id="Grupo_3050" data-name="Grupo 3050">
              <path id="Trazado_14196" data-name="Trazado 14196" d="M651.139,6004.291s-25.595,8.964,1.958,77.936c8.79,22,61.793,16.332,61.793,16.332s12.885-6.823,6.434-20.2c-2.977-6.173-31.843-7.693-40.456-9.088C680.868,6069.27,672.462,6013.911,651.139,6004.291Z" fill="#353536"/>
              <path id="Trazado_14197" data-name="Trazado 14197" d="M708.6,6083.613s-4.962,12.556,6.028,13.88c8.4,1.012,10.755-6.184,10.753-10.468,0-2.106-.7-8.294-5.755-9.254S710.479,6079.079,708.6,6083.613Z" fill="#e7e9ed"/>
              <g id="Grupo_3049" data-name="Grupo 3049">
                <path id="Trazado_14198" data-name="Trazado 14198" d="M724,6080.965a9.16,9.16,0,0,0-9.1,9.2h0a9.161,9.161,0,0,0,9.7,8.575l9.123-.305c5.191-.173,6.225-4.192,6.061-9.1h0c-.164-4.909-2.016-8.831-7.207-8.658Z" fill="#e4a083"/>
                <g id="Grupo_3045" data-name="Grupo 3045">
                  <path id="Trazado_14199" data-name="Trazado 14199" d="M734.61,6084.815a2.581,2.581,0,0,0,.525,1.295c3.155,4.023,3.632,14.7,3.548,18.476a2.33,2.33,0,0,0,2.025,2.474,2.125,2.125,0,0,0,2.128-2.221c.034-1.582.2-15.635-4.63-21.793a1.921,1.921,0,0,0-2.933-.251A2.46,2.46,0,0,0,734.61,6084.815Z" fill="#e4a083"/>
                </g>
                <g id="Grupo_3046" data-name="Grupo 3046">
                  <path id="Trazado_14200" data-name="Trazado 14200" d="M731.175,6086.42a2.412,2.412,0,0,0,.329,1.142c4.072,6.955,2.509,20.037,2.493,20.168a2.349,2.349,0,0,0,1.959,2.641,2.279,2.279,0,0,0,2.54-2.025c.075-.6,1.787-14.845-3.116-23.222a2.225,2.225,0,0,0-3.117-.8A2.372,2.372,0,0,0,731.175,6086.42Z" fill="#e4a083"/>
                </g>
                <g id="Grupo_3047" data-name="Grupo 3047">
                  <path id="Trazado_14201" data-name="Trazado 14201" d="M728.732,6091.1a2.736,2.736,0,0,0,.143.843c2.1,6.157,1.367,13.743,1.36,13.82a2.31,2.31,0,0,0,1.773,2.617,2.105,2.105,0,0,0,2.242-2.057c.035-.358.852-8.857-1.618-16.1a1.946,1.946,0,0,0-2.624-1.328A2.378,2.378,0,0,0,728.732,6091.1Z" fill="#e4a083"/>
                </g>
                <g id="Grupo_3048" data-name="Grupo 3048">
                  <path id="Trazado_14202" data-name="Trazado 14202" d="M724.668,6091.967a2.465,2.465,0,0,0,.106.67,32.826,32.826,0,0,1,1.3,10.693,2.321,2.321,0,0,0,2,2.551,2.234,2.234,0,0,0,2.366-2.14,37.824,37.824,0,0,0-1.5-12.534,2.168,2.168,0,0,0-2.755-1.528A2.341,2.341,0,0,0,724.668,6091.967Z" fill="#e4a083"/>
                </g>
              </g>
            </g>
            <g id="Grupo_3066" data-name="Grupo 3066">
              <g id="Grupo_3059" data-name="Grupo 3059">
                <path id="Trazado_14203" data-name="Trazado 14203" d="M730.211,5933.149s10.505-14.27,10.505-16.782-12.742-24-17.488-19.928-6.842,9.569-25.151,4.73c0,0-5.23-1.962-10.2,3.008s-10.986,7.945-9.417,12.212c0,0-6.463,4.094-5.455,9.413s4.409,20.515,4.409,20.515l19.368,9.653Z" fill="#b55f30"/>
                <path id="Trazado_14204" data-name="Trazado 14204" d="M685.349,5927.719c2.092-5.667-6.889-11.33-6.889-11.33,16.654,8.986,33.657,1.129,46.106-5.292s16.15,5.27,16.15,5.27c0,2.512-10.505,16.782-10.505,16.782l-33.429,22.821-19.368-9.653s-1.828-8.166-3.2-14.622C678.6,5931.964,684.077,5931.161,685.349,5927.719Z" fill="#984a29"/>
                <path id="Trazado_14205" data-name="Trazado 14205" d="M716.113,5920.264a50.927,50.927,0,0,0,8.734-3.618c4.621-2.442,6.486-4.194,9.417-3.052,5.537,2.158-6.627,16.043-6.627,16.043Z" fill="#853f24"/>
                <g id="Grupo_3058" data-name="Grupo 3058">
                  <g id="Grupo_3051" data-name="Grupo 3051">
                    <path id="Trazado_14206" data-name="Trazado 14206" d="M677.046,5922.188c4.487,0,5.691-3.03,5.7-3.066a.392.392,0,0,0-.733-.279h0c-.059.151-1.508,3.672-7.714,2.212a.393.393,0,0,0-.18.765A12.777,12.777,0,0,0,677.046,5922.188Z" fill="#984a29"/>
                  </g>
                  <g id="Grupo_3052" data-name="Grupo 3052">
                    <path id="Trazado_14207" data-name="Trazado 14207" d="M675.942,5928.326c8.162,0,10.2-6.706,10.219-6.78a.392.392,0,0,0-.753-.218c-.088.3-2.242,7.313-11.572,6.068a.392.392,0,0,0-.1.778A16.74,16.74,0,0,0,675.942,5928.326Z" fill="#984a29"/>
                  </g>
                  <g id="Grupo_3053" data-name="Grupo 3053">
                    <path id="Trazado_14208" data-name="Trazado 14208" d="M688.793,5920.792c16.174,0,29.406-7.476,34.026-12.288,6.487-6.757,11.55-2.087,11.763-1.885a.392.392,0,1,0,.541-.568c-.057-.055-5.848-5.4-12.87,1.909-4.618,4.811-18.043,12.335-34.385,12.039a.393.393,0,0,0-.015.785Q688.326,5920.792,688.793,5920.792Z" fill="#984a29"/>
                  </g>
                  <g id="Grupo_3054" data-name="Grupo 3054">
                    <path id="Trazado_14209" data-name="Trazado 14209" d="M683.2,5919.234h.034c27.871-2.443,36.275-12.457,39.864-16.732a5.53,5.53,0,0,1,3.916-2.271,5.468,5.468,0,0,1,3.681,1.447.392.392,0,1,0,.552-.558,6.176,6.176,0,0,0-4.269-1.673A6.277,6.277,0,0,0,722.5,5902c-3.526,4.2-11.783,14.04-39.33,16.455a.392.392,0,0,0,.034.783Z" fill="#984a29"/>
                  </g>
                  <g id="Grupo_3055" data-name="Grupo 3055">
                    <path id="Trazado_14210" data-name="Trazado 14210" d="M680.8,5917.936l.051,0c27.832-3.618,35.765-14.889,36.089-15.367a.392.392,0,0,0-.649-.44c-.078.114-8.106,11.462-35.541,15.028a.393.393,0,0,0,.05.782Z" fill="#984a29"/>
                  </g>
                  <g id="Grupo_3056" data-name="Grupo 3056">
                    <path id="Trazado_14211" data-name="Trazado 14211" d="M679.784,5917.278a.411.411,0,0,0,.108-.015c23.218-6.642,22.558-14.345,22.519-14.669a.393.393,0,0,0-.78.09c.009.094.441,7.417-21.954,13.824a.392.392,0,0,0,.107.77Z" fill="#984a29"/>
                  </g>
                  <g id="Grupo_3057" data-name="Grupo 3057">
                    <path id="Trazado_14212" data-name="Trazado 14212" d="M679.033,5916.651a.385.385,0,0,0,.133-.023c13.156-4.763,11.546-13.713,11.529-13.8a.393.393,0,0,0-.771.153c.066.34,1.469,8.389-11.025,12.912a.392.392,0,0,0,.134.761Z" fill="#984a29"/>
                  </g>
                </g>
              </g>
              <g id="Grupo_3065" data-name="Grupo 3065">
                <g id="Grupo_3060" data-name="Grupo 3060">
                  <path id="Trazado_14213" data-name="Trazado 14213" d="M679.741,5944.2l3.37,2.842c.707-1.683,1.472-9.231,2.412-10.8,4.621-7.733,1.744-14.161,1.744-14.161,19.793,2.591,25.56-2.52,31.564-1.855,8.244.913,10,5.819,10,5.819,2.083,7.76,1.465,11.707,1.465,11.707.016,9.2.207,24.812-6.113,34.141-2.667,3.935-6.037,7.237-11.691,8.122-24.633,3.858-30.963-20.241-30.963-20.241s-7.721,2.057-9.294-9.323C670.932,5941.02,679.741,5944.2,679.741,5944.2Z" fill="#e4a083"/>
                  <path id="Trazado_14214" data-name="Trazado 14214" d="M712.291,5924.686c-10.376,3.557-19.706.031-22.583-.953A12.517,12.517,0,0,1,686.4,5934.6c3.34-6.979.865-12.519.865-12.519,19.793,2.591,25.56-2.52,31.564-1.855,8.244.913,10,5.819,10,5.819.1.357.18.7.265,1.038C725.853,5925.084,719.476,5922.223,712.291,5924.686Z" fill="#d78b73"/>
                  <path id="Trazado_14215" data-name="Trazado 14215" d="M683.4,5956.93c2.093,6.1,9.9,21.144,26.728,20.228,9.109-.5,13.731-6.505,16.767-10.7a24.769,24.769,0,0,1-2.713,5.43c-2.667,3.935-6.037,7.237-11.691,8.122-24.633,3.858-30.963-20.241-30.963-20.241s-5.91,1.65-8.526-5.879C677.6,5961.529,683.4,5956.93,683.4,5956.93Z" fill="#d78b73"/>
                </g>
                <path id="Trazado_14216" data-name="Trazado 14216" d="M716.771,5947.17c.021,2.119,1.307,3.737,2.874,3.61s2.819-1.945,2.8-4.065-1.308-3.736-2.874-3.61S716.749,5945.05,716.771,5947.17Z" fill="#4a332b"/>
                <path id="Trazado_14217" data-name="Trazado 14217" d="M695.241,5946.544c.02,2.119,1.306,3.737,2.874,3.611s2.82-1.946,2.8-4.065-1.308-3.736-2.874-3.611S695.219,5944.425,695.241,5946.544Z" fill="#4a332b"/>
                <g id="Grupo_3061" data-name="Grupo 3061">
                  <path id="Trazado_14218" data-name="Trazado 14218" d="M709.137,5959.2c4.763,1.926,7.33-.316,7.521-2.569a3.228,3.228,0,0,0-2.116-3.322c-2.9-1.133-4.948-5.6-4.968-5.642h0a9.569,9.569,0,0,0,4.7,7.024c.795.463,1.291.952,1.231,1.678-.107,1.262-1.933,3.149-6.372,2.831Z" fill="#c47b66"/>
                </g>
                <g id="Grupo_3062" data-name="Grupo 3062">
                  <path id="Trazado_14219" data-name="Trazado 14219" d="M726.45,5938.617l.209-2.289a24.173,24.173,0,0,0-11-1.4l-.051,3.59C720.338,5937.4,726.374,5938.608,726.45,5938.617Z" fill="#984a29"/>
                </g>
                <g id="Grupo_3063" data-name="Grupo 3063">
                  <path id="Trazado_14220" data-name="Trazado 14220" d="M691.329,5938.9c3.994-1.71,11.128-.922,11.2-.935l-.247-3.335c-.285.043-6.752-.713-11.295,2.206Z" fill="#984a29"/>
                </g>
                <g id="Grupo_3064" data-name="Grupo 3064">
                  <path id="Trazado_14221" data-name="Trazado 14221" d="M700.856,5962.51s8.965,1.831,17.3,0c0,0-1.476,7.667-8.649,7.651C702.744,5970.146,700.935,5963.992,700.856,5962.51Z" fill="#982c2c"/>
                  <path id="Trazado_14222" data-name="Trazado 14222" d="M709.7,5966.172c5.514,0,7.133-2.287,7.827-3.533-6.469,1.277-11.685.514-16.228-.048C701.787,5963.975,704.5,5966.172,709.7,5966.172Z" fill="#fff"/>
                </g>
              </g>
            </g>
          </g>
        </g>
      </g>
    </g>
    <text id="Estimado_aprendiz_a_continuación_daremos_lectura_al_Decreto_4747_de_2007_Por_medio_del_cual_se_regulan_algunos_aspectos_de_las_relaciones_entre_los_prestadores_de_servicios_de_salud_y_las_entidades_responsables_del_pago_de_los_servicios_de_salud_de_la_pobl" data-name="Estimado aprendiz a continuación daremos lectura al Decreto 4747 de 2007 Por medio del cual se regulan algunos aspectos de las relaciones entre los prestadores de servicios de salud y las entidades responsables del pago de los servicios de salud de la pobl" transform="translate(340.322 914.342)" fill="#444242" font-size="16" font-family="OpenSans, Open Sans"><tspan x="13.611" y="17">Estimado aprendiz a continuación daremos lectura al </tspan><tspan y="17" font-family="OpenSans-Bold, Open Sans" font-weight="700">Decreto 4747 de 2007</tspan><tspan y="17" xml:space="preserve"> Por medio del cual se </tspan><tspan x="2.275" y="39">regulan algunos aspectos de las relaciones entre los prestadores de servicios de salud y las entidades </tspan><tspan x="40.193" y="61">responsables del pago de los servicios de salud de la población a su cargo, y se dictan otras </tspan><tspan x="22.486" y="83">disposiciones. Es de vital importancia su compromiso y empeño en contextualizar los conceptos </tspan><tspan x="148.693" y="105">necesarios para su correcto desempeño en la vida productiva. </tspan></text>
  </g>
</svg>
