<svg xmlns="http://www.w3.org/2000/svg" xmlns:xlink="http://www.w3.org/1999/xlink" width="803.116" height="350.22" viewBox="0 0 803.116 350.22">
  <defs>
    <linearGradient id="linear-gradient" x1="37.189" y1="1496.789" x2="37.335" y2="1496.789" gradientUnits="objectBoundingBox">
      <stop offset="0" stop-color="#e8e3d5"/>
      <stop offset="0.036" stop-color="#e6e1d3"/>
      <stop offset="1" stop-color="#cec8b5"/>
    </linearGradient>
  </defs>
  <g id="Grupo_3431" data-name="Grupo 3431" transform="translate(-298.39 -6120.964)">
    <rect id="Rectángulo_2263" data-name="Rectángulo 2263" width="803.116" height="350.219" transform="translate(298.39 6120.964)" fill="#4f8493"/>
    <path id="Trazado_12197" data-name="Trazado 12197" d="M2164.448,6252.394a12.72,12.72,0,1,1,12.72,12.721A12.721,12.721,0,0,1,2164.448,6252.394Z" transform="translate(-1527.257 -7)" fill="#b8d1d1"/>
    <g id="Grupo_2255" data-name="Grupo 2255" transform="translate(-1527.257 -7)">
      <path id="Trazado_12198" data-name="Trazado 12198" d="M2312.884,6280.361a8.138,8.138,0,0,1,8.138-8.137h5.425a8.136,8.136,0,0,1,8.136,8.137h0a8.136,8.136,0,0,1-8.136,8.137h-5.425a8.138,8.138,0,0,1-8.138-8.137Z" fill="#efddc3"/>
      <path id="Trazado_12199" data-name="Trazado 12199" d="M2321.687,6260.278a35.062,35.062,0,1,1,70.123,0v4.474c.513-.149.513,16.655,0,16.5v10.892a35.017,35.017,0,0,1-14.875,28.642v19.17H2336.72v-19.053a35.009,35.009,0,0,1-15.033-28.759Z" fill="#f9ebd6"/>
      <g id="Grupo_2254" data-name="Grupo 2254">
        <g id="Grupo_2252" data-name="Grupo 2252">
          <g id="Grupo_2251" data-name="Grupo 2251">
            <path id="Trazado_12200" data-name="Trazado 12200" d="M2171.933,6265.829c-.6-1.343.271-3.042,1.959-3.8h0c1.683-.756,3.541-.28,4.143,1.063l8.241,18.346c.6,1.342-.277,3.048-1.962,3.8h0c-1.686.755-3.543.285-4.148-1.06Z" fill="#f9ebd6"/>
            <path id="Trazado_12201" data-name="Trazado 12201" d="M2165.993,6271.7c-.6-1.34.409-3.107,2.256-3.934h0c1.849-.832,3.839-.409,4.442.929l8.236,18.349c.6,1.341-.405,3.1-2.258,3.935h0c-1.846.829-3.834.412-4.439-.931Z" fill="#f9ebd6"/>
            <g id="Grupo_2250" data-name="Grupo 2250">
              <path id="Trazado_12202" data-name="Trazado 12202" d="M2191.5,6267.837a2.823,2.823,0,0,1,3.151-2.431h0a2.826,2.826,0,0,1,2.74,2.887l-1.55,20.049a2.819,2.819,0,0,1-3.147,2.431h0a2.814,2.814,0,0,1-2.741-2.881Z" fill="#efddc3"/>
            </g>
            <path id="Trazado_12203" data-name="Trazado 12203" d="M2171.643,6294.835l-9.146-18.415a2.41,2.41,0,1,1,4.373-1.962l2.279,5.071,13.948-6.59c0-.01,0-.012-.009-.028l-8.235-18.344a2.949,2.949,0,0,1,5.355-2.407l14.688,31.532c2.851,5.942-.273,13.362-6.97,16.57S2174.489,6300.777,2171.643,6294.835Z" fill="#f9ebd6"/>
          </g>
          <path id="Trazado_12204" data-name="Trazado 12204" d="M2199.223,6308.535l-5.211-15.332-16.562,6.508,7.83,23.35,1.148-.38Z" fill="#f9ebd6"/>
        </g>
        <g id="Grupo_2253" data-name="Grupo 2253">
          <rect id="Rectángulo_2265" data-name="Rectángulo 2265" width="20.045" height="2.934" transform="translate(2178.18 6306.235) rotate(-20.045)" fill="url(#linear-gradient)"/>
          <path id="Trazado_12205" data-name="Trazado 12205" d="M2176.819,6307.683c.6,1.71,1.389,3.79,1.389,3.79l22.19-8.144s-1.013-2.765-1.313-3.573-.623-1.658-1.565-1.29-19.285,7.054-20.011,7.347S2176.286,6306.216,2176.819,6307.683Z" fill="#fff"/>
        </g>
      </g>
      <path id="Trazado_12206" data-name="Trazado 12206" d="M2324.587,6233.9c.5-7.355,7.9-12.846,16.541-12.263l28.5,1.925a16.816,16.816,0,0,1,11.783,5.714c7.889,3.439,13.235,10.069,13.235,17.685V6301.6c0,11.152-11.472,20.879-25.589,20.194-14.892-.724-20.241-12.559-20.241-14.48v-19.55a13.066,13.066,0,0,0-1.37-5.838,8.225,8.225,0,1,0-3.978-15.624v-11.61a5.268,5.268,0,0,1-4.81-6.495C2330.355,6247.336,2324.1,6241.063,2324.587,6233.9Z" fill="#5e4f44"/>
      <path id="Trazado_12207" data-name="Trazado 12207" d="M2175.019,6311.032l26.929-9.721,21.125,51.567,88.989-4.368c7.861-6.232,23-15.254,25.818-15.254l18.891-.995h.5l18.142,1.74c3.047,0,48.868,24.389,48.868,24.389s8.379,3.524,9.779,9.147c1.839,7.387,27.592,96.2,27.592,96.2l-.173.05.016.027-21.783,14.373H2296.967c-.06-32.043-1.873-60.1-3.8-80.993L2205.21,6384.7l0-.026-.056.028Zm253.387,144.19-13.665-35.591a435.231,435.231,0,0,0-3,46.588Z" fill="#273644"/>
    </g>
    <g id="Grupo_2257" data-name="Grupo 2257" transform="translate(-1527.257 -7)">
      <path id="Trazado_12208" data-name="Trazado 12208" d="M2312,6170.642H2211.186s-6.11.531-6.11,6.286v43.965l-8.357,26.693,29.29-11.8H2312s5.664.62,5.664-5.665v-53.817C2317.666,6170.906,2312,6170.642,2312,6170.642Z" fill="#3d686c"/>
      <g id="Grupo_2256" data-name="Grupo 2256">
        <path id="Trazado_12209" data-name="Trazado 12209" d="M2160.757,6247.586l-8.359-26.693v-43.965c0-5.755-6.108-6.286-6.108-6.286H2045.472s-5.665.264-5.665,5.665v53.817c0,6.285,5.665,5.665,5.665,5.665h85.995Z" fill="#3d686c"/>
        <path id="Trazado_12210" data-name="Trazado 12210" d="M2128.705,6324.637h-77.758a5.41,5.41,0,0,0-4.712,5.7v48c0,5.861,4.642,5.379,4.642,5.379h77.828s4.369.564,4.369-5.139v-48.8A4.761,4.761,0,0,0,2128.705,6324.637Z" fill="#3d686c"/>
        <path id="Trazado_12211" data-name="Trazado 12211" d="M2128.705,6398.941h-77.758a5.412,5.412,0,0,0-4.712,5.7v48c0,5.861,4.642,5.379,4.642,5.379h77.828s4.369.564,4.369-5.137v-48.8A4.763,4.763,0,0,0,2128.705,6398.941Z" fill="#3d686c"/>
        <path id="Trazado_12212" data-name="Trazado 12212" d="M2128.705,6250.332h-77.758a5.41,5.41,0,0,0-4.712,5.7v48c0,5.861,4.642,5.379,4.642,5.379h77.828s4.369.563,4.369-5.138v-48.8A4.76,4.76,0,0,0,2128.705,6250.332Z" fill="#3d686c"/>
      </g>
    </g>
    <g id="Grupo_2264" data-name="Grupo 2264" transform="translate(-1527.257 -7)">
      <g id="Grupo_2258" data-name="Grupo 2258">
        <path id="Trazado_12213" data-name="Trazado 12213" d="M2051.408,6164.6h100.818s6.108.531,6.108,6.285v52.929a5.467,5.467,0,0,1-6.018,5.932H2051.408s-5.665.621-5.665-5.664v-53.818C2045.743,6164.865,2051.408,6164.6,2051.408,6164.6Z" fill="#f5f5f5"/>
        <path id="Trazado_12214" data-name="Trazado 12214" d="M2157.994,6213.766l8.7,27.779-30.3-12.206Z" fill="#f5f5f5"/>
      </g>
      <path id="Trazado_12215" data-name="Trazado 12215" d="M2124.3,6177.387c-2.652.342-6.026,1.252-6.821,4.93a25.121,25.121,0,0,0,.168,4.55c-.285,0-.57.74-.226,2.446.112.285.625,2.731,1.648,3.014.058.285.74,3.47,1.367,4.04a8.711,8.711,0,0,1,.056,1.7c-.019.93-.1,1.384-1.935,1.877-.454.171-9.611,3.7-10.863,5.461s-2.051,5.322-2.338,7.085-.439,3,.035,3.8c2.472,4.178,38.413,3.941,40.118.872-.282-1.537-.615-6.3-1.015-6.921s.908-3.866-4.436-7.337a38.246,38.246,0,0,1-3.642-1.477c-1.308-.627-3.014-1.2-3.353-1.48-.948-.569-2.96-.835-3.129-3.3a1.927,1.927,0,0,1,.206-1.326,20.333,20.333,0,0,0,.531-3.792c.458.114.74.057,1.309-1.423s.38-4.283-.36-4.112c-.114-.684,0-4.246-1.024-6.1C2129.729,6177.843,2126.96,6177.273,2124.3,6177.387Z" fill="#e6b54a"/>
      <g id="Grupo_2263" data-name="Grupo 2263">
        <g id="Grupo_2262" data-name="Grupo 2262">
          <g id="Grupo_2259" data-name="Grupo 2259">
            <path id="Trazado_12216" data-name="Trazado 12216" d="M2055.576,6214.961a2.139,2.139,0,0,0,2.011,2.245h36.854a2.136,2.136,0,0,0,2.009-2.245h0a2.136,2.136,0,0,0-2.009-2.244h-36.854a2.139,2.139,0,0,0-2.011,2.244Z" fill="#e6b54a"/>
          </g>
          <g id="Grupo_2260" data-name="Grupo 2260">
            <path id="Trazado_12217" data-name="Trazado 12217" d="M2055.576,6203.457a2.14,2.14,0,0,0,2.011,2.245h36.854a2.137,2.137,0,0,0,2.009-2.245h0a2.136,2.136,0,0,0-2.009-2.245h-36.854a2.139,2.139,0,0,0-2.011,2.245Z" fill="#e6b54a"/>
          </g>
          <g id="Grupo_2261" data-name="Grupo 2261">
            <path id="Trazado_12218" data-name="Trazado 12218" d="M2094.441,6188.866h-20.018a2.258,2.258,0,0,0,0,4.49h20.018a2.259,2.259,0,0,0,0-4.49Z" fill="#e6b54a"/>
          </g>
        </g>
      </g>
    </g>
    <g id="Grupo_2270" data-name="Grupo 2270" transform="translate(-1527.257 -7)">
      <path id="Trazado_12219" data-name="Trazado 12219" d="M2134.641,6318.6h-77.758a5.41,5.41,0,0,0-4.712,5.7v48c0,5.862,4.642,5.38,4.642,5.38h77.828s4.369.563,4.369-5.139v-48.8A4.762,4.762,0,0,0,2134.641,6318.6Z" fill="#f5f5f5"/>
      <g id="Grupo_2269" data-name="Grupo 2269">
        <g id="Grupo_2265" data-name="Grupo 2265">
          <rect id="Rectángulo_2266" data-name="Rectángulo 2266" width="43.68" height="7.997" transform="translate(2085.209 6332.036)" fill="#97bfba"/>
          <rect id="Rectángulo_2267" data-name="Rectángulo 2267" width="12.416" height="7.997" transform="translate(2085.209 6332.036)" fill="#e6b54a"/>
        </g>
        <g id="Grupo_2266" data-name="Grupo 2266">
          <rect id="Rectángulo_2268" data-name="Rectángulo 2268" width="43.68" height="7.997" transform="translate(2085.209 6357.805)" fill="#97bfba"/>
          <rect id="Rectángulo_2269" data-name="Rectángulo 2269" width="22.073" height="7.997" transform="translate(2085.209 6357.805)" fill="#e6b54a"/>
        </g>
        <g id="Grupo_2267" data-name="Grupo 2267">
          <path id="Trazado_12220" data-name="Trazado 12220" d="M2072.8,6361.23l5.645,4.987a7.9,7.9,0,0,0-5.645-13.152Z" fill="#e6b54a"/>
          <path id="Trazado_12221" data-name="Trazado 12221" d="M2071.3,6362.126h-.007v-9.061a8.592,8.592,0,1,0,6.364,14.678Z" fill="#97bfba"/>
        </g>
        <g id="Grupo_2268" data-name="Grupo 2268">
          <path id="Trazado_12222" data-name="Trazado 12222" d="M2072.863,6335.173l.176-7.579a7.835,7.835,0,0,1,7.4,7.754Z" fill="#e6b54a"/>
          <path id="Trazado_12223" data-name="Trazado 12223" d="M2071.409,6335.828l-.012.531.531.012,8.23.191a8.5,8.5,0,1,1-8.56-8.964Z" fill="#97bfba"/>
        </g>
      </g>
    </g>
    <g id="Grupo_2281" data-name="Grupo 2281" transform="translate(-1527.257 -7)">
      <path id="Trazado_12224" data-name="Trazado 12224" d="M2134.641,6392.9h-77.758a5.412,5.412,0,0,0-4.712,5.7v48c0,5.861,4.642,5.379,4.642,5.379h77.828s4.369.564,4.369-5.137v-48.806A4.762,4.762,0,0,0,2134.641,6392.9Z" fill="#f5f5f5"/>
      <g id="Grupo_2280" data-name="Grupo 2280">
        <g id="Grupo_2274" data-name="Grupo 2274">
          <g id="Grupo_2273" data-name="Grupo 2273">
            <path id="Trazado_12225" data-name="Trazado 12225" d="M2094.624,6439.536v6.75a26.816,26.816,0,0,1-15.758-6.5l4.773-4.772A20.108,20.108,0,0,0,2094.624,6439.536Z" fill="#97bfba"/>
            <path id="Trazado_12226" data-name="Trazado 12226" d="M2116.589,6421.279h6.751a26.811,26.811,0,0,1-6.814,16.125l-4.771-4.771A20.1,20.1,0,0,0,2116.589,6421.279Z" fill="#97bfba"/>
            <g id="Grupo_2271" data-name="Grupo 2271">
              <path id="Trazado_12227" data-name="Trazado 12227" d="M2109.08,6435.2l4.785,4.78a26.787,26.787,0,0,1-15.533,6.3v-6.75A20.085,20.085,0,0,0,2109.08,6435.2Z" fill="#e6b54a"/>
            </g>
            <g id="Grupo_2272" data-name="Grupo 2272">
              <path id="Trazado_12228" data-name="Trazado 12228" d="M2076.368,6421.279a20.1,20.1,0,0,0,4.64,11.126l-4.772,4.773a26.82,26.82,0,0,1-6.618-15.9Z" fill="#e6b54a"/>
            </g>
          </g>
        </g>
        <g id="Grupo_2279" data-name="Grupo 2279">
          <g id="Grupo_2278" data-name="Grupo 2278">
            <g id="Grupo_2275" data-name="Grupo 2275">
              <rect id="Rectángulo_2270" data-name="Rectángulo 2270" width="7.462" height="12.75" transform="translate(2081.401 6415.883)" fill="#e6b54a"/>
            </g>
            <g id="Grupo_2276" data-name="Grupo 2276">
              <rect id="Rectángulo_2271" data-name="Rectángulo 2271" width="7.463" height="29.954" transform="translate(2092.748 6398.679)" fill="#e6b54a"/>
            </g>
            <g id="Grupo_2277" data-name="Grupo 2277">
              <rect id="Rectángulo_2272" data-name="Rectángulo 2272" width="7.463" height="21.973" transform="translate(2104.098 6406.66)" fill="#e6b54a"/>
            </g>
          </g>
        </g>
      </g>
    </g>
    <g id="Grupo_2284" data-name="Grupo 2284" transform="translate(-1527.257 -7)">
      <path id="Trazado_12229" data-name="Trazado 12229" d="M2134.641,6244.291h-77.758a5.409,5.409,0,0,0-4.712,5.7v48c0,5.861,4.642,5.378,4.642,5.378h77.828s4.369.564,4.369-5.137v-48.8A4.76,4.76,0,0,0,2134.641,6244.291Z" fill="#f5f5f5"/>
      <g id="Grupo_2283" data-name="Grupo 2283">
        <g id="Grupo_2282" data-name="Grupo 2282">
          <path id="Trazado_12230" data-name="Trazado 12230" d="M2098.751,6253.36h-32.8a2.835,2.835,0,0,0-2.9,2.893v22.191a2.834,2.834,0,0,0,2.9,2.891h2.894v10.612l10.613-10.612h19.292a2.835,2.835,0,0,0,2.9-2.891v-22.191A2.835,2.835,0,0,0,2098.751,6253.36Z" fill="#b8d1d1"/>
          <path id="Trazado_12231" data-name="Trazado 12231" d="M2121.908,6263.972h-27.981a2.833,2.833,0,0,0-2.893,2.893V6285.2a2.833,2.833,0,0,0,2.893,2.892h17.368l8.683,8.684v-8.684h1.93a2.834,2.834,0,0,0,2.9-2.892v-18.331A2.835,2.835,0,0,0,2121.908,6263.972Z" fill="#e6b54a"/>
        </g>
      </g>
    </g>
    <g id="Grupo_2291" data-name="Grupo 2291" transform="translate(-1527.257 -7)">
      <g id="Grupo_2285" data-name="Grupo 2285">
        <path id="Trazado_12232" data-name="Trazado 12232" d="M2306.669,6164.6H2205.853s-6.11.531-6.11,6.285v52.929a5.468,5.468,0,0,0,6.019,5.932h100.907s5.664.621,5.664-5.664v-53.818C2312.333,6164.865,2306.669,6164.6,2306.669,6164.6Z" fill="#f5f5f5"/>
        <path id="Trazado_12233" data-name="Trazado 12233" d="M2200.083,6213.766l-8.7,27.779,30.3-12.206Z" fill="#f5f5f5"/>
      </g>
      <g id="Grupo_2288" data-name="Grupo 2288">
        <g id="Grupo_2287" data-name="Grupo 2287">
          <g id="Grupo_2286" data-name="Grupo 2286">
            <path id="Trazado_12234" data-name="Trazado 12234" d="M2211.43,6217.143c1.124,3.709,36.015,2.372,36.89,0,.128-.349-.543-2.038-.8-3.382a33.434,33.434,0,0,0-1.989-5.694,3.04,3.04,0,0,0-1.068-1.769.879.879,0,0,0-.176-.363c-.185-.162-2.976-.779-3.89-1.129-.323-.191-1.442-.945-2.075-1.313a2.081,2.081,0,0,1,.075-.215,7.742,7.742,0,0,1-2.7-1.777,3.7,3.7,0,0,0-1.187-.894,9.368,9.368,0,0,0,4.2-1.663,4.651,4.651,0,0,1-1.058-1.853c0-.321-.883-12.671-1.608-14.2a5.036,5.036,0,0,0-2.715-2.844,6.91,6.91,0,0,0-3.008-.757,4.909,4.909,0,0,0-2.5.363,5.644,5.644,0,0,0-1.6,1.078s-.582-1.122-2.581-.313a16.46,16.46,0,0,0-2.174,1.932c-3.963,4.258-2.254,12.729-2.254,13.211s.242,1.127.322,1.773a27.785,27.785,0,0,1-.237,3.272s2.487.273,3.766.25a3.651,3.651,0,0,0-.662,1,7.726,7.726,0,0,1-2.055,2.5c.012.015.027.03.04.048a5.073,5.073,0,0,0-2.967,1.589c-.266.239-2.949.921-3.9,2.07a1.4,1.4,0,0,0-1.066,1.69C2212.409,6210.111,2211.033,6215.83,2211.43,6217.143Z" fill="#b8d1d1"/>
          </g>
        </g>
      </g>
      <g id="Grupo_2290" data-name="Grupo 2290">
        <g id="Grupo_2289" data-name="Grupo 2289">
          <path id="Trazado_12235" data-name="Trazado 12235" d="M2302.128,6214.961a2.137,2.137,0,0,1-2.01,2.245h-36.852a2.139,2.139,0,0,1-2.011-2.245h0a2.138,2.138,0,0,1,2.011-2.245h36.852a2.137,2.137,0,0,1,2.01,2.245Z" fill="#b8d1d1"/>
          <path id="Trazado_12236" data-name="Trazado 12236" d="M2302.128,6203.456a2.137,2.137,0,0,1-2.01,2.245h-36.852a2.138,2.138,0,0,1-2.011-2.245h0a2.139,2.139,0,0,1,2.011-2.245h36.852a2.137,2.137,0,0,1,2.01,2.245Z" fill="#b8d1d1"/>
          <path id="Trazado_12237" data-name="Trazado 12237" d="M2263.266,6188.865h20.016a2.258,2.258,0,0,1,0,4.49h-20.016a2.258,2.258,0,0,1,0-4.49Z" fill="#b8d1d1"/>
        </g>
      </g>
    </g>
  </g>
</svg>
