<svg xmlns="http://www.w3.org/2000/svg" xmlns:xlink="http://www.w3.org/1999/xlink" width="803.116" height="314.887" viewBox="0 0 803.116 314.887">
  <defs>
    <linearGradient id="linear-gradient" x1="838.505" y1="3354.943" x2="839.505" y2="3354.943" gradientUnits="objectBoundingBox">
      <stop offset="0" stop-color="#e3e3e3"/>
      <stop offset="0.209" stop-color="#dedede"/>
      <stop offset="0.456" stop-color="#cfcfcf"/>
      <stop offset="0.722" stop-color="#b8b8b8"/>
      <stop offset="0.999" stop-color="#979797"/>
      <stop offset="1" stop-color="#979797"/>
    </linearGradient>
    <linearGradient id="linear-gradient-2" x1="840.025" y1="3350.333" x2="841.025" y2="3350.333" xlink:href="#linear-gradient"/>
    <linearGradient id="linear-gradient-3" x1="2478.459" y1="1129.254" x2="2481.414" y2="1129.254" xlink:href="#linear-gradient"/>
    <linearGradient id="linear-gradient-4" x1="2484.272" y1="1127.704" x2="2487.229" y2="1127.704" xlink:href="#linear-gradient"/>
    <linearGradient id="linear-gradient-5" x1="2481.167" y1="1129.76" x2="2484.123" y2="1129.76" xlink:href="#linear-gradient"/>
    <linearGradient id="linear-gradient-6" x1="2484.545" y1="1128.116" x2="2487.5" y2="1128.116" xlink:href="#linear-gradient"/>
  </defs>
  <g id="Grupo_3432" data-name="Grupo 3432" transform="translate(-298.39 -7026.021)">
    <rect id="Rectángulo_2264" data-name="Rectángulo 2264" width="803.116" height="314.887" transform="translate(298.39 7026.021)" fill="#b9c7d2"/>
    <g id="Grupo_2314" data-name="Grupo 2314" transform="translate(-1527.257 -7)">
      <g id="Grupo_2292" data-name="Grupo 2292">
        <rect id="Rectángulo_2273" data-name="Rectángulo 2273" width="58.993" height="42.323" transform="translate(2031.279 7135.856)" fill="#fff"/>
        <rect id="Rectángulo_2274" data-name="Rectángulo 2274" width="52.964" height="36.416" transform="translate(2034.104 7138.607)" fill="#839cb0"/>
        <path id="Trazado_12238" data-name="Trazado 12238" d="M2045.219,7157.444c-.091.513-.438,1.042-.856.926-.313-.087-.378-.5-.409-.864-.028-.325-.029-.654-.042-.98a13.278,13.278,0,0,0-.164-1.324c-.132-.938-.31-1.849-.505-2.764a10.187,10.187,0,0,0-.532-1.869c-.151-.352-.446-.6-.737-.377a2.675,2.675,0,0,0-.625,1.373c-.146.548-.313,1.083-.451,1.635-.174.7-.341,1.4-.555,2.081-.3.96-.752,2.032-1.541,2.319a1.386,1.386,0,0,1-1.221-.2,2.442,2.442,0,0,0-.73-.386c-.717-.144-1.287.984-1.643,1.664-.649,1.24-.305.591-.98,3.031-.016.057-.085.6-.075.554.438-2.136.815-3.5,1.933-4.8.435-.506.821-.379,1.287-.071a1.727,1.727,0,0,0,1.169.346c.956-.112,1.51-1.278,1.871-2.374.209-.633.369-1.3.531-1.952.138-.56.305-1.1.453-1.656a4.442,4.442,0,0,1,.505-1.383c.4-.568.731.246.87.667a22.591,22.591,0,0,1,.776,3.538,18.011,18.011,0,0,1,.265,2.054,5.523,5.523,0,0,0,.129,1.443.543.543,0,0,0,.7.362,1.29,1.29,0,0,0,.681-1.011C2045.332,7157.372,2045.228,7157.393,2045.219,7157.444Z" fill="none" stroke="#f1f1f1" stroke-miterlimit="10" stroke-width="6"/>
        <path id="Trazado_12239" data-name="Trazado 12239" d="M2045.053,7157.545l.424-.073.694-11.4h-.4Z" fill="#f1f1f1"/>
        <path id="Trazado_12240" data-name="Trazado 12240" d="M2046.538,7167.559l.4-.027-.764-21.46h-.4Z" fill="#f1f1f1"/>
        <path id="Trazado_12241" data-name="Trazado 12241" d="M2046.535,7167.558h.4l1.248-4.611-.233-.689Z" fill="#f1f1f1"/>
        <path id="Trazado_12242" data-name="Trazado 12242" d="M2059.258,7157.444c-.091.513-.438,1.042-.857.926-.312-.087-.377-.5-.408-.864-.028-.325-.029-.654-.042-.98a13.278,13.278,0,0,0-.164-1.324c-.132-.938-.31-1.849-.506-2.764a10.166,10.166,0,0,0-.531-1.869c-.151-.352-.446-.6-.737-.377a2.661,2.661,0,0,0-.625,1.373c-.146.548-.313,1.083-.451,1.635-.175.7-.341,1.4-.555,2.081-.3.96-.752,2.032-1.541,2.319a1.385,1.385,0,0,1-1.221-.2,2.453,2.453,0,0,0-.73-.386c-.718-.144-1.288.984-1.643,1.664-.649,1.24-.6,1.7-1.278,4.141-.016.056.061.1.071.047a12.065,12.065,0,0,1,2.085-5.405c.435-.506.821-.379,1.287-.071a1.725,1.725,0,0,0,1.169.346c.956-.112,1.509-1.278,1.871-2.374.209-.633.368-1.3.531-1.952.138-.56.305-1.1.453-1.656a4.439,4.439,0,0,1,.5-1.383c.4-.568.73.246.87.667a22.577,22.577,0,0,1,.776,3.538,18.037,18.037,0,0,1,.264,2.054,5.523,5.523,0,0,0,.13,1.443.543.543,0,0,0,.7.362,1.291,1.291,0,0,0,.681-1.011C2059.371,7157.372,2059.267,7157.393,2059.258,7157.444Z" fill="none" stroke="#f1f1f1" stroke-miterlimit="10" stroke-width="6"/>
        <path id="Trazado_12243" data-name="Trazado 12243" d="M2059.092,7157.545l.424-.073.694-11.4h-.4Z" fill="#f1f1f1"/>
        <path id="Trazado_12244" data-name="Trazado 12244" d="M2060.577,7167.559l.4-.027-.764-21.46h-.4Z" fill="#f1f1f1"/>
        <path id="Trazado_12245" data-name="Trazado 12245" d="M2060.574,7167.558h.4l1.248-4.611-.233-.689Z" fill="#f1f1f1"/>
        <path id="Trazado_12246" data-name="Trazado 12246" d="M2073.3,7157.444c-.091.513-.438,1.042-.857.926-.312-.087-.377-.5-.408-.864-.028-.325-.029-.654-.042-.98a13.278,13.278,0,0,0-.164-1.324c-.132-.938-.31-1.849-.506-2.764a10.166,10.166,0,0,0-.531-1.869c-.151-.352-.446-.6-.737-.377a2.661,2.661,0,0,0-.625,1.373c-.146.548-.313,1.083-.451,1.635-.174.7-.341,1.4-.555,2.081-.3.96-.752,2.032-1.541,2.319a1.385,1.385,0,0,1-1.221-.2,2.455,2.455,0,0,0-.73-.386c-.718-.144-1.288.984-1.643,1.664-.649,1.24-.6,1.7-1.278,4.141-.016.056.061.1.071.047a12.065,12.065,0,0,1,2.085-5.405c.435-.506.821-.379,1.287-.071a1.727,1.727,0,0,0,1.169.346c.956-.112,1.509-1.278,1.871-2.374.209-.633.369-1.3.531-1.952.138-.56.3-1.1.453-1.656a4.433,4.433,0,0,1,.505-1.383c.4-.568.73.246.87.667a22.605,22.605,0,0,1,.776,3.538,17.819,17.819,0,0,1,.264,2.054,5.575,5.575,0,0,0,.13,1.443.543.543,0,0,0,.7.362,1.291,1.291,0,0,0,.681-1.011C2073.415,7157.372,2073.311,7157.393,2073.3,7157.444Z" fill="none" stroke="#f1f1f1" stroke-miterlimit="10" stroke-width="6"/>
        <path id="Trazado_12247" data-name="Trazado 12247" d="M2073.136,7157.545l.424-.073.694-11.4h-.4Z" fill="#f1f1f1"/>
        <path id="Trazado_12248" data-name="Trazado 12248" d="M2074.621,7167.559l.4-.027-.764-21.46h-.4Z" fill="#f1f1f1"/>
        <path id="Trazado_12249" data-name="Trazado 12249" d="M2074.618,7167.558h.4l1.248-4.611-.234-.689Z" fill="#f1f1f1"/>
        <path id="Trazado_12250" data-name="Trazado 12250" d="M2087.068,7157.908c-.091.513-.168.578-.587.462-.312-.087-.377-.5-.409-.864-.028-.325-.029-.654-.042-.98a13.278,13.278,0,0,0-.164-1.324c-.132-.938-.31-1.849-.5-2.764a10.185,10.185,0,0,0-.531-1.869c-.151-.352-.447-.6-.738-.377a2.664,2.664,0,0,0-.624,1.373c-.147.548-.314,1.083-.452,1.635-.174.7-.341,1.4-.555,2.081-.3.96-.752,2.032-1.54,2.319a1.388,1.388,0,0,1-1.222-.2,2.443,2.443,0,0,0-.73-.386c-.717-.144-1.287.984-1.643,1.664-.649,1.24-.6,1.7-1.278,4.141-.016.056.061.1.071.047a12.085,12.085,0,0,1,2.085-5.405c.435-.506.821-.379,1.288-.071a1.723,1.723,0,0,0,1.168.346c.956-.112,1.51-1.278,1.871-2.374.209-.633.369-1.3.531-1.952.138-.56.3-1.1.453-1.656a4.446,4.446,0,0,1,.505-1.383c.4-.568.731.246.87.667a22.578,22.578,0,0,1,.776,3.538,17.983,17.983,0,0,1,.265,2.054,5.523,5.523,0,0,0,.129,1.443.543.543,0,0,0,.7.362c.341-.11.243-.131.309-.41C2087.081,7157.974,2087.077,7157.857,2087.068,7157.908Z" fill="none" stroke="#f1f1f1" stroke-miterlimit="10" stroke-width="6"/>
        <path id="Trazado_12251" data-name="Trazado 12251" d="M2037.547,7142.031v0Z" fill="none" stroke="#fff" stroke-miterlimit="10" stroke-width="1"/>
        <path id="Trazado_12252" data-name="Trazado 12252" d="M2043.432,7157.761v0Z" fill="none" stroke="#fff" stroke-miterlimit="10" stroke-width="1"/>
        <path id="Trazado_12253" data-name="Trazado 12253" d="M2047.359,7140.173v0Z" fill="none" stroke="#fff" stroke-miterlimit="10" stroke-width="1"/>
        <path id="Trazado_12254" data-name="Trazado 12254" d="M2057.493,7153.446v0Z" fill="none" stroke="#fff" stroke-miterlimit="10" stroke-width="1"/>
        <path id="Trazado_12255" data-name="Trazado 12255" d="M2060.574,7141.211v0Z" fill="none" stroke="#fff" stroke-miterlimit="10" stroke-width="1"/>
        <path id="Trazado_12256" data-name="Trazado 12256" d="M2052.488,7165.124v0Z" fill="none" stroke="#fff" stroke-miterlimit="10" stroke-width="1"/>
        <path id="Trazado_12257" data-name="Trazado 12257" d="M2064.881,7157.761v0Z" fill="none" stroke="#fff" stroke-miterlimit="10" stroke-width="1"/>
        <path id="Trazado_12258" data-name="Trazado 12258" d="M2073.136,7141.211v0Z" fill="none" stroke="#fff" stroke-miterlimit="10" stroke-width="1"/>
        <path id="Trazado_12259" data-name="Trazado 12259" d="M2074.254,7159.586v0Z" fill="none" stroke="#fff" stroke-miterlimit="10" stroke-width="1"/>
        <path id="Trazado_12260" data-name="Trazado 12260" d="M2076.718,7140.173v0Z" fill="none" stroke="#fff" stroke-miterlimit="10" stroke-width="1"/>
        <path id="Trazado_12261" data-name="Trazado 12261" d="M2083.788,7150.442v0Z" fill="none" stroke="#fff" stroke-miterlimit="10" stroke-width="1"/>
      </g>
      <g id="Grupo_2293" data-name="Grupo 2293">
        <rect id="Rectángulo_2275" data-name="Rectángulo 2275" width="233.717" height="101.076" transform="translate(2188.915 7151.42)" fill="#d4d9e9"/>
        <rect id="Rectángulo_2276" data-name="Rectángulo 2276" width="233.717" height="13.811" transform="translate(2188.915 7151.42)" fill="#e4e7f1"/>
        <rect id="Rectángulo_2277" data-name="Rectángulo 2277" width="233.717" height="13.811" transform="translate(2188.915 7117.288)" fill="#e4e7f1"/>
      </g>
      <ellipse id="Elipse_201" data-name="Elipse 201" cx="126.669" cy="9.618" rx="126.669" ry="9.618" transform="translate(2018.113 7310.812)" fill="#a2b5c4"/>
      <ellipse id="Elipse_202" data-name="Elipse 202" cx="52.37" cy="9.618" rx="52.37" ry="9.618" transform="translate(2126.434 7303.329)" fill="#a2b5c4"/>
      <path id="Trazado_12262" data-name="Trazado 12262" d="M2162.788,7307.02c0,2.946-13.579,5.335-30.329,5.335s-30.328-2.389-30.328-5.335,13.578-5.334,30.328-5.334S2162.788,7304.074,2162.788,7307.02Z" fill="#a2b5c4"/>
      <g id="Grupo_2296" data-name="Grupo 2296">
        <rect id="Rectángulo_2278" data-name="Rectángulo 2278" width="2.858" height="213.563" transform="translate(2131.324 7089.879)" fill="#f1f1f1"/>
        <rect id="Rectángulo_2279" data-name="Rectángulo 2279" width="38.575" height="2.862" transform="translate(2113.466 7089.879)" fill="#f1f1f1"/>
        <circle id="Elipse_203" data-name="Elipse 203" cx="3.857" cy="3.857" r="3.857" transform="translate(2128.896 7087.454)" fill="#363636"/>
        <rect id="Rectángulo_2280" data-name="Rectángulo 2280" width="1.356" height="5.203" transform="translate(2113.466 7092.742)" fill="#f1f1f1"/>
        <g id="Grupo_2294" data-name="Grupo 2294">
          <rect id="Rectángulo_2281" data-name="Rectángulo 2281" width="16.713" height="22.284" transform="translate(2105.787 7097.731)" fill="#dce8fc"/>
          <path id="Trazado_12263" data-name="Trazado 12263" d="M2114.144,7128.372a8.357,8.357,0,0,0,8.356-8.357h-16.713A8.357,8.357,0,0,0,2114.144,7128.372Z" fill="#dce8fc"/>
          <path id="Trazado_12264" data-name="Trazado 12264" d="M2114.144,7127.657a7.653,7.653,0,0,1-7.61-6.927h15.219A7.652,7.652,0,0,1,2114.144,7127.657Z" fill="#efc87e"/>
          <path id="Trazado_12265" data-name="Trazado 12265" d="M2106.5,7111.474l.033,9.256h15.218l.033-9.256Z" fill="#efc87e"/>
        </g>
        <rect id="Rectángulo_2282" data-name="Rectángulo 2282" width="0.678" height="89.507" transform="translate(2113.466 7128.229)" fill="#dce8fc"/>
        <rect id="Rectángulo_2283" data-name="Rectángulo 2283" width="1.356" height="5.203" transform="translate(2150.695 7092.742)" fill="#f1f1f1"/>
        <g id="Grupo_2295" data-name="Grupo 2295">
          <rect id="Rectángulo_2284" data-name="Rectángulo 2284" width="16.713" height="22.284" transform="translate(2143.017 7097.731)" fill="#dce8fc"/>
          <path id="Trazado_12266" data-name="Trazado 12266" d="M2151.374,7128.372a8.357,8.357,0,0,0,8.356-8.357h-16.713A8.357,8.357,0,0,0,2151.374,7128.372Z" fill="#dce8fc"/>
          <path id="Trazado_12267" data-name="Trazado 12267" d="M2151.374,7127.657a7.653,7.653,0,0,1-7.61-6.927h15.219A7.653,7.653,0,0,1,2151.374,7127.657Z" fill="#fff"/>
          <path id="Trazado_12268" data-name="Trazado 12268" d="M2143.731,7111.474l.033,9.256h15.218l.033-9.256Z" fill="#fff"/>
        </g>
        <rect id="Rectángulo_2285" data-name="Rectángulo 2285" width="0.678" height="89.507" transform="translate(2150.695 7128.229)" fill="#dce8fc"/>
        <rect id="Rectángulo_2286" data-name="Rectángulo 2286" width="37.23" height="4.095" transform="translate(2114.138 7303.1)" fill="#f1f1f1"/>
      </g>
      <ellipse id="Elipse_204" data-name="Elipse 204" cx="52.37" cy="9.618" rx="52.37" ry="9.618" transform="translate(2315.729 7305.042)" fill="#a2b5c4"/>
      <g id="Grupo_2299" data-name="Grupo 2299">
        <g id="Grupo_2297" data-name="Grupo 2297">
          <path id="Trazado_12269" data-name="Trazado 12269" d="M2394.711,7315.646l-16.995.013c-1.792-.216-1.91-.188-1.575-3.054.834-2.382,9.1.012,11.381-5.777.051-.126.2-2,.24-2.139l7.047.33C2394.989,7309.879,2394.63,7313.54,2394.711,7315.646Z" fill="#fff"/>
          <path id="Trazado_12270" data-name="Trazado 12270" d="M2356.548,7315.646l-17,.013c-1.792-.216-1.91-.188-1.575-3.054.834-2.382,9.1.012,11.381-5.777.051-.126.2-2,.239-2.139l7.048.33C2356.826,7309.879,2356.467,7313.54,2356.548,7315.646Z" fill="#fff"/>
          <path id="Trazado_12271" data-name="Trazado 12271" d="M2312.012,7166.029c.764-.141,1.558-.2,2.29-.393l1.151,5.185c-5.864,1.258-12.917,3.638-15.394,1.181-3.805-3.636.4-4.039,5.125-4.815.143-.023.185-.069.491-.423.36-.417-4.026-2.441-3.114-3.1.364-.266,6.621,2.241,7.02,2.309A7.328,7.328,0,0,0,2312.012,7166.029Z" fill="#f0c896"/>
          <path id="Trazado_12272" data-name="Trazado 12272" d="M2365.591,7096.462c2.98-.463,6.673-.685,7.849,2.655.47,1.312.323,7.743,2.23,7.512,1.549-.232.727-2.736,1.8-3.445,1.554-1.184,3.094.728,3.206,2.276.107,2.621-2.759,4.634-3.009,7.252a8.206,8.206,0,0,0,.379,2.7c1.466-7.021,10.279-16.083,2.807-22.936-3.2-2.872-6.783-1.459-9.993-2.545-3.925-1.446-8.641-5.576-11.419-3.266-3.875,3.22-.625,6.193.8,9.755A20.35,20.35,0,0,0,2365.591,7096.462Z" fill="#6f4325"/>
          <path id="Trazado_12273" data-name="Trazado 12273" d="M2374.153,7126.393c2.6-.151,4.709-1.857,6.358-3.906-1.9-1.051-3.032-2.819-2.621-6.082.034-.324.088-.653.157-.989a8.206,8.206,0,0,1-.379-2.7c.25-2.618,3.116-4.631,3.009-7.252-.112-1.548-1.652-3.46-3.206-2.276-1.074.709-.252,3.213-1.8,3.445-1.907.231-1.76-6.2-2.23-7.512-1.176-3.34-4.869-3.118-7.849-2.655a20.35,20.35,0,0,1-5.349-.038,7.687,7.687,0,0,1,.575,2.309c.332,5.719-3.259,10.169.644,16.26,2.127,3.582,7.855,1.016,7.478,5.661a4.242,4.242,0,0,1-1.48,3.046C2368.833,7125.593,2372.029,7126.569,2374.153,7126.393Z" fill="#f0c896"/>
          <path id="Trazado_12274" data-name="Trazado 12274" d="M2396.946,7230.824c-.215-11.5,1.116-22.6,1.456-34.158l-23.7.064,1.293,18.9c.039-.177.08-.349.121-.529,1.385,9.92,2.623,18.21,3.8,29.4,1.025,9.741,6.668,62.743,6.636,62.813l9.811.35C2396.233,7305.3,2397.235,7246.9,2396.946,7230.824Z" fill="#66a0cb"/>
          <path id="Trazado_12275" data-name="Trazado 12275" d="M2354.832,7196.785c-.021,3.48-.13,6.973-.388,10.538-.666,9.2-.787,16.163-1.536,24.02-.4,8.573-1.052,16.074-1.63,25.361-.509,8.2-2.717,47.985-3,49.853l9.221.409c1.467-5.864,9.216-46.8,11.414-59.028,2.061-11.471,4.075-19.227,7.08-32.309l-1.293-18.9Z" fill="#66a0cb"/>
          <path id="Trazado_12276" data-name="Trazado 12276" d="M2365.682,7124.757a6.7,6.7,0,0,0,1.777-1.057c1.374,1.893,4.57,2.869,6.694,2.693,2.6-.151,4.709-1.857,6.358-3.906a9.106,9.106,0,0,0,1.485.641l-10.046,30.357Z" fill="#b7d0ed"/>
          <path id="Trazado_12277" data-name="Trazado 12277" d="M2382.571,7134.812,2371.95,7156.4l-8.169-21.591-2.218-.467v-8.352a31.586,31.586,0,0,0,4.119-1.236l6.268,28.728L2382,7123.128a19.051,19.051,0,0,0,2.716.662l.66,10.088Z" fill="#e3e3e3"/>
          <path id="Trazado_12278" data-name="Trazado 12278" d="M2312.831,7164.085c3.564-1.052,4.144-1,6.17-1.491,10.193-2.457,18.054-2.6,23.814-12.222,4.676-7.124,5.439-18.2,15.735-23.334a16.117,16.117,0,0,1,3.013-1.045v8.352l2.218.467,8.169,21.591,10.621-21.591,2.8-.934-.66-10.088c5.109.919,11.41.868,12.77,6.011.7,3.218-.183,7.527.02,11.165.425,7.6-.108,8.753-.131,14.113-.018,4.287.253,8.066.235,12.06-.027,6.341.351,10.8.705,17.688.208,4.021.946,58.375.832,62.258H2376.56l-1.859-34.662-2.843,34.662h-21.5c.075-12.662,3.427-75.456,3.862-90.588l-2.876,4.007c-7.982,7.468-7.437,5.416-12.806,7.536-7.443,2.669-17.469,3.662-25.08,5.309l-1.074-9.143C2312.525,7164.171,2312.672,7164.132,2312.831,7164.085Z" fill="#fff"/>
          <path id="Trazado_12279" data-name="Trazado 12279" d="M2415.687,7189.107c-.255-.733-.435-1.509-.734-2.2l4.954-1.919c2.124,5.611,5.536,12.226,3.48,15.043-3.022,4.307-4.053.212-5.531-4.344-.043-.136-.095-.173-.492-.422-.466-.292-1.809,4.347-2.6,3.545-.318-.321,1.221-6.881,1.227-7.287A7.3,7.3,0,0,0,2415.687,7189.107Z" fill="#f0c896"/>
          <path id="Trazado_12280" data-name="Trazado 12280" d="M2418.218,7178.95c-1.235-3.9-2.512-7.934-3.79-11.975a136.1,136.1,0,0,0-4.939-13.2c-2.474-5.9-5.148-11.943-7.709-17.64-1.375-2.9-5.749-11.912-10.075-10.7-4.189,1.168-1.837,7.759-.644,10.444,3.858,8.69,7.206,16.765,10.589,25.536,1.465,3.665,3.157,7.334,4.622,11,1.6,4.1,3.433,7.486,5.148,11.468a34.4,34.4,0,0,0,2.819,5.179l7.228-2.184C2420.859,7184.293,2418.977,7181.352,2418.218,7178.95Z" fill="#fff"/>
        </g>
        <g id="Grupo_2298" data-name="Grupo 2298">
          <rect id="Rectángulo_2287" data-name="Rectángulo 2287" width="7.421" height="11.928" rx="0.311" transform="translate(2381.661 7152.141)" fill="#aed6f8"/>
          <path id="Trazado_12281" data-name="Trazado 12281" d="M2388.791,7153.29h-6.838v4.535l6.838-3.118Z" fill="#fff"/>
          <path id="Trazado_12282" data-name="Trazado 12282" d="M2381.953,7163.7h6.838v-8.012l-6.838,3.118Z" fill="#fff"/>
          <path id="Trazado_12283" data-name="Trazado 12283" d="M2381.953,7158.42v.389l6.838-3.118v-.389Z" fill="#fff"/>
          <path id="Trazado_12284" data-name="Trazado 12284" d="M2388.791,7154.707l-6.838,3.118v.6l6.838-3.118Z" fill="#fff"/>
          <path id="Trazado_12285" data-name="Trazado 12285" d="M2386.071,7152.439a.1.1,0,0,1-.1.1h-1.2a.1.1,0,0,1-.1-.1h0a.1.1,0,0,1,.1-.1h1.2a.1.1,0,0,1,.1.1Z" fill="#979797"/>
          <rect id="Rectángulo_2288" data-name="Rectángulo 2288" width="0.926" height="0.373" transform="translate(2384.908 7150.316)" fill="#cacaca"/>
          <rect id="Rectángulo_2289" data-name="Rectángulo 2289" width="0.779" height="0.63" transform="translate(2384.982 7151.808)" fill="#e3e3e3"/>
          <path id="Trazado_12286" data-name="Trazado 12286" d="M2385.793,7150.384a.022.022,0,0,1-.023.022h-.8a.021.021,0,0,1-.022-.022h0a.022.022,0,0,1,.022-.023h.8a.023.023,0,0,1,.023.023Z" fill="#e3e3e3"/>
          <path id="Rectángulo_2290" data-name="Rectángulo 2290" d="M.231,0H.695A.232.232,0,0,1,.926.232V1.351a.232.232,0,0,1-.232.232H.231A.231.231,0,0,1,0,1.351V.231A.231.231,0,0,1,.231,0Z" transform="translate(2384.908 7150.458)" fill="#f1f1f1"/>
          <rect id="Rectángulo_2291" data-name="Rectángulo 2291" width="4.603" height="0.607" transform="translate(2382.53 7156.563)" fill="#f1f1f1"/>
          <rect id="Rectángulo_2292" data-name="Rectángulo 2292" width="5.357" height="0.607" transform="translate(2382.53 7157.539)" fill="#f1f1f1"/>
        </g>
      </g>
      <g id="Grupo_2301" data-name="Grupo 2301">
        <path id="Trazado_12287" data-name="Trazado 12287" d="M2153.661,7157.118c.185,1.573-1.254,4.871-1.775,6.559-3.009,9.759-4.743,7.658-10.736,9.034-3.818.813-7.737,1.759-11.712,2.306-2.9.2-5.929-.366-8.37-.347l-.04,1.477c.6.275.276.86-.251.934-3.959-1.253-4.637,2.414-2.009,4.448,3.943,3.052,4.929-.75,8.638-1.14.532-.313,2.921.413,4.08.606,2.652.1,4.129.318,5.238.232a28.232,28.232,0,0,1,3.2-.209c15.041-.749,17.036-8.6,21.295-19.271Z" fill="#f0c896"/>
        <path id="Trazado_12288" data-name="Trazado 12288" d="M2182.464,7308.608a3.951,3.951,0,0,0,3.153-.443c.561,1.1,4.263,2.786,7.555,5.14l-4.844-.171c-6.025,0-8.52,0-8.636-6.317A4.633,4.633,0,0,0,2182.464,7308.608Z" fill="#fff"/>
        <path id="Trazado_12289" data-name="Trazado 12289" d="M2157.712,7306.192a2.293,2.293,0,0,0,2.326,2,11.9,11.9,0,0,0,4.08-1.474c-1.4,4.635-8.193,7.3-13.741,6.412C2147.721,7312.708,2155.813,7310.818,2157.712,7306.192Z" fill="#fff"/>
        <path id="Trazado_12290" data-name="Trazado 12290" d="M2158.744,7302.957a21.2,21.2,0,0,1-1.032,3.235,2.293,2.293,0,0,0,2.326,2,11.9,11.9,0,0,0,4.08-1.474c.2-.656.4-1.357.615-2.1A10.689,10.689,0,0,1,2158.744,7302.957Z" fill="#fff"/>
        <path id="Trazado_12291" data-name="Trazado 12291" d="M2164.2,7252.947c-.007,1.189-.03,2.451-.149,3.813-.617,6.79-3.292,11.11-3.5,19.34-.131,5.254-.206,9.053-.206,14.608a91.71,91.71,0,0,1-1.234,10.287c-.1.694-.224,1.345-.368,1.962a10.689,10.689,0,0,0,5.989,1.664c.012-.043.024-.085.037-.128a57.286,57.286,0,0,0,1.954-9.567c.926-6.173,2.572-11.316,3.19-17.8.308-2.778,2.008-7.957,2.572-11.007a62.547,62.547,0,0,1,2.884-10.736,16.247,16.247,0,0,1-4.878-.729A63.242,63.242,0,0,0,2164.2,7252.947Z" fill="#f0c896"/>
        <path id="Trazado_12292" data-name="Trazado 12292" d="M2195.536,7254.837a23.056,23.056,0,0,1-5.7.951H2184.5c-.051,1.9-.18,3.75-.18,4.881-.309,6.172-2.161,12.448-2.161,18.62a95.825,95.825,0,0,1-1.543,18.723,36.292,36.292,0,0,0-.885,6.551,5.458,5.458,0,0,0,1.409.524,18.939,18.939,0,0,0,4.135.533c.036-.718.128-1.613.279-2.773.617-3.7,4.127-13.827,4.835-17.488.618-3.189,2.881-7.716,3.5-11.728.926-4.938-.309-9.978.617-15.225C2194.8,7257.26,2195.174,7256.06,2195.536,7254.837Z" fill="#f0c896"/>
        <path id="Trazado_12293" data-name="Trazado 12293" d="M2179.727,7304.563c-.024.575-.041,1.164-.041,1.782,0,.162,0,.317.006.472a4.633,4.633,0,0,0,2.772,1.791,3.951,3.951,0,0,0,3.153-.443,4.852,4.852,0,0,1-.346-2.545,18.939,18.939,0,0,1-4.135-.533A5.458,5.458,0,0,1,2179.727,7304.563Z" fill="#fff"/>
        <path id="Trazado_12294" data-name="Trazado 12294" d="M2163.442,7313.3h-1.235l-.309-5.841h1.955Z" fill="#fff"/>
        <path id="Trazado_12295" data-name="Trazado 12295" d="M2181.27,7313.3h-1.234l-.309-5.841h1.954Z" fill="#fff"/>
        <path id="Trazado_12296" data-name="Trazado 12296" d="M2181.847,7153.27l-8.446-15.039a11.857,11.857,0,0,1-1.507.958,13.157,13.157,0,0,1-5.555,1.543c-6.1.309-7.009,3.987-9.953,9.8-1.211,2.391-2.6,4.446-3.7,6.445l9.172,5.406a18.72,18.72,0,0,1,1.775-3.557c1.42,11.478-5.3,81.945-6.743,102.257l19.084.13c.8,0,2.178.019,3.883.044l2.024-108.059Z" fill="#fff"/>
        <path id="Trazado_12297" data-name="Trazado 12297" d="M2197.946,7183.63c.556-10.162.053-13.369,1.183-19.867a23.526,23.526,0,0,0,.815,3.284l9.386-3.606c-.276-1.187-.533-2.055-.788-3.073a66.529,66.529,0,0,0-4.9-14c-2.737-5.29-4.512-2.667-9.45-5.444-2.1-1.053-2.419-2.1-4-2.966l-8.309,15.238-2.024,108.059c6.254.089,16.964.249,20.361-.195C2201.284,7248.51,2197.39,7184.086,2197.946,7183.63Z" fill="#fff"/>
        <path id="Trazado_12298" data-name="Trazado 12298" d="M2180.868,7101.536c9.577,0,12.6,5.562,14.35,12.427,1.578,6.2.782,9.821-3.088,14.574-4.5,5.534-4.315,6.4-9.527,6.276-4.849-.122-2.095.484-6.459-2.182-5.455-3.516-9-7.185-8.562-13.5.34-4.9,1.529-10.568,5.044-14.2,2.3-2.424,3.636-2.99,7.314-3.353Z" fill="#6f4325"/>
        <path id="Trazado_12299" data-name="Trazado 12299" d="M2168.223,7121.942c.255-.345,1.076.332,1.154.067a22.433,22.433,0,0,0,.218-4.593c.121-3.152,2.182-6.182,4.485-8.364,5.091-4.728,12.486-1.334,16.971,2.424,2.909,2.425,3.717,5.94,3.354,9.576,0,.97.249.017.935.466.775.5.566.973.2,2.549a13.923,13.923,0,0,1-1.8,3.235c-.728.728-.753-1.037-1.945,2.033s-2.687,3.718-5.475,5.536a9.054,9.054,0,0,0-1,.715,3.527,3.527,0,0,1-.388.138,7.468,7.468,0,0,1-1.636.182c-1.122.03-2.213.151-3.334.121a6.035,6.035,0,0,1-1.939-.477,16.359,16.359,0,0,0-1.36-.962c-2.845-1.93-4.985-3.542-5.846-6.769-.242-.909-.792,0-1.174-.565C2168.472,7125.527,2167.683,7122.675,2168.223,7121.942Z" fill="#f0c896"/>
        <path id="Trazado_12300" data-name="Trazado 12300" d="M2177.762,7103.188c.682,2.5,1.356,3.6.386,5.665-.97,1.94-9.795,6.169-8.583,3.5,1.818-3.636,4.091-8.44,7.849-10.015Z" fill="#6f4325"/>
        <path id="Trazado_12301" data-name="Trazado 12301" d="M2195.319,7183.173c-1.052-6.752,2.68-12.912,3.81-19.41.618,4.012,4.321,8.332,3.4,11.727a6.127,6.127,0,0,1-.942,1.882l-1.178-1.882,1.178,1.882C2200.076,7179.5,2197.3,7181.543,2195.319,7183.173Z" fill="none"/>
        <path id="Trazado_12302" data-name="Trazado 12302" d="M2209.143,7180.545c-.153,2.594-1.133,3.227-2.414,4.512l-.207.208-4.94-7.893a6.127,6.127,0,0,0,.942-1.882c.545-2-.512-4.314-1.6-6.7l8.391-3.242A116.127,116.127,0,0,1,2209.143,7180.545Z" fill="#f0c896"/>
        <path id="Trazado_12303" data-name="Trazado 12303" d="M2183.789,7134.36a9.108,9.108,0,0,0,1.807-.192,8.786,8.786,0,0,0-.014,1.863,6.137,6.137,0,0,0,.416,2.632c.554,1.662,1.939,1.939-.693,2.77a8.42,8.42,0,0,1-2.631.139c-1.524,0-6.372.831-5.956-1.247.393-2.545,1.385-3.186,1.523-5.125a4.764,4.764,0,0,0-.024-1.079,6.156,6.156,0,0,0,1.763.377C2181.262,7134.533,2182.508,7134.394,2183.789,7134.36Z" fill="#f0c896"/>
        <path id="Trazado_12304" data-name="Trazado 12304" d="M2183.3,7135.906a7.468,7.468,0,0,0,1.636-.182,3.527,3.527,0,0,0,.388-.138,1.313,1.313,0,0,0-.443.806,8.1,8.1,0,0,1-1.581.168c-1.122.03-2.213.151-3.334.121a5.4,5.4,0,0,1-1.543-.33,1.337,1.337,0,0,0-.4-.8,6.035,6.035,0,0,0,1.939.477C2181.087,7136.057,2182.178,7135.936,2183.3,7135.906Z" fill="#f0c896"/>
        <path id="Trazado_12305" data-name="Trazado 12305" d="M2194.048,7124.3c.606-.656.464-1.747.989-1.747.384,0,.061,1.192-.1,1.434-.343.566-.969.445-.949,1.233a5.094,5.094,0,0,1-.02,1.111c-.061.262-.384.788-.687.424-.142-.182-.081-.667-.061-.889a1.768,1.768,0,0,1,.374-.768c.273-.444.049-.087.3-.525Z" fill="#f0c896"/>
        <path id="Trazado_12306" data-name="Trazado 12306" d="M2169.532,7124.383c-.606-.657-.464-1.748-.99-1.748-.383,0-.06,1.192.1,1.434.343.566.969.445.949,1.233a5.159,5.159,0,0,0,.02,1.111c.061.263.384.788.687.424.142-.181.081-.666.061-.889a1.754,1.754,0,0,0-.374-.767c-.273-.445-.049-.087-.3-.526Z" fill="#f0c896"/>
        <path id="Trazado_12307" data-name="Trazado 12307" d="M2174.906,7137.437a3.906,3.906,0,0,1,.768-.177,68.436,68.436,0,0,1,8.024-.656,17.245,17.245,0,0,1,4.86.683l-6.687,12.8Z" fill="#f0c896"/>
        <path id="Trazado_12308" data-name="Trazado 12308" d="M2209.766,7165.548l-9.24,3.409c-.2-.684-.4-1.312-.582-1.91l9.386-3.606C2209.469,7164.041,2209.614,7164.722,2209.766,7165.548Z" fill="#fff"/>
        <path id="Trazado_12309" data-name="Trazado 12309" d="M2151.842,7158.676c.249-.566.539-1.131.849-1.7l9.172,5.406c-.271.644-.54,1.276-.84,1.849Z" fill="#fff"/>
        <path id="Trazado_12310" data-name="Trazado 12310" d="M2174.545,7198.321a1.57,1.57,0,0,1-.185.087v-.036a.443.443,0,0,0-.086-.21c.216-.028.436-.1.649-.118A1.346,1.346,0,0,1,2174.545,7198.321Z" fill="#ddb28e"/>
        <path id="Trazado_12311" data-name="Trazado 12311" d="M2174.795,7199.806a.564.564,0,0,1-.091.07c-.026-.1.023.085-.037-.205a.31.31,0,0,0-.035-.087,5.161,5.161,0,0,1,.678-.151C2175.149,7199.568,2174.95,7199.658,2174.795,7199.806Z" fill="#ddb28e"/>
        <path id="Trazado_12312" data-name="Trazado 12312" d="M2175.715,7201.223a.32.32,0,0,0-.058-.112.656.656,0,0,0-.127-.089,1.524,1.524,0,0,1,.449-.206C2175.9,7200.954,2175.81,7201.091,2175.715,7201.223Z" fill="#ddb28e"/>
        <path id="Trazado_12313" data-name="Trazado 12313" d="M2178.414,7103.476c1.454,8.212,6.061,8.727,9.818,11.031a11.483,11.483,0,0,1,4.957,5.184,37.4,37.4,0,0,1,2.243,4.121c.676,1.692-.048-11-1.987-13.427-1.819-2.545-4.849-6.788-8.122-7.273-1.576-.242-4.578-1.228-7.3-.885Z" fill="#6f4325"/>
        <path id="Trazado_12314" data-name="Trazado 12314" d="M2178.962,7104a3.03,3.03,0,0,1-3.175-1.582,6.108,6.108,0,0,1,.27-3.295c.987-3.128,5.823-2.357,8.234-1.842,2.639.591,3.789,4.479,1.4,6.145-1.721,1.238-4.464.262-6.431.615l-.294-.041Z" fill="#6f4325"/>
        <path id="Trazado_12315" data-name="Trazado 12315" d="M2195.319,7183.173c1.982-1.63,4.757-3.669,6.263-5.8l4.94,7.893a26.558,26.558,0,0,1-4,3.457,32.159,32.159,0,0,1-3.707,2.25,20.433,20.433,0,0,1-3.082-5.915A14.89,14.89,0,0,1,2195.319,7183.173Z" fill="#f0c896"/>
        <path id="Trazado_12316" data-name="Trazado 12316" d="M2181.948,7149.942l-.077.146.071.129Z" fill="#d3e7e9"/>
        <path id="Trazado_12317" data-name="Trazado 12317" d="M2181.949,7150.228l-.007-.011-.056,2.98,8.309-15.238a7.173,7.173,0,0,0-.942-.429c-.219-.088-.453-.167-.695-.243l-6.61,12.655-.006.275Z" fill="#e3e3e3"/>
        <path id="Trazado_12318" data-name="Trazado 12318" d="M2181.886,7153.2l.056-2.98-.071-.129-.072.14.072-.14-6.965-12.651a6.109,6.109,0,0,0-1.505.794l8.446,15.039Z" fill="#e3e3e3"/>
        <rect id="Rectángulo_2293" data-name="Rectángulo 2293" width="0.829" height="1.008" transform="translate(2194.21 7125.052) rotate(-75.08)" fill="#cacaca"/>
        <path id="Trazado_12319" data-name="Trazado 12319" d="M2197.779,7128.622l-.749-.2a2.553,2.553,0,0,0-1.849-3.1l.216-.812A3.36,3.36,0,0,1,2197.779,7128.622Z" fill="#cacaca"/>
        <path id="Trazado_12320" data-name="Trazado 12320" d="M2193.95,7124.553c-.127.477-.126.892,0,.926l.269.072c.129.034.336-.325.463-.8h0c.127-.477.126-.892,0-.926l-.269-.072c-.128-.034-.336.325-.463.8Z" fill="#4e4e4e"/>
        <path id="Trazado_12321" data-name="Trazado 12321" d="M2197.016,7128.419l.763.2a37.132,37.132,0,0,1-3.123,7.863l-.812-.217A35.542,35.542,0,0,0,2197.016,7128.419Z" fill="#cacaca"/>
        <rect id="Rectángulo_2294" data-name="Rectángulo 2294" width="1.008" height="0.829" transform="matrix(0.966, -0.257, 0.257, 0.966, 2168.217, 7124.51)" fill="#cacaca"/>
        <path id="Trazado_12322" data-name="Trazado 12322" d="M2165.835,7128.622l.75-.2a2.553,2.553,0,0,1,1.848-3.1l-.216-.812A3.362,3.362,0,0,0,2165.835,7128.622Z" fill="#cacaca"/>
        <path id="Trazado_12323" data-name="Trazado 12323" d="M2169.665,7124.553c.126.477.125.892,0,.926l-.268.072c-.129.034-.336-.325-.463-.8h0c-.127-.477-.127-.892,0-.926l.269-.072c.128-.034.335.325.463.8Z" fill="#4e4e4e"/>
        <path id="Trazado_12324" data-name="Trazado 12324" d="M2166.6,7128.419l-.763.2a37.184,37.184,0,0,0,3.123,7.863l.813-.217A35.6,35.6,0,0,1,2166.6,7128.419Z" fill="#cacaca"/>
        <path id="Trazado_12325" data-name="Trazado 12325" d="M2169.771,7135.816c3.307,6.849,6.94,11.964,11.555,11.964s8.935-4.418,12.518-11.873l1.053.578c-3.745,7.385-8.531,12.415-13.571,12.415s-8.763-5.569-12.642-12.549Z" fill="#4e4e4e"/>
        <rect id="Rectángulo_2295" data-name="Rectángulo 2295" width="1.499" height="8.721" transform="translate(2126.414 7186.343)" fill="#4e4e4e"/>
        <path id="Trazado_12326" data-name="Trazado 12326" d="M2127.913,7186.343h-1.5a10.129,10.129,0,0,0-10.129-10.129v-1.5A11.628,11.628,0,0,1,2127.913,7186.343Z" fill="#4e4e4e"/>
        <path id="Trazado_12327" data-name="Trazado 12327" d="M2106.486,7175.227a4.9,4.9,0,1,0,4.9-4.9A4.9,4.9,0,0,0,2106.486,7175.227Z" fill="#cacaca"/>
        <path id="Trazado_12328" data-name="Trazado 12328" d="M2108.406,7175.227a2.98,2.98,0,1,0,2.98-2.98A2.98,2.98,0,0,0,2108.406,7175.227Z" fill="#4e4e4e"/>
        <path id="Trazado_12329" data-name="Trazado 12329" d="M2108.68,7175.227a2.706,2.706,0,1,0,2.706-2.706A2.706,2.706,0,0,0,2108.68,7175.227Z" fill="#b0b0b0"/>
        <path id="Trazado_12330" data-name="Trazado 12330" d="M2109.923,7175.227a1.463,1.463,0,1,0,1.463-1.463A1.462,1.462,0,0,0,2109.923,7175.227Z" fill="#4e4e4e"/>
        <rect id="Rectángulo_2296" data-name="Rectángulo 2296" width="1.57" height="1.682" transform="translate(2116.077 7174.715)" fill="#cacaca"/>
        <rect id="Rectángulo_2297" data-name="Rectángulo 2297" width="2.717" height="3.224" transform="translate(2180.078 7148.638)" fill="#4e4e4e"/>
        <path id="Trazado_12331" data-name="Trazado 12331" d="M2117.207,7175.854c-.189.693,1.778.634,3.337.171a1.6,1.6,0,0,1,.484.122l.04-1.477A5.282,5.282,0,0,0,2117.207,7175.854Z" fill="#f0c896"/>
        <path id="Trazado_12332" data-name="Trazado 12332" d="M2138.041,7205.13A10.127,10.127,0,0,1,2127.913,7195h-1.5a11.627,11.627,0,0,0,11.627,11.628h0v-1.5Z" fill="#4e4e4e"/>
        <path id="Rectángulo_2298" data-name="Rectángulo 2298" d="M.571,0H19.818a.571.571,0,0,1,.571.571V29.439a.57.57,0,0,1-.57.57H.57a.57.57,0,0,1-.57-.57V.571A.571.571,0,0,1,.571,0Z" transform="matrix(0.983, -0.186, 0.186, 0.983, 2154.485, 7184.06)" fill="#40536d"/>
        <path id="Trazado_12333" data-name="Trazado 12333" d="M2178.814,7208.406a.523.523,0,0,1-.407.615l-17.047,3.223a.523.523,0,0,1-.6-.425l-4.974-26.312a.52.52,0,0,1,.406-.615l17.047-3.223a.523.523,0,0,1,.6.424Z" fill="#fff"/>
        <path id="Trazado_12334" data-name="Trazado 12334" d="M2169.127,7179.7l-9.832,1.859a.5.5,0,0,0-.343.243l10.582-2A.5.5,0,0,0,2169.127,7179.7Z" fill="#cacaca"/>
        <path id="Trazado_12335" data-name="Trazado 12335" d="M2158.952,7181.8a.5.5,0,0,0-.059.345l.4,2.089a.5.5,0,0,0,.588.4l9.833-1.859a.5.5,0,0,0,.4-.587l-.4-2.089a.5.5,0,0,0-.181-.3Z" fill="#e3e3e3"/>
        <path id="Trazado_12336" data-name="Trazado 12336" d="M2169.709,7182.775l-9.833,1.859a.5.5,0,0,1-.407-.1l10.582-2A.5.5,0,0,1,2169.709,7182.775Z" fill="#cacaca"/>
        <path id="Trazado_12337" data-name="Trazado 12337" d="M2164.813,7181.332a.461.461,0,1,1-.538-.368A.461.461,0,0,1,2164.813,7181.332Z" fill="#fff"/>
        <path id="Trazado_12338" data-name="Trazado 12338" d="M2166.939,7186.179a1.65,1.65,0,1,1-1.927-1.314A1.65,1.65,0,0,1,2166.939,7186.179Z" fill="#c42208"/>
        <rect id="Rectángulo_2299" data-name="Rectángulo 2299" width="0.559" height="2.348" transform="translate(2164.826 7185.384) rotate(-10.68)" fill="#fff"/>
        <rect id="Rectángulo_2300" data-name="Rectángulo 2300" width="2.348" height="0.559" transform="translate(2164.112 7186.429) rotate(-10.707)" fill="#fff"/>
        <rect id="Rectángulo_2301" data-name="Rectángulo 2301" width="11.154" height="1.09" transform="translate(2158.61 7191.637) rotate(-10.706)" fill="#f1f1f1"/>
        <rect id="Rectángulo_2302" data-name="Rectángulo 2302" width="2.81" height="1.09" transform="matrix(0.983, -0.186, 0.186, 0.983, 2159.545, 7196.582)" fill="#f1f1f1"/>
        <rect id="Rectángulo_2303" data-name="Rectángulo 2303" width="7.59" height="1.09" transform="translate(2163.047 7195.919) rotate(-10.706)" fill="#f1f1f1"/>
        <rect id="Rectángulo_2304" data-name="Rectángulo 2304" width="2.65" height="3.355" transform="matrix(0.983, -0.186, 0.186, 0.983, 2170.983, 7188.146)" fill="#6aa339"/>
        <rect id="Rectángulo_2305" data-name="Rectángulo 2305" width="2.097" height="2.851" transform="matrix(0.983, -0.186, 0.186, 0.983, 2171.302, 7188.342)" fill="#fff"/>
        <path id="Trazado_12339" data-name="Trazado 12339" d="M2172.635,7190.332l-.1.195-.832-.74.348-.066Z" fill="#6aa339"/>
        <path id="Trazado_12340" data-name="Trazado 12340" d="M2172.531,7190.527l-.164-.146.655-1.415.374-.07Z" fill="#6aa339"/>
        <rect id="Rectángulo_2306" data-name="Rectángulo 2306" width="2.65" height="3.354" transform="translate(2171.918 7193.09) rotate(-10.708)" fill="#6aa339"/>
        <rect id="Rectángulo_2307" data-name="Rectángulo 2307" width="2.097" height="2.852" transform="translate(2172.237 7193.286) rotate(-10.704)" fill="#fff"/>
        <path id="Trazado_12341" data-name="Trazado 12341" d="M2173.57,7195.276l-.1.195-.832-.74.349-.066Z" fill="#6aa339"/>
        <path id="Trazado_12342" data-name="Trazado 12342" d="M2173.466,7195.471l-.165-.146.655-1.415.374-.071Z" fill="#6aa339"/>
        <path id="Trazado_12343" data-name="Trazado 12343" d="M2173.784,7195.551c-.27-2.1,8.063-2.161,10.84-3.7,3.4-1.852,6.481-4.938,9.259-7.407.386-.386.88-.81,1.436-1.267a14.89,14.89,0,0,0,.416,1.884,20.433,20.433,0,0,0,3.082,5.915c-2.331,1.231-4.916,2.354-7.712,3.653-3.7,1.543-7.1,4.938-10.493,6.481a11.65,11.65,0,0,1-3.731.83c-.41-.012-.169,0-.516,0-.317,0-.24.035-.451-.1-.136-.09-.134-.413-.2-.608.095-.132.184-.269.264-.407a1.524,1.524,0,0,0-.449.206,2.781,2.781,0,0,1-.645-.386,2.657,2.657,0,0,1-.167-.708l-.014-.052a.564.564,0,0,0,.091-.07c.155-.148.354-.238.515-.373a5.161,5.161,0,0,0-.678.151c-.1-.184-.359-.412-.331-.592a3.879,3.879,0,0,0,.059-.584,1.57,1.57,0,0,0,.185-.087,1.346,1.346,0,0,0,.379-.277c-.213.015-.433.09-.649.118-.17-.271-.517-.651-.309-.947.472-.674,2.372-1.637,3.251-2.282C2175.983,7195.551,2174.575,7196.033,2173.784,7195.551Z" fill="#f0c896"/>
        <rect id="Rectángulo_2308" data-name="Rectángulo 2308" width="1.439" height="46.65" transform="translate(2180.783 7148.352)" fill="#4e4e4e"/>
        <rect id="Rectángulo_2309" data-name="Rectángulo 2309" width="32.611" height="1.5" transform="translate(2138.042 7205.13)" fill="#4e4e4e"/>
        <path id="Trazado_12344" data-name="Trazado 12344" d="M2182.28,7195h-1.5a10.127,10.127,0,0,1-10.128,10.128v1.5A11.629,11.629,0,0,0,2182.28,7195Z" fill="#4e4e4e"/>
        <g id="Grupo_2300" data-name="Grupo 2300">
          <rect id="Rectángulo_2310" data-name="Rectángulo 2310" width="7.421" height="11.928" rx="0.311" transform="translate(2186.484 7163.234)" fill="#aed6f8"/>
          <path id="Trazado_12345" data-name="Trazado 12345" d="M2193.614,7164.383h-6.838v4.534l6.838-3.117Z" fill="#fff"/>
          <path id="Trazado_12346" data-name="Trazado 12346" d="M2186.776,7174.8h6.838v-8.012l-6.838,3.118Z" fill="#fff"/>
          <path id="Trazado_12347" data-name="Trazado 12347" d="M2186.776,7169.513v.389l6.838-3.118v-.389Z" fill="#fff"/>
          <path id="Trazado_12348" data-name="Trazado 12348" d="M2193.614,7165.8l-6.838,3.117v.6l6.838-3.117Z" fill="#fff"/>
          <path id="Trazado_12349" data-name="Trazado 12349" d="M2190.894,7163.532a.1.1,0,0,1-.1.1h-1.2a.1.1,0,0,1-.1-.1h0a.1.1,0,0,1,.1-.1h1.2a.1.1,0,0,1,.1.1Z" fill="#979797"/>
          <rect id="Rectángulo_2311" data-name="Rectángulo 2311" width="0.926" height="0.373" transform="translate(2189.732 7161.409)" fill="#cacaca"/>
          <rect id="Rectángulo_2312" data-name="Rectángulo 2312" width="0.779" height="0.63" transform="translate(2189.805 7162.901)" fill="#e3e3e3"/>
          <path id="Trazado_12350" data-name="Trazado 12350" d="M2190.616,7161.477a.022.022,0,0,1-.022.022h-.8a.022.022,0,0,1-.022-.022h0a.022.022,0,0,1,.022-.023h.8a.022.022,0,0,1,.022.023Z" fill="#e3e3e3"/>
          <path id="Rectángulo_2313" data-name="Rectángulo 2313" d="M.232,0H.695A.232.232,0,0,1,.926.232V1.351a.232.232,0,0,1-.232.232H.231A.231.231,0,0,1,0,1.351V.232A.232.232,0,0,1,.232,0Z" transform="translate(2189.732 7161.551)" fill="#f1f1f1"/>
          <rect id="Rectángulo_2314" data-name="Rectángulo 2314" width="4.603" height="0.607" transform="translate(2187.353 7167.656)" fill="#f1f1f1"/>
          <rect id="Rectángulo_2315" data-name="Rectángulo 2315" width="5.357" height="0.607" transform="translate(2187.353 7168.632)" fill="#f1f1f1"/>
        </g>
      </g>
      <path id="Trazado_12351" data-name="Trazado 12351" d="M2356.921,7322.659c0,3.545-18.2,6.419-40.654,6.419s-40.654-2.874-40.654-6.419,18.2-6.419,40.654-6.419S2356.921,7319.114,2356.921,7322.659Z" fill="#a2b5c4"/>
      <g id="Grupo_2302" data-name="Grupo 2302">
        <rect id="Rectángulo_2316" data-name="Rectángulo 2316" width="64.458" height="64.074" transform="translate(2283.892 7256.406)" fill="#e4e7f1"/>
        <rect id="Rectángulo_2317" data-name="Rectángulo 2317" width="64.458" height="5.028" transform="translate(2283.892 7256.406)" fill="#5b4c3e"/>
        <path id="Trazado_12352" data-name="Trazado 12352" d="M2325.86,7263.513c0,2.836-4.36,5.135-9.739,5.135s-9.738-2.3-9.738-5.135h-22.491v16.378h64.458v-16.378Z" fill="#5b4c3e"/>
        <path id="Trazado_12353" data-name="Trazado 12353" d="M2325.86,7282.525c0,2.836-4.36,5.135-9.739,5.135s-9.738-2.3-9.738-5.135h-22.491V7298.9h64.458v-16.379Z" fill="#5b4c3e"/>
        <path id="Trazado_12354" data-name="Trazado 12354" d="M2325.86,7301.686c0,2.836-4.36,5.135-9.739,5.135s-9.738-2.3-9.738-5.135h-22.491v16.378h64.458v-16.378Z" fill="#5b4c3e"/>
      </g>
      <g id="Grupo_2311" data-name="Grupo 2311">
        <g id="Grupo_2303" data-name="Grupo 2303">
          <path id="Trazado_12355" data-name="Trazado 12355" d="M2324.564,7255.066a.534.534,0,0,1-.534-.534v-5.6a.534.534,0,0,1,.534-.534h2.034v-3.639h-3.113v11.683h3.113v-1.375Z" fill="#6f4325"/>
          <path id="Trazado_12356" data-name="Trazado 12356" d="M2329.706,7244.758H2326.6v3.639h2.034a.534.534,0,0,1,.533.534v5.6a.533.533,0,0,1-.533.534H2326.6v1.375h3.112v-11.709h0v.026Z" fill="#643b23"/>
          <path id="Trazado_12357" data-name="Trazado 12357" d="M2323.485,7244.732v0Z" fill="#6f4325"/>
          <path id="Trazado_12358" data-name="Trazado 12358" d="M2324.03,7248.931v5.6a.534.534,0,0,0,.534.534h2.034V7248.4h-2.034A.534.534,0,0,0,2324.03,7248.931Z" fill="#f4d97b"/>
          <path id="Trazado_12359" data-name="Trazado 12359" d="M2328.632,7255.066a.533.533,0,0,0,.533-.534v-5.6a.534.534,0,0,0-.533-.534H2326.6v6.669Z" fill="#efc53f"/>
          <path id="Trazado_12360" data-name="Trazado 12360" d="M2329.511,7241.857H2326.6v2.057h2.913a.447.447,0,0,0,.49-.383v-1.291A.447.447,0,0,0,2329.511,7241.857Z" fill="#e3e3e3"/>
          <path id="Trazado_12361" data-name="Trazado 12361" d="M2326.6,7241.857h-2.913a.447.447,0,0,0-.491.383v1.291a.447.447,0,0,0,.491.383h2.913Z" fill="#f1f1f1"/>
          <path id="Trazado_12362" data-name="Trazado 12362" d="M2329.029,7241.857l-1.738-4.8c-.191-.527-.442-.79-.693-.79v5.594Z" fill="#cacaca"/>
          <path id="Trazado_12363" data-name="Trazado 12363" d="M2326.6,7236.263c-.252,0-.5.263-.693.79l-1.739,4.8h2.432Z" fill="#e3e3e3"/>
          <path id="Trazado_12364" data-name="Trazado 12364" d="M2326.6,7243.914h-2.37a.786.786,0,0,0-.742.818h3.112Z" fill="#6f4325"/>
          <path id="Trazado_12365" data-name="Trazado 12365" d="M2326.6,7244.732h3.108a.787.787,0,0,0-.743-.818H2326.6Z" fill="#643b23"/>
          <rect id="Rectángulo_2318" data-name="Rectángulo 2318" width="3.109" height="0.026" transform="translate(2326.598 7244.732)" fill="#6f4325"/>
          <rect id="Rectángulo_2319" data-name="Rectángulo 2319" width="3.112" height="0.026" transform="translate(2323.485 7244.732)" fill="#6f4325"/>
          <path id="Trazado_12366" data-name="Trazado 12366" d="M2325.041,7255.225a.326.326,0,0,1-.326.327h0a.327.327,0,0,1-.326-.327v-8.684a.326.326,0,0,1,.326-.327h0a.326.326,0,0,1,.326.327Z" fill="#fff" opacity="0.46"/>
        </g>
        <g id="Grupo_2304" data-name="Grupo 2304">
          <rect id="Rectángulo_2320" data-name="Rectángulo 2320" width="4.68" height="4.539" transform="translate(2306.64 7242.753)" fill="#9ed69c"/>
          <path id="Trazado_12367" data-name="Trazado 12367" d="M2306.64,7253.385v1.408a1.552,1.552,0,0,0,1.548,1.548h3.131v-2.956Z" fill="#9ed69c"/>
          <path id="Trazado_12368" data-name="Trazado 12368" d="M2311.319,7256.341h3.131a1.553,1.553,0,0,0,1.549-1.548v-1.408h-4.68Z" fill="#76bf6b"/>
          <rect id="Rectángulo_2321" data-name="Rectángulo 2321" width="4.679" height="4.539" transform="translate(2311.319 7242.753)" fill="#76bf6a"/>
          <rect id="Rectángulo_2322" data-name="Rectángulo 2322" width="4.68" height="6.093" transform="translate(2306.64 7247.292)" fill="#f4d979"/>
          <rect id="Rectángulo_2323" data-name="Rectángulo 2323" width="4.679" height="6.093" transform="translate(2311.319 7247.292)" fill="#efc53f"/>
          <path id="Trazado_12369" data-name="Trazado 12369" d="M2308.98,7254.45c0,.228-.277.413-.617.413h-.309c-.34,0-.616-.185-.616-.413v-9.683c0-.229.276-.413.616-.413h.309c.34,0,.617.184.617.413Z" fill="#fff" opacity="0.5"/>
          <path id="Trazado_12370" data-name="Trazado 12370" d="M2316,7242.754v-.9a.413.413,0,0,0-.413-.413h-4.267v1.308Z" fill="#76bf6a"/>
          <path id="Trazado_12371" data-name="Trazado 12371" d="M2311.319,7241.446h-4.266a.413.413,0,0,0-.413.413v.9h4.679Z" fill="#9ed69c"/>
          <path id="Trazado_12372" data-name="Trazado 12372" d="M2311.319,7240.139h-3.581a.413.413,0,0,0-.413.412v.9h3.994Z" fill="#f1f1f1"/>
          <path id="Trazado_12373" data-name="Trazado 12373" d="M2315.313,7241.446v-.9a.412.412,0,0,0-.413-.412h-3.581v1.307Z" fill="#e3e3e3"/>
          <path id="Trazado_12374" data-name="Trazado 12374" d="M2307.07,7236.5c-.237,0-.43.119-.43.265v3.107c0,.146.193.265.43.265h4.249V7236.5Z" fill="#fff"/>
          <path id="Trazado_12375" data-name="Trazado 12375" d="M2315.568,7236.5h-4.249v3.637h4.249c.238,0,.431-.119.431-.265v-3.107C2316,7236.621,2315.806,7236.5,2315.568,7236.5Z" fill="#f1f1f1"/>
        </g>
        <g id="Grupo_2306" data-name="Grupo 2306">
          <path id="Rectángulo_2324" data-name="Rectángulo 2324" d="M.962,0H4.92a.964.964,0,0,1,.964.964v.054a.962.962,0,0,1-.962.962H.964A.964.964,0,0,1,0,1.016V.962A.962.962,0,0,1,.962,0Z" transform="matrix(0.003, -1, 1, 0.003, 2295.21, 7245.346)" fill="url(#linear-gradient)"/>
          <path id="Trazado_12376" data-name="Trazado 12376" d="M2297.13,7240.5a.909.909,0,0,0-.879-.937h-.049a.908.908,0,0,0-.884.932l-.006,1.913,1.812.006Z" fill="#5da3af"/>
          <path id="Trazado_12377" data-name="Trazado 12377" d="M2297.118,7244.337l.006-1.927-1.812-.006-.005,1.928a.909.909,0,0,0,.878.937h.049A.909.909,0,0,0,2297.118,7244.337Z" fill="#e8a334"/>
          <path id="Trazado_12378" data-name="Trazado 12378" d="M2296.854,7244.522l.006-2.113h-.438l-.006,2.112c0,.163.1.295.218.295S2296.853,7244.684,2296.854,7244.522Z" fill="#ebb656" opacity="0.71"/>
          <path id="Trazado_12379" data-name="Trazado 12379" d="M2296.866,7240.3c0-.162-.1-.295-.218-.295s-.219.131-.22.294l-.006,2.113h.438Z" fill="#70b6be" opacity="0.71"/>
          <path id="Rectángulo_2325" data-name="Rectángulo 2325" d="M.964,0H4.92a.964.964,0,0,1,.964.964v.053a.962.962,0,0,1-.962.962H.963A.963.963,0,0,1,0,1.016V.964A.964.964,0,0,1,.964,0Z" transform="translate(2295.183 7254.469) rotate(-89.834)" fill="url(#linear-gradient-2)"/>
          <path id="Trazado_12380" data-name="Trazado 12380" d="M2297.1,7249.619a.909.909,0,0,0-.879-.937h-.049a.907.907,0,0,0-.884.931l-.006,1.914,1.812.005Z" fill="#5da3af"/>
          <path id="Trazado_12381" data-name="Trazado 12381" d="M2297.092,7253.46l0-1.928-1.812-.005,0,1.928a.909.909,0,0,0,.878.937h.049A.91.91,0,0,0,2297.092,7253.46Z" fill="#e8a334"/>
          <path id="Trazado_12382" data-name="Trazado 12382" d="M2296.827,7253.645l.006-2.113-.438,0-.006,2.113c0,.163.1.295.218.295S2296.826,7253.807,2296.827,7253.645Z" fill="#ebb656" opacity="0.71"/>
          <path id="Trazado_12383" data-name="Trazado 12383" d="M2296.839,7249.419c0-.162-.1-.294-.218-.295s-.219.131-.22.294l-.006,2.112.438,0Z" fill="#70b6be" opacity="0.71"/>
          <path id="Trazado_12384" data-name="Trazado 12384" d="M2293.284,7245.34a.963.963,0,0,1-.96-.965l.012-3.959a.963.963,0,0,1,.966-.96h.053a.962.962,0,0,1,.96.965l-.012,3.958a.962.962,0,0,1-.965.96Z" fill="url(#linear-gradient-3)"/>
          <path id="Trazado_12385" data-name="Trazado 12385" d="M2294.241,7240.487a.909.909,0,0,0-.878-.937h-.049a.91.91,0,0,0-.885.932l0,1.914,1.812,0Z" fill="#5da3af"/>
          <path id="Trazado_12386" data-name="Trazado 12386" d="M2294.23,7244.329l.006-1.928-1.812,0-.006,1.927a.909.909,0,0,0,.879.937h.049A.907.907,0,0,0,2294.23,7244.329Z" fill="#e8a334"/>
          <path id="Trazado_12387" data-name="Trazado 12387" d="M2293.965,7244.513l.007-2.112-.438,0-.007,2.113c0,.162.1.294.219.295S2293.965,7244.676,2293.965,7244.513Z" fill="#ebb656" opacity="0.71"/>
          <path id="Trazado_12388" data-name="Trazado 12388" d="M2293.978,7240.287c0-.162-.1-.294-.218-.294s-.22.131-.22.293l-.006,2.113.438,0Z" fill="#70b6be" opacity="0.71"/>
          <path id="Trazado_12389" data-name="Trazado 12389" d="M2293.258,7254.463a.962.962,0,0,1-.96-.965l.011-3.959a.964.964,0,0,1,.966-.96h.053a.963.963,0,0,1,.96.966l-.011,3.958a.963.963,0,0,1-.966.96Z" fill="url(#linear-gradient-4)"/>
          <path id="Trazado_12390" data-name="Trazado 12390" d="M2294.215,7249.61a.91.91,0,0,0-.879-.937h-.049a.909.909,0,0,0-.884.932l-.006,1.914,1.812,0Z" fill="#5da3af"/>
          <path id="Trazado_12391" data-name="Trazado 12391" d="M2294.2,7253.451l.006-1.927-1.812,0-.006,1.927a.909.909,0,0,0,.879.937h.049A.908.908,0,0,0,2294.2,7253.451Z" fill="#e8a334"/>
          <path id="Trazado_12392" data-name="Trazado 12392" d="M2293.939,7253.636l.006-2.113h-.438l-.006,2.113c0,.162.1.294.218.3S2293.938,7253.8,2293.939,7253.636Z" fill="#ebb656" opacity="0.71"/>
          <path id="Trazado_12393" data-name="Trazado 12393" d="M2293.951,7249.41c0-.162-.1-.294-.218-.294s-.219.131-.22.293l-.006,2.113h.438Z" fill="#70b6be" opacity="0.71"/>
          <path id="Trazado_12394" data-name="Trazado 12394" d="M2290.316,7245.332a.963.963,0,0,1-.96-.966l.011-3.958a.962.962,0,0,1,.966-.96h.054a.962.962,0,0,1,.959.966l-.011,3.958a.964.964,0,0,1-.966.96Z" fill="url(#linear-gradient-5)"/>
          <path id="Trazado_12395" data-name="Trazado 12395" d="M2291.273,7240.479a.909.909,0,0,0-.879-.937h-.049a.907.907,0,0,0-.884.931l-.006,1.914,1.812.006Z" fill="#5da3af"/>
          <path id="Trazado_12396" data-name="Trazado 12396" d="M2291.261,7244.32l.006-1.927-1.812-.006-.006,1.928a.911.911,0,0,0,.879.937h.049A.909.909,0,0,0,2291.261,7244.32Z" fill="#e8a334"/>
          <path id="Trazado_12397" data-name="Trazado 12397" d="M2291,7244.5l.006-2.113-.438,0-.006,2.113c0,.163.1.295.218.295S2291,7244.667,2291,7244.5Z" fill="#ebb656" opacity="0.71"/>
          <path id="Trazado_12398" data-name="Trazado 12398" d="M2291.009,7240.279c0-.163-.1-.295-.218-.295s-.219.131-.22.293l-.006,2.113.438,0Z" fill="#70b6be" opacity="0.71"/>
          <path id="Trazado_12399" data-name="Trazado 12399" d="M2290.289,7254.454a.962.962,0,0,1-.96-.965l.012-3.958a.961.961,0,0,1,.965-.96h.054a.963.963,0,0,1,.96.965l-.012,3.959a.964.964,0,0,1-.966.96Z" fill="url(#linear-gradient-6)"/>
          <path id="Trazado_12400" data-name="Trazado 12400" d="M2291.246,7249.6a.909.909,0,0,0-.879-.936h-.049a.909.909,0,0,0-.884.932l-.006,1.914,1.812.005Z" fill="#5da3af"/>
          <path id="Trazado_12401" data-name="Trazado 12401" d="M2291.234,7253.443l.006-1.928-1.812-.005,0,1.927a.908.908,0,0,0,.878.937h.049A.909.909,0,0,0,2291.234,7253.443Z" fill="#e8a334"/>
          <path id="Trazado_12402" data-name="Trazado 12402" d="M2290.97,7253.627l.006-2.113h-.438l-.006,2.113c0,.163.1.295.218.295S2290.969,7253.79,2290.97,7253.627Z" fill="#ebb656" opacity="0.71"/>
          <path id="Trazado_12403" data-name="Trazado 12403" d="M2290.982,7249.4c0-.163-.1-.295-.218-.295s-.219.131-.219.293l-.007,2.113h.438Z" fill="#70b6be" opacity="0.71"/>
          <g id="Grupo_2305" data-name="Grupo 2305">
            <path id="Trazado_12404" data-name="Trazado 12404" d="M2295.845,7239.106h-5.887a.925.925,0,0,0-.926.926v2.933h6.813Z" fill="#f4d797"/>
            <path id="Trazado_12405" data-name="Trazado 12405" d="M2301.733,7239.106h-5.888v3.859h6.814v-2.933A.925.925,0,0,0,2301.733,7239.106Z" fill="#e6c88c"/>
            <path id="Trazado_12406" data-name="Trazado 12406" d="M2289.032,7252.382v2.933a.926.926,0,0,0,.926.926h5.887v-3.859Z" fill="#f4d797"/>
            <path id="Trazado_12407" data-name="Trazado 12407" d="M2295.845,7256.241h5.888a.926.926,0,0,0,.926-.926v-2.933h-6.814Z" fill="#e6c88c"/>
            <rect id="Rectángulo_2326" data-name="Rectángulo 2326" width="4.605" height="1.304" transform="translate(2291.24 7237.801)" fill="#f1f1f1"/>
            <rect id="Rectángulo_2327" data-name="Rectángulo 2327" width="4.606" height="1.304" transform="translate(2295.845 7237.801)" fill="#e3e3e3"/>
            <path id="Trazado_12408" data-name="Trazado 12408" d="M2295.845,7237.8h5.738v-1.6h-5.738Z" fill="#f1f1f1"/>
            <path id="Trazado_12409" data-name="Trazado 12409" d="M2295.845,7236.206h-5.738v1.6h5.738Z" fill="#fff"/>
            <path id="Trazado_12410" data-name="Trazado 12410" d="M2295.845,7234.817h-4.811a.926.926,0,0,0-.927.926v.463h5.738Z" fill="#fff"/>
            <path id="Trazado_12411" data-name="Trazado 12411" d="M2301.583,7236.206v-.463a.926.926,0,0,0-.926-.926h-4.812v1.389Z" fill="#f1f1f1"/>
            <rect id="Rectángulo_2328" data-name="Rectángulo 2328" width="6.814" height="7.848" transform="translate(2289.032 7243.75)" fill="#e79c94"/>
            <rect id="Rectángulo_2329" data-name="Rectángulo 2329" width="6.814" height="7.848" transform="translate(2295.845 7243.75)" fill="#dc908c"/>
            <rect id="Rectángulo_2330" data-name="Rectángulo 2330" width="6.814" height="0.785" transform="translate(2295.845 7242.965)" fill="#dc908c"/>
            <rect id="Rectángulo_2331" data-name="Rectángulo 2331" width="6.814" height="0.785" transform="translate(2289.032 7242.965)" fill="#e79c94"/>
            <rect id="Rectángulo_2332" data-name="Rectángulo 2332" width="6.814" height="0.785" transform="translate(2289.032 7251.597)" fill="#e79c94"/>
            <rect id="Rectángulo_2333" data-name="Rectángulo 2333" width="6.814" height="0.785" transform="translate(2295.845 7251.597)" fill="#dc908c"/>
            <path id="Trazado_12412" data-name="Trazado 12412" d="M2292.361,7253.96c0,.194-.222.351-.5.351H2290.8c-.273,0-.495-.157-.495-.351v-11.812c0-.194.222-.352.495-.352h1.061c.274,0,.5.158.5.352Z" fill="#fff" opacity="0.5"/>
          </g>
        </g>
        <g id="Grupo_2307" data-name="Grupo 2307">
          <path id="Trazado_12413" data-name="Trazado 12413" d="M2315.705,7255.142l.031-6.745,3.574.017v-6.931l-2.368-.011v0a1.893,1.893,0,0,0-1.547,1.852l-.06,13.122,3.975.018v-1.3Z" fill="#e9f6f3"/>
          <path id="Trazado_12414" data-name="Trazado 12414" d="M2319.31,7241.483v6.931l3.6.016-.031,6.745-3.573-.016v1.3l3.914.017.06-13.121a1.892,1.892,0,0,0-1.609-1.88v.016Z" fill="#e2f3ef"/>
          <path id="Trazado_12415" data-name="Trazado 12415" d="M2319.31,7241.446v-.539l-2.365-.011,0,.573a1.857,1.857,0,0,1,.356-.033Z" fill="#e9f6f3"/>
          <path id="Trazado_12416" data-name="Trazado 12416" d="M2319.31,7241.446l2.089.009a1.9,1.9,0,0,1,.276.022l0-.56-.606,0-1.761-.008Z" fill="#e2f3ef"/>
          <path id="Trazado_12417" data-name="Trazado 12417" d="M2319.31,7241.483v-.037l-2.012-.01a1.857,1.857,0,0,0-.356.033v0Z" fill="#dcf0eb"/>
          <path id="Trazado_12418" data-name="Trazado 12418" d="M2319.31,7241.446v.037l2.365.01v-.016a1.9,1.9,0,0,0-.276-.022Z" fill="#dcf0eb"/>
          <path id="Trazado_12419" data-name="Trazado 12419" d="M2323.492,7240.275l-2.812-.013h0l-1.37-.006v.651l1.761.008,2.418.011a.325.325,0,0,0,0-.651Z" fill="#e3e3e3"/>
          <path id="Trazado_12420" data-name="Trazado 12420" d="M2319.31,7240.907v-.651l-1.371-.006h0l-2.809-.013a.326.326,0,0,0,0,.651l1.818.008h0Z" fill="#f1f1f1"/>
          <path id="Trazado_12421" data-name="Trazado 12421" d="M2319.31,7240.907l-2.365-.011h0l2.365.011Z" fill="#f1f1f1"/>
          <path id="Trazado_12422" data-name="Trazado 12422" d="M2319.31,7240.907l1.761.008-1.761-.008Z" fill="#f1f1f1"/>
          <path id="Trazado_12423" data-name="Trazado 12423" d="M2319.31,7234.655l-.655,0-.715,5.6,1.37.006Z" fill="#e3e3e3"/>
          <path id="Trazado_12424" data-name="Trazado 12424" d="M2320.68,7240.262l-.684-5.6-.686,0v5.6Z" fill="#cacaca"/>
          <path id="Trazado_12425" data-name="Trazado 12425" d="M2319.31,7240.256l1.37.006h0l-1.37-.006Z" fill="#f1f1f1"/>
          <path id="Trazado_12426" data-name="Trazado 12426" d="M2319.31,7240.256h0l-1.37-.006h0Z" fill="#f1f1f1"/>
          <path id="Trazado_12427" data-name="Trazado 12427" d="M2322.883,7255.175l.031-6.745-3.6-.016v6.745Z" fill="#abb9e3"/>
          <path id="Trazado_12428" data-name="Trazado 12428" d="M2315.705,7255.142l3.6.017v-6.745l-3.573-.017Z" fill="#bcc8ea"/>
          <path id="Trazado_12429" data-name="Trazado 12429" d="M2317.757,7255.063a.539.539,0,0,1-.59.464h0a.538.538,0,0,1-.589-.464v-10.318a.538.538,0,0,1,.589-.465h0a.539.539,0,0,1,.59.465Z" fill="#fff" opacity="0.5"/>
        </g>
        <g id="Grupo_2308" data-name="Grupo 2308">
          <rect id="Rectángulo_2334" data-name="Rectángulo 2334" width="6.394" height="6.201" transform="translate(2328.839 7238.011)" fill="#c7704f"/>
          <path id="Trazado_12430" data-name="Trazado 12430" d="M2328.839,7252.537v1.923a2.122,2.122,0,0,0,2.116,2.116h4.278v-4.039Z" fill="#c7704f"/>
          <path id="Trazado_12431" data-name="Trazado 12431" d="M2335.233,7256.576h4.278a2.122,2.122,0,0,0,2.115-2.116v-1.923h-6.393Z" fill="#bd542d"/>
          <rect id="Rectángulo_2335" data-name="Rectángulo 2335" width="6.393" height="6.201" transform="translate(2335.233 7238.011)" fill="#bd542d"/>
          <rect id="Rectángulo_2336" data-name="Rectángulo 2336" width="6.394" height="8.325" transform="translate(2328.839 7244.212)" fill="#f1f1f1"/>
          <rect id="Rectángulo_2337" data-name="Rectángulo 2337" width="6.393" height="8.325" transform="translate(2335.233 7244.212)" fill="#e3e3e3"/>
          <rect id="Rectángulo_2338" data-name="Rectángulo 2338" width="1.41" height="14.359" rx="0.564" transform="translate(2329.878 7240.197)" fill="#fff" opacity="0.55"/>
          <rect id="Rectángulo_2339" data-name="Rectángulo 2339" width="7.193" height="3.455" transform="translate(2328.04 7234.979)" fill="#fff"/>
          <rect id="Rectángulo_2340" data-name="Rectángulo 2340" width="7.192" height="3.455" transform="translate(2335.233 7234.979)" fill="#f1f1f1"/>
        </g>
        <g id="Grupo_2309" data-name="Grupo 2309">
          <path id="Trazado_12432" data-name="Trazado 12432" d="M2302.428,7251.034a.463.463,0,0,1-.463-.462v-1.388a.462.462,0,0,1,.463-.462h2.069v-4.087a1.451,1.451,0,0,1-1.011-.463l-1.439,1a.989.989,0,0,0-.436.916v9.754a.435.435,0,0,0,.436.435h2.45v-5.243Z" fill="#f1f1f1"/>
          <path id="Trazado_12433" data-name="Trazado 12433" d="M2306.946,7245.172l-1.438-1a1.453,1.453,0,0,1-1.011.463v4.087h2.069a.462.462,0,0,1,.462.462v1.388a.462.462,0,0,1-.462.462H2304.5v5.243h2.449a.436.436,0,0,0,.437-.435v-9.926A.836.836,0,0,0,2306.946,7245.172Z" fill="#e3e3e3"/>
          <path id="Trazado_12434" data-name="Trazado 12434" d="M2305.508,7244.172a2.365,2.365,0,0,0,.685-1.593c0-.936-.76-3.366-1.7-3.366v4.257Z" fill="#e3e3e3"/>
          <path id="Trazado_12435" data-name="Trazado 12435" d="M2304.5,7239.213c-.937,0-1.7,2.43-1.7,3.366a2.361,2.361,0,0,0,.686,1.593l1.011-.7Z" fill="#f1f1f1"/>
          <path id="Trazado_12436" data-name="Trazado 12436" d="M2304.5,7244.635a1.453,1.453,0,0,0,1.011-.463l-1.011-.7Z" fill="#e3e3e3"/>
          <path id="Trazado_12437" data-name="Trazado 12437" d="M2304.5,7243.47l-1.011.7a1.451,1.451,0,0,0,1.011.463Z" fill="#f1f1f1"/>
          <path id="Trazado_12438" data-name="Trazado 12438" d="M2301.965,7249.184v1.388a.463.463,0,0,0,.463.462h2.069v-2.312h-2.069A.462.462,0,0,0,2301.965,7249.184Z" fill="#c7704f"/>
          <path id="Trazado_12439" data-name="Trazado 12439" d="M2306.566,7251.034a.462.462,0,0,0,.462-.462v-1.388a.462.462,0,0,0-.462-.462H2304.5v2.312Z" fill="#bd542d"/>
          <path id="Trazado_12440" data-name="Trazado 12440" d="M2303.379,7255.049a.424.424,0,0,1-.424.424h0a.424.424,0,0,1-.424-.424v-7.71a.424.424,0,0,1,.424-.424h0a.424.424,0,0,1,.424.424Z" fill="#fff" opacity="0.5"/>
        </g>
        <g id="Grupo_2310" data-name="Grupo 2310">
          <path id="Trazado_12441" data-name="Trazado 12441" d="M2312.653,7253.551a.682.682,0,0,1-.682-.682v-8.692a.681.681,0,0,1,.682-.682h2.173v-6.908h-2.884a.719.719,0,0,0-.752.682v18.521a.719.719,0,0,0,.752.682h2.884v-2.921Z" fill="#e8e8e8"/>
          <path id="Trazado_12442" data-name="Trazado 12442" d="M2317.71,7236.587h-2.884v6.908H2317a.681.681,0,0,1,.681.682v8.692a.682.682,0,0,1-.681.682h-2.173v2.921h2.884a.72.72,0,0,0,.752-.682v-18.521A.72.72,0,0,0,2317.71,7236.587Z" fill="#e0dfdc"/>
          <path id="Trazado_12443" data-name="Trazado 12443" d="M2317,7253.551a.682.682,0,0,0,.681-.682v-8.692a.681.681,0,0,0-.681-.682h-2.173v10.056Z" fill="#abb9e3"/>
          <path id="Trazado_12444" data-name="Trazado 12444" d="M2311.971,7244.177v8.692a.682.682,0,0,0,.682.682h2.173V7243.5h-2.173A.681.681,0,0,0,2311.971,7244.177Z" fill="#bcc8ea"/>
          <path id="Trazado_12445" data-name="Trazado 12445" d="M2313.4,7253.211c0,.515-.252.932-.564.932h0c-.312,0-.565-.417-.565-.932v-11.36c0-.515.253-.932.565-.932h0c.312,0,.564.417.564.932Z" fill="#fff" opacity="0.5"/>
          <path id="Trazado_12446" data-name="Trazado 12446" d="M2310.948,7235.053a.682.682,0,0,0-.682.682v1.363a.682.682,0,0,0,.682.682h3.878v-2.727Z" fill="#cacaca"/>
          <path id="Trazado_12447" data-name="Trazado 12447" d="M2318.7,7235.053h-3.877v2.727h3.877a.681.681,0,0,0,.682-.682v-1.363A.682.682,0,0,0,2318.7,7235.053Z" fill="#b0b0b0"/>
          <rect id="Rectángulo_2341" data-name="Rectángulo 2341" width="2.159" height="0.682" transform="translate(2312.667 7234.372)" fill="#e8e8e8"/>
          <rect id="Rectángulo_2342" data-name="Rectángulo 2342" width="2.159" height="0.682" transform="translate(2314.826 7234.372)" fill="#e0dfdc"/>
          <rect id="Rectángulo_2343" data-name="Rectángulo 2343" width="3.529" height="5.909" transform="translate(2311.296 7228.463)" fill="#f1f1f1"/>
          <rect id="Rectángulo_2344" data-name="Rectángulo 2344" width="3.53" height="5.909" transform="translate(2314.826 7228.463)" fill="#e3e3e3"/>
          <rect id="Rectángulo_2345" data-name="Rectángulo 2345" width="11.06" height="1.041" transform="translate(2300.236 7230.66)" fill="#f1f1f1"/>
          <rect id="Rectángulo_2346" data-name="Rectángulo 2346" width="3.869" height="1.741" transform="translate(2298.148 7230.31)" fill="#e3e3e3"/>
        </g>
      </g>
      <g id="Grupo_2313" data-name="Grupo 2313">
        <path id="Trazado_12448" data-name="Trazado 12448" d="M2060.523,7233.285c-10.542-1.647-14.168,2.368-22.395-5.4-5.028-4.571-15.54-32.533-3.2-37.1,5.028-2.285,13.712,5.027,16.454,9.141,3.9,5.854,7.843,12.481,11.957,16.137C2071.566,7223.37,2075.149,7235.57,2060.523,7233.285Z" fill="#7fa5d1"/>
        <path id="Trazado_12449" data-name="Trazado 12449" d="M2055.993,7217.517c.914,2.056.229,4.342,1.371,6.4,1.371,2.971,5.713,5.713,8.913,6.4,4.113.686,8.912-.228,13.026,0,3.2,0,10.74,1.6,13.026-.914,2.056-2.285.685-11.426.685-14.4,0-2.514.914-6.856-.685-9.141-2.286-3.2-8.684-1.143-11.884-.457-9.6,1.828-17.368,5.256-24.223,12.34Z" fill="#d8e1ef"/>
        <rect id="Rectángulo_2347" data-name="Rectángulo 2347" width="230.319" height="2.838" transform="translate(2030.192 7235.67)" fill="#e3e3e3"/>
        <rect id="Rectángulo_2348" data-name="Rectángulo 2348" width="230.319" height="9.5" transform="translate(2030.192 7238.509)" fill="#fff"/>
        <rect id="Rectángulo_2349" data-name="Rectángulo 2349" width="4.091" height="64.346" transform="translate(2030.192 7248.008)" fill="#fff"/>
        <circle id="Elipse_205" data-name="Elipse 205" cx="8.684" cy="8.684" r="8.684" transform="translate(2023.553 7303.442)" fill="#363636"/>
        <circle id="Elipse_206" data-name="Elipse 206" cx="4.113" cy="4.113" r="4.113" transform="translate(2028.124 7308.013)" fill="#666"/>
        <rect id="Rectángulo_2350" data-name="Rectángulo 2350" width="6.17" height="11.483" transform="translate(2029.152 7300.446)" fill="#fff"/>
        <path id="Trazado_12450" data-name="Trazado 12450" d="M2032.237,7315.014a3.086,3.086,0,0,0,3.086-3.085h-6.171A3.086,3.086,0,0,0,2032.237,7315.014Z" fill="#fff"/>
        <circle id="Elipse_207" data-name="Elipse 207" cx="1.314" cy="1.314" r="1.314" transform="translate(2030.923 7310.812)" fill="#666"/>
        <g id="Grupo_2312" data-name="Grupo 2312">
          <rect id="Rectángulo_2351" data-name="Rectángulo 2351" width="4.091" height="64.346" transform="translate(2256.42 7248.008)" fill="#fff"/>
          <circle id="Elipse_208" data-name="Elipse 208" cx="8.684" cy="8.684" r="8.684" transform="translate(2250.01 7303.442)" fill="#363636"/>
          <circle id="Elipse_209" data-name="Elipse 209" cx="4.113" cy="4.113" r="4.113" transform="translate(2254.581 7308.013)" fill="#666"/>
          <rect id="Rectángulo_2352" data-name="Rectángulo 2352" width="6.17" height="11.483" transform="translate(2255.609 7300.446)" fill="#fff"/>
          <path id="Trazado_12451" data-name="Trazado 12451" d="M2258.694,7315.014a3.085,3.085,0,0,0,3.085-3.085h-6.17A3.085,3.085,0,0,0,2258.694,7315.014Z" fill="#fff"/>
          <circle id="Elipse_210" data-name="Elipse 210" cx="1.314" cy="1.314" r="1.314" transform="translate(2257.38 7310.812)" fill="#666"/>
        </g>
        <rect id="Rectángulo_2353" data-name="Rectángulo 2353" width="224.182" height="3.771" transform="translate(2034.283 7290.372)" fill="#fff"/>
        <rect id="Rectángulo_2354" data-name="Rectángulo 2354" width="243.401" height="6.956" transform="translate(2024.799 7228.714)" fill="#fff"/>
        <rect id="Rectángulo_2355" data-name="Rectángulo 2355" width="5.393" height="31.994" transform="translate(2024.799 7196.721)" fill="#fff"/>
        <rect id="Rectángulo_2356" data-name="Rectángulo 2356" width="5.392" height="31.994" transform="translate(2262.807 7196.721)" fill="#fff"/>
        <path id="Trazado_12452" data-name="Trazado 12452" d="M2053.022,7232.828" fill="none" stroke="#fff" stroke-miterlimit="10" stroke-width="1"/>
        <path id="Trazado_12453" data-name="Trazado 12453" d="M2063.559,7215.9a17.275,17.275,0,0,0,3.953-6.438c-3.86.15-3.523-3.992-.7-8.572,1.689-2.4,1.309-5.947.374-6.727-3.293-3.857-8.812-6.185-12.23-9.511a6.725,6.725,0,0,1-1.471-2.267c-.569,2.818-3.777,6.047-4.863,8.15a5.67,5.67,0,0,0-.064,5.026c.744,1.2,3.2,1.5,3.543,2.8.467,1.977-2.451-.3-3.086,1.6-.512,1.374,1.251,3,2.339,3.539,1.684.771,2.585.517,3.751,1.911a23.4,23.4,0,0,1,2.23,3.607c1.148,2.4.25,5.266-1.368,7.761a8.225,8.225,0,0,1,.813,1.8C2058.831,7217.619,2062.125,7217.243,2063.559,7215.9Z" fill="#f0c896"/>
        <path id="Trazado_12454" data-name="Trazado 12454" d="M2057.338,7209.023a23.4,23.4,0,0,0-2.23-3.607c-1.166-1.394-2.067-1.14-3.751-1.911-1.088-.537-2.851-2.165-2.339-3.539.635-1.9,3.553.372,3.086-1.6-.348-1.3-2.8-1.594-3.543-2.8a5.67,5.67,0,0,1,.064-5.026c1.086-2.1,4.294-5.332,4.863-8.15-1.467-3.514-1.051-8.031-5.471-7.491-2.9.436-6.855,6.506-7.684,8.832-.625,2.653.341,5.682-.282,8.334.029,2.249-2.313,5.057-1.956,7.1.8,4.947,7.648,7.962,11.392,11.086,3.156,2.519,5.291,4.53,6.483,6.53C2057.588,7214.289,2058.486,7211.421,2057.338,7209.023Z" fill="#6f4325"/>
        <rect id="Rectángulo_2357" data-name="Rectángulo 2357" width="182.364" height="31.704" rx="1.371" transform="translate(2081.359 7200.489)" fill="#7fa5d1"/>
      </g>
    </g>
  </g>
</svg>
