<svg xmlns="http://www.w3.org/2000/svg" xmlns:xlink="http://www.w3.org/1999/xlink" width="803.117" height="314.887" viewBox="0 0 803.117 314.887">
  <defs>
    <clipPath id="clip-path">
      <rect id="Rectángulo_2465" data-name="Rectángulo 2465" width="60.327" height="137.812" transform="translate(1825.647 12319.556)" fill="none"/>
    </clipPath>
  </defs>
  <g id="Grupo_3424" data-name="Grupo 3424" transform="translate(-252.39 -12160.037)">
    <rect id="Rectángulo_2165" data-name="Rectángulo 2165" width="803.116" height="314.887" transform="translate(252.39 12160.037)" fill="#e6b54a" opacity="0.5"/>
    <g id="Grupo_2559" data-name="Grupo 2559" transform="translate(-1573.257 -9)">
      <g id="Grupo_2479" data-name="Grupo 2479">
        <rect id="Rectángulo_2454" data-name="Rectángulo 2454" width="803.111" height="264.255" transform="translate(1825.647 12193.113)" fill="#e7be5f"/>
        <g id="Grupo_2457" data-name="Grupo 2457">
          <path id="Trazado_12685" data-name="Trazado 12685" d="M1825.647,12440.987c27.379,2.333,97.491,3.352,118.143,0,4.032-2.063,2.59-7.971,0-8.439-35.209-2.3-95.194-2.906-118.143,0Z" fill="#efd698"/>
          <path id="Trazado_12686" data-name="Trazado 12686" d="M2017.676,12440.987c22.925,3.281,92.838,4.212,115.295,0a7.84,7.84,0,0,0,0-8.439c-37.928-3.75-92.229-3.75-115.295,0C2016.848,12434.011,2015.271,12438.582,2017.676,12440.987Z" fill="#efd698"/>
          <path id="Trazado_12687" data-name="Trazado 12687" d="M2353.351,12440.987c21.379,2.454,61.134,4.342,75.387,0a5.821,5.821,0,0,0,0-8.439c-21.191-4.5-52.133-4.125-75.387,0C2348.894,12435.174,2350.445,12438.08,2353.351,12440.987Z" fill="#efd698"/>
          <path id="Trazado_12688" data-name="Trazado 12688" d="M2520.419,12440.987c16.5,3.751,87.524,5.813,108.339,0v-8.439c-20.815-3.236-89.587-3.236-108.339,0C2516.142,12434.986,2516.142,12438.737,2520.419,12440.987Z" fill="#efd698"/>
        </g>
        <g id="Grupo_2461" data-name="Grupo 2461">
          <g id="Grupo_2458" data-name="Grupo 2458">
            <path id="Trazado_12689" data-name="Trazado 12689" d="M2017.676,12377.79c-3.419,14.44-2.988,41.163,0,54.758h114.767c7.18-17.252,4.647-45.944,0-54.758Z" fill="#e1b250"/>
            <path id="Trazado_12690" data-name="Trazado 12690" d="M1825.647,12377.79v54.758H1943.79c6.845-22.6,5.336-42.567,0-54.758Z" fill="#e1b250"/>
            <path id="Trazado_12691" data-name="Trazado 12691" d="M2353.351,12377.79c-4.457,12.752-9,39.006,0,54.758h75.387c4.964-16.127,5.61-43.881,0-54.758Z" fill="#e1b250"/>
            <path id="Trazado_12692" data-name="Trazado 12692" d="M2514.8,12377.79c-4.548,18.753-6.751,40.131,0,54.758h113.956v-54.758Z" fill="#e1b250"/>
          </g>
          <g id="Grupo_2460" data-name="Grupo 2460">
            <g id="Grupo_2459" data-name="Grupo 2459">
              <rect id="Rectángulo_2455" data-name="Rectángulo 2455" width="220.908" height="34.942" transform="translate(2132.443 12224.113)" fill="#b38a49"/>
            </g>
          </g>
        </g>
        <g id="Grupo_2465" data-name="Grupo 2465">
          <g id="Grupo_2462" data-name="Grupo 2462">
            <rect id="Rectángulo_2456" data-name="Rectángulo 2456" width="10.93" height="27.699" transform="translate(2531.392 12335.536)" fill="#fff"/>
            <path id="Trazado_12693" data-name="Trazado 12693" d="M2537.007,12348.112l-3.668-5.54h7.037Z" fill="#528f7d"/>
            <path id="Trazado_12694" data-name="Trazado 12694" d="M2537.007,12350.134l-3.668,5.54h7.037Z" fill="#528f7d"/>
          </g>
          <g id="Grupo_2464" data-name="Grupo 2464">
            <path id="Trazado_12695" data-name="Trazado 12695" d="M2415.86,12300.528v140.459c37.88,3.628,87.2,5.251,106.14,0v-140.459Z" fill="#efd698"/>
            <g id="Grupo_2463" data-name="Grupo 2463">
              <path id="Trazado_12696" data-name="Trazado 12696" d="M2422.048,12440.987v-134.271h46.882c7.126,30.754,5.153,109.893,0,134.271C2454.491,12445.329,2433.862,12444.344,2422.048,12440.987Z" fill="#fff"/>
              <path id="Trazado_12697" data-name="Trazado 12697" d="M2468.93,12306.717h46.882v134.271c-10.35,5.648-35.255,6.472-46.882,0Z" fill="#efefe5"/>
            </g>
          </g>
        </g>
        <g id="Grupo_2467" data-name="Grupo 2467">
          <path id="Trazado_12698" data-name="Trazado 12698" d="M1943.79,12298.278v142.709c16.971,4.12,56.727,6.938,73.886,0v-142.709Z" fill="#efd698"/>
          <path id="Trazado_12699" data-name="Trazado 12699" d="M1949.978,12440.987v-136.521h61.51v136.521C1996.485,12447.55,1964.273,12443.808,1949.978,12440.987Z" fill="#fff"/>
          <g id="Grupo_2466" data-name="Grupo 2466">
            <path id="Trazado_12700" data-name="Trazado 12700" d="M1957.1,12428.235v-5.626c12.19-2.906,38.631-1.98,47.258,0v5.626C1996.86,12431.142,1969.294,12430.43,1957.1,12428.235Z" fill="#efefe5"/>
            <path id="Trazado_12701" data-name="Trazado 12701" d="M1960.667,12416.8H2000.8c4.093,0,3.563,4.5,3.563,5.813H1957.1C1957.1,12421.341,1956.534,12416.8,1960.667,12416.8Z" fill="#efefe5"/>
            <path id="Trazado_12702" data-name="Trazado 12702" d="M1957.1,12428.235h47.258c0,1.268.57,5.813-3.563,5.813h-40.132C1956.574,12434.049,1957.1,12429.548,1957.1,12428.235Z" fill="#efefe5"/>
          </g>
          <rect id="Rectángulo_2457" data-name="Rectángulo 2457" width="9.705" height="79.043" transform="translate(1959.214 12327.813)" fill="#efefe5"/>
        </g>
        <g id="Grupo_2477" data-name="Grupo 2477">
          <g id="Grupo_2469" data-name="Grupo 2469">
            <path id="Trazado_12703" data-name="Trazado 12703" d="M2262.883,12334.484l-1.108,3.961c-.095,3.058,3.027,7.912,6.445,13.057,3.416-5.145,6.539-10,6.444-13.057l-1.107-3.961C2272.046,12333.444,2263.822,12333.376,2262.883,12334.484Z" fill="#ecc39c"/>
            <g id="Grupo_2468" data-name="Grupo 2468">
              <path id="Trazado_12704" data-name="Trazado 12704" d="M2281.663,12322.6c-1.259.247-2.8,2.578-2.025,4.733C2282.72,12328.442,2284.835,12323.76,2281.663,12322.6Z" fill="#ecc39c"/>
              <path id="Trazado_12705" data-name="Trazado 12705" d="M2256.8,12327.335a3.231,3.231,0,0,0-2.268-4.486C2251.361,12324.007,2253.718,12328.442,2256.8,12327.335Z" fill="#ecc39c"/>
            </g>
            <path id="Trazado_12706" data-name="Trazado 12706" d="M2268.22,12301.2c-14.027,0-17.574,15.958-13.687,21.646,3.022,5.978,4.132,10.283,8.35,11.636,2.793,1.1,8.056.943,10.674,0,4.532-1.453,6-6.956,8.106-11.883C2286.456,12317.1,2282.247,12301.2,2268.22,12301.2Z" fill="#edc9a5"/>
            <path id="Trazado_12707" data-name="Trazado 12707" d="M2263.99,12312.985c.492,1.919,1.391,3.835,3.172,4.682l.6-4.682c2.15,7.644,7.058,2.42,10.675,3.775,2.647.993,2.964,3.692,3.222,5.841,6.109-6.578.584-22.054-13.443-22.054-11.675,0-21.815,14.287-12.689,23.413C2257.518,12315.3,2261.875,12317.365,2263.99,12312.985Z" fill="#404040"/>
            <path id="Trazado_12708" data-name="Trazado 12708" d="M2260.717,12298.887l.856,6.092c5.327-1.3,7.6-1.391,13.293,0l.856-6.092C2269.193,12296.758,2267.324,12296.733,2260.717,12298.887Z" fill="#fff"/>
          </g>
          <g id="Grupo_2472" data-name="Grupo 2472">
            <g id="Grupo_2470" data-name="Grupo 2470">
              <path id="Trazado_12709" data-name="Trazado 12709" d="M2257.518,12393.042l2.948,32.375h3.676l3.524-32.375Z" fill="#efefe5"/>
              <path id="Trazado_12710" data-name="Trazado 12710" d="M2256.287,12430.6h11.933C2267.666,12421.943,2256.287,12422.849,2256.287,12430.6Z" fill="#404040"/>
            </g>
            <g id="Grupo_2471" data-name="Grupo 2471">
              <path id="Trazado_12711" data-name="Trazado 12711" d="M2278.921,12393.042l-2.948,32.375H2272.3l-3.524-32.375Z" fill="#efefe5"/>
              <path id="Trazado_12712" data-name="Trazado 12712" d="M2280.153,12430.6H2268.22C2268.773,12421.943,2280.153,12422.849,2280.153,12430.6Z" fill="#404040"/>
            </g>
          </g>
          <g id="Grupo_2476" data-name="Grupo 2476">
            <g id="Grupo_2473" data-name="Grupo 2473">
              <path id="Trazado_12713" data-name="Trazado 12713" d="M2282.528,12373.887c-.983-4.9-2.821-13.957.831-32.083a45,45,0,0,0-6.428-2.586c-.709-.24-8.084,15.69-8.926,15.69s-1.933-2.767-8.489-15.692a46.918,46.918,0,0,0-6.293,2.524,74.5,74.5,0,0,1,.688,32.146l.009,0-.028.073c0,.013-.006.024-.008.037s-.011.014-.014.022l-6.4,16.852c6.117,2.729,14.142,3.873,20.745,3.626,6.6.247,14.628-.9,20.744-3.626l-6.445-16.984Z" fill="#fff"/>
              <path id="Trazado_12714" data-name="Trazado 12714" d="M2274.664,12338.445l-6.444,11.883-6.445-11.883a2.8,2.8,0,0,0-2.763.941c8.864,17.221,8.25,16.27,9.208,16.748.958-.479.343.473,9.207-16.748A3.27,3.27,0,0,0,2274.664,12338.445Z" fill="#efefe5"/>
            </g>
            <g id="Grupo_2474" data-name="Grupo 2474">
              <path id="Trazado_12715" data-name="Trazado 12715" d="M2254.336,12374.454c2.572,3.331,8-3.647,6.249-5.4C2257.857,12366.327,2251.866,12371.254,2254.336,12374.454Z" fill="#ecc39c"/>
              <path id="Trazado_12716" data-name="Trazado 12716" d="M2261.372,12368.924c-3.094,5.671-5.038,5.394-8.251,7.073-1.416.412-2.96,5.749-2.614,6.89C2258.955,12384.029,2261.475,12377.427,2261.372,12368.924Z" fill="#efefe5"/>
              <path id="Trazado_12717" data-name="Trazado 12717" d="M2260.415,12368.572c-8.766-10.42,2.59-11.331-7.192-26.832-4.325.359-6.144,17.542-6.218,18.389-.9,10.3,6.249,14.563,6.906,13.758C2254.894,12368.987,2258.743,12368.378,2260.415,12368.572Z" fill="#efefe5"/>
            </g>
            <g id="Grupo_2475" data-name="Grupo 2475">
              <path id="Trazado_12718" data-name="Trazado 12718" d="M2282.1,12374.454c-2.571,3.331-8-3.647-6.249-5.4C2278.582,12366.327,2284.572,12371.254,2282.1,12374.454Z" fill="#ecc39c"/>
              <path id="Trazado_12719" data-name="Trazado 12719" d="M2275.067,12368.924c3.093,5.671,5.038,5.394,8.251,7.073.947.646,3.061,5.817,2.614,6.89C2277.484,12384.029,2274.963,12377.427,2275.067,12368.924Z" fill="#efefe5"/>
              <path id="Trazado_12720" data-name="Trazado 12720" d="M2276.024,12368.572c8.766-10.42-2.446-11.268,7.335-26.769,4.17.333,6,17.438,6.075,18.325.918,10.558-6.1,14.449-6.906,13.758C2281.545,12368.987,2277.7,12368.378,2276.024,12368.572Z" fill="#efefe5"/>
            </g>
          </g>
        </g>
        <g id="Grupo_2478" data-name="Grupo 2478">
          <path id="Trazado_12721" data-name="Trazado 12721" d="M2132.443,12441.085c51.383,6.136,181.527,5.43,220.908,0v-70c-49.882-4.642-157.9-4.34-220.908,0Z" fill="#b38a49"/>
          <rect id="Rectángulo_2458" data-name="Rectángulo 2458" width="220.908" height="9.283" transform="translate(2132.443 12363.704)" fill="#efd698"/>
        </g>
        <rect id="Rectángulo_2459" data-name="Rectángulo 2459" width="803.111" height="19.83" transform="translate(1825.647 12440.987)" fill="#835b37"/>
      </g>
      <g id="Grupo_2487" data-name="Grupo 2487">
        <g id="Grupo_2485" data-name="Grupo 2485">
          <g id="Grupo_2480" data-name="Grupo 2480">
            <path id="Trazado_12722" data-name="Trazado 12722" d="M2577.466,12377.657c4.8-6.725,15.261-10.462,26.756-10.825,5.078-.167,4.855-.2.028.474-10.574,1.423-20.088,5.664-27.4,13.95.223-1.2.418-2.4.614-3.6Z" fill="#b38a49" fill-rule="evenodd"/>
            <path id="Trazado_12723" data-name="Trazado 12723" d="M2614.6,12370.264c-4.6-.78-5.859,1.7-7.952,1.506a.453.453,0,0,0-.474.169c-1.7,2.482-3.989,2.872-5.133,1.115-.168-.223-.586-.362-.782-.14-2.678,3.572-13.28,2.9-10.155-3.069-4.883-1.674-3.627-5.384,2.009-7.7,7.142-2.929,16.516-1.2,22.626,7.171.7.948.921,1.115-.139.948Z" fill="#7ec0b7" fill-rule="evenodd"/>
          </g>
          <g id="Grupo_2481" data-name="Grupo 2481">
            <path id="Trazado_12724" data-name="Trazado 12724" d="M2575.234,12370.013c4.017-7.422,8.76-15.039,21.622-15.262,2.707-.028,2.288-.028-.083.279-8.761,1.144-15.317,5.858-20.367,16.517.028.726-1-1.256-1.172-1.534Z" fill="#b38a49" fill-rule="evenodd"/>
            <path id="Trazado_12725" data-name="Trazado 12725" d="M2582.544,12361.113c.084-8.789,16.545-12.473,25.333-5.5a.565.565,0,0,1,.112.754c-5.134,8.229-22.879,12.248-25.445,4.743Z" fill="#528f7d" fill-rule="evenodd"/>
          </g>
          <g id="Grupo_2482" data-name="Grupo 2482">
            <path id="Trazado_12726" data-name="Trazado 12726" d="M2551.937,12353.914c1.451,8.873,8.677,14.174,22.851,15.122-1.479-14.062-8.761-19.586-22.46-15.735a.514.514,0,0,0-.391.613Z" fill="#7ec0b7" fill-rule="evenodd"/>
          </g>
          <g id="Grupo_2483" data-name="Grupo 2483">
            <path id="Trazado_12727" data-name="Trazado 12727" d="M2554.309,12372.477c4.994.727,7.589,1.535,9.793,2.707.976.559,1.144.669,1.507,1.7,2.315,6.417,6,8.816,9.625,11.076.363-.921.7-1.842,1.06-2.762-4.994-1.925-6.138-4.492-8.872-8.817a4.977,4.977,0,0,0-2.9-2.4,27.945,27.945,0,0,0-10.211-1.926c-2.539,0-2.344.057,0,.418Z" fill="#b38a49" fill-rule="evenodd"/>
            <path id="Trazado_12728" data-name="Trazado 12728" d="M2543.93,12372.477c3.152,2.232,3.655,5.972,5.691,6.056a.542.542,0,0,1,.447.223c2.009,2.846,4.771,3.208,6.278,1.646a.54.54,0,0,1,.781-.028c3.543,3.236,10.546,1.786,8.956-4.6,3.152-.7,4.91-4.826-.5-6.947-6-2.371-13.225-1.116-21.567,2.679-1.117.5-.949.363-.084.976Z" fill="#528f7d" fill-rule="evenodd"/>
          </g>
          <g id="Grupo_2484" data-name="Grupo 2484">
            <path id="Trazado_12729" data-name="Trazado 12729" d="M2574.788,12366.3c1.618-4.827,5.077-8.454,9.346-11.969,2.149-1.758,1.981-1.535.2.251-4.325,4.269-7.673,8.4-8.511,13.56-.362-.613-.7-1.228-1.031-1.842Z" fill="#b38a49" fill-rule="evenodd"/>
            <path id="Trazado_12730" data-name="Trazado 12730" d="M2578,12359.662c2.734,8.258,22.013.223,19.753-6.557-3.85-11.635-23.6-5.106-19.753,6.557Z" fill="#7ec0b7" fill-rule="evenodd"/>
          </g>
          <path id="Trazado_12731" data-name="Trazado 12731" d="M2570.547,12414.262c.418-9.681.307-19.39,1.227-29.044.53-5.58,2.595-8.509,1.646-14.173a99.363,99.363,0,0,1-.809-24.5,87.443,87.443,0,0,0,5.385,24.161c2.539,6.417-.726,9.654-1.312,16.378-.752,9.039-.25,18.162-.362,27.258l-5.775-.084Z" fill="#b38a49" fill-rule="evenodd"/>
          <path id="Trazado_12732" data-name="Trazado 12732" d="M2573.058,12355.867c7.784-3.265,7.142-13.866-6.864-22.152a.566.566,0,0,0-.865.391c-2.343,19.613,7.729,21.762,7.729,21.762Z" fill="#528f7d" fill-rule="evenodd"/>
        </g>
        <g id="Grupo_2486" data-name="Grupo 2486">
          <path id="Trazado_12733" data-name="Trazado 12733" d="M2563.6,12441.577h22.348a.536.536,0,0,0,.557-.53l1.842-24.553H2561.2l1.842,24.553a.573.573,0,0,0,.558.53Z" fill="#fff" fill-rule="evenodd"/>
          <path id="Trazado_12734" data-name="Trazado 12734" d="M2557.908,12419.256h33.731a.608.608,0,0,0,.586-.585v-5.664a.584.584,0,0,0-.586-.558h-33.731a.559.559,0,0,0-.558.558v5.664a.583.583,0,0,0,.558.585Z" fill="#efefe5" fill-rule="evenodd"/>
          <path id="Trazado_12735" data-name="Trazado 12735" d="M2587.517,12427.688h-25.49l-.277-3.862h26.05Z" fill="#efefe5" fill-rule="evenodd"/>
        </g>
      </g>
      <g id="Grupo_2493" data-name="Grupo 2493">
        <g id="Grupo_2488" data-name="Grupo 2488">
          <path id="Trazado_12736" data-name="Trazado 12736" d="M2388.319,12400.253l-3.718,39.447h-5.06l-4.337-39.138Z" fill="#528f7d"/>
          <path id="Trazado_12737" data-name="Trazado 12737" d="M2377.373,12441.352h15.18c3.8-5.357-6.1-12.62-8.261-2.891C2380.161,12438.874,2377.063,12437.325,2377.373,12441.352Z" fill="#404040"/>
        </g>
        <g id="Grupo_2490" data-name="Grupo 2490">
          <path id="Trazado_12738" data-name="Trazado 12738" d="M2376.754,12344.087c17.141,5.061,16.271,19.816,14.663,35.626-.619,6.093-1.652,21.169-1.859,21.169.31,1.963-14.663,5.68-18.484-1.239,0,0-1.446-21.892-.929-30.463C2371.285,12350.251,2372.11,12353.374,2376.754,12344.087Z" fill="#fff"/>
          <g id="Grupo_2489" data-name="Grupo 2489">
            <path id="Trazado_12739" data-name="Trazado 12739" d="M2379.955,12383.328c8.091,9.959-5.371,15.813-1.962,8.571,1.294-2.752-1.111-6.581-2.065-7.643Z" fill="#edc9a5"/>
            <path id="Trazado_12740" data-name="Trazado 12740" d="M2385.841,12354.1c1.017,4.068-.826,7.538-2.066,10.946-3.53,9.71-2.513,8.225-1.032,18.587a13.108,13.108,0,0,1-7.848,1.962c-2.029-7.675-5.074-15.931.723-31.186C2378.553,12346.688,2384.392,12348.308,2385.841,12354.1Z" fill="#efefe5"/>
          </g>
        </g>
        <g id="Grupo_2492" data-name="Grupo 2492">
          <path id="Trazado_12741" data-name="Trazado 12741" d="M2399.678,12330.25c-3.125,9.659-.924,13.23-5.06,10.223-1.751,1.545-4.61,6.181-6.4,5.061a24.139,24.139,0,0,0-3.511-1.343l-.826,3.924c-1.275-.4-6.759-2.745-7.125-4.027.18-1.081-.814-3.02-1.446-3.924C2363.274,12305.123,2402.711,12308.741,2399.678,12330.25Z" fill="#edc9a5"/>
          <g id="Grupo_2491" data-name="Grupo 2491">
            <path id="Trazado_12742" data-name="Trazado 12742" d="M2374.792,12313.934c-7.525-2.149-3.747-9.842,4.543-12.082,12.3-3.325,13.724,4.417,9.087,6.816C2388.526,12310.01,2376.134,12314.622,2374.792,12313.934Z" fill="#b38a49"/>
            <path id="Trazado_12743" data-name="Trazado 12743" d="M2374.792,12313.934c3.465-4,10.391-6.149,13.63-5.266,17.617,3.446,14.4,19.384,11.256,21.582-4.107-.6-6.268-1.887-9.5-4.957-2.612,7.637-12.572,9.565-9.913,5.576,1.032-1.549.309-4.44-2.272-2.788s-2.375,5.473-1.446,6.093c1.3.864,1.182,3.245-1.239,5.989C2367.666,12334.69,2367.322,12319.028,2374.792,12313.934Z" fill="#b38a49"/>
          </g>
        </g>
      </g>
      <g id="Grupo_2501" data-name="Grupo 2501">
        <g id="Grupo_2496" data-name="Grupo 2496">
          <g id="Grupo_2494" data-name="Grupo 2494">
            <path id="Trazado_12744" data-name="Trazado 12744" d="M2335.071,12401.3l-4.451,37.816h-4.036l-2.271-35.708Z" fill="#404040"/>
            <path id="Trazado_12745" data-name="Trazado 12745" d="M2331.662,12441.4h-6.218c0-2.664-.742-3.415,3.353-3.415C2331.85,12437.983,2331.937,12438.177,2331.662,12441.4Z" fill="#fff"/>
          </g>
          <g id="Grupo_2495" data-name="Grupo 2495">
            <path id="Trazado_12746" data-name="Trazado 12746" d="M2310.386,12401.3l4.45,37.816h4.037l2.271-35.708Z" fill="#404040"/>
            <path id="Trazado_12747" data-name="Trazado 12747" d="M2313.8,12441.4h6.217c0-2.664.742-3.415-3.353-3.415C2313.607,12437.983,2313.52,12438.177,2313.8,12441.4Z" fill="#fff"/>
          </g>
        </g>
        <g id="Grupo_2500" data-name="Grupo 2500">
          <g id="Grupo_2497" data-name="Grupo 2497">
            <path id="Trazado_12748" data-name="Trazado 12748" d="M2304,12388.676c-.211,3.381-.021,7.3,4.52,7.763v-5.916A20.978,20.978,0,0,0,2304,12388.676Z" fill="#edc9a5"/>
            <path id="Trazado_12749" data-name="Trazado 12749" d="M2308.473,12387.008c-.412-35.8-.36-32.411-.938-33.9-4.259,3.583-3.762,7.156-5.437,30.379C2302.28,12388.676,2308.723,12389.97,2308.473,12387.008Z" fill="#b6443e"/>
            <path id="Trazado_12750" data-name="Trazado 12750" d="M2302.1,12383.491c-.4-.131-.616,2.971-.05,4.318s2.223,2.517,6.471,3.184c-.016-1.381-.031-2.706-.046-3.985C2306.9,12387,2303.607,12386.475,2302.1,12383.491Z" fill="#b6443e"/>
          </g>
          <g id="Grupo_2498" data-name="Grupo 2498">
            <path id="Trazado_12751" data-name="Trazado 12751" d="M2340.656,12388.147c.211,3.381.022,7.3-4.52,7.763v-5.917A20.98,20.98,0,0,1,2340.656,12388.147Z" fill="#edc9a5"/>
            <path id="Trazado_12752" data-name="Trazado 12752" d="M2341.932,12383.4c-1.021-22.623-.635-29.534-5.313-30.81-.555.952-.315-3.385-.467,33.813C2337.393,12389.3,2341.932,12387.693,2341.932,12383.4Z" fill="#b6443e"/>
            <path id="Trazado_12753" data-name="Trazado 12753" d="M2341.932,12383.4c-1.572,2.484-4.083,3.4-5.78,3q-.008,1.731-.016,3.586c2.951.1,4.795-.61,5.568-2.105C2342.265,12386.8,2342.351,12383.024,2341.932,12383.4Z" fill="#b6443e"/>
          </g>
          <g id="Grupo_2499" data-name="Grupo 2499">
            <path id="Trazado_12754" data-name="Trazado 12754" d="M2307.949,12396.953c-.543.277-.543,2.735-.414,3.1,7.349,7.866,27.114,4.741,29.343,1.509.194-.254.155-3.347-.353-3.539C2332.066,12401.61,2314.538,12402.886,2307.949,12396.953Z" fill="#ca4a44"/>
            <path id="Trazado_12755" data-name="Trazado 12755" d="M2336.525,12398.52c.118-43.316.3-40.891.094-45.925-13.593-3.776-27.374-.109-29.084.518.1,7.253.4,4.7.414,44.341C2314.538,12403.387,2332.066,12402.11,2336.525,12398.52Z" fill="#ca4a44"/>
          </g>
        </g>
        <path id="Trazado_12756" data-name="Trazado 12756" d="M2338.689,12331.584c-2.419,11.685-.51,32.044-3.208,34.1-4.466,3.408-17.277,4.694-25,.984-4.764-2.291-2.036-3.3-4.45-22.615-.88-7.038-1.5-16.4-.362-21.218C2311.041,12300.143,2344.159,12305.162,2338.689,12331.584Z" fill="#835b37"/>
      </g>
      <g id="Grupo_2509" data-name="Grupo 2509">
        <g id="Grupo_2504" data-name="Grupo 2504">
          <g id="Grupo_2502" data-name="Grupo 2502">
            <path id="Trazado_12757" data-name="Trazado 12757" d="M2200.6,12437.9v3.072c-.062,1.181,6.971.969,7.164-.064v-3.332A11.656,11.656,0,0,0,2200.6,12437.9Z" fill="#404040"/>
            <path id="Trazado_12758" data-name="Trazado 12758" d="M2198.885,12408.235v28.351c2.879,3.033,7.976,2.9,9.718,0v-27.24C2206.1,12407.909,2201.581,12406.971,2198.885,12408.235Z" fill="#e1b250"/>
          </g>
          <g id="Grupo_2503" data-name="Grupo 2503">
            <path id="Trazado_12759" data-name="Trazado 12759" d="M2218.663,12437.9v3.072c.061,1.181-6.971.969-7.164-.064v-3.332A11.657,11.657,0,0,1,2218.663,12437.9Z" fill="#404040"/>
            <path id="Trazado_12760" data-name="Trazado 12760" d="M2220.377,12408.478v28.108c-2.878,3.033-7.975,2.9-9.717,0v-27.21C2211.534,12408.144,2216.719,12406.763,2220.377,12408.478Z" fill="#e1b250"/>
          </g>
        </g>
        <g id="Grupo_2505" data-name="Grupo 2505">
          <path id="Trazado_12761" data-name="Trazado 12761" d="M2203.571,12346.512l.355-3.322c1.258-1.355,9.532-1.064,11.08,0l.371,3.322C2213.463,12349.072,2206.163,12349.549,2203.571,12346.512Z" fill="#ecc39c"/>
          <path id="Trazado_12762" data-name="Trazado 12762" d="M2219.907,12339.118c4.263-1,6.736-21.83,2.987-26.171-5.68-6.577-21.853-7.867-27.582.726-5.941,8.912.92,25.074,2.928,25.074C2204.181,12340.67,2211.327,12341.123,2219.907,12339.118Z" fill="#835b37"/>
          <path id="Trazado_12763" data-name="Trazado 12763" d="M2198.24,12338.747a15.538,15.538,0,0,0,5.686,4.442c2.08.92,9.048,1.161,11.08,0a18.092,18.092,0,0,0,4.9-4.071C2221.006,12337.48,2197.248,12337.044,2198.24,12338.747Z" fill="#edc9a5"/>
        </g>
        <g id="Grupo_2508" data-name="Grupo 2508">
          <path id="Trazado_12764" data-name="Trazado 12764" d="M2203.571,12346.512a13.079,13.079,0,0,0,11.806,0v2.129a9.1,9.1,0,0,1,6.065,1.42c2.319,1.356-.968,20.064,2.188,57.808-4.147,2.908-22.8,2.938-29.092-.517,1.807-5.7,1.7-56.675,1.773-56.716,3.386-2.019,5.25-1.614,7.131-1.736Z" fill="#fff"/>
          <path id="Trazado_12765" data-name="Trazado 12765" d="M2221.442,12350.061c2.774-.968,11.742,19.936,8.452,27.1-.426.927-3.033,1.356-4.645,1.1C2220.107,12377.429,2218.533,12354.338,2221.442,12350.061Z" fill="#efefe5"/>
          <g id="Grupo_2507" data-name="Grupo 2507">
            <g id="Grupo_2506" data-name="Grupo 2506">
              <path id="Trazado_12766" data-name="Trazado 12766" d="M2178.851,12360.118l.825,11.613a2.86,2.86,0,0,0,2.741,0l-1.162-11.613A2.45,2.45,0,0,0,2178.851,12360.118Z" fill="#fff"/>
              <path id="Trazado_12767" data-name="Trazado 12767" d="M2178.369,12331.278l-1.79-3.193,2.273,32.032h2.4Z" fill="#fff"/>
            </g>
            <path id="Trazado_12768" data-name="Trazado 12768" d="M2186,12360.551c-1.577-2.961-.022-4.63-3.224-6.918-3.532-2.522.237,2.394-2.709.92s-3.484-2.265-3.484,6.919c0,1.943,4.119,1.985,6.824,2.471C2184.9,12363.942,2186,12361.424,2186,12360.551Z" fill="#edc9a5"/>
            <path id="Trazado_12769" data-name="Trazado 12769" d="M2196.311,12350.636c-1.127-.607-2.771,3.829-3.368,5.555-1.793,5.173-.921,8.483-6.857,3.031l-4.193,5.484c6.4,7.358,7.871,14.71,16.194,1.936C2200.134,12363.5,2198.858,12353.341,2196.311,12350.636Z" fill="#efefe5"/>
          </g>
        </g>
      </g>
      <g id="Grupo_2514" data-name="Grupo 2514">
        <g id="Grupo_2511" data-name="Grupo 2511">
          <g id="Grupo_2510" data-name="Grupo 2510">
            <path id="Trazado_12770" data-name="Trazado 12770" d="M2139.871,12353.938a9.223,9.223,0,0,1-.023,1.081,6.118,6.118,0,0,1-2.095,4.146c-1.915,1.465-1.938,1.8-1.893,3.673a1.126,1.126,0,0,0,1.127,1.1h9.3a1.141,1.141,0,0,0,1.126-1.1c.045-1.87.023-2.208-1.892-3.673a6.119,6.119,0,0,1-2.1-4.146,10.058,10.058,0,0,1-.045-1.081Z" fill="#fff" fill-rule="evenodd"/>
            <rect id="Rectángulo_2460" data-name="Rectángulo 2460" width="3.583" height="4.213" transform="translate(2139.848 12350.807)" fill="#efefe5"/>
          </g>
          <path id="Trazado_12771" data-name="Trazado 12771" d="M2138.857,12352.384h5.452a.847.847,0,0,0,.834-.834v-46.457a.827.827,0,0,0-.834-.811h-5.452a.827.827,0,0,0-.834.811v46.457a.847.847,0,0,0,.834.834Z" fill="#fff" fill-rule="evenodd"/>
        </g>
        <g id="Grupo_2513" data-name="Grupo 2513">
          <g id="Grupo_2512" data-name="Grupo 2512">
            <path id="Trazado_12772" data-name="Trazado 12772" d="M2149.887,12361.929h1.693l-.172-1.73h-1.287a.23.23,0,0,0-.234.233Z" fill="#efefe5" fill-rule="evenodd"/>
            <path id="Trazado_12773" data-name="Trazado 12773" d="M2151.408,12361.93h1.646l-.125-1.731h-1.52Z" fill="#efefe5" fill-rule="evenodd"/>
            <path id="Trazado_12774" data-name="Trazado 12774" d="M2152.929,12361.93h1.8l-.281-1.731h-1.521Z" fill="#efefe5" fill-rule="evenodd"/>
            <path id="Trazado_12775" data-name="Trazado 12775" d="M2154.45,12361.93h1.794l-.273-1.731h-1.521Z" fill="#efefe5" fill-rule="evenodd"/>
            <path id="Trazado_12776" data-name="Trazado 12776" d="M2155.97,12361.93h1.833l-.3-1.731h-1.529Z" fill="#efefe5" fill-rule="evenodd"/>
            <path id="Trazado_12777" data-name="Trazado 12777" d="M2157.5,12361.93h1.8l-.281-1.731H2157.5Z" fill="#efefe5" fill-rule="evenodd"/>
            <path id="Trazado_12778" data-name="Trazado 12778" d="M2159.02,12361.93h1.731l-.21-1.731h-1.521Z" fill="#efefe5" fill-rule="evenodd"/>
            <path id="Trazado_12779" data-name="Trazado 12779" d="M2160.541,12361.93h1.653l-.133-1.731h-1.521Z" fill="#efefe5" fill-rule="evenodd"/>
            <path id="Trazado_12780" data-name="Trazado 12780" d="M2162.062,12361.929h1.52v-1.5a.229.229,0,0,0-.233-.233h-1.287Z" fill="#efefe5" fill-rule="evenodd"/>
          </g>
          <path id="Trazado_12781" data-name="Trazado 12781" d="M2148.905,12363.942h15.66a.286.286,0,0,0,.281-.281v-1.872a.628.628,0,0,0-.624-.632h-14.974a.628.628,0,0,0-.624.632v1.872a.286.286,0,0,0,.281.281Z" fill="#fff" fill-rule="evenodd"/>
        </g>
      </g>
      <g id="Grupo_2515" data-name="Grupo 2515">
        <path id="Trazado_12782" data-name="Trazado 12782" d="M2100.626,12437.749c0,4.424,5.11,3.523,9.205,3.523,3.7,0,8.75.878,8.75-3.523v-23.693a53.427,53.427,0,0,0-17.955,0Z" fill="#fff"/>
        <path id="Trazado_12783" data-name="Trazado 12783" d="M2118.581,12404.766a60.287,60.287,0,0,0-17.955,0v5.71c4.261,1.79,13.551,1.118,17.955,0Z" fill="#fff"/>
        <path id="Trazado_12784" data-name="Trazado 12784" d="M2118.581,12400.873h-17.955c-1.279.2-1.222,3.893,0,3.893h17.955C2119.6,12404.093,2119.6,12400.873,2118.581,12400.873Z" fill="#efefe5"/>
        <path id="Trazado_12785" data-name="Trazado 12785" d="M2100.626,12410.476c-1.137.683-.76,2.82,0,3.58h17.955c1.079-.76,1.022-3.1,0-3.58Z" fill="#efefe5"/>
      </g>
      <g id="Grupo_2530" data-name="Grupo 2530">
        <g id="Grupo_2517" data-name="Grupo 2517">
          <path id="Trazado_12786" data-name="Trazado 12786" d="M2031.408,12381.771c10.762-2.656,40.14-1.5,49.777,0v38.051h-49.777Z" fill="#fff"/>
          <g id="Grupo_2516" data-name="Grupo 2516">
            <path id="Trazado_12787" data-name="Trazado 12787" d="M2030.183,12440.066v-58.622c0-2.339,2.452-2.363,2.452.114v58.508A1.227,1.227,0,1,1,2030.183,12440.066Z" fill="#b38a49"/>
            <path id="Trazado_12788" data-name="Trazado 12788" d="M2079.959,12440.066v-58.622c0-2.339,2.452-2.363,2.452.114v58.508A1.227,1.227,0,1,1,2079.959,12440.066Z" fill="#b38a49"/>
          </g>
          <rect id="Rectángulo_2461" data-name="Rectángulo 2461" width="53.642" height="9.594" transform="translate(2029.45 12418.216)" fill="#efefe5"/>
        </g>
        <g id="Grupo_2529" data-name="Grupo 2529">
          <g id="Grupo_2521" data-name="Grupo 2521">
            <path id="Trazado_12789" data-name="Trazado 12789" d="M2051.172,12374.459v-2.12c.3-1.128,8.31-.883,10.568-.55l-.021,2.835C2062.309,12382.209,2050.533,12380.556,2051.172,12374.459Z" fill="#ecc39c"/>
            <g id="Grupo_2520" data-name="Grupo 2520">
              <path id="Trazado_12790" data-name="Trazado 12790" d="M2069.714,12355.371c5.009-1.634,1.388,8.516-1.69,5.135C2067.266,12359.409,2068.68,12355.559,2069.714,12355.371Z" fill="#ecc39c"/>
              <path id="Trazado_12791" data-name="Trazado 12791" d="M2041.02,12355.391c-5.009-1.634-1.394,8.72,1.685,5.34C2043.463,12359.633,2042.054,12355.579,2041.02,12355.391Z" fill="#ecc39c"/>
              <path id="Trazado_12792" data-name="Trazado 12792" d="M2041.427,12356.047c2.636,9.274,6.266,17.458,15.205,17.46,9.025,0,11.943-13.312,13.814-20.878C2073.4,12332.171,2038.541,12327.386,2041.427,12356.047Z" fill="#edc9a5"/>
              <g id="Grupo_2519" data-name="Grupo 2519">
                <g id="Grupo_2518" data-name="Grupo 2518">
                  <path id="Trazado_12793" data-name="Trazado 12793" d="M2055.878,12332.172c-21.463.245-18.544,27.5-14.451,23.875,2.706-2.262,7.74-9.256,8.343-13.568-.473,5.033-.656,5.971-1.752,7.89,3.927-1.547,6.5-3.924,8.761-8.677a11.422,11.422,0,0,1-2.2,5.941,11.741,11.741,0,0,0,10.614-2.63c.241,4.053,2,5.838,5.256,7.626C2074.657,12355.472,2072.686,12331.98,2055.878,12332.172Z" fill="#404040"/>
                  <path id="Trazado_12794" data-name="Trazado 12794" d="M2050.419,12364.129h3.271c0,3.308-.518,3.366,2.2,3.366,2.486,0,1.733-.512,1.757-3.366h3.754c.071,5.735,1.4,9.711-4.713,9.711C2049.475,12373.84,2050.233,12367.969,2050.419,12364.129Z" fill="#404040"/>
                </g>
              </g>
            </g>
          </g>
          <g id="Grupo_2523" data-name="Grupo 2523">
            <g id="Grupo_2522" data-name="Grupo 2522">
              <path id="Trazado_12795" data-name="Trazado 12795" d="M2069.762,12375.838c-2.436-.771-5.306-1.718-5.827-1.155l-7.7,11.814-6.929-11.873c-.241-.714-5.576,1.09-6.849,1.565-1.2,6.1-6.469,34.639-2,38.705,6.189,5.636,23.419,5.124,29.57,1.894C2077.741,12412.738,2071.461,12384.663,2069.762,12375.838Z" fill="#404040"/>
              <path id="Trazado_12796" data-name="Trazado 12796" d="M2063.935,12374.683c-.881,0-1.441-.116-2.216-.059-.8,6.1-9.643,4.74-10.547-.165-.573-.052-1.341.166-1.862.165,0,2.231,2.964,9.138,6.929,12.924C2059.649,12383.832,2064.289,12376.189,2063.935,12374.683Z" fill="#fff"/>
            </g>
          </g>
          <g id="Grupo_2526" data-name="Grupo 2526">
            <g id="Grupo_2524" data-name="Grupo 2524">
              <path id="Trazado_12797" data-name="Trazado 12797" d="M2054.526,12402.852l-.15,31.817h-10.212v-31.449A7.72,7.72,0,0,1,2054.526,12402.852Z" fill="#528f7d"/>
              <path id="Trazado_12798" data-name="Trazado 12798" d="M2044.164,12441.347h10.012c.26-3.654.2-7.415-4.506-7.415C2045.215,12433.932,2043.729,12435.413,2044.164,12441.347Z" fill="#404040"/>
            </g>
            <g id="Grupo_2525" data-name="Grupo 2525">
              <path id="Trazado_12799" data-name="Trazado 12799" d="M2058.088,12402.852l.15,31.817h10.213v-31.449A7.721,7.721,0,0,0,2058.088,12402.852Z" fill="#528f7d"/>
              <path id="Trazado_12800" data-name="Trazado 12800" d="M2068.451,12441.347h-10.012c-.26-3.654-.2-7.415,4.506-7.415C2067.4,12433.932,2068.886,12435.413,2068.451,12441.347Z" fill="#404040"/>
            </g>
          </g>
          <g id="Grupo_2527" data-name="Grupo 2527">
            <path id="Trazado_12801" data-name="Trazado 12801" d="M2063.3,12395.752c-4.887.312-6.136,5.343-5.216,7.1,1.116,2.13,8.321.814,9.262-.719C2069.052,12398.8,2066,12395.346,2063.3,12395.752Z" fill="#edc9a5"/>
            <path id="Trazado_12802" data-name="Trazado 12802" d="M2069.762,12375.838c3.795-.229,11.258,16.926,8.8,22.859-.948,2.29-3.938,1.632-11.214,3.436.462-2.62-1.945-5.347-4.046-6.381.346-3.384,8.654-1.327,6.783-5.259C2068.63,12387.434,2067.936,12380.058,2069.762,12375.838Z" fill="#7ec0b7"/>
          </g>
          <g id="Grupo_2528" data-name="Grupo 2528">
            <path id="Trazado_12803" data-name="Trazado 12803" d="M2049.31,12395.752c4.888.312,6.137,5.343,5.216,7.1-1.115,2.13-8.32.814-9.261-.719C2043.562,12398.8,2046.613,12395.346,2049.31,12395.752Z" fill="#edc9a5"/>
            <path id="Trazado_12804" data-name="Trazado 12804" d="M2042.461,12376.189c-3.794-.23-10.866,16.574-8.41,22.508.947,2.29,3.938,1.632,11.214,3.436-.462-2.62,1.945-5.347,4.045-6.381-.346-3.384-8.653-1.327-6.782-5.259C2043.984,12387.434,2044.287,12380.409,2042.461,12376.189Z" fill="#7ec0b7"/>
          </g>
        </g>
      </g>
      <g id="Grupo_2534" data-name="Grupo 2534">
        <g id="Grupo_2532" data-name="Grupo 2532">
          <path id="Trazado_12805" data-name="Trazado 12805" d="M2047.482,12260.066h42.974v-32.508h-42.187Z" fill="#fff"/>
          <g id="Grupo_2531" data-name="Grupo 2531">
            <path id="Trazado_12806" data-name="Trazado 12806" d="M2050.542,12256.913c4.924-4.924,7.845-7.94,10.389-15.361,3.976,1.89,6.838,4.24,13.994,15.361C2066.02,12258.269,2056.188,12258.912,2050.542,12256.913Z" fill="#835b37"/>
            <path id="Trazado_12807" data-name="Trazado 12807" d="M2064.059,12256.913c5.406-10.908,8.905-10.166,12.562-15.944,2.275-3.595,3.6,4.877,11.025,8,0,0,1.961,5.725,1.961,7.475C2089.607,12258.795,2072.257,12259.783,2064.059,12256.913Z" fill="#b38a49"/>
          </g>
          <path id="Trazado_12808" data-name="Trazado 12808" d="M2055.949,12234.025c-3.317,3.316,1.579,7.956,4.293,4.24C2062.256,12235.509,2058.228,12231.746,2055.949,12234.025Z" fill="#e1b250"/>
        </g>
        <g id="Grupo_2533" data-name="Grupo 2533">
          <path id="Trazado_12809" data-name="Trazado 12809" d="M2050.542,12229.9c-.371-3.351-1.961-4.464-5.618-5.789v38.588a7.468,7.468,0,0,0,5.618-5.788Z" fill="#efd698"/>
          <path id="Trazado_12810" data-name="Trazado 12810" d="M2087.646,12229.9v27.011c.687,2.092,1.431,4.251,5.619,5.788v-38.588C2089.183,12225.545,2087.646,12227.665,2087.646,12229.9Z" fill="#efd698"/>
          <path id="Trazado_12811" data-name="Trazado 12811" d="M2087.646,12229.9l5.618-5.788h-48.341l5.618,5.788Z" fill="#efd698"/>
          <path id="Trazado_12812" data-name="Trazado 12812" d="M2050.542,12256.913l-5.618,5.788h48.341l-5.618-5.788Z" fill="#efd698"/>
        </g>
      </g>
      <g id="Grupo_2549" data-name="Grupo 2549">
        <g id="Grupo_2538" data-name="Grupo 2538">
          <path id="Trazado_12813" data-name="Trazado 12813" d="M1904.757,12350.638a8.812,8.812,0,0,0,1.107-4.178c1.953-1.395,6.9-1.361,8.926-.285a10.114,10.114,0,0,0,1.234,4.463c0,2.627-1.361,6.773-5.317,10.92C1908.279,12359.474,1903.417,12353.24,1904.757,12350.638Z" fill="#ecc39c"/>
          <g id="Grupo_2537" data-name="Grupo 2537">
            <g id="Grupo_2536" data-name="Grupo 2536">
              <g id="Grupo_2535" data-name="Grupo 2535">
                <path id="Trazado_12814" data-name="Trazado 12814" d="M1921.136,12326.205c1.259,3.312,3.284,9.343-2.118,15.56-.131,1.784,2.165,2.407,4.191,2.227a2.8,2.8,0,0,1-1.646-3.279,3.772,3.772,0,0,0,3.514,0c-4.465-1.591-1.15-3.946.232-14.679C1924.55,12325.487,1923.212,12325.222,1921.136,12326.205Z" fill="#b38a49"/>
                <path id="Trazado_12815" data-name="Trazado 12815" d="M1901.621,12343.07a2.5,2.5,0,0,0-.542,2.093c-1.091-.509-1.585-1.142-1.134-2.707a8.983,8.983,0,0,1-2.563,1.923,21.923,21.923,0,0,1,.19-3.015,4.55,4.55,0,0,0-2.92,1.187c0-2.3,2.3-2.991.733-6.352C1897.477,12337.519,1901.372,12340.8,1901.621,12343.07Z" fill="#b38a49"/>
                <path id="Trazado_12816" data-name="Trazado 12816" d="M1905.864,12346.46c2.747,3.12,5.849,2.485,8.926-.285,8.031-7.228,11.353-15,7.659-25.163-2.638-7.256-21.358-9.73-24.751,2.089C1893.429,12337.976,1899.088,12341.09,1905.864,12346.46Z" fill="#edc9a5"/>
              </g>
              <path id="Trazado_12817" data-name="Trazado 12817" d="M1897.16,12316.392c1.01-6.955,10.771-9.5,15.509-8.388,14.239,3.345,8.66,11.426,12.629,13.451,5.465,2.789-2.437,10.266-12.857-1.107a10.43,10.43,0,0,0,1.874,5.635c-5.159-.1-9.432-4.147-11.268-6.742-.246,3.371.507,5.539,2.374,8.735-4.288-1.479-5.6-2.343-6.647-4.937a25.77,25.77,0,0,0,.471,17.674C1888.374,12330.41,1890.417,12317,1897.16,12316.392Z" fill="#b38a49"/>
            </g>
            <path id="Trazado_12818" data-name="Trazado 12818" d="M1920.275,12330.547c-1.031-1.075-7.264-1.075-8.339.125a1.462,1.462,0,0,0-.3,1.222,6.317,6.317,0,0,0-3.219,0,1.463,1.463,0,0,0-.3-1.221c-1.078-1.2-7.313-1.2-8.339-.125-.642.67-.558,3.524.1,4.18.893.895,6.991.876,8-.213a2.482,2.482,0,0,0,.509-1.808,5.618,5.618,0,0,1,3.285-.025,2.5,2.5,0,0,0,.508,1.833c1.026,1.106,7.117,1.1,8,.213C1920.833,12334.071,1920.918,12331.217,1920.275,12330.547Zm-12.957,3.451c-.738.8-6.332.752-6.913.171a4.791,4.791,0,0,1-.078-3.1c.722-.754,6.471-.733,7.224.106A4.682,4.682,0,0,1,1907.318,12334Zm12.33.171c-.579.579-6.175.626-6.913-.171a4.674,4.674,0,0,1-.234-2.819c.755-.842,6.507-.855,7.225-.106A4.791,4.791,0,0,1,1919.648,12334.169Z" fill="#404040"/>
          </g>
        </g>
        <g id="Grupo_2541" data-name="Grupo 2541">
          <g id="Grupo_2539" data-name="Grupo 2539">
            <path id="Trazado_12819" data-name="Trazado 12819" d="M1911.213,12402.761l1.077,35.8h8.419l-.19-35.829C1918.873,12401.217,1912.416,12400.837,1911.213,12402.761Z" fill="#ca4a44"/>
            <path id="Trazado_12820" data-name="Trazado 12820" d="M1911.213,12441.35h11.332C1922.942,12433.786,1911.213,12432.678,1911.213,12441.35Z" fill="#404040"/>
          </g>
          <g id="Grupo_2540" data-name="Grupo 2540">
            <path id="Trazado_12821" data-name="Trazado 12821" d="M1909.441,12402.761l-1.076,35.8h-8.42l-.083-35.829C1901.508,12401.216,1908.238,12400.837,1909.441,12402.761Z" fill="#ca4a44"/>
            <path id="Trazado_12822" data-name="Trazado 12822" d="M1909.441,12441.35H1898.11C1897.712,12433.786,1909.441,12432.678,1909.441,12441.35Z" fill="#404040"/>
          </g>
        </g>
        <g id="Grupo_2545" data-name="Grupo 2545">
          <path id="Trazado_12823" data-name="Trazado 12823" d="M1916.024,12350.638l4.685.634c2.336,52.109,3.356,51.376-.19,51.465-2.532.063-18.675,0-20.51,0-5.427,0-6.141-.744-.7-51.338l5.445-.761,5.76,8.609Z" fill="#fff"/>
          <g id="Grupo_2542" data-name="Grupo 2542">
            <path id="Trazado_12824" data-name="Trazado 12824" d="M1919.725,12387.578c-6.011,8.479,4.908,11.265,4.84,2.288A5.5,5.5,0,0,0,1919.725,12387.578Z" fill="#ecc39c"/>
            <path id="Trazado_12825" data-name="Trazado 12825" d="M1920.709,12351.271c5.349-1.329,7.927,20.863,8.324,24.94.348,3.577-3.7,13.642-3.7,13.642-1.2.326-5.489-1.274-6.679-3.607C1923.853,12377.985,1917.069,12356.683,1920.709,12351.271Z" fill="#efefe5"/>
          </g>
          <g id="Grupo_2544" data-name="Grupo 2544">
            <path id="Trazado_12826" data-name="Trazado 12826" d="M1899.312,12351.4c-1.979-.956-4.725,3.852-6.9,7.987-4.691,8.923-3.056,7.48-8.7,1.682a22.434,22.434,0,0,1-3.466,5.46c2.987,4.421,7.816,12.212,11.536,8.4,1.995-2.041,4.33-4.245,5.7-6C1897.944,12368.323,1901.176,12356.353,1899.312,12351.4Z" fill="#efefe5"/>
            <g id="Grupo_2543" data-name="Grupo 2543">
              <path id="Trazado_12827" data-name="Trazado 12827" d="M1883.357,12361.844c-2.371-1.71.076-3.451-1.005-6.015-1.272-3.015-2.109,1.424-3.265,1.456-3.07.253-3.671,7.47.665,7.976l.955.648C1882.1,12365.582,1883.816,12363.295,1883.357,12361.844Z" fill="#ecc39c"/>
              <path id="Trazado_12828" data-name="Trazado 12828" d="M1879.087,12357.285c-5.855-2.247-4.652,11.141.665,7.976C1881.081,12364.349,1881.767,12357.731,1879.087,12357.285Z" fill="#edc9a5"/>
            </g>
          </g>
        </g>
        <g id="Grupo_2548" data-name="Grupo 2548">
          <g id="Grupo_2546" data-name="Grupo 2546">
            <path id="Trazado_12829" data-name="Trazado 12829" d="M1903.874,12364.2l.143-13.459a.935.935,0,0,0-1.153.161l-.129,13.333c-4.25,2.23-4.648,8.832-2.526,14.09l1.056-.427c-2.571-6.375-.3-12.433,2.035-12.453,2.5-.022,4.238,7.127,1.29,11.841l.966.6C1908.319,12373.474,1907.734,12365.843,1903.874,12364.2Z" fill="#528f7d"/>
            <path id="Trazado_12830" data-name="Trazado 12830" d="M1917.084,12364.592h-1.14a103.582,103.582,0,0,1,.431-13.907.777.777,0,0,1,1.123.152C1916.784,12356.7,1917.084,12358.019,1917.084,12364.592Z" fill="#528f7d"/>
          </g>
          <path id="Trazado_12831" data-name="Trazado 12831" d="M1914.663,12364.513c0,3.084,4.241,2.374,4.241.072C1918.9,12361.728,1914.663,12362.2,1914.663,12364.513Z" fill="#404040"/>
          <g id="Grupo_2547" data-name="Grupo 2547">
            <path id="Trazado_12832" data-name="Trazado 12832" d="M1904.319,12375.954c-2.071.224-1.242,3.436.305,3.268C1906.544,12379.015,1905.872,12375.786,1904.319,12375.954Z" fill="#404040"/>
            <path id="Trazado_12833" data-name="Trazado 12833" d="M1899.911,12379.59c1.623,1.308,3.309-1.55,2.1-2.526C1900.5,12375.852,1898.695,12378.61,1899.911,12379.59Z" fill="#404040"/>
          </g>
        </g>
      </g>
      <g id="Grupo_2550" data-name="Grupo 2550">
        <path id="Trazado_12834" data-name="Trazado 12834" d="M1846.843,12224.113H1960.1c0,14.179,2.223,25.51-7.908,25.51H1854.75C1844.289,12249.623,1846.843,12236.95,1846.843,12224.113Z" fill="#fff"/>
        <path id="Trazado_12835" data-name="Trazado 12835" d="M1851.944,12246.3c0,2.042-.406,4.679,2.126,4.679h98.3c2.385,0,2.126-2.21,2.126-4.251s.259-4.252-2.126-4.252h-98.3C1851.82,12242.48,1851.944,12244.364,1851.944,12246.3Z" fill="#efefe5"/>
        <path id="Trazado_12836" data-name="Trazado 12836" d="M1856.485,12229.981c-2.688,0-2.381,5.186,0,5.186h27.353c2.095,0,1.981-5.186,0-5.186Z" fill="#efefe5"/>
      </g>
      <g id="Grupo_2558" data-name="Grupo 2558">
        <g id="Grupo_2557" data-name="Grupo 2557" clip-path="url(#clip-path)">
          <g id="Grupo_2556" data-name="Grupo 2556">
            <g id="Grupo_2554" data-name="Grupo 2554">
              <g id="Grupo_2551" data-name="Grupo 2551">
                <rect id="Rectángulo_2462" data-name="Rectángulo 2462" width="6.48" height="8.004" transform="translate(1847.693 12420.64)" fill="#efefe5"/>
                <rect id="Rectángulo_2463" data-name="Rectángulo 2463" width="6.48" height="8.004" transform="translate(1769.906 12420.64)" fill="#efefe5"/>
              </g>
              <g id="Grupo_2552" data-name="Grupo 2552">
                <path id="Trazado_12837" data-name="Trazado 12837" d="M1858.524,12433.821c-.873,10.679-15.5,9.338-15.5-.636C1843.024,12423.434,1859.509,12421.783,1858.524,12433.821Z" fill="#404040"/>
                <path id="Trazado_12838" data-name="Trazado 12838" d="M1854.7,12433.646c-.437,5.34-7.75,4.669-7.75-.317C1846.947,12428.453,1855.189,12427.627,1854.7,12433.646Z" fill="#fff"/>
              </g>
              <g id="Grupo_2553" data-name="Grupo 2553">
                <path id="Trazado_12839" data-name="Trazado 12839" d="M1780.737,12433.821c-.874,10.679-15.5,9.338-15.5-.636C1765.236,12423.434,1781.721,12421.783,1780.737,12433.821Z" fill="#404040"/>
                <path id="Trazado_12840" data-name="Trazado 12840" d="M1776.91,12433.646c-.438,5.34-7.751,4.669-7.751-.317C1769.159,12428.453,1777.4,12427.627,1776.91,12433.646Z" fill="#fff"/>
              </g>
            </g>
            <g id="Grupo_2555" data-name="Grupo 2555">
              <path id="Trazado_12841" data-name="Trazado 12841" d="M1842.453,12418.733l-79.518-31.128h9.967l79.518,31.128Z" fill="#efefe5"/>
              <path id="Trazado_12842" data-name="Trazado 12842" d="M1783.563,12418.733l79.519-31.128h-9.967l-79.519,31.128Z" fill="#fff"/>
            </g>
            <path id="Trazado_12843" data-name="Trazado 12843" d="M1741.464,12387.827H1881.5s.577-10.991-7.31-10.991H1748.773C1745.311,12376.836,1741.849,12380.839,1741.464,12387.827Z" fill="#404040"/>
            <rect id="Rectángulo_2464" data-name="Rectángulo 2464" width="133.888" height="4.066" transform="translate(1745.051 12417.717)" fill="#fff"/>
          </g>
        </g>
      </g>
    </g>
  </g>
</svg>
